<svg width="16" height="30" viewBox="0 0 16 30" fill="none" xmlns="http://www.w3.org/2000/svg">
<path d="M0.483871 15.978H3.77235V29.5161C3.77235 29.7834 3.98893 30 4.25623 30H9.83197C10.0993 30 10.3158 29.7834 10.3158 29.5161V16.0418H14.0962C14.342 16.0418 14.5488 15.8573 14.5769 15.6132L15.1511 10.6291C15.1668 10.492 15.1234 10.3546 15.0316 10.2518C14.9398 10.1488 14.8084 10.0899 14.6705 10.0899H10.316V6.96561C10.316 6.02381 10.8231 5.54623 11.8234 5.54623C11.9659 5.54623 14.6705 5.54623 14.6705 5.54623C14.9378 5.54623 15.1544 5.32955 15.1544 5.06235V0.487452C15.1544 0.220161 14.9378 0.00358065 14.6705 0.00358065H10.7468C10.7191 0.00222581 10.6576 0 10.5671 0C9.88626 0 7.51984 0.133645 5.65055 1.85332C3.57939 3.759 3.86729 6.04074 3.9361 6.43636V10.0898H0.483871C0.216581 10.0898 0 10.3064 0 10.5736V15.494C0 15.7613 0.216581 15.978 0.483871 15.978Z" fill="white"/>
</svg>
