<svg width="26" height="26" viewBox="0 0 26 26" fill="none" xmlns="http://www.w3.org/2000/svg">
<path d="M12.656 0.440674C5.67749 0.440674 0 6.11817 0 13.0966C0 20.0746 5.67749 25.7526 12.656 25.7526C19.6339 25.7526 25.3119 20.0746 25.3119 13.0966C25.3119 6.11817 19.6349 0.440674 12.656 0.440674ZM15.8034 13.5422H13.7444C13.7444 16.8318 13.7444 20.8811 13.7444 20.8811H10.6933C10.6933 20.8811 10.6933 16.8711 10.6933 13.5422H9.24294V10.9484H10.6933V9.27069C10.6933 8.06912 11.2642 6.19158 13.7724 6.19158L16.0333 6.20024V8.71808C16.0333 8.71808 14.6594 8.71808 14.3923 8.71808C14.1252 8.71808 13.7454 8.85164 13.7454 9.42464V10.9489H16.07L15.8034 13.5422Z" fill="white"/>
</svg>
