<?xml version="1.0" encoding="UTF-8"?>
<svg xmlns="http://www.w3.org/2000/svg" xmlns:xlink="http://www.w3.org/1999/xlink" width="24pt" height="24pt" viewBox="0 0 24 24" version="1.1">
<g id="surface15442019">
<path style=" stroke:none;fill-rule:nonzero;fill:rgb(100%,100%,100%);fill-opacity:1;" d="M 11.5 10.75 L 11.5 13.25 C 11.5 13.664062 11.835938 14 12.25 14 L 17.65625 14 C 17.40625 14.707031 17.027344 15.347656 16.550781 15.902344 L 19.570312 18.515625 C 21.078125 16.765625 22 14.488281 22 12 C 22 11.585938 21.96875 11.15625 21.898438 10.648438 C 21.847656 10.277344 21.53125 10 21.15625 10 L 12.25 10 C 11.835938 10 11.5 10.335938 11.5 10.75 Z M 6.304688 13.878906 C 6.109375 13.289062 6 12.65625 6 12 C 6 11.34375 6.109375 10.710938 6.304688 10.121094 L 3.027344 7.613281 C 2.375 8.9375 2 10.425781 2 12 C 2 13.574219 2.375 15.0625 3.027344 16.386719 Z M 15.433594 16.917969 C 14.453125 17.601562 13.265625 18 12 18 C 9.894531 18 8.042969 16.90625 6.96875 15.261719 L 3.789062 17.695312 C 5.597656 20.292969 8.601562 22 12 22 C 14.484375 22 16.753906 21.085938 18.503906 19.578125 Z M 18.757812 4.648438 C 16.90625 2.941406 14.507812 2 12 2 C 8.601562 2 5.597656 3.707031 3.789062 6.308594 L 6.96875 8.738281 C 8.042969 7.09375 9.894531 6 12 6 C 13.472656 6 14.886719 6.539062 15.988281 7.523438 C 16.285156 7.785156 16.734375 7.773438 17.015625 7.492188 L 18.78125 5.730469 C 18.925781 5.585938 19.003906 5.386719 19 5.183594 C 18.996094 4.980469 18.90625 4.785156 18.757812 4.648438 Z M 18.757812 4.648438 "/>
</g>
</svg>
