<svg width="26" height="26" viewBox="0 0 26 26" fill="none" xmlns="http://www.w3.org/2000/svg">
<path d="M11.6484 8.21492C11.5663 8.16037 11.4822 8.10124 11.394 8.04159C11.1376 7.96308 10.8654 7.9223 10.5865 7.91873H10.5529C9.27127 7.91873 8.14771 8.69412 8.14771 9.5791C8.14771 10.5426 9.11069 11.2956 10.3393 11.2956C11.9599 11.2956 12.7812 10.7358 12.7812 9.63467C12.7812 9.53068 12.7689 9.4226 12.7429 9.31402C12.6333 8.88682 12.2413 8.6202 11.6484 8.21492Z" fill="white"/>
<path d="M10.7404 18.3439C10.7414 18.3439 10.7414 18.3439 10.7414 18.3439C11.0478 18.3439 11.3063 18.2231 11.5066 17.9936C11.8206 17.6358 11.9598 17.0485 11.8772 16.425C11.7319 15.3106 10.9351 14.3828 10.1037 14.3589L10.0705 14.3578C9.77638 14.3578 9.51384 14.4792 9.31452 14.7076C9.00508 15.0608 8.87406 15.6206 8.95512 16.243C9.10092 17.3564 9.91454 18.3184 10.7287 18.3439H10.7404Z" fill="white"/>
<path d="M13.344 0.440674C6.36548 0.440674 0.687988 6.11817 0.687988 13.0966C0.687988 20.0746 6.36548 25.7526 13.344 25.7526C20.3219 25.7526 25.9999 20.0746 25.9999 13.0966C25.9999 6.11817 20.3229 0.440674 13.344 0.440674ZM11.8849 19.2594C11.4068 19.3976 10.8893 19.4674 10.3464 19.4674C9.7418 19.4674 9.16064 19.3981 8.61874 19.261C7.57011 18.9964 6.79523 18.4948 6.43328 17.8484C6.27729 17.569 6.19827 17.2713 6.19827 16.9629C6.19827 16.6453 6.27423 16.3231 6.42411 16.0039C6.99864 14.7794 8.51321 13.9556 10.1909 13.9556C10.2077 13.9556 10.2235 13.9556 10.2388 13.9556C10.1027 13.7155 10.037 13.4667 10.037 13.2052C10.037 13.0752 10.0543 12.9427 10.089 12.8076C8.32918 12.7678 7.0124 11.4791 7.0124 9.77996C7.0124 8.58044 7.97131 7.4115 9.34264 6.93943C9.75301 6.79771 10.1715 6.72532 10.5829 6.72532H14.3462C14.4741 6.72532 14.5878 6.80842 14.6276 6.93026C14.6674 7.05159 14.6235 7.18515 14.52 7.26009L13.6784 7.86928C13.6279 7.90497 13.5672 7.92434 13.5045 7.92434H13.2032C13.5922 8.3908 13.8201 9.05607 13.8201 9.80291C13.8201 10.6272 13.4031 11.4067 12.644 12.0006C12.0578 12.4574 12.0348 12.5833 12.0348 12.8438C12.042 12.987 12.4503 13.4545 12.9009 13.7731C13.9506 14.5154 14.3411 15.2439 14.3411 16.4592C14.3406 17.7291 13.3766 18.8261 11.8849 19.2594ZM20.3836 12.8045C20.3836 12.9677 20.2505 13.1002 20.0879 13.1002H17.9494V15.2398C17.9494 15.4029 17.8163 15.5355 17.6547 15.5355H17.0455C16.8814 15.5355 16.7488 15.4029 16.7488 15.2398V13.1002H14.6118C14.4487 13.1002 14.3161 12.9687 14.3161 12.8045V12.1964C14.3161 12.0332 14.4487 11.8997 14.6118 11.8997H16.7488V9.76212C16.7488 9.59848 16.8814 9.46645 17.0455 9.46645H17.6547C17.8163 9.46645 17.9494 9.59848 17.9494 9.76212V11.8997H20.0874C20.25 11.8997 20.3831 12.0322 20.3831 12.1953V12.8045H20.3836Z" fill="white"/>
</svg>
