<svg width="30" height="30" viewBox="0 0 30 30" fill="none" xmlns="http://www.w3.org/2000/svg">
<path d="M3.852 0.00123596H26.1498C28.2682 0.00123596 30 1.73364 30 3.85204V26.1498C30 28.2676 28.2682 29.9988 26.1498 29.9988H3.852C1.7336 29.9988 0 28.2675 0 26.1498V3.85204C0 1.73364 1.7336 0.00123596 3.852 0.00123596ZM21.8546 3.33294C21.1108 3.33294 20.5041 3.94204 20.5041 4.68544V7.91684C20.5041 8.66053 21.1108 9.26824 21.8546 9.26824H25.2449C25.9875 9.26824 26.5955 8.66053 26.5955 7.91684V4.68544C26.5955 3.94204 25.9875 3.33294 25.2449 3.33294H21.8546ZM26.6084 12.6868H23.9688C24.2191 13.5043 24.3548 14.3664 24.3548 15.2627C24.3548 20.2509 20.1782 24.2967 15.0282 24.2967C9.8795 24.2967 5.7028 20.2509 5.7028 15.2627C5.7028 14.3664 5.8398 13.5043 6.0889 12.6868H3.335V25.36C3.335 26.0163 3.8709 26.5502 4.5266 26.5502H25.4173C26.0736 26.5502 26.6084 26.0163 26.6084 25.36V12.6868ZM15.0283 9.09783C11.7023 9.09783 9.0043 11.7106 9.0043 14.9366C9.0043 18.1593 11.7023 20.7741 15.0283 20.7741C18.3561 20.7741 21.0542 18.1593 21.0542 14.9366C21.0542 11.7105 18.3561 9.09783 15.0283 9.09783Z" fill="white"/>
</svg>
