<svg width="20" height="30" viewBox="0 0 20 30" fill="none" xmlns="http://www.w3.org/2000/svg">
<path d="M8.52333 21.1311C6.19763 20.8885 4.10067 20.3157 2.30534 18.9116C2.08257 18.7369 1.85258 18.5685 1.64929 18.3733C0.86348 17.6186 0.784302 16.7543 1.4061 15.8635C1.93804 15.1013 2.83099 14.8974 3.75914 15.335C3.93886 15.4199 4.1101 15.5258 4.27411 15.6395C7.62001 17.9385 12.2164 18.002 15.5749 15.7429C15.9076 15.4877 16.2633 15.2797 16.6755 15.1735C17.477 14.9677 18.2245 15.2622 18.6547 15.9634C19.1461 16.7643 19.1398 17.5461 18.5343 18.1679C17.6056 19.1211 16.4886 19.8108 15.2475 20.2922C14.074 20.7471 12.7886 20.9762 11.5164 21.1282C11.7084 21.3372 11.7989 21.4399 11.9189 21.5606C13.6463 23.2962 15.3813 25.0246 17.1032 26.7656C17.6898 27.3588 17.8123 28.0943 17.4893 28.7843C17.1361 29.5384 16.3456 30.0345 15.5705 29.9814C15.0794 29.9475 14.6964 29.703 14.3561 29.3602C13.0525 28.0485 11.7244 26.7609 10.4472 25.4243C10.0755 25.0356 9.89669 25.1091 9.56867 25.4466C8.2572 26.7967 6.92437 28.1261 5.58369 29.4479C4.98168 30.0414 4.26531 30.1483 3.56716 29.8092C2.82502 29.4495 2.35278 28.6919 2.38923 27.9306C2.41436 27.4157 2.66761 27.0223 3.02108 26.6694C4.73064 24.9624 6.43548 23.251 8.14095 21.5411C8.25375 21.4274 8.359 21.3067 8.52333 21.1311Z" fill="white"/>
<path d="M9.93991 15.1848C5.79092 15.1707 2.38878 11.7312 2.41297 7.57558C2.43685 3.37412 5.84119 -0.0116871 10.031 -6.1705e-05C14.2294 0.0112494 17.5991 3.44576 17.5781 7.69089C17.5567 11.838 14.131 15.1993 9.93991 15.1848ZM13.7106 7.58564C13.7034 5.52229 12.0601 3.87966 10.0009 3.87778C7.92433 3.87558 6.2663 5.54806 6.28233 7.63025C6.29772 9.68574 7.95512 11.3167 10.02 11.3092C12.0787 11.302 13.7175 9.64866 13.7106 7.58564Z" fill="white"/>
</svg>
