<svg width="30" height="26" viewBox="0 0 30 26" fill="none" xmlns="http://www.w3.org/2000/svg">
<path d="M29.3199 3.55374C28.8486 3.76277 28.3641 3.93919 27.869 4.08242C28.4552 3.41952 28.9021 2.63952 29.1749 1.78597C29.236 1.59465 29.1726 1.38523 29.0154 1.2601C28.8583 1.13487 28.6401 1.11987 28.4672 1.22236C27.4157 1.84597 26.2813 2.29413 25.0919 2.5562C23.8937 1.38542 22.2664 0.719131 20.584 0.719131C17.0329 0.719131 14.1438 3.60813 14.1438 7.15916C14.1438 7.43884 14.1615 7.71697 14.1966 7.99122C9.78994 7.60432 5.6932 5.43842 2.87997 1.98755C2.77971 1.86455 2.62526 1.79826 2.46713 1.81094C2.30891 1.82332 2.16674 1.91255 2.08681 2.04968C1.51623 3.02874 1.21458 4.14852 1.21458 5.28784C1.21458 6.83961 1.76862 8.31193 2.74729 9.46238C2.44971 9.35932 2.16094 9.23051 1.88532 9.07751C1.73736 8.99516 1.55678 8.99642 1.40978 9.08071C1.26268 9.165 1.17045 9.32003 1.16658 9.48948C1.16591 9.51803 1.16591 9.54658 1.16591 9.57551C1.16591 11.8918 2.41255 13.9772 4.31852 15.1138C4.15478 15.0974 3.99113 15.0737 3.82855 15.0427C3.66094 15.0106 3.48858 15.0694 3.37555 15.1972C3.26232 15.325 3.22487 15.503 3.27703 15.6656C3.98252 17.8682 5.79887 19.4883 7.99468 19.9822C6.17349 21.1229 4.09081 21.7204 1.90449 21.7204C1.44829 21.7204 0.989486 21.6936 0.540454 21.6404C0.317389 21.6139 0.104099 21.7456 0.0281312 21.9578C-0.0478365 22.17 0.0326796 22.4066 0.222454 22.5282C3.03113 24.3291 6.27878 25.281 9.6141 25.281C16.1709 25.281 20.2727 22.1891 22.559 19.5952C25.41 16.3609 27.0451 12.0799 27.0451 7.85003C27.0451 7.67332 27.0424 7.49487 27.0369 7.317C28.1617 6.46955 29.1302 5.44393 29.9182 4.26513C30.0379 4.0861 30.0249 3.84948 29.8863 3.68468C29.7478 3.51977 29.517 3.46645 29.3199 3.55374Z" fill="white"/>
</svg>
