<svg width="30" height="18" viewBox="0 0 30 18" fill="none" xmlns="http://www.w3.org/2000/svg">
<path fill-rule="evenodd" clip-rule="evenodd" d="M25.8193 11.306C26.8144 12.2776 27.8647 13.1917 28.7573 14.2612C29.1515 14.7365 29.5248 15.227 29.8104 15.7786C30.215 16.5627 29.8485 17.4256 29.1454 17.4724L24.775 17.4704C23.6477 17.5639 22.7485 17.1101 21.9924 16.3394C21.3873 15.7231 20.8269 15.0671 20.2451 14.43C20.0066 14.1696 19.7569 13.9245 19.4586 13.7309C18.862 13.3436 18.3441 13.4622 18.0032 14.0844C17.6559 14.7173 17.5772 15.4181 17.5431 16.1235C17.4962 17.1526 17.1852 17.4232 16.1514 17.4703C13.9421 17.5745 11.8454 17.2402 9.89757 16.1257C8.18033 15.1432 6.84868 13.7562 5.68962 12.1859C3.43292 9.12824 1.70474 5.76837 0.15151 2.31437C-0.198109 1.53618 0.0575753 1.11845 0.916197 1.10367C2.34198 1.07597 3.76756 1.07794 5.19501 1.10169C5.77449 1.11017 6.15811 1.44254 6.38186 1.98998C7.15325 3.88672 8.09713 5.69129 9.28192 7.36398C9.59743 7.80931 9.91915 8.25464 10.3773 8.56808C10.8841 8.91514 11.27 8.80011 11.5085 8.23552C11.6598 7.87752 11.726 7.49192 11.7601 7.1085C11.8731 5.78937 11.8879 4.47251 11.6898 3.15801C11.5682 2.33763 11.1061 1.80655 10.2875 1.65131C9.86977 1.57216 9.93197 1.41672 10.1342 1.17828C10.4855 0.767058 10.8159 0.511078 11.4746 0.511078H16.4139C17.1915 0.664547 17.3642 1.01387 17.4706 1.7963L17.4748 7.28286C17.4664 7.58576 17.6261 8.4846 18.1717 8.68508C18.6084 8.82781 18.8962 8.47849 19.1582 8.20161C20.3408 6.94645 21.1848 5.46311 21.9389 3.92713C22.2735 3.25175 22.5612 2.55034 22.8401 1.84953C23.0467 1.32948 23.3709 1.0736 23.9566 1.08494L28.7105 1.08918C28.8514 1.08918 28.994 1.09125 29.1306 1.11461C29.9316 1.25112 30.1511 1.59571 29.9037 2.37795C29.5139 3.60521 28.7554 4.62795 28.0138 5.65541C27.221 6.75237 26.3731 7.81178 25.587 8.91524C24.8646 9.92289 24.922 10.4308 25.8193 11.306Z" fill="white"/>
</svg>
