<svg width="27" height="26" viewBox="0 0 27 26" fill="none" xmlns="http://www.w3.org/2000/svg">
<path d="M13.5 0.440674C6.5105 0.440674 0.843994 6.10692 0.843994 13.0966C0.843994 20.0864 6.5105 25.7526 13.5 25.7526C20.4894 25.7526 26.1559 20.0864 26.1559 13.0966C26.1559 6.10692 20.4894 0.440674 13.5 0.440674ZM19.9197 14.4654C20.5096 15.0416 21.1337 15.5838 21.6632 16.2195C21.8978 16.5007 22.119 16.7915 22.2873 17.1186C22.5276 17.5849 22.3106 18.0964 21.8932 18.1241L19.3003 18.1235C18.6307 18.179 18.0978 17.9089 17.6485 17.4511C17.2899 17.0862 16.9571 16.6965 16.6117 16.3192C16.4706 16.1644 16.3219 16.0186 16.1448 15.9039C15.7914 15.6739 15.4843 15.7444 15.2818 16.1136C15.0754 16.4893 15.0283 16.9057 15.0086 17.3239C14.9803 17.9353 14.796 18.0951 14.1825 18.1238C12.8718 18.1852 11.628 17.9863 10.4721 17.3255C9.45238 16.7426 8.66311 15.9199 7.97535 14.9885C6.63609 13.1728 5.6104 11.1799 4.68882 9.12985C4.4814 8.66815 4.63314 8.42112 5.14249 8.41153C5.98872 8.39522 6.83496 8.39729 7.68119 8.41076C8.02559 8.4162 8.25346 8.61325 8.38578 8.93823C8.84308 10.0633 9.4037 11.1338 10.1062 12.1266C10.2934 12.391 10.4845 12.6546 10.7567 12.8413C11.0571 13.0474 11.286 12.9793 11.4276 12.644C11.5182 12.4309 11.5573 12.203 11.577 11.9746C11.6444 11.1924 11.6524 10.4103 11.5359 9.63117C11.4634 9.14357 11.1891 8.8287 10.7031 8.73651C10.4555 8.68964 10.4918 8.59798 10.6122 8.45659C10.8212 8.21215 11.0169 8.06092 11.4082 8.06092L14.3376 8.0604C14.7993 8.15104 14.9029 8.35819 14.9656 8.82326L14.9682 12.0787C14.9627 12.2587 15.0585 12.7921 15.3817 12.9099C15.6407 12.9954 15.8116 12.7877 15.9664 12.6238C16.6689 11.8783 17.1695 10.9984 17.6177 10.0877C17.8155 9.68606 17.9862 9.27046 18.1519 8.85407C18.2752 8.54619 18.4668 8.3947 18.8143 8.39988L21.6352 8.40325C21.7184 8.40325 21.8028 8.40403 21.8851 8.41827C22.3606 8.49958 22.4908 8.70414 22.3437 9.16791C22.1122 9.89659 21.6624 10.5036 21.2227 11.1121C20.7515 11.7636 20.2489 12.3923 19.7822 13.0467C19.3534 13.6448 19.3873 13.946 19.9197 14.4654Z" fill="white"/>
</svg>
