<svg width="22" height="22" viewBox="0 0 22 22" fill="none" xmlns="http://www.w3.org/2000/svg">
<path d="M9.94791 11.0034L0.209782 20.8095C-0.0607602 21.082 -0.0607602 21.5233 0.209782 21.7958C0.344881 21.9322 0.522263 22 0.699301 22C0.876683 22 1.05372 21.9322 1.18882 21.7958L11.0002 11.9159L20.8115 21.7958C20.947 21.9322 21.124 22 21.301 22C21.4781 22 21.6555 21.9322 21.7906 21.7958C22.0611 21.5233 22.0611 21.082 21.7906 20.8095L12.0528 11.0034L21.7971 1.19029C22.0676 0.917857 22.0676 0.476496 21.7971 0.204064C21.5266 -0.0680214 21.0883 -0.0680214 20.8181 0.204064L11.0005 10.0909L1.18194 0.20441C0.911403 -0.0676753 0.473448 -0.0676753 0.202906 0.20441C-0.0676354 0.476842 -0.0676354 0.918203 0.202906 1.19063L9.94791 11.0034Z" fill="white"/>
</svg>
