<svg width="25" height="25" viewBox="0 0 25 25" fill="none" xmlns="http://www.w3.org/2000/svg">
<path d="M24.6346 11.4654C24.3593 11.3898 24.1257 11.5591 24.0318 11.8074C23.8705 12.2336 23.2639 12.4886 22.825 12.5457C22.164 12.6319 21.5199 12.3427 20.936 12.0721C20.2432 11.7511 19.5292 11.4448 18.7504 11.4513C17.9667 11.4579 17.2017 11.7707 16.5634 12.2104C15.845 12.7053 15.2679 13.3511 14.7032 14.0085C14.5309 14.209 14.506 14.5038 14.7032 14.7009C14.8795 14.8771 15.2231 14.9024 15.3962 14.7009C16.303 13.6452 17.498 12.2527 19.0565 12.4444C19.7923 12.5349 20.4514 12.9451 21.1268 13.219C21.821 13.5005 22.5825 13.6335 23.3183 13.4403C24.0476 13.2488 24.7048 12.7866 24.9768 12.0676C25.0705 11.8203 24.8729 11.5309 24.6346 11.4654Z" fill="#FF4657"/>
<path d="M10.0847 6.29435C10.548 5.65328 11.0419 4.96854 11.1829 4.17205C11.3197 3.39942 11.1196 2.62132 10.6888 1.97078C10.1919 1.22054 9.47076 0.680635 8.75891 0.148927C8.54675 -0.00951247 8.21135 0.114537 8.08841 0.324537C7.94202 0.574586 8.05159 0.835562 8.26423 0.994391C9.35953 1.81249 10.7292 2.95074 10.0705 4.4741C9.48551 5.82698 7.96346 6.91518 8.15374 8.53782C8.24544 9.31967 8.70983 10.0266 9.50104 10.2355C10.1115 10.3966 10.3718 9.45236 9.76163 9.29123C9.26725 9.16075 9.07199 8.62118 9.12482 8.14801C9.20163 7.46099 9.69083 6.83938 10.0847 6.29435Z" fill="#FF4657"/>
<path d="M17.1201 7.48365C17.0406 6.83282 16.6719 6.24336 16.1209 5.88531C15.8138 5.68584 15.4798 5.58087 15.141 5.55399C15.3085 5.00214 15.6222 4.49506 16.0807 4.14409C16.2905 3.98355 16.402 3.72262 16.2566 3.47423C16.1358 3.26799 15.7975 3.13677 15.5861 3.29857C14.8037 3.8974 14.2812 4.75628 14.094 5.70575C13.4544 5.93819 12.8855 6.4076 12.5576 6.99067C11.6765 8.55775 12.2333 10.3897 13.1198 11.8143C13.4522 12.3483 14.3005 11.8573 13.9662 11.3201C13.3879 10.3909 12.9005 9.27687 13.1529 8.16151C13.2755 7.62024 13.5863 7.11292 14.0303 6.81248C14.073 7.34975 14.2241 7.88024 14.487 8.35126C14.8518 9.00502 15.5444 9.54775 16.3096 9.18219C16.9274 8.88712 17.1988 8.12804 17.1201 7.48365ZM16.0293 8.15882C15.7625 8.53907 15.4823 8.12443 15.3333 7.85697C15.1305 7.49282 15.0207 7.07765 15.0012 6.66336C14.9992 6.62043 14.9989 6.57721 14.9986 6.53394C15.0228 6.53492 15.047 6.53599 15.0714 6.53804C15.7896 6.59828 16.4868 7.50663 16.0293 8.15882Z" fill="#FF4657"/>
<path d="M19.1101 8.82031C18.4795 8.82031 18.4784 9.79953 19.1101 9.79953C19.7408 9.79948 19.7418 8.82031 19.1101 8.82031Z" fill="#FF4657"/>
<path d="M19.7214 7.40381C19.0908 7.40381 19.0897 8.38303 19.7214 8.38303C20.3521 8.38303 20.3532 7.40381 19.7214 7.40381Z" fill="#FF4657"/>
<path d="M20.6804 8.65283C20.0498 8.65283 20.0487 9.63205 20.6804 9.63205C21.3111 9.63205 21.3121 8.65283 20.6804 8.65283Z" fill="#FF4657"/>
<path d="M4.37769 4.64648C3.74704 4.64648 3.74596 5.62571 4.37769 5.62571C5.0084 5.62571 5.00942 4.64648 4.37769 4.64648Z" fill="#FF4657"/>
<path d="M4.989 3.22998C4.35835 3.22998 4.35732 4.2092 4.989 4.2092C5.61971 4.20915 5.62078 3.22998 4.989 3.22998Z" fill="#FF4657"/>
<path d="M5.94603 4.479C5.31538 4.479 5.31435 5.45823 5.94603 5.45823C6.57669 5.45823 6.57772 4.479 5.94603 4.479Z" fill="#FF4657"/>
<path d="M13.8347 16.9226L7.3266 10.4207C7.21518 10.3095 7.05702 10.2584 6.90141 10.2837C6.7459 10.309 6.61196 10.4074 6.5416 10.5482L5.95645 11.7189L0.051633 23.5339C-0.0425555 23.7223 -0.00554415 23.9498 0.143575 24.0988C0.237617 24.1928 0.363006 24.2422 0.490202 24.2422C0.564518 24.2422 0.639419 24.2253 0.70895 24.1906L13.7071 17.7068C13.8481 17.6366 13.9466 17.5028 13.9719 17.3474C13.9972 17.192 13.9462 17.034 13.8347 16.9226ZM1.58409 22.6596L3.70203 18.4219L4.41711 21.2465L1.58409 22.6596ZM9.67179 18.6253L8.83733 16.5935C8.73454 16.3434 8.44837 16.2238 8.19793 16.3264C7.94754 16.429 7.82782 16.715 7.93055 16.9652L8.7925 19.0639L5.31476 20.7986L4.37307 17.079L6.35147 13.1204L6.89584 14.4459C6.97363 14.6352 7.15654 14.7498 7.3494 14.7498C7.41137 14.7498 7.47435 14.738 7.53524 14.713C7.78563 14.6104 7.90536 14.3244 7.80262 14.0743L6.93305 11.9569L7.11459 11.5938L12.6606 17.1345L9.67179 18.6253Z" fill="#FF4657"/>
<path d="M22.9789 15.8965C21.8856 15.8965 20.9961 16.7851 20.9961 17.8774C20.9961 18.97 21.8856 19.8588 22.9789 19.8588C24.0726 19.8588 24.9623 18.97 24.9623 17.8774C24.9623 16.7851 24.0726 15.8965 22.9789 15.8965ZM22.9789 18.8796C22.4261 18.8796 21.9763 18.43 21.9763 17.8774C21.9763 17.3251 22.4261 16.8757 22.9789 16.8757C23.5321 16.8757 23.9821 17.3251 23.9821 17.8774C23.9821 18.43 23.5321 18.8796 22.9789 18.8796Z" fill="#FF4657"/>
<path d="M22.452 2.11259L20.481 0.143415C20.389 0.0516098 20.2644 0 20.1344 0C20.0044 0 19.8798 0.0516098 19.7879 0.143464L17.8173 2.11264C17.626 2.30381 17.626 2.61381 17.8173 2.80503L19.7879 4.77371C19.8836 4.86932 20.0091 4.91713 20.1344 4.91713C20.2598 4.91713 20.3853 4.86932 20.4809 4.77376L22.452 2.80508C22.544 2.71327 22.5956 2.58874 22.5956 2.45883C22.5956 2.32898 22.5439 2.20444 22.452 2.11259ZM20.1345 3.73518L18.857 2.45878L20.1345 1.1821L21.4125 2.45878L20.1345 3.73518Z" fill="#FF4657"/>
<path d="M7.82299 15.0425C7.19233 15.0425 7.1913 16.0217 7.82299 16.0217C8.45364 16.0217 8.45467 15.0425 7.82299 15.0425Z" fill="#FF4657"/>
</svg>
