<svg width="25" height="25" viewBox="0 0 25 25" fill="none" xmlns="http://www.w3.org/2000/svg">
<path d="M2.58853 18.0582L8.85531 24.5076C9.15693 24.8223 9.57387 25.0003 10.0099 25.0003C10.4459 25.0003 10.8628 24.8223 11.1645 24.5076L17.4379 18.0574C18.0631 17.4031 18.0631 16.3735 17.4379 15.7193L15.9307 14.1676H21.6624C22.5837 14.1676 23.3305 13.4214 23.3305 12.5008V3.33371C23.3305 2.41318 22.5837 1.66699 21.6624 1.66699H12.4876C11.5663 1.66699 10.8195 2.41318 10.8195 3.33371V9.0049C10.1846 8.62017 9.36693 8.73004 8.85607 9.2687L2.59063 15.7172C1.9576 16.3689 1.95664 17.4052 2.58853 18.0582ZM11.6536 3.33371C11.6536 2.87345 12.027 2.50035 12.4876 2.50035H21.6624C22.1231 2.50035 22.4965 2.87345 22.4965 3.33371V12.5008C22.4965 12.9611 22.1231 13.3342 21.6624 13.3342H12.4876C12.027 13.3342 11.6536 12.9611 11.6536 12.5008V3.33371ZM3.18778 16.2997L9.45551 9.84856C9.60231 9.70092 9.80219 9.61776 10.0107 9.61776C10.2191 9.61776 10.419 9.70092 10.566 9.84856L10.8195 10.1108V12.5008C10.8195 13.4214 11.5663 14.1676 12.4876 14.1676H14.7689L16.8391 16.3003C17.1537 16.6297 17.1537 17.1479 16.8391 17.4773L10.5656 23.9285C10.4188 24.0765 10.2189 24.1599 10.0103 24.1599C9.8018 24.1599 9.60174 24.0765 9.45493 23.9285L3.18778 17.477C2.86954 17.1489 2.86954 16.6278 3.18778 16.2997Z" fill="#FF4657"/>
<path d="M7.50194 15.9308C8.00764 15.9304 8.46352 15.626 8.65709 15.1591C8.85067 14.6923 8.74376 14.155 8.38639 13.7973C7.98607 13.397 7.3664 13.3151 6.87597 13.598C6.38534 13.8809 6.14614 14.4579 6.29276 15.0044C6.43937 15.551 6.93534 15.9312 7.50194 15.9308ZM7.20699 14.3865C7.36983 14.2238 7.63385 14.2238 7.79669 14.3865C7.95915 14.5493 7.95915 14.8127 7.79669 14.9754C7.69208 15.0837 7.53687 15.127 7.39121 15.0889C7.24536 15.0509 7.13139 14.937 7.09321 14.7913C7.05503 14.6458 7.09856 14.4907 7.20699 14.3862V14.3865Z" fill="#FF4657"/>
<path d="M8.93294 17.828C9.42261 18.3094 10.2093 18.3062 10.695 17.8207C11.1806 17.3353 11.1837 16.5492 10.7018 16.06C10.2068 15.5881 9.42795 15.5881 8.93294 16.06C8.69813 16.2944 8.56641 16.6124 8.56641 16.9441C8.56641 17.2756 8.69813 17.5936 8.93294 17.828ZM9.52245 16.6496C9.68548 16.4871 9.94931 16.4871 10.1121 16.6496C10.1906 16.7278 10.2345 16.8338 10.2345 16.9445C10.2345 17.0551 10.1906 17.1611 10.1121 17.2393C9.94721 17.3967 9.68758 17.3967 9.52245 17.2393C9.44418 17.1611 9.40027 17.0551 9.40027 16.9445C9.40027 16.8338 9.44418 16.7278 9.52245 16.6496Z" fill="#FF4657"/>
<path d="M11.2298 20.0932C11.546 20.4089 12.0066 20.5323 12.4384 20.4167C12.8702 20.3011 13.2074 19.9641 13.3231 19.5326C13.4388 19.1013 13.3154 18.6409 12.9993 18.3252C12.5106 17.8369 11.7183 17.8369 11.2298 18.3252C10.7411 18.8133 10.7411 19.6049 11.2298 20.0932ZM11.8199 18.9148C11.9827 18.7521 12.2468 18.7521 12.4096 18.9148C12.5289 19.0338 12.5646 19.2131 12.5001 19.3688C12.4356 19.5246 12.2834 19.6261 12.1148 19.6261C11.9461 19.6261 11.7939 19.5246 11.7294 19.3688C11.6649 19.2131 11.7006 19.0338 11.8199 18.9148Z" fill="#FF4657"/>
<path d="M14.9914 5.83308C15.6823 5.83308 16.2424 5.27344 16.2424 4.58314C16.2424 3.89265 15.6823 3.33301 14.9914 3.33301C14.3003 3.33301 13.7402 3.89265 13.7402 4.58314C13.7402 5.27344 14.3003 5.83308 14.9914 5.83308ZM14.9914 4.16637C15.2216 4.16637 15.4083 4.35291 15.4083 4.58314C15.4083 4.81318 15.2216 4.99973 14.9914 4.99973C14.761 4.99973 14.5743 4.81318 14.5743 4.58314C14.5743 4.35291 14.761 4.16637 14.9914 4.16637Z" fill="#FF4657"/>
<path d="M14.9914 9.16707C15.6823 9.16707 16.2424 8.60743 16.2424 7.91693C16.2424 7.22663 15.6823 6.66699 14.9914 6.66699C14.3003 6.66699 13.7402 7.22663 13.7402 7.91693C13.7402 8.60743 14.3003 9.16707 14.9914 9.16707ZM14.9914 7.50035C15.2216 7.50035 15.4083 7.6869 15.4083 7.91693C15.4083 8.14716 15.2216 8.33371 14.9914 8.33371C14.761 8.33371 14.5743 8.14716 14.5743 7.91693C14.5743 7.6869 14.761 7.50035 14.9914 7.50035Z" fill="#FF4657"/>
<path d="M14.9914 12.5011C15.6823 12.5011 16.2424 11.9414 16.2424 11.2509C16.2424 10.5606 15.6823 10.001 14.9914 10.001C14.3003 10.001 13.7402 10.5606 13.7402 11.2509C13.7402 11.9414 14.3003 12.5011 14.9914 12.5011ZM14.9914 10.8343C15.2216 10.8343 15.4083 11.0209 15.4083 11.2509C15.4083 11.4811 15.2216 11.6677 14.9914 11.6677C14.761 11.6677 14.5743 11.4811 14.5743 11.2509C14.5743 11.0209 14.761 10.8343 14.9914 10.8343Z" fill="#FF4657"/>
<path d="M19.1613 5.83308C19.8522 5.83308 20.4125 5.27344 20.4125 4.58314C20.4125 3.89265 19.8522 3.33301 19.1613 3.33301C18.4703 3.33301 17.9102 3.89265 17.9102 4.58314C17.9102 5.27344 18.4703 5.83308 19.1613 5.83308ZM19.1613 4.16637C19.3916 4.16637 19.5783 4.35291 19.5783 4.58314C19.5783 4.81318 19.3916 4.99973 19.1613 4.99973C18.9309 4.99973 18.7442 4.81318 18.7442 4.58314C18.7442 4.35291 18.9309 4.16637 19.1613 4.16637Z" fill="#FF4657"/>
<path d="M19.1613 9.16707C19.8522 9.16707 20.4125 8.60743 20.4125 7.91693C20.4125 7.22663 19.8522 6.66699 19.1613 6.66699C18.4703 6.66699 17.9102 7.22663 17.9102 7.91693C17.9102 8.60743 18.4703 9.16707 19.1613 9.16707ZM19.1613 7.50035C19.3916 7.50035 19.5783 7.6869 19.5783 7.91693C19.5783 8.14716 19.3916 8.33371 19.1613 8.33371C18.9309 8.33371 18.7442 8.14716 18.7442 7.91693C18.7442 7.6869 18.9309 7.50035 19.1613 7.50035Z" fill="#FF4657"/>
<path d="M19.1613 12.5011C19.8522 12.5011 20.4125 11.9414 20.4125 11.2509C20.4125 10.5606 19.8522 10.001 19.1613 10.001C18.4703 10.001 17.9102 10.5606 17.9102 11.2509C17.9102 11.9414 18.4703 12.5011 19.1613 12.5011ZM19.1613 10.8343C19.3916 10.8343 19.5783 11.0209 19.5783 11.2509C19.5783 11.4811 19.3916 11.6677 19.1613 11.6677C18.9309 11.6677 18.7442 11.4811 18.7442 11.2509C18.7442 11.0209 18.9309 10.8343 19.1613 10.8343Z" fill="#FF4657"/>
<path d="M23.3322 0H21.2472C21.0168 0 20.8301 0.186547 20.8301 0.416775C20.8301 0.646812 21.0168 0.833359 21.2472 0.833359H23.3322C23.7929 0.833359 24.1663 1.20645 24.1663 1.66672V3.75021C24.1663 3.98025 24.353 4.16679 24.5834 4.16679C24.8137 4.16679 25.0004 3.98025 25.0004 3.75021V1.66672C25.0004 0.746189 24.2535 0 23.3322 0Z" fill="#FF4657"/>
<path d="M19.5782 0.833359C19.8086 0.833359 19.9953 0.646811 19.9953 0.416775C19.9953 0.186547 19.8086 0 19.5782 0H19.1613C18.9308 0 18.7441 0.186547 18.7441 0.416775C18.7441 0.646811 18.9308 0.833359 19.1613 0.833359H19.5782Z" fill="#FF4657"/>
<path d="M24.5812 5C24.3508 5 24.1641 5.18655 24.1641 5.41677V5.83336C24.1641 6.06359 24.3508 6.25013 24.5812 6.25013C24.8114 6.25013 24.9981 6.06359 24.9981 5.83336V5.41677C24.9981 5.18655 24.8114 5 24.5812 5Z" fill="#FF4657"/>
<path d="M1.9622 14.0965L0.487662 15.5694C-0.162554 16.2208 -0.162554 17.275 0.487662 17.9266L1.9622 19.3995C2.067 19.5079 2.22202 19.5514 2.36787 19.5132C2.51372 19.4751 2.62749 19.3612 2.66567 19.2157C2.70386 19.0699 2.66033 18.915 2.5519 18.8103L1.07736 17.337C0.751681 17.0116 0.751681 16.484 1.07736 16.1586L2.5519 14.6857C2.70996 14.522 2.70767 14.2622 2.54693 14.1014C2.386 13.9408 2.12599 13.9385 1.9622 14.0965Z" fill="#FF4657"/>
<path d="M3.14166 19.9892C2.97882 20.1519 2.97882 20.4157 3.14166 20.5784L3.43661 20.8731C3.60021 21.0311 3.86022 21.0288 4.02115 20.868C4.18208 20.7072 4.18437 20.4474 4.02631 20.2839L3.73136 19.9892C3.56852 19.8265 3.3045 19.8265 3.14166 19.9892Z" fill="#FF4657"/>
<path d="M3.73059 13.5065L4.02554 13.212C4.1836 13.0486 4.18131 12.7886 4.02038 12.628C3.85945 12.4672 3.59944 12.4649 3.43584 12.6228L3.14089 12.9175C3.03246 13.0221 2.98912 13.1769 3.0273 13.3227C3.06529 13.4684 3.17926 13.5821 3.32511 13.6202C3.47096 13.6584 3.62598 13.6149 3.73059 13.5065Z" fill="#FF4657"/>
</svg>
