<svg width="20" height="20" viewBox="0 0 20 20" fill="none" xmlns="http://www.w3.org/2000/svg">
<path fill-rule="evenodd" clip-rule="evenodd" d="M13.2213 5.40727L10.9656 0.627855C10.5705 -0.209285 9.42908 -0.209285 9.03441 0.627855L6.77867 5.40727C6.6218 5.73969 6.31851 5.97002 5.96765 6.02324L0.923405 6.78971C0.039796 6.92363 -0.31273 8.05872 0.326406 8.71046L3.9764 12.4307C4.23005 12.6894 4.34603 13.0624 4.28596 13.4275L3.42446 18.6807C3.27344 19.6007 4.19709 20.3026 4.98725 19.8681L9.49875 17.3881C9.81247 17.2158 10.1875 17.2158 10.5013 17.3881L15.0127 19.8681C15.8029 20.3022 16.7266 19.6007 16.5755 18.6807L15.714 13.4275C15.654 13.0624 15.7699 12.6894 16.0236 12.4307L19.6736 8.71046C20.3127 8.05916 19.9602 6.92407 19.0766 6.78971L14.0324 6.02324C13.6815 5.97002 13.3782 5.73969 13.2213 5.40727ZM12.5771 6.32582L10.7725 2.50228C10.4564 1.83257 9.54326 1.83257 9.22753 2.50228L7.42293 6.32582C7.29744 6.59175 7.0548 6.77601 6.77412 6.81859L2.73872 7.43177C2.03184 7.53891 1.74982 8.44698 2.26112 8.96837L5.18112 11.9446C5.38404 12.1515 5.47683 12.4499 5.42877 12.742L4.73957 16.9445C4.61875 17.6806 5.35768 18.2421 5.9898 17.8945L9.599 15.9105C9.84998 15.7726 10.15 15.7726 10.401 15.9105L14.0102 17.8945C14.6423 18.2417 15.3812 17.6806 15.2604 16.9445L14.5712 12.742C14.5232 12.4499 14.616 12.1515 14.8189 11.9446L17.7389 8.96837C18.2502 8.44733 17.9682 7.53926 17.2613 7.43177L13.2259 6.81859C12.9452 6.77601 12.7026 6.59175 12.5771 6.32582Z" fill="#E10D00"/>
</svg>
