<svg width="32" height="32" viewBox="0 0 32 32" fill="none" xmlns="http://www.w3.org/2000/svg">
<path d="M3.75 19.5C3.405 19.5 3.125 19.78 3.125 20.125C3.125 20.47 3.405 20.75 3.75 20.75C4.095 20.75 4.375 20.47 4.375 20.125C4.375 19.78 4.095 19.5 3.75 19.5Z" fill="#FF4657"/>
<path d="M3.75 22C3.40481 22 3.125 22.2798 3.125 22.625V25.125C3.125 25.4702 3.40481 25.75 3.75 25.75C4.09519 25.75 4.375 25.4702 4.375 25.125V22.625C4.375 22.2798 4.09519 22 3.75 22Z" fill="#FF4657"/>
<path d="M31.6874 21.9591C31.1433 20.9524 29.8684 20.5051 28.7216 20.919C28.7115 20.9227 28.7013 20.9266 28.6913 20.9308L22.4816 23.5441C22.4932 23.4471 22.5 23.349 22.5 23.25C22.5 21.8715 21.3785 20.75 20 20.75H15.9525C15.8452 20.75 15.7392 20.7223 15.6458 20.6696L12.3437 18.8124C11.6908 18.4444 10.9489 18.25 10.1981 18.25H7.39251C7.13451 17.5226 6.43982 17 5.625 17H0.625001C0.279813 17 0 17.2798 0 17.625V28.875C0 29.2202 0.279813 29.5 0.625001 29.5H5.625C6.29601 29.5 6.88894 29.1522 7.22063 28.6136C7.41682 28.6966 7.60732 28.793 7.79032 28.9028L11.0589 30.864C12.2972 31.6072 13.7151 32 15.1594 32C16.415 32 17.6573 31.6809 18.4745 31.2771L30.5084 25.3947C31.7995 24.8624 32.4199 23.3142 31.6874 21.9591ZM6.25001 27.625C6.25001 27.9686 5.97619 28.25 5.625 28.25H1.25V18.25H5.625C5.96963 18.25 6.25001 18.5304 6.25001 18.875V27.625ZM30.021 24.2435C29.9875 24.2569 26.657 25.8864 17.9335 30.1502C17.0556 30.5482 16.1223 30.75 15.1594 30.75C13.9416 30.75 12.7462 30.4188 11.7022 29.7922L8.43351 27.8309C8.13632 27.6526 7.82363 27.502 7.50001 27.3794V19.5H10.1981C10.7343 19.5 11.2641 19.6388 11.7305 19.9016L15.0326 21.7589C15.3126 21.9166 15.6307 22 15.9525 22H20C20.6893 22 21.25 22.5608 21.25 23.25C21.25 23.9435 20.6798 24.5 20 24.5H13.6463C12.6124 24.5 11.7713 25.3411 11.7713 26.375C11.7713 26.7202 12.0511 27 12.3963 27C12.7414 27 13.0213 26.7202 13.0213 26.375C13.0213 26.0304 13.3016 25.75 13.6463 25.75H20C20.4255 25.75 20.8432 25.6403 21.211 25.4352L29.1598 22.0899C29.7164 21.8961 30.3415 22.0979 30.5877 22.5535C30.96 23.2421 30.652 23.991 30.021 24.2435Z" fill="#FF4657"/>
<path d="M26.6419 6.0865L25.2701 4.02838C25.1173 3.79919 24.8326 3.69706 24.5689 3.77688C24.3053 3.85663 24.125 4.09956 24.125 4.375C24.125 5.23812 24.0106 6.10169 23.7889 6.93638C23.5221 6.36675 23.0947 5.85394 22.5393 5.48375C21.4792 4.77688 21.1918 3.33931 21.8989 2.27906L22.7701 0.971563C22.8979 0.77975 22.9098 0.533188 22.8011 0.33C22.6923 0.126813 22.4805 0 22.25 0C18.8064 0 15.9461 2.54481 15.4508 5.85269C15.4008 5.61019 15.375 5.36081 15.375 5.1075V3.125C15.375 2.84956 15.1948 2.60663 14.9311 2.52681C14.6675 2.44694 14.3828 2.54906 14.23 2.77831C13.7746 3.53744 11.625 6.01356 11.625 10.1587C11.625 14.2067 14.9183 17.5 18.9663 17.5H20.5338C22.4943 17.5 24.3379 16.7365 25.7252 15.3499C27.1116 13.9629 27.875 12.1193 27.875 10.1587C27.875 8.70431 27.4486 7.29613 26.6419 6.0865ZM19.75 16.25C18.7161 16.25 17.875 15.4089 17.875 14.375C17.875 14.0869 17.9384 13.8117 18.0638 13.5546L19.7501 10.6271L21.295 13.3089C21.3321 13.3964 21.625 13.7463 21.625 14.375C21.625 15.4089 20.7839 16.25 19.75 16.25ZM24.8413 14.4661C24.1583 15.1487 23.3419 15.6493 22.4511 15.9436C22.7201 15.4822 22.875 14.9465 22.875 14.375C22.875 13.7478 22.6923 13.1714 22.3732 12.677L20.2916 9.063C20.2904 9.06094 20.2889 9.05906 20.2877 9.057C20.0482 8.65125 19.4496 8.64444 19.2084 9.063L17.1278 12.6748C16.802 13.1787 16.625 13.7599 16.625 14.375C16.625 14.945 16.7791 15.4793 17.0468 15.9399C14.6257 15.1339 12.875 12.8471 12.875 10.1587C12.875 8.44606 13.3049 6.76131 14.1273 5.25681C14.1645 6.50756 14.6693 7.67812 15.5581 8.56694C15.7368 8.74562 16.0057 8.79906 16.2392 8.70238C16.4728 8.60563 16.625 8.37775 16.625 8.12494V6.87494C16.625 4.20738 18.4917 1.9675 20.9873 1.39281L20.8588 1.58569C19.7694 3.21925 20.2123 5.43444 21.8458 6.52375C22.161 6.73381 22.4223 7.02175 22.6018 7.35669C23.0006 8.1 22.8368 8.69344 22.875 9.37494C22.875 9.66481 23.0743 9.91663 23.3564 9.98319C23.6386 10.0499 23.9294 9.91369 24.0591 9.65438C24.1295 9.48606 24.8913 8.19906 25.2225 6.21056L25.6019 6.77975C26.2713 7.78356 26.625 8.95194 26.625 10.1587C26.625 11.7856 25.9914 13.3153 24.8413 14.4661Z" fill="#FF4657"/>
</svg>
