<svg width="25" height="29" viewBox="0 0 25 29" fill="none" xmlns="http://www.w3.org/2000/svg">
<path d="M4.62164 12.9393L5.7655 13.5838L6.3912 14.7625C6.50881 14.984 6.7343 15.1216 6.97979 15.1216C7.22522 15.1216 7.45071 14.984 7.56827 14.7625L8.19397 13.5838L9.33777 12.9393C9.55261 12.8182 9.68603 12.5866 9.68603 12.3347C9.68603 12.0829 9.55256 11.8512 9.33777 11.7302L8.19392 11.0857L7.56821 9.907C7.45066 9.68546 7.22512 9.54785 6.97974 9.54785C6.7343 9.54785 6.50876 9.68546 6.3912 9.90695L5.7655 11.0857L4.6217 11.7302C4.40686 11.8513 4.27344 12.0829 4.27344 12.3347C4.27344 12.5866 4.40686 12.8182 4.62164 12.9393ZM6.19479 11.7986C6.30746 11.7351 6.39957 11.6403 6.4611 11.5242L6.97968 10.5473L7.49838 11.5244C7.55995 11.6404 7.65202 11.7351 7.76457 11.7986L8.71609 12.3347L7.76457 12.8709C7.65196 12.9343 7.5599 13.0291 7.49827 13.1452L6.97968 14.1222L6.4611 13.1452C6.39957 13.0293 6.30746 12.9344 6.19479 12.8709L5.24327 12.3347L6.19479 11.7986Z" fill="#FF4657"/>
<path d="M22.1541 17.3394C22.0385 17.1709 21.8497 17.0703 21.6491 17.0703C21.4485 17.0703 21.2598 17.1709 21.1442 17.3393L20.0874 18.8792C19.937 19.0982 19.937 19.3925 20.0874 19.6116L21.1442 21.1515C21.2598 21.3199 21.4486 21.4205 21.6491 21.4205C21.8497 21.4205 22.0384 21.3199 22.1541 21.1515L23.2108 19.6116C23.3612 19.3925 23.3612 19.0982 23.2108 18.8792L22.1541 17.3394ZM21.6491 20.434L20.8334 19.2454L21.6491 18.0568L22.4649 19.2454L21.6491 20.434Z" fill="#FF4657"/>
<path d="M14.7987 3.43295L13.7419 1.89305C13.6263 1.72458 13.4375 1.62402 13.2369 1.62402C13.0364 1.62402 12.8476 1.72464 12.7321 1.89305L11.6752 3.43295C11.5249 3.65198 11.5249 3.94635 11.6752 4.16532L12.732 5.70511C12.8476 5.87363 13.0364 5.97419 13.2369 5.97419H13.237C13.4375 5.97419 13.6263 5.87363 13.7419 5.70516L14.7987 4.16532C14.949 3.94629 14.949 3.65198 14.7987 3.43295ZM13.237 4.98764L12.4213 3.79908L13.237 2.61052L14.0527 3.79908L13.237 4.98764Z" fill="#FF4657"/>
<path d="M20.079 11.047L18.0987 8.16155C17.9487 7.94297 17.7039 7.8125 17.4437 7.8125C17.1836 7.8125 16.9387 7.94297 16.7888 8.16155L14.8085 11.047C14.6133 11.3314 14.6133 11.7136 14.8085 11.998L16.7888 14.8834C16.9388 15.102 17.1836 15.2325 17.4437 15.2325C17.7039 15.2325 17.9487 15.102 18.0987 14.8834L20.079 11.998C20.2742 11.7136 20.2742 11.3314 20.079 11.047ZM17.4438 14.3845L15.4795 11.5225L17.4438 8.66043L19.4081 11.5225L17.4438 14.3845Z" fill="#FF4657"/>
<path d="M23.5408 -0.000976562H11.3432C10.5387 -0.000976562 9.88411 0.672796 9.88411 1.50092V2.16576H9.2402C8.43563 2.16576 7.78107 2.83954 7.78107 3.66766V5.19216C7.51797 5.16102 7.25053 5.14501 6.97944 5.14501C5.07396 5.14501 3.34456 5.93546 2.0838 7.21498C2.07021 7.22575 2.05712 7.23753 2.04462 7.25025C2.03146 7.26376 2.0194 7.27787 2.00837 7.29266C0.767172 8.59132 0 10.3726 0 12.3347C0 14.2968 0.767172 16.078 2.00853 17.3766C2.01951 17.3914 2.03157 17.4056 2.04478 17.4191C2.05728 17.4318 2.07038 17.4436 2.08396 17.4544C2.56434 17.9419 3.11282 18.3584 3.71314 18.6873H3.67651C2.85239 18.6873 2.18195 19.3757 2.18195 20.2219V27.0359C2.18195 27.8821 2.85239 28.5705 3.67651 28.5705H10.2827C11.1068 28.5705 11.7773 27.8821 11.7773 27.0359V25.212H21.4378C22.2424 25.212 22.897 24.5382 22.897 23.7101V23.0452H23.5409C24.3454 23.0452 25 22.3715 25 21.5433V1.50092C24.9999 0.672796 24.3454 -0.000976562 23.5408 -0.000976562ZM8.59639 3.66766C8.59639 3.30109 8.88525 3.00282 9.24031 3.00282H9.88422V5.79757C9.47471 5.60371 9.04368 5.44947 8.59639 5.33976V3.66766ZM7.38716 5.99584C8.78118 6.09004 10.0501 6.66398 11.0398 7.55851L10.0513 8.57687C9.3183 7.94009 8.39705 7.52631 7.38716 7.43786V5.99584ZM10.6269 15.4997C11.2459 14.7441 11.6481 13.7944 11.7337 12.7532H13.1306C13.0395 14.1898 12.483 15.4977 11.6151 16.5177L10.6269 15.4997ZM11.0398 17.1108C10.0501 18.0054 8.78118 18.5793 7.38716 18.6735V17.2314C8.39705 17.143 9.3183 16.7292 10.0513 16.0924L11.0398 17.1108ZM11.7337 11.9161V11.9162C11.6481 10.8749 11.2458 9.9252 10.6269 9.16961L11.6151 8.15154C12.483 9.17157 13.0395 10.4794 13.1306 11.9161H11.7337ZM10.9356 12.3347C10.9356 14.583 9.1609 16.4121 6.9795 16.4121C4.79809 16.4121 3.02336 14.583 3.02336 12.3347C3.02336 10.0864 4.79809 8.25723 6.9795 8.25723C9.1609 8.25723 10.9356 10.0864 10.9356 12.3347ZM6.57194 5.99584V7.43792C5.56205 7.52631 4.64081 7.94015 3.90776 8.57687L2.91934 7.55851C3.90901 6.66398 5.17787 6.09004 6.57194 5.99584ZM2.34402 8.15154L3.33211 9.16961C2.71315 9.9252 2.31092 10.8749 2.22532 11.9162H0.828476C0.919509 10.4795 1.47614 9.17157 2.34402 8.15154ZM0.828476 12.7532H2.22532C2.31097 13.7944 2.71315 14.7442 3.33211 15.4997L2.34402 16.5178C1.47614 15.4977 0.919509 14.1899 0.828476 12.7532ZM2.91934 17.1108L3.90771 16.0924C4.64075 16.7292 5.562 17.143 6.57189 17.2314V18.6735C5.17787 18.5793 3.9089 18.0054 2.91934 17.1108ZM10.962 27.0359C10.962 27.4205 10.6573 27.7334 10.2826 27.7334H3.67646C3.30184 27.7334 2.99711 27.4205 2.99711 27.0359V20.2218C2.99711 19.8372 3.30184 19.5243 3.67646 19.5243H10.2826C10.6573 19.5243 10.962 19.8372 10.962 20.2218V27.0359ZM24.1847 21.5433C24.1847 21.9099 23.8959 22.2082 23.5408 22.2082H15.3522C15.1271 22.2082 14.9446 22.3956 14.9446 22.6267C14.9446 22.8578 15.1271 23.0452 15.3522 23.0452H22.0817V23.7101C22.0817 24.0766 21.7928 24.3749 21.4378 24.3749H11.7772V23.0452H13.7487C13.9738 23.0452 14.1563 22.8578 14.1563 22.6267C14.1563 22.3956 13.9738 22.2082 13.7487 22.2082H11.7772V20.2218C11.7772 19.3756 11.1068 18.6872 10.2826 18.6872H10.246C10.8463 18.3583 11.3948 17.9418 11.8751 17.4543C11.8887 17.4435 11.9018 17.4317 11.9143 17.4189C11.9275 17.4054 11.9395 17.3913 11.9506 17.3765C13.1919 16.0779 13.9591 14.2967 13.9591 12.3346C13.9591 10.3725 13.1919 8.59121 11.9506 7.29261C11.9395 7.27787 11.9275 7.2637 11.9143 7.2502C11.9018 7.23742 11.8887 7.22564 11.8751 7.21487C11.5185 6.85287 11.1245 6.53022 10.6994 6.25338V1.50092C10.6994 1.13435 10.9882 0.836077 11.3433 0.836077H23.5408C23.8959 0.836077 24.1847 1.13435 24.1847 1.50092V21.5433Z" fill="#FF4657"/>
<path d="M9.08227 20.1768C8.76249 20.1768 8.46189 20.305 8.23592 20.5379C7.77032 21.0176 7.77032 21.7981 8.23592 22.2778C8.46189 22.5106 8.76244 22.6389 9.08227 22.6389C9.40211 22.6389 9.70265 22.5106 9.92863 22.2778C10.3942 21.7981 10.3942 21.0176 9.92863 20.5378C9.7026 20.305 9.40206 20.1768 9.08227 20.1768ZM9.35119 21.6869C9.27928 21.761 9.18374 21.8018 9.08222 21.8018C8.9807 21.8018 8.88521 21.761 8.81331 21.6869C8.66391 21.533 8.66391 21.2826 8.81331 21.1287C8.88521 21.0546 8.98075 21.0138 9.08227 21.0138C9.18379 21.0138 9.27928 21.0546 9.35119 21.1287C9.50048 21.2826 9.50048 21.533 9.35119 21.6869Z" fill="#FF4657"/>
<path d="M9.08227 24.748C8.76249 24.748 8.46189 24.8763 8.23592 25.1091C7.77032 25.5888 7.77032 26.3694 8.23592 26.8491C8.46189 27.0819 8.76244 27.2102 9.08227 27.2102C9.40211 27.2102 9.70265 27.0819 9.92863 26.8491C10.3942 26.3694 10.3942 25.5889 9.92863 25.1091C9.7026 24.8763 9.40206 24.748 9.08227 24.748ZM9.35119 26.2582C9.27928 26.3323 9.18374 26.3731 9.08222 26.3731C8.9807 26.3731 8.88521 26.3323 8.81325 26.2582C8.66385 26.1043 8.6639 25.8539 8.81325 25.7C8.88515 25.6259 8.9807 25.5851 9.08222 25.5851C9.18374 25.5851 9.27923 25.6259 9.35113 25.7C9.50048 25.8539 9.50059 26.1043 9.35119 26.2582Z" fill="#FF4657"/>
<path d="M4.8772 24.748C4.55741 24.748 4.25682 24.8763 4.03084 25.1091C3.56524 25.5888 3.56524 26.3694 4.03084 26.8491C4.25682 27.0819 4.55736 27.2102 4.8772 27.2102C5.19698 27.2102 5.49757 27.0819 5.72355 26.8491C6.18909 26.3694 6.18909 25.5888 5.72355 25.1091C5.49757 24.8763 5.19698 24.748 4.8772 24.748ZM5.14616 26.2582C5.07421 26.3323 4.97872 26.3731 4.8772 26.3731C4.77567 26.3731 4.68018 26.3323 4.60828 26.2582C4.45894 26.1043 4.45894 25.8539 4.60828 25.7C4.68018 25.6259 4.77567 25.5851 4.8772 25.5851C4.97872 25.5851 5.07421 25.6259 5.14616 25.7C5.29546 25.8539 5.29546 26.1043 5.14616 26.2582Z" fill="#FF4657"/>
<path d="M7.82708 22.7586C7.6011 22.5257 7.30056 22.3975 6.98072 22.3975C6.66094 22.3975 6.36035 22.5257 6.13431 22.7586C5.66877 23.2383 5.66877 24.0188 6.13431 24.4985C6.36029 24.7313 6.66089 24.8596 6.98067 24.8596C7.30045 24.8596 7.60105 24.7313 7.82703 24.4985C8.29268 24.0188 8.29268 23.2383 7.82708 22.7586ZM7.24964 23.9077C7.17773 23.9817 7.08225 24.0226 6.98072 24.0226C6.8792 24.0226 6.78371 23.9818 6.71176 23.9077C6.56241 23.7538 6.56241 23.5033 6.71176 23.3495C6.78366 23.2754 6.8792 23.2346 6.98072 23.2346C7.08225 23.2346 7.17773 23.2754 7.24964 23.3495C7.39904 23.5034 7.39904 23.7538 7.24964 23.9077Z" fill="#FF4657"/>
<path d="M4.87714 22.6389C5.19692 22.6389 5.49752 22.5106 5.72355 22.2778C6.18909 21.7981 6.18909 21.0176 5.72355 20.5378C5.49757 20.305 5.19698 20.1768 4.8772 20.1768C4.55741 20.1768 4.25682 20.305 4.03084 20.5379C3.56524 21.0176 3.56524 21.7981 4.03084 22.2778C4.25676 22.5106 4.55736 22.6389 4.87714 22.6389ZM4.60823 21.1287C4.68013 21.0547 4.77562 21.0138 4.87714 21.0138C4.97866 21.0138 5.07415 21.0546 5.14611 21.1287C5.29546 21.2826 5.29546 21.5331 5.14611 21.6869C5.07415 21.761 4.97866 21.8018 4.87714 21.8018C4.77562 21.8018 4.68013 21.761 4.60823 21.6869C4.45883 21.533 4.45883 21.2826 4.60823 21.1287Z" fill="#FF4657"/>
</svg>
