<svg width="44" height="32" viewBox="0 0 44 32" fill="none" xmlns="http://www.w3.org/2000/svg">
<path fill-rule="evenodd" clip-rule="evenodd" d="M2 0C0.895431 0 0 0.895431 0 2V6C0 7.10457 0.895431 8 2 8H6C7.10457 8 8 7.10457 8 6V2C8 0.895431 7.10457 0 6 0H2ZM14 0C12.8954 0 12 0.895431 12 2V6C12 7.10457 12.8954 8 14 8H18C19.1046 8 20 7.10457 20 6V2C20 0.895431 19.1046 0 18 0H14ZM24 2C24 0.895431 24.8954 0 26 0H30C31.1046 0 32 0.895431 32 2V6C32 7.10457 31.1046 8 30 8H26C24.8954 8 24 7.10457 24 6V2ZM38 0C36.8954 0 36 0.895431 36 2V6C36 7.10457 36.8954 8 38 8H42C43.1046 8 44 7.10457 44 6V2C44 0.895431 43.1046 0 42 0H38ZM0 14C0 12.8954 0.895431 12 2 12H6C7.10457 12 8 12.8954 8 14V18C8 19.1046 7.10457 20 6 20H2C0.895431 20 0 19.1046 0 18V14ZM14 12C12.8954 12 12 12.8954 12 14V18C12 19.1046 12.8954 20 14 20H18C19.1046 20 20 19.1046 20 18V14C20 12.8954 19.1046 12 18 12H14ZM24 14C24 12.8954 24.8954 12 26 12H30C31.1046 12 32 12.8954 32 14V18C32 19.1046 31.1046 20 30 20H26C24.8954 20 24 19.1046 24 18V14ZM38 12C36.8954 12 36 12.8954 36 14V18C36 19.1046 36.8954 20 38 20H42C43.1046 20 44 19.1046 44 18V14C44 12.8954 43.1046 12 42 12H38ZM0 26C0 24.8954 0.895431 24 2 24H6C7.10457 24 8 24.8954 8 26V30C8 31.1046 7.10457 32 6 32H2C0.895431 32 0 31.1046 0 30V26ZM14 24C12.8954 24 12 24.8954 12 26V30C12 31.1046 12.8954 32 14 32H18C19.1046 32 20 31.1046 20 30V26C20 24.8954 19.1046 24 18 24H14ZM24 26C24 24.8954 24.8954 24 26 24H30C31.1046 24 32 24.8954 32 26V30C32 31.1046 31.1046 32 30 32H26C24.8954 32 24 31.1046 24 30V26ZM38 24C36.8954 24 36 24.8954 36 26V30C36 31.1046 36.8954 32 38 32H42C43.1046 32 44 31.1046 44 30V26C44 24.8954 43.1046 24 42 24H38Z" fill="#9E9E9E"/>
</svg>
