<svg width="15" height="15" viewBox="0 0 15 15" fill="none" xmlns="http://www.w3.org/2000/svg">
<path d="M14.9047 7.20825C14.7707 7.02494 11.5778 2.71979 7.49993 2.71979C3.42206 2.71979 0.229043 7.02494 0.0951857 7.20808C-0.0317286 7.38198 -0.0317286 7.61785 0.0951857 7.79176C0.229043 7.97507 3.42206 12.2802 7.49993 12.2802C11.5778 12.2802 14.7707 7.97504 14.9047 7.79191C15.0318 7.61803 15.0318 7.38198 14.9047 7.20825ZM7.49993 11.2912C4.49614 11.2912 1.89454 8.4338 1.12442 7.49967C1.89355 6.56472 4.4897 3.70879 7.49993 3.70879C10.5036 3.70879 13.105 6.56571 13.8754 7.50034C13.1063 8.43527 10.5102 11.2912 7.49993 11.2912Z" fill="#3475BE"/>
<rect x="0.707092" width="20.1111" height="1" transform="rotate(45 0.707092 0)" fill="#3475BE"/>
</svg>
