<svg width="25" height="23" viewBox="0 0 25 23" fill="none" xmlns="http://www.w3.org/2000/svg">
<path d="M16.1602 3.14502C15.8907 3.14502 15.6719 3.36578 15.6719 3.63783C15.6719 3.90988 15.8906 4.13064 16.1602 4.13064C16.4298 4.13064 16.6485 3.90988 16.6485 3.63783C16.6485 3.36578 16.4298 3.14502 16.1602 3.14502Z" fill="#FF4657"/>
<path d="M14.2071 2.15967C13.9375 2.15967 13.7188 2.38042 13.7188 2.65248C13.7188 2.92453 13.9375 3.14528 14.2071 3.14528C14.4766 3.14528 14.6954 2.92453 14.6954 2.65248C14.6954 2.38042 14.4766 2.15967 14.2071 2.15967Z" fill="#FF4657"/>
<path d="M14.2071 4.13086C13.9375 4.13086 13.7188 4.35162 13.7188 4.62367C13.7188 4.89572 13.9375 5.11648 14.2071 5.11648C14.4766 5.11648 14.6954 4.89572 14.6954 4.62367C14.6954 4.35162 14.4766 4.13086 14.2071 4.13086Z" fill="#FF4657"/>
<path d="M12.254 2.15967C11.9844 2.15967 11.7656 2.38042 11.7656 2.65248C11.7656 2.92453 11.9844 3.14528 12.254 3.14528C12.5235 3.14528 12.7423 2.92453 12.7423 2.65248C12.7423 2.38042 12.5235 2.15967 12.254 2.15967Z" fill="#FF4657"/>
<path d="M5.39067 6.10205C5.12109 6.10205 4.90234 6.32281 4.90234 6.59486C4.90234 6.86686 5.12109 7.08767 5.39067 7.08767C5.6602 7.08767 5.879 6.86691 5.879 6.59486C5.879 6.32286 5.66025 6.10205 5.39067 6.10205Z" fill="#FF4657"/>
<path d="M24.5117 13.0012H20.5928C21.9655 9.93785 22.0933 6.753 20.9312 4.27925C21.8389 3.31556 21.8244 1.78594 20.8873 0.839698C19.9499 -0.105758 18.4342 -0.120393 17.4791 0.795794C15.6683 -0.0690965 13.4297 -0.236093 11.1259 0.329594C8.66984 0.932583 6.2405 2.35148 4.28532 4.32483C2.32932 6.29853 0.923314 8.74503 0.326391 11.2136C-0.235913 13.5389 -0.0671632 15.8015 0.797777 17.6317C-0.0815186 18.5847 -0.0849365 20.0975 0.860082 21.0505C1.80344 22.0033 3.31638 22.0095 4.2676 21.0951C6.31896 22.0769 8.69704 22.0837 10.8904 21.4882C12.3434 22.3843 14.0088 22.8571 15.7218 22.8571C20.8378 22.8571 25 18.6569 25 13.4939C25 13.2219 24.7813 13.0012 24.5117 13.0012ZM22.0515 13.9819C21.9492 15.3421 21.4243 16.6234 20.5408 17.6601L16.9008 13.9819C17.9481 13.9819 20.9144 13.9819 22.0515 13.9819ZM19.8502 18.3571C18.8227 19.2488 17.5581 19.7784 16.2102 19.8817V14.6838L19.8502 18.3571ZM4.38581 20.0512C4.17219 19.935 3.90617 19.9947 3.76159 20.1916C3.23581 20.9085 2.18845 20.9976 1.55071 20.3536C0.980004 19.778 0.975219 18.8439 1.55217 18.2621C1.61067 18.2025 1.66306 18.138 1.68367 18.1227C1.87878 17.9769 1.93806 17.7085 1.82278 17.4928C-0.0461671 13.9961 1.27986 8.75133 4.9759 5.02179C8.67726 1.28589 13.8861 -0.0521458 17.3613 1.83975C17.5745 1.95575 17.8396 1.89671 17.9845 1.70084C18.0276 1.64245 18.075 1.58721 18.125 1.53675C18.696 0.960523 19.6255 0.960572 20.1967 1.53666C20.7678 2.11333 20.7679 3.05135 20.197 3.62753C20.1468 3.67809 20.0921 3.72584 20.0342 3.7694C19.8401 3.91555 19.7816 4.18321 19.8966 4.3983C21.154 6.75004 21.0068 9.94731 19.5133 13.0012H6.93205C6.66242 13.0012 6.44372 13.2219 6.44372 13.494C6.44372 16.3239 7.69137 18.9546 9.82658 20.7241C7.81462 21.1118 5.91203 20.882 4.38581 20.0512ZM15.2336 14.6838V19.8816C13.8857 19.7784 12.621 19.2487 11.5936 18.3571L15.2336 14.6838ZM10.9029 17.6601C10.0194 16.6233 9.4946 15.347 9.39225 13.9868H14.5429L10.9029 17.6601ZM15.7218 21.8716C14.1224 21.8716 12.5695 21.4114 11.2311 20.5408C11.2311 20.5408 11.2311 20.5408 11.231 20.5408C8.98254 19.0787 7.58791 16.6553 7.43449 13.9868H8.41344C8.52961 15.7732 9.2757 17.4382 10.5446 18.7188C11.9295 20.1163 13.7682 20.8861 15.7218 20.8861C19.6458 20.8861 22.7829 17.7836 23.0302 13.9819H24.0091C23.7555 18.3727 20.1353 21.8716 15.7218 21.8716Z" fill="#FF4657"/>
<path d="M4.54282 7.80117C4.31728 7.65171 4.0146 7.71513 3.8666 7.94254C2.21201 10.4852 1.58144 13.2694 2.13642 15.5811C2.19053 15.8066 2.39038 15.958 2.61064 15.958C2.92759 15.958 3.15996 15.6586 3.08564 15.3491C2.60127 13.3316 3.19843 10.765 4.683 8.48359C4.831 8.25608 4.76826 7.95057 4.54282 7.80117Z" fill="#FF4657"/>
</svg>
