<svg width="30" height="30" viewBox="0 0 30 30" fill="none" xmlns="http://www.w3.org/2000/svg">
<path d="M27.5 0H12.5C11.1212 0 10 1.12119 10 2.50001V6.87503C10 7.22049 10.2796 7.50004 10.625 7.50004C10.9705 7.50004 11.25 7.22049 11.25 6.87503V2.50001C11.25 1.81095 11.811 1.25004 12.5 1.25004H27.5C28.1891 1.25004 28.75 1.81095 28.75 2.50001V27.5C28.75 28.189 28.1891 28.75 27.5 28.75H12.5C11.811 28.75 11.25 28.189 11.25 27.5V23.125C11.25 22.7795 10.9705 22.5 10.625 22.5C10.2796 22.5 10 22.7795 10 23.125V27.5C10 28.8788 11.1212 30 12.5 30H27.5C28.8788 29.9999 30 28.8788 30 27.4999V2.50001C30 1.12119 28.8788 0 27.5 0Z" fill="#B8B8B8"/>
<path d="M13.9526 21.414C13.6981 21.6472 13.6811 22.0427 13.9142 22.2972C14.0375 22.4315 14.2059 22.4998 14.375 22.4998C14.5258 22.4998 14.6771 22.4455 14.7974 22.3356L22.2974 15.4607C22.4268 15.3422 22.5 15.175 22.5 14.9998C22.5 14.8246 22.4268 14.6574 22.2974 14.539L14.7974 7.66402C14.5416 7.43088 14.148 7.44857 13.9142 7.70246C13.6811 7.95699 13.6981 8.3525 13.9526 8.58564L20.2685 14.3748H0.62502C0.279551 14.3748 0 14.6544 0 14.9998C0 15.3453 0.279551 15.6248 0.62502 15.6248H20.2685L13.9526 21.414Z" fill="#B8B8B8"/>
</svg>
