<svg width="36" height="22" viewBox="0 0 36 22" fill="none" xmlns="http://www.w3.org/2000/svg">
<path d="M35.2499 22H0.750022C0.336023 22 0 21.6714 0 21.2666C0 20.8618 0.336023 20.5333 0.750022 20.5333H35.25C35.664 20.5333 36 20.8618 36 21.2666C36 21.6714 35.6639 22 35.2499 22Z" fill="#B8B8B8"/>
<path d="M35.2499 11.7324H0.750022C0.336023 11.7324 0 11.4039 0 10.9991C0 10.5943 0.336023 10.2657 0.750022 10.2657H35.25C35.664 10.2657 36 10.5943 36 10.9991C36 11.4039 35.6639 11.7324 35.2499 11.7324Z" fill="#B8B8B8"/>
<path d="M35.2499 1.4668H0.750022C0.336023 1.4668 0 1.13831 0 0.733508C0 0.328708 0.336023 0.000152588 0.750022 0.000152588H35.25C35.664 0.000152588 36 0.328708 36 0.733508C35.9999 1.13831 35.6639 1.4668 35.2499 1.4668Z" fill="#B8B8B8"/>
</svg>
