<svg width="25" height="25" viewBox="0 0 25 25" fill="none" xmlns="http://www.w3.org/2000/svg">
<path d="M15.0008 21.6659V19.5826C15.0008 19.4142 14.8995 19.2622 14.7437 19.1976C14.5879 19.1334 14.4091 19.1688 14.2896 19.288L13.4562 20.1213C13.2932 20.2843 13.2932 20.5476 13.4562 20.7105C13.6187 20.8734 13.8825 20.8734 14.0454 20.7105L14.1674 20.5884V21.6659C13.937 21.6659 13.7508 21.8525 13.7508 22.0825C13.7508 22.3125 13.937 22.4991 14.1674 22.4991H15.0008C15.2308 22.4991 15.4175 22.3125 15.4175 22.0825C15.4175 21.8525 15.2309 21.6659 15.0008 21.6659Z" fill="#FF4657"/>
<path d="M3.75082 8.33304V6.24976C3.75082 6.08145 3.64954 5.92936 3.49329 5.86476C3.33747 5.80016 3.15871 5.836 3.03952 5.95519L2.20619 6.78851C2.04325 6.95145 2.04325 7.21477 2.20619 7.37765C2.3687 7.54059 2.63247 7.54059 2.79537 7.37765L2.91744 7.25559V8.33304C2.68702 8.33304 2.50078 8.51971 2.50078 8.74968C2.50078 8.97965 2.68702 9.16632 2.91744 9.16632H3.75082C3.9808 9.16632 4.16748 8.97965 4.16748 8.74968C4.16748 8.51971 3.98085 8.33304 3.75082 8.33304Z" fill="#FF4657"/>
<path d="M23.6369 4.65298L11.1974 0.124799C10.6774 -0.064355 10.114 -0.0393558 9.6132 0.194377C9.11153 0.42811 8.7311 0.843087 8.54775 1.34766L8.41981 1.66142L6.39725 1.31475C5.84889 1.21852 5.29639 1.34102 4.84051 1.66015C4.38425 1.97928 4.08009 2.4572 3.98424 3.0022L3.92384 3.333H2.08341C0.934645 3.333 0 4.26754 0 5.41629V22.9157C0 24.0644 0.934596 24.999 2.08341 24.999H15.4171H15.8338H16.2504C17.385 24.999 18.4951 24.8336 18.9322 23.6341L24.8753 7.30749C25.2653 6.23462 24.7099 5.04384 23.6369 4.65298ZM16.6672 22.9157C16.6672 23.6049 16.1063 24.1657 15.4171 24.1657H2.08341C1.39379 24.1657 0.833373 23.6049 0.833373 22.9157V5.41629C0.833373 4.72715 1.39379 4.16632 2.08341 4.16632H4.27097C4.4718 4.16632 4.64432 4.02258 4.68055 3.82468L4.80472 3.14971C4.86263 2.82096 5.04472 2.53429 5.31807 2.34265C5.59264 2.1514 5.92433 2.07723 6.25432 2.13597L8.60815 2.53927C8.79814 2.57008 8.98985 2.46721 9.06441 2.28635L9.32526 1.64804C9.4382 1.33721 9.66526 1.08932 9.96527 0.949725C10.2644 0.809739 10.6003 0.794749 10.9124 0.908076L17.3225 3.24135L10.8653 2.10267C10.6382 2.06268 10.4224 2.21389 10.3828 2.4406C10.3424 2.66725 10.4936 2.8835 10.7203 2.92349L13.0433 3.33305H5.83307C5.60264 3.33305 5.41641 3.51971 5.41641 3.74969C5.41641 3.97966 5.60264 4.16632 5.83307 4.16632H15.4171C16.1063 4.16632 16.6671 4.72715 16.6671 5.41629V22.9157H16.6672ZM16.9542 4.02258L19.3834 4.45089C20.0622 4.57046 20.5172 5.22005 20.3981 5.89874L17.5005 22.3316V5.41629C17.5005 4.8788 17.2901 4.39259 16.9542 4.02258ZM24.0924 7.02292L18.183 23.2562L21.2185 6.04337C21.3139 5.50129 21.1848 4.97299 20.9052 4.54507L23.3523 5.43586C23.9932 5.66921 24.3253 6.38129 24.0924 7.02292Z" fill="#FF4657"/>
<path d="M10.8426 12.0034C10.2164 11.4959 9.56888 10.9709 9.10719 10.2018C8.95675 9.95097 8.54341 9.95097 8.39257 10.2018C7.91756 10.9939 7.31505 11.5272 6.73213 12.0426C5.84128 12.8309 5 13.5754 5 14.9995C5 16.1482 5.9346 17.0828 7.08341 17.0828C7.64216 17.0828 8.0326 16.9361 8.33344 16.6999V17.9161C8.33344 18.1461 8.51968 18.3328 8.7501 18.3328C8.98009 18.3328 9.16677 18.1461 9.16677 17.9161V16.6999C9.46721 16.9361 9.85804 17.0828 10.4168 17.0828C11.4493 17.0828 12.2448 16.3158 12.4919 15.0812C12.7919 13.5829 11.801 12.78 10.8426 12.0034ZM11.6747 14.9179C11.6122 15.2304 11.3368 16.2495 10.4168 16.2495C9.73553 16.2495 9.51761 16.02 9.12257 15.23C9.10299 15.1912 9.07799 15.1575 9.0484 15.1279C9.04215 15.1208 9.0338 15.1162 9.02716 15.1096C8.99757 15.0833 8.96593 15.0621 8.93092 15.045C8.91886 15.0392 8.90719 15.0338 8.89425 15.0287C8.8484 15.0116 8.8005 14.9996 8.75005 14.9996C8.69961 14.9996 8.65132 15.0116 8.60586 15.0287C8.59292 15.0337 8.58086 15.0391 8.5688 15.045C8.53379 15.0621 8.50215 15.0833 8.47339 15.1096C8.46587 15.1163 8.45796 15.1208 8.45132 15.1279C8.42217 15.1579 8.39633 15.1912 8.37714 15.23C7.98211 16.02 7.76419 16.2495 7.08336 16.2495C6.39374 16.2495 5.83332 15.6887 5.83332 14.9996C5.83332 13.9509 6.44208 13.4121 7.28463 12.6668C7.76048 12.2455 8.28632 11.7801 8.75386 11.156C9.23513 11.773 9.80345 12.2339 10.3177 12.6509C11.3414 13.4804 11.8668 13.9583 11.6747 14.9179Z" fill="#FF4657"/>
</svg>
