<svg width="25" height="25" viewBox="0 0 25 25" fill="none" xmlns="http://www.w3.org/2000/svg">
<path d="M19.1572 11.0385C19.1572 10.247 18.5134 9.60322 17.7219 9.60322H15.0841C15.725 8.88286 16.1438 8.0626 16.2247 7.32671C16.2742 6.87725 16.1353 6.4311 15.8436 6.10264C15.5771 5.80239 15.2126 5.63506 14.8173 5.6314C14.8127 5.63135 14.8081 5.63135 14.8036 5.63135C14.4212 5.63135 14.0623 5.77861 13.7914 6.04697C13.5205 6.31538 13.3706 6.67295 13.3689 7.05454C13.355 7.13809 13.208 7.42612 12.8484 7.76812C12.5539 8.04819 12.0454 8.4332 11.2944 8.677C11 8.77261 10.7309 8.94863 10.4947 9.2002C10.3707 9.33213 10.1851 9.51436 9.95522 9.69727C9.84243 9.6375 9.71416 9.60332 9.57788 9.60332H7.07266C6.62656 9.60332 6.26367 9.96621 6.26367 10.4123V17.0929C6.26367 17.539 6.62656 17.9019 7.07266 17.9019H9.57788C9.88198 17.9019 10.1472 17.733 10.2853 17.4843H16.6781C17.3544 17.4843 17.9046 16.9341 17.9046 16.2578C17.9046 16.0304 17.8424 15.8173 17.7341 15.6345C18.0865 15.4188 18.3221 15.0302 18.3221 14.5876C18.3221 14.3603 18.2599 14.1472 18.1516 13.9644C18.504 13.7486 18.7396 13.3601 18.7396 12.9175C18.7396 12.6615 18.6608 12.4236 18.5262 12.2268C18.9067 11.9683 19.1572 11.5321 19.1572 11.0385ZM17.7219 11.6909H17.5131C17.297 11.6909 17.1217 11.8661 17.1217 12.0823C17.1217 12.2985 17.2969 12.4738 17.5131 12.4738C17.7577 12.4738 17.9568 12.6728 17.9568 12.9174C17.9568 13.1621 17.7577 13.3611 17.5131 13.3611H17.0956C16.8794 13.3611 16.7041 13.5363 16.7041 13.7525C16.7041 13.9687 16.8794 14.144 17.0956 14.144C17.3402 14.144 17.5392 14.343 17.5392 14.5876C17.5392 14.8323 17.3402 15.0313 17.0956 15.0313H16.6781C16.4619 15.0313 16.2866 15.2065 16.2866 15.4228C16.2866 15.6389 16.4619 15.8142 16.6781 15.8142C16.9227 15.8142 17.1217 16.0132 17.1217 16.2579C17.1217 16.5025 16.9227 16.7015 16.6781 16.7015H10.3869V12.9176C10.3869 12.7014 10.2116 12.5261 9.99541 12.5261C9.77919 12.5261 9.60395 12.7014 9.60395 12.9176V17.0929C9.60395 17.1073 9.59228 17.119 9.57788 17.119H7.07266C7.05825 17.119 7.04658 17.1073 7.04658 17.0929V10.4122C7.04658 10.3978 7.05825 10.3861 7.07266 10.3861H9.57788C9.59228 10.3861 9.60395 10.3978 9.60395 10.4122V11.2473C9.60395 11.4634 9.77919 11.6387 9.99541 11.6387C10.2116 11.6387 10.3869 11.4635 10.3869 11.2473V10.4122C10.3869 10.3932 10.3853 10.3746 10.384 10.3559C10.6775 10.1287 10.9122 9.89902 11.0653 9.73604C11.2102 9.58169 11.3686 9.47593 11.5361 9.42158C12.4575 9.12246 13.0776 8.64082 13.4354 8.28945C13.884 7.84907 14.1517 7.38999 14.1517 7.06133C14.1517 6.8877 14.2194 6.72495 14.3424 6.60308C14.4669 6.47969 14.6318 6.4145 14.81 6.41426C15.0294 6.41631 15.1747 6.52856 15.2581 6.62241C15.401 6.7833 15.4713 7.01465 15.4464 7.24116C15.3609 8.01895 14.7389 8.98037 13.8618 9.69043C13.7329 9.79478 13.6837 9.969 13.7391 10.1253C13.7944 10.2816 13.9422 10.3861 14.108 10.3861H17.7218C18.0816 10.3861 18.3742 10.6787 18.3742 11.0385C18.3742 11.3982 18.0816 11.6909 17.7219 11.6909Z" fill="#FF4657"/>
<path d="M8.32515 15.4448C8.10898 15.4448 7.93164 15.6222 7.93164 15.8383C7.93164 16.0545 8.10898 16.2318 8.32515 16.2318C8.54131 16.2318 8.71865 16.0545 8.71865 15.8383C8.7187 15.6222 8.54136 15.4448 8.32515 15.4448Z" fill="#FF4657"/>
<path d="M24.3022 12.5L24.9747 10.7205C25.0237 10.5911 25.0006 10.4454 24.914 10.3374L23.7246 8.85281L23.8142 6.95267C23.8208 6.81448 23.7538 6.68299 23.6382 6.60706L22.0482 5.56268L21.5464 3.72781C21.5099 3.59432 21.4056 3.49002 21.2721 3.45355L19.4372 2.95169L18.3929 1.3618C18.3169 1.24612 18.1854 1.17943 18.0473 1.18572L16.1471 1.27537L14.6625 0.0859681C14.5545 -0.000555371 14.4089 -0.0236511 14.2794 0.0252747L12.5 0.697736L10.7206 0.0253235C10.5911 -0.0236511 10.4455 -0.000555377 10.3375 0.0860169L8.85289 1.27542L6.95274 1.18577C6.81387 1.17923 6.68306 1.24622 6.60714 1.36185L5.5628 2.95179L3.72794 3.45364C3.59444 3.49017 3.49015 3.59446 3.45367 3.72791L2.95182 5.56278L1.36188 6.60711C1.2462 6.68309 1.17926 6.81453 1.1858 6.95272L1.27545 8.85286L0.08605 10.3374C-0.000473362 10.4454 -0.023569 10.5911 0.0253567 10.7206L0.697768 12.5L0.0253079 14.2794C-0.0236667 14.4088 -0.000571016 14.5545 0.0860011 14.6625L1.2754 16.1471L1.18576 18.0473C1.17921 18.1854 1.2462 18.3169 1.36183 18.3929L2.95177 19.4372L3.45362 21.2721C3.49015 21.4056 3.59444 21.5099 3.72789 21.5464L5.56275 22.0482L6.60709 23.6382C6.68306 23.7538 6.81475 23.8203 6.95269 23.8142L8.85284 23.7246L10.3374 24.914C10.4454 25.0006 10.5911 25.0237 10.7206 24.9747L12.5 24.3022L14.2794 24.9747C14.3244 24.9916 14.3712 24.9999 14.4178 24.9999C14.5055 24.9999 14.592 24.9705 14.6625 24.914L16.1471 23.7246L18.0473 23.8142C18.1859 23.8204 18.3169 23.7538 18.3929 23.6382L19.4372 22.0482L21.2721 21.5464C21.4056 21.5098 21.5099 21.4056 21.5464 21.2721L22.0482 19.4372L23.6382 18.3929C23.7538 18.3169 23.8208 18.1854 23.8142 18.0473L23.7246 16.1471L24.914 14.6625C25.0005 14.5545 25.0236 14.4089 24.9747 14.2794L24.3022 12.5ZM23.5176 12.6384L24.1634 14.3473L23.0211 15.773C22.9615 15.8474 22.9311 15.941 22.9356 16.0362L23.0217 17.8611L21.4948 18.864C21.4152 18.9163 21.3573 18.996 21.3321 19.088L20.8501 20.8501L19.088 21.3321C18.996 21.3573 18.9164 21.4151 18.8641 21.4948L17.8611 23.0217L16.0362 22.9356C15.941 22.9312 15.8474 22.9615 15.773 23.0211L14.3473 24.1634L12.6384 23.5176C12.5938 23.5008 12.5469 23.4924 12.5 23.4924C12.4531 23.4924 12.4062 23.5008 12.3616 23.5176L10.6527 24.1634L9.22696 23.0211C9.15259 22.9615 9.05884 22.9312 8.96377 22.9356L7.13892 23.0217L6.13594 21.4948C6.08365 21.4152 6.00401 21.3573 5.91202 21.3321L4.14986 20.8501L3.66788 19.088C3.64273 18.996 3.58487 18.9164 3.50519 18.864L1.97828 17.8611L2.06442 16.0362C2.06891 15.941 2.03849 15.8474 1.97887 15.773L0.836586 14.3473L1.48243 12.6384C1.51613 12.5492 1.51613 12.4508 1.48243 12.3616L0.836586 10.6527L1.97887 9.22694C2.03849 9.15257 2.06891 9.05897 2.06442 8.96375L1.97828 7.1389L3.50519 6.13592C3.58483 6.08363 3.64273 6.00399 3.66788 5.91199L4.14986 4.14984L5.91202 3.66785C6.00396 3.64271 6.08355 3.58485 6.13594 3.50516L7.13892 1.97825L8.96377 2.06439C9.05889 2.06883 9.15259 2.03846 9.22696 1.97884L10.6527 0.836554L12.3616 1.4824C12.4508 1.5161 12.5492 1.5161 12.6384 1.4824L14.3473 0.836554L15.773 1.97884C15.8474 2.03851 15.9411 2.06888 16.0362 2.06439L17.8611 1.97825L18.8641 3.50516C18.9163 3.5848 18.996 3.64271 19.088 3.66785L20.8501 4.14984L21.3321 5.91199C21.3573 6.00394 21.4151 6.08353 21.4948 6.13592L23.0217 7.1389L22.9356 8.96375C22.9311 9.05902 22.9615 9.15257 23.0211 9.22694L24.1634 10.6527L23.5176 12.3616C23.4839 12.4508 23.4839 12.5492 23.5176 12.6384Z" fill="#FF4657"/>
<path d="M19.856 5.74093C19.7586 5.63488 19.6576 5.52941 19.5556 5.42746C19.4536 5.3255 19.3482 5.22443 19.2421 5.12702C19.0829 4.98083 18.8353 4.99137 18.689 5.15065C18.5428 5.30988 18.5534 5.55754 18.7127 5.70373C18.8105 5.79357 18.9078 5.88683 19.002 5.98097C19.0961 6.07507 19.1894 6.17248 19.2793 6.27033C19.3565 6.35441 19.4619 6.39704 19.5677 6.39704C19.6623 6.39704 19.7572 6.36296 19.8323 6.29396C19.9916 6.14782 20.0022 5.90016 19.856 5.74093Z" fill="#FF4657"/>
<path d="M17.8528 4.05874C15.9651 2.8561 13.6923 2.32163 11.4534 2.55342C9.18167 2.78877 7.03959 3.80938 5.42162 5.42729C3.64101 7.20791 2.60429 9.57334 2.50244 12.0878C2.40122 14.5876 3.22914 17.0145 4.83378 18.9215C4.91117 19.0135 5.02191 19.0609 5.13354 19.0609C5.2225 19.0609 5.31195 19.0308 5.38534 18.969C5.55072 18.8298 5.57201 18.5829 5.43285 18.4175C3.95429 16.6603 3.1914 14.4236 3.28466 12.1196C3.37851 9.8021 4.33398 7.62202 5.97514 5.98091C7.46635 4.48965 9.44056 3.54897 11.534 3.33213C13.5982 3.11826 15.6928 3.61089 17.4321 4.71899C17.6144 4.83516 17.8563 4.78154 17.9725 4.59922C18.0887 4.41685 18.035 4.1749 17.8528 4.05874Z" fill="#FF4657"/>
<path d="M20.924 7.13089C20.8079 6.94852 20.5658 6.89491 20.3836 7.01107C20.2012 7.12723 20.1476 7.36922 20.2638 7.5515C21.3719 9.29086 21.8644 11.3855 21.6507 13.4495C21.4338 15.543 20.4931 17.5172 19.0019 19.0085C17.3608 20.6496 15.1807 21.6051 12.8633 21.699C10.5596 21.7926 8.32255 21.0294 6.56533 19.5509C6.39995 19.4117 6.15302 19.4329 6.01381 19.5984C5.8746 19.7638 5.89589 20.0107 6.06132 20.1499C7.8641 21.6667 10.1312 22.4896 12.4854 22.4895C12.6216 22.4895 12.7583 22.4868 12.8951 22.4812C15.4096 22.3794 17.7749 21.3427 19.5556 19.5621C21.1736 17.9441 22.1942 15.802 22.4295 13.5303C22.6613 11.2912 22.1267 9.01854 20.924 7.13089Z" fill="#FF4657"/>
</svg>
