<svg width="16" height="16" viewBox="0 0 16 16" fill="none" xmlns="http://www.w3.org/2000/svg">
<path d="M8.40548 0.293091C5.30186 0.293091 2.63605 2.19603 1.45998 4.90886L0.677279 4.59519C0.491796 4.52063 0.279868 4.56544 0.140664 4.70832C0.00109283 4.85156 -0.0389421 5.06422 0.0396586 5.2475L1.28478 8.15719C1.33657 8.2773 1.43317 8.37279 1.55511 8.42128C1.67668 8.47049 1.81258 8.46902 1.93268 8.41687L4.84238 7.17175C5.02566 7.09351 5.14356 6.91207 5.14135 6.71226C5.13878 6.51282 5.01647 6.33432 4.83136 6.26013L3.84481 5.86492C4.6389 4.09714 6.38097 2.86414 8.40512 2.86414C11.1752 2.86414 13.4289 5.1678 13.4289 7.99999C13.4289 10.8322 11.1745 13.1362 8.40512 13.1362C7.17505 13.1362 6.04967 12.6808 5.17698 11.9263C4.66755 11.4863 3.90909 11.5073 3.43491 11.9855C3.42867 11.9921 3.42279 11.9976 3.41655 12.0042C2.89389 12.5302 2.93172 13.3874 3.49258 13.8715C4.8174 15.0153 6.53266 15.7073 8.40512 15.7073C12.5926 15.7073 16 12.2503 16 7.99999C16.0007 3.75042 12.5934 0.293091 8.40548 0.293091Z" fill="white"/>
</svg>
