<svg width="25" height="25" viewBox="0 0 25 25" fill="none" xmlns="http://www.w3.org/2000/svg">
<path d="M2.0832 12.6265C1.85279 12.6265 1.66656 12.444 1.66656 12.2192C1.66656 11.9944 1.85279 11.8119 2.0832 11.8119H3.34361C3.36777 11.2938 3.4378 10.7875 3.54819 10.2958L2.33027 9.97689C2.1082 9.91904 1.97613 9.69541 2.0357 9.47832C2.09488 9.26042 2.32364 9.13211 2.54571 9.18992L3.76279 9.50887C3.92237 9.01846 4.12486 8.54719 4.36489 8.0975L3.2707 7.47998C3.07114 7.36757 3.00278 7.11869 3.11777 6.9236C3.2336 6.72852 3.48862 6.66212 3.68736 6.77453L4.78277 7.39243C5.06528 6.96231 5.38233 6.5562 5.73404 6.18025L4.83984 5.30612C4.67735 5.14726 4.67735 4.88941 4.83984 4.73017C5.00278 4.57132 5.26651 4.57132 5.429 4.73017L6.3232 5.60431C6.70777 5.26091 7.12363 4.95055 7.56362 4.67437L6.93155 3.60391C6.81611 3.40921 6.88448 3.15994 7.08404 3.0471C7.28277 2.93469 7.53819 3.00147 7.65322 3.1966L8.28491 4.26582C8.74492 4.0316 9.227 3.83365 9.72866 3.67766L9.402 2.48867C9.34243 2.27115 9.47407 2.04795 9.69658 1.98972C9.91782 1.93187 10.1474 2.0606 10.207 2.27731L10.5336 3.46792C11.0366 3.35999 11.5541 3.29197 12.0845 3.26835L12.084 2.03621C12.084 1.81139 12.2703 1.62891 12.5007 1.62891C12.7307 1.62891 12.9173 1.81139 12.9173 2.03621L12.9177 3.26835C13.4473 3.29197 13.9652 3.36042 14.4682 3.46835L14.7944 2.27774C14.854 2.06065 15.0819 1.9311 15.3044 1.98977C15.527 2.04762 15.659 2.27125 15.599 2.48834L15.2732 3.67852C15.7749 3.83451 16.2569 4.03246 16.7169 4.26668L17.3482 3.19703C17.4632 3.00195 17.7178 2.93512 17.9169 3.04753C18.1165 3.15994 18.1849 3.40925 18.0699 3.60396L17.4378 4.67523C17.8778 4.9518 18.2932 5.26177 18.6778 5.60555L19.5715 4.73103C19.7344 4.57174 19.9982 4.57217 20.1611 4.7306C20.3236 4.88984 20.3236 5.14769 20.1611 5.30698L19.2674 6.18149C19.6182 6.55744 19.9357 6.96398 20.2178 7.3941L21.3132 6.77496C21.5124 6.66212 21.7674 6.72895 21.8824 6.92403C21.9974 7.11873 21.9295 7.36761 21.7303 7.48045L20.6357 8.09879C20.8753 8.54848 21.0778 9.01975 21.2374 9.51016L22.4545 9.19001C22.6757 9.13259 22.9049 9.26047 22.9649 9.47799C23.0245 9.69508 22.8928 9.91871 22.6707 9.97694L21.452 10.2971C21.5624 10.7887 21.6319 11.2946 21.6561 11.8128L22.9169 11.8119H22.9173C23.1473 11.8119 23.3336 11.994 23.334 12.2189C23.334 12.4441 23.1478 12.6266 22.9177 12.6266L21.6561 12.6274C21.6319 13.1455 21.5619 13.6518 21.4515 14.1435L22.6698 14.4612C22.8923 14.5194 23.0244 14.7427 22.9652 14.9601C22.9152 15.1422 22.7469 15.2624 22.5627 15.2624C22.5269 15.2624 22.491 15.2579 22.4552 15.2485L21.2364 14.9304C21.0769 15.4204 20.8744 15.8917 20.6348 16.3414L21.7293 16.9577C21.9289 17.0701 21.9973 17.3194 21.8827 17.514C21.8056 17.6448 21.6656 17.7181 21.521 17.7181C21.4506 17.7181 21.3793 17.7006 21.3135 17.6639L20.2168 17.046C19.9343 17.4761 19.6172 17.8822 19.2655 18.2582L20.1605 19.1315C20.3235 19.2903 20.3239 19.5482 20.1614 19.7074C20.0797 19.7873 19.973 19.8272 19.8664 19.8272C19.7597 19.8272 19.653 19.7877 19.5718 19.7082L18.6764 18.8345C18.2918 19.1775 17.8764 19.4878 17.4364 19.7636L18.0697 20.8341C18.1847 21.0288 18.1168 21.2777 17.9172 21.3905C17.8518 21.4276 17.7802 21.445 17.7093 21.445C17.5656 21.445 17.4256 21.3725 17.3481 21.2418L16.7156 20.1721C16.2556 20.4064 15.7735 20.6043 15.2718 20.7603L15.5989 21.9493C15.6589 22.1668 15.5272 22.39 15.3047 22.4487C15.2689 22.458 15.2322 22.4625 15.1964 22.4625C15.0126 22.4625 14.8443 22.3428 14.7943 22.1611L14.4668 20.9701C13.9639 21.0785 13.4459 21.1465 12.9164 21.1701L12.9172 22.4019C12.9172 22.6271 12.731 22.8096 12.5009 22.8096H12.5005C12.2706 22.8096 12.0839 22.6275 12.0839 22.4027L12.0831 21.1701C11.5535 21.1465 11.0352 21.0785 10.5322 20.9701L10.2068 22.1607C10.1572 22.3428 9.98892 22.463 9.80474 22.463C9.7689 22.463 9.73267 22.4585 9.69683 22.4491C9.47432 22.3909 9.34268 22.1676 9.40181 21.9502L9.72725 20.7604C9.22598 20.6044 8.74351 20.4064 8.28394 20.1722L7.65313 21.2418C7.57647 21.3726 7.43604 21.4455 7.2919 21.4455C7.22149 21.4455 7.14981 21.428 7.08438 21.3913C6.88482 21.2789 6.81607 21.0296 6.93145 20.8349L7.5627 19.7636C7.1231 19.4875 6.70728 19.1775 6.32271 18.8337L5.42979 19.7078C5.34854 19.7877 5.24146 19.8276 5.13477 19.8276C5.02808 19.8276 4.92183 19.7877 4.84019 19.7083C4.67769 19.5494 4.67769 19.2916 4.83975 19.1323L5.7335 18.2578C5.38184 17.8819 5.06475 17.4758 4.78223 17.0456L3.68848 17.664C3.62222 17.7011 3.55054 17.7185 3.48013 17.7185C3.33594 17.7185 3.19595 17.6456 3.1189 17.5148C3.00347 17.3201 3.07183 17.0713 3.271 16.9584L4.36431 16.3405C4.12471 15.8908 3.92222 15.4192 3.76265 14.9291L2.54683 15.2485C2.5106 15.2583 2.47393 15.2628 2.43848 15.2628C2.25474 15.2628 2.08638 15.143 2.03638 14.9609C1.97637 14.7438 2.10845 14.5202 2.33057 14.462L3.54805 14.1422C3.43721 13.6506 3.36763 13.1443 3.34346 12.6266H2.0832V12.6265ZM12.4999 20.3657C17.0949 20.3657 20.8332 16.7112 20.8332 12.2192C20.8332 7.72723 17.0949 4.07274 12.4999 4.07274C7.90484 4.07274 4.16651 7.72723 4.16651 12.2192C4.16651 16.7112 7.90484 20.3657 12.4999 20.3657Z" fill="#FF4657"/>
<path d="M7.5 10.9972C8.04248 10.9972 8.50044 11.3386 8.6729 11.8119H10.0375C10.2142 10.7907 11.0388 9.98463 12.0834 9.81193V8.47837C11.5996 8.30934 11.25 7.8617 11.25 7.33134C11.25 6.65764 11.8108 6.10938 12.5 6.10938C13.1892 6.10938 13.75 6.65764 13.75 7.33134C13.75 7.86166 13.4008 8.30934 12.9167 8.47794V9.81193C13.9612 9.98463 14.7858 10.7907 14.9625 11.8119H16.3267C16.4996 11.3386 16.9575 10.9972 17.5 10.9972C18.1892 10.9972 18.75 11.5455 18.75 12.2192C18.75 12.8929 18.1892 13.4412 17.5 13.4412C16.9575 13.4412 16.4996 13.0998 16.3267 12.6265H14.9625C14.7858 13.6477 13.9612 14.4538 12.9167 14.6265V15.96C13.4008 16.1291 13.75 16.5767 13.75 17.1071C13.75 17.7808 13.1892 18.329 12.5 18.329C11.8108 18.329 11.25 17.7808 11.25 17.1071C11.25 16.5768 11.5996 16.1291 12.0834 15.96V14.6265C11.0388 14.4538 10.2142 13.6477 10.0375 12.6265H8.6729C8.50039 13.0998 8.04248 13.4412 7.5 13.4412C6.81084 13.4412 6.25 12.8929 6.25 12.2192C6.25 11.5455 6.81084 10.9972 7.5 10.9972ZM17.5 12.6265C17.7296 12.6265 17.9167 12.4436 17.9167 12.2192C17.9167 11.9948 17.7296 11.8119 17.5 11.8119C17.2704 11.8119 17.0833 11.9948 17.0833 12.2192C17.0833 12.4436 17.2704 12.6265 17.5 12.6265ZM12.5 6.92404C12.2704 6.92404 12.0834 7.1069 12.0834 7.33134C12.0834 7.55578 12.2704 7.73865 12.5 7.73865C12.7296 7.73865 12.9167 7.55578 12.9167 7.33134C12.9167 7.1069 12.7296 6.92404 12.5 6.92404ZM12.5 17.5144C12.7296 17.5144 12.9167 17.3315 12.9167 17.1071C12.9167 16.8826 12.7296 16.6998 12.5 16.6998C12.2704 16.6998 12.0834 16.8826 12.0834 17.1071C12.0834 17.3315 12.2704 17.5144 12.5 17.5144ZM12.5 13.8485C13.4192 13.8485 14.1667 13.1177 14.1667 12.2192C14.1667 11.3206 13.4191 10.5899 12.5 10.5899C11.5808 10.5899 10.8333 11.3207 10.8333 12.2192C10.8333 13.1178 11.5808 13.8485 12.5 13.8485ZM7.5 12.6265C7.72998 12.6265 7.91665 12.4436 7.91665 12.2192C7.91665 11.9948 7.72998 11.8119 7.5 11.8119C7.27002 11.8119 7.08335 11.9948 7.08335 12.2192C7.08335 12.4436 7.27002 12.6265 7.5 12.6265Z" fill="#FF4657"/>
<path d="M12.5 0C19.3925 0 25 5.48176 25 12.2197C25 18.9576 19.3925 24.4393 12.5 24.4393C5.60752 24.4393 0 18.9576 0 12.2197C0 5.48176 5.60752 0 12.5 0ZM12.5 23.6247C18.9329 23.6247 24.1667 18.5083 24.1667 12.2197C24.1667 5.93102 18.9329 0.81466 12.5 0.81466C6.06709 0.81466 0.833349 5.93102 0.833349 12.2197C0.833349 18.5083 6.06709 23.6247 12.5 23.6247Z" fill="#FF4657"/>
</svg>
