<svg width="20" height="20" viewBox="0 0 20 20" fill="none" xmlns="http://www.w3.org/2000/svg">
<path d="M18.98 19.827L14.1197 14.9656C12.6208 16.2697 10.6652 17.0592 8.52772 17.0592C3.82262 17.0592 0 13.2312 0 8.5296C0 3.82346 3.82705 0 8.52772 0C13.2284 0 17.0555 3.82789 17.0555 8.5296C17.0555 10.6676 16.2661 12.6237 14.9623 14.1228L19.8226 18.9842C19.9379 19.0996 20 19.2548 20 19.4057C20 19.5564 19.9423 19.7117 19.8226 19.827C19.592 20.0577 19.2106 20.0577 18.98 19.827ZM8.52772 1.19317C4.48337 1.19317 1.19734 4.48436 1.19734 8.52516C1.19734 12.5704 4.4878 15.8571 8.52772 15.8571C12.5676 15.8571 15.8625 12.5704 15.8625 8.52516C15.8625 4.48436 12.5721 1.19317 8.52772 1.19317Z" fill="#B8B8B8"/>
</svg>
