<svg width="44" height="32" viewBox="0 0 44 32" fill="none" xmlns="http://www.w3.org/2000/svg">
<path fill-rule="evenodd" clip-rule="evenodd" d="M6 1C6 0.447715 5.55229 0 5 0C4.44772 0 4 0.447715 4 1V3H1C0.447715 3 0 3.44772 0 4C0 4.55228 0.447714 5 0.999999 5H4V9H1C0.447715 9 0 9.44771 0 10C0 10.5523 0.447714 11 0.999999 11H4V15H1C0.447715 15 0 15.4477 0 16C0 16.5523 0.447714 17 0.999999 17H4V21H1C0.447715 21 0 21.4477 0 22C0 22.5523 0.447714 23 0.999999 23H4L4 27H1C0.447715 27 0 27.4477 0 28C0 28.5523 0.447714 29 0.999999 29H4V31C4 31.5523 4.44771 32 5 32C5.55228 32 6 31.5523 6 31V29H43C43.5523 29 44 28.5523 44 28C44 27.4477 43.5523 27 43 27H6V23H43C43.5523 23 44 22.5523 44 22C44 21.4477 43.5523 21 43 21H6V17H43C43.5523 17 44 16.5523 44 16C44 15.4477 43.5523 15 43 15H6V11H43C43.5523 11 44 10.5523 44 10C44 9.44771 43.5523 9 43 9H6V5H43C43.5523 5 44 4.55228 44 4C44 3.44772 43.5523 3 43 3H6V1Z" fill="#C4C4C4"/>
</svg>
