<svg width="15" height="11" viewBox="0 0 15 11" fill="none" xmlns="http://www.w3.org/2000/svg">
<path d="M14.9047 5.20825C14.7707 5.02494 11.5778 0.719788 7.49993 0.719788C3.42206 0.719788 0.229043 5.02494 0.0951857 5.20808C-0.0317286 5.38198 -0.0317286 5.61785 0.0951857 5.79176C0.229043 5.97507 3.42206 10.2802 7.49993 10.2802C11.5778 10.2802 14.7707 5.97504 14.9047 5.79191C15.0318 5.61803 15.0318 5.38198 14.9047 5.20825ZM7.49993 9.29122C4.49614 9.29122 1.89454 6.4338 1.12442 5.49967C1.89355 4.56472 4.4897 1.70879 7.49993 1.70879C10.5036 1.70879 13.105 4.56571 13.8754 5.50034C13.1063 6.43527 10.5102 9.29122 7.49993 9.29122Z" fill="#3475BE"/>
<path d="M7.49976 2.53296C5.86376 2.53296 4.53271 3.86401 4.53271 5.50001C4.53271 7.13601 5.86376 8.46705 7.49976 8.46705C9.13576 8.46705 10.4668 7.13601 10.4668 5.50001C10.4668 3.86401 9.13576 2.53296 7.49976 2.53296ZM7.49976 7.47802C6.40904 7.47802 5.52175 6.5907 5.52175 5.50001C5.52175 4.40931 6.40907 3.52199 7.49976 3.52199C8.59046 3.52199 9.47777 4.40931 9.47777 5.50001C9.47777 6.5907 8.59048 7.47802 7.49976 7.47802Z" fill="#3475BE"/>
</svg>
