<svg width="53" height="32" viewBox="0 0 53 32" fill="none" xmlns="http://www.w3.org/2000/svg">
<g clip-path="url(#clip0)">
<path fill-rule="evenodd" clip-rule="evenodd" d="M22.8399 16.0792H25.5161C25.5948 15.2871 25.4374 14.6535 24.6503 14.495C23.5483 14.3366 22.9973 15.0495 22.8399 16.0792ZM33.6235 14.6535H33.5448C32.679 14.5743 31.7344 14.2574 30.9473 14.7327C30.475 15.0495 30.5537 15.4455 30.9473 15.8416C31.7344 16.3168 32.4429 16.1584 33.1513 16.9505C34.2532 18.5347 33.23 20.3564 31.577 20.9109C30.3963 21.1485 28.5072 21.0693 27.3265 20.6733L27.6414 19.0099C28.6646 19.2475 29.2943 19.4059 30.3176 19.3267C31.3409 19.1683 31.577 18.2178 30.475 17.7426C29.6092 17.4257 28.9795 17.1881 28.5072 16.4752C28.1136 15.604 28.2711 14.3366 28.8221 13.6238C29.924 12.5149 32.4429 12.6733 33.8597 12.9109H33.9384H34.0171L33.6235 14.6535ZM37.0869 0C45.9028 0 52.9869 7.12871 52.9869 16C52.9869 24.8713 45.9028 32 37.0869 32C29.7666 32 23.627 27.0891 21.7379 20.2772C23.1547 21.1485 25.3587 21.3861 26.8542 20.5941L27.1691 18.7723C25.7523 19.5644 22.4463 19.7228 22.525 17.6634V17.5049H27.4052C27.8775 14.8119 27.6414 12.9901 24.6503 12.7525C23.627 12.7525 22.7612 12.9109 21.8953 13.5446L21.7379 13.703L21.5805 13.8614L21.4231 14.0198C21.4231 14.099 21.3443 14.1782 21.2656 14.2574C22.1315 6.25743 28.9008 0 37.0869 0ZM38.0315 20.9901H40.1567L40.8651 16.7129C40.9438 16.396 41.0226 16.0792 41.18 15.7624C41.5735 15.1287 42.4394 14.8911 43.1478 14.9703H43.2265V14.8911L43.3052 14.7327V14.5743L43.3839 14.3366C43.4627 14.0198 43.5414 13.703 43.6988 13.4653L43.7775 13.3069L43.8562 13.1485V13.0693L43.9349 12.9901L44.0136 12.9109H43.9349V12.8317C42.833 12.6733 42.0458 13.3069 41.4161 14.1782L41.5735 12.9109H39.4483L38.0315 20.9901ZM49.8384 13.6238C51.4127 14.8911 51.5701 17.2673 50.7042 19.0099C49.2874 21.8614 44.5646 21.9406 43.2265 19.0099C42.4394 16.8713 43.1478 14.099 45.3518 13.1485C46.7686 12.5941 48.579 12.6733 49.8384 13.6238ZM45.5879 17.9802C45.9815 19.4851 47.6344 19.2475 48.3429 17.9802C48.579 17.2673 48.7364 16.4752 48.6577 15.6832C48.2641 14.099 46.6112 14.4158 45.9028 15.6832C45.5879 16.396 45.4305 17.1881 45.5879 17.9802ZM35.3552 11.0891H37.4805L37.0869 12.9109H38.425L38.1102 14.6535L36.7721 14.5743L36.0636 18.7723C36.0636 19.1683 36.1424 19.2475 36.4572 19.3267C36.8508 19.4059 37.323 19.4059 37.6379 19.2475H37.7166L37.4805 20.6733C36.8508 21.0693 35.7488 21.0693 35.0404 20.9901C34.0171 20.7525 33.781 20.3564 33.9384 19.3267L35.3552 11.0891ZM50.3894 20.5941H51.0191V20.6733H50.7829V21.2277H50.6255V20.6733H50.3894V20.5941ZM51.0978 20.5941H51.2552L51.4914 21.0693L51.7275 20.5941H51.8849V21.2277H51.7275V20.7525L51.5701 21.2277H51.4127L51.2552 20.7525V21.2277H51.0978V20.5941Z" fill="white"/>
<path fill-rule="evenodd" clip-rule="evenodd" d="M15.9145 0C20.5586 0 24.7304 1.9802 27.6427 5.14851H25.2814L24.5729 6.09901H28.4299C28.666 6.41584 28.9022 6.73267 29.1383 7.0495H23.8645L23.2348 8H29.6893C29.8467 8.31683 30.0828 8.63366 30.2403 9.0297H22.7625L22.2903 9.90099H30.6338C30.7913 10.2178 30.87 10.5347 31.0274 10.9307H21.9754L21.7393 11.802H31.2635C31.3423 12.1188 31.421 12.4356 31.4997 12.7525C31.2635 12.7525 31.0274 12.7525 30.7125 12.8317H24.9665C24.8878 12.8317 24.8091 12.7525 24.6517 12.7525C24.4155 12.7525 24.2581 12.7525 24.022 12.8317H21.4244L21.267 13.703H21.7393L21.5819 13.8614L21.4244 14.0198C20.2437 15.4455 19.8502 17.9802 20.9522 19.5644C21.1883 19.8812 21.5031 20.1188 21.818 20.3564L22.0541 20.9901H23.8645C24.4155 21.0693 24.9665 21.0693 25.5175 20.9901H29.217C29.6106 21.0693 30.0828 21.0693 30.4764 20.9901H31.0274C30.87 21.3861 30.7913 21.7822 30.6338 22.099H22.369L22.8413 22.9703H30.2403C30.0041 23.3663 29.8467 23.7624 29.6106 24.0792H23.3923L23.9432 25.0297H29.0596C28.8234 25.3465 28.5873 25.7426 28.2724 26.0594H24.6517L25.3601 26.9307H27.564C24.6517 30.0198 20.4799 32 15.9145 32C7.09868 32 0.0145264 24.8713 0.0145264 16C0.0145264 7.12871 7.09868 0 15.9145 0ZM27.013 13.703H28.8234C28.5873 13.9406 28.4299 14.3366 28.3512 14.6535H27.4853C27.4066 14.2574 27.2492 13.9406 27.013 13.703ZM31.7358 14.495C31.7358 14.5743 31.7358 14.5743 31.7358 14.6535H31.0274C31.2635 14.5743 31.4997 14.495 31.7358 14.495ZM25.0452 14.6535H23.6284C23.8645 14.495 24.2581 14.4158 24.6517 14.495C24.8091 14.495 24.9665 14.5743 25.0452 14.6535ZM22.92 15.5248H25.5175C25.5175 15.6832 25.5175 15.9208 25.5175 16.0792H22.8413C22.8413 15.9208 22.92 15.6832 22.92 15.5248ZM27.564 15.5248H28.2724C28.2724 15.8416 28.3512 16.1584 28.5086 16.4752H27.564C27.564 16.1584 27.564 15.8416 27.564 15.5248ZM30.7125 15.5248H31.8145C31.8145 15.6832 31.8145 15.8416 31.8145 16C31.8145 16.0792 31.8145 16.1584 31.8145 16.1584C31.5784 16.0792 31.2635 16 30.9487 15.8416C30.87 15.7624 30.7913 15.6832 30.7125 15.5248ZM27.4066 17.3465H29.6106C29.8467 17.5049 30.1616 17.5842 30.4764 17.7426C30.7913 17.901 31.0274 18.0594 31.1061 18.297H22.6051C22.5264 18.0594 22.5264 17.901 22.5264 17.6634V17.5049H27.4066C27.4066 17.5049 27.4066 17.4257 27.4066 17.3465ZM23.7071 19.1683H25.9898C25.2814 19.3267 24.3368 19.4059 23.7071 19.1683ZM27.0918 19.1683H27.564L27.4066 20.1188H26.9343L27.0918 19.1683ZM28.3512 19.1683H30.87C30.7125 19.2475 30.5551 19.3267 30.319 19.3267C29.6106 19.4059 29.0596 19.3267 28.3512 19.1683ZM19.614 19.3267L19.2992 20.9901H17.4101L17.4888 20.8317V20.6733V20.5941V20.4356L17.5675 20.3564V20.198V20.1188L17.4888 20.2772C16.4655 21.2277 14.7338 21.4653 13.5531 20.5941C12.215 19.3267 12.8447 17.3465 14.2616 16.396L14.4977 16.3168C15.5997 15.8416 16.8591 15.9208 18.0398 15.9208L18.1185 15.8416C18.2759 15.1287 17.8823 14.6535 17.1739 14.5743C16.4655 14.5743 14.5764 14.6535 14.0254 14.9703L14.5764 13.2277C15.521 12.7525 17.2526 12.7525 18.3546 12.9109C19.614 13.2277 20.6373 13.8614 20.4012 15.3663L19.614 19.3267ZM17.8036 17.3465C17.8036 17.2673 17.8036 17.2673 17.6462 17.2673C17.0165 17.1881 16.1507 17.3465 15.5997 17.7426C15.0487 18.2178 14.8913 19.1683 15.6784 19.3267C16.3868 19.4059 17.0952 19.2475 17.4888 18.6139C17.7249 18.2178 17.7249 17.8218 17.8036 17.3465ZM3.79274 20.9901H1.74621L3.47789 11.0891H7.09868L7.41354 17.0297L9.85364 11.0891H13.5531L11.8215 20.9901H9.77492L11.0343 13.6238H10.9556L7.96453 20.9901H5.60314C5.44571 18.5347 5.367 16.0792 5.20958 13.6238H5.13086L3.79274 20.9901Z" fill="#E6E6E6"/>
<path d="M50.3894 20.5942H51.0191V20.6734H50.783V21.2279H50.6255V20.6734H50.3894V20.5942Z" stroke="#FEFEFE" stroke-width="0.474189"/>
<path fill-rule="evenodd" clip-rule="evenodd" d="M51.0978 20.5942H51.2552L51.4914 21.0695L51.7275 20.5942H51.8849V21.2279H51.7275V20.7527L51.5701 21.2279H51.4126L51.2552 20.7527V21.2279H51.0978V20.5942Z" fill="#FEFEFE"/>
</g>
<defs>
<clipPath id="clip0">
<rect width="53" height="32" fill="white"/>
</clipPath>
</defs>
</svg>
