<svg width="179" height="30" viewBox="0 0 179 30" fill="none" xmlns="http://www.w3.org/2000/svg">
<path fill-rule="evenodd" clip-rule="evenodd" d="M32.22 13.2352C32.22 12.6469 31.9217 12.3528 31.325 12.3528H28.3417C27.4467 12.3528 27.1484 12.9411 27.1484 13.5293V18.8234C27.1484 19.7058 27.745 19.9999 28.3417 19.9999H31.325C31.6234 19.9999 31.6234 19.9999 31.9217 19.7058C32.22 19.7058 32.22 19.4117 32.22 19.1175V13.2352ZM23.27 12.6469C23.27 11.1764 23.5684 10.294 24.165 9.41165C24.4634 9.11753 25.06 9.11753 25.3584 8.82341C25.955 8.5293 26.2534 8.5293 26.85 8.5293H32.5184C34.905 8.5293 36.0984 9.70577 36.0984 12.3528V20.5881C36.0984 21.4705 35.8 22.3528 34.905 22.9411C34.3084 23.5293 33.4134 24.1175 32.5184 24.1175H27.1484V29.9999H23.27V12.6469Z" fill="white"/>
<path fill-rule="evenodd" clip-rule="evenodd" d="M43.2583 19.4117C43.2583 19.4117 43.2583 19.7058 43.5567 19.7058C43.5567 19.9999 43.855 19.9999 44.1533 19.9999H47.1367C47.7333 19.9999 48.0317 19.7058 48.33 19.4117V18.2352C48.33 17.6469 47.7333 17.3528 47.1367 17.3528H44.1533C43.855 17.3528 43.5567 17.3528 43.2583 17.3528C43.2583 17.6469 43.2583 17.9411 43.2583 18.2352V19.4117ZM48.33 13.2352C48.33 12.6469 47.7333 12.3528 47.1367 12.3528H39.38V8.5293H48.0317C50.7167 8.5293 51.91 9.70577 52.2083 12.0587V20.294C51.91 21.4705 51.6117 22.3528 51.015 22.9411C50.4183 23.8234 49.5233 24.1175 48.6283 24.1175H43.2583C40.5733 24.1175 39.38 22.9411 39.38 20.5881V17.3528C39.38 14.9999 40.5733 13.8234 42.96 13.5293H48.33V13.2352Z" fill="white"/>
<path fill-rule="evenodd" clip-rule="evenodd" d="M62.9483 25.8822C63.2466 25.8822 63.545 25.8822 63.8433 25.5881C64.1416 25.294 64.1416 25.294 64.1416 24.9999V24.7058V24.1175H59.07C58.4733 24.1175 57.8766 23.8234 57.5783 23.8234C57.28 23.5293 56.6833 23.2352 56.385 22.9411C56.0867 22.6469 55.7883 22.0587 55.49 21.7646C55.1917 21.1764 55.1917 20.5881 55.1917 19.9999V8.5293H59.07V18.8234C59.07 19.7058 59.3683 19.9999 60.2633 19.9999H62.9483C63.2466 19.9999 63.545 19.9999 63.8433 19.7058C63.8433 19.7058 64.1416 19.4117 64.1416 19.1175V18.8234V8.5293H68.02V25.5881C68.02 26.7646 67.7216 27.9411 67.125 28.8234C66.23 29.4117 65.335 29.9999 64.44 29.9999H55.1917V25.8822H62.9483Z" fill="white"/>
<path fill-rule="evenodd" clip-rule="evenodd" d="M71.0033 19.9999H77.865C78.4616 19.9999 79.0583 19.7058 79.0583 19.4117V19.1175C79.0583 18.8234 79.0583 18.8234 78.76 18.5293C78.76 18.2352 78.4616 18.2352 78.1633 18.2352H77.865H74.8816C73.6883 18.2352 73.0916 17.9411 72.1966 17.0587C71.6 16.4705 71.0033 15.8822 71.0033 14.9999V12.0587C71.0033 9.70577 72.495 8.5293 74.8816 8.5293H82.9366V12.3528H76.075C75.18 12.3528 74.8816 12.6469 74.8816 13.2352V13.5293C74.8816 14.1175 75.18 14.1175 76.075 14.1175H79.655C80.55 14.4117 81.1466 14.7058 82.0416 15.294C82.6383 15.8822 82.9366 16.7646 82.9366 17.6469V20.5881C82.9366 21.4705 82.6383 22.0587 81.7433 22.9411C81.445 23.5293 81.1466 23.5293 80.8483 23.8234C80.2516 24.1175 79.9533 24.1175 79.0583 24.1175H71.0033V19.9999Z" fill="white"/>
<path fill-rule="evenodd" clip-rule="evenodd" d="M89.5 19.4117L89.7984 19.7058C90.0967 19.9999 90.395 19.9999 90.6934 19.9999H93.6767C94.2734 19.9999 94.5717 19.7058 94.5717 19.4117V18.2352C94.5717 17.6469 94.2734 17.3528 93.6767 17.3528H90.6934C90.0967 17.3528 90.0967 17.3528 89.7984 17.3528C89.7984 17.6469 89.5 17.9411 89.5 18.2352V19.4117ZM94.5717 13.2352C94.5717 12.6469 94.2734 12.3528 93.6767 12.3528H85.6217V8.5293H94.5717C97.2567 8.5293 98.45 9.70577 98.45 12.0587V20.294C98.45 21.4705 98.1517 22.3528 97.555 22.9411C96.9584 23.8234 96.0634 24.1175 94.87 24.1175H89.5C87.1134 24.1175 85.6217 22.9411 85.6217 20.5881V17.3528C85.6217 14.9999 87.1134 13.8234 89.5 13.5293H94.5717V13.2352Z" fill="white"/>
<path fill-rule="evenodd" clip-rule="evenodd" d="M101.732 6.17638C101.732 5.29403 102.03 4.41168 102.925 3.52933C103.522 2.94109 104.715 2.64697 105.908 2.64697H108.295V6.4705H106.803C105.908 6.4705 105.61 6.76462 105.61 7.64697V8.52933H108.295V12.3529H105.61V24.1176H101.732V6.17638Z" fill="white"/>
<path fill-rule="evenodd" clip-rule="evenodd" d="M119.333 13.2352V12.9411C119.333 12.9411 119.333 12.6469 119.035 12.6469C119.035 12.3528 118.737 12.3528 118.438 12.3528H115.753C115.455 12.3528 115.157 12.3528 114.858 12.6469C114.56 12.9411 114.56 13.2352 114.56 13.5293V14.9999L119.333 13.2352ZM114.56 18.8234V19.1175C114.56 19.4117 114.56 19.7058 114.858 19.7058C114.858 19.9999 115.157 19.9999 115.455 19.9999H115.753H123.212V24.1175H114.858C113.963 24.1175 113.367 23.8234 113.068 23.8234C112.472 23.5293 112.173 23.5293 111.875 22.9411C111.278 22.6469 110.98 22.3528 110.98 21.7646C110.682 21.4705 110.682 20.8822 110.682 19.9999V12.0587C110.682 9.70577 111.875 8.5293 114.56 8.5293H119.632C122.018 8.5293 123.212 9.70577 123.51 12.3528V15.294L114.56 18.8234Z" fill="white"/>
<path fill-rule="evenodd" clip-rule="evenodd" d="M131.565 24.1177C130.968 24.1177 130.372 24.1177 130.073 23.8236C129.477 23.8236 128.88 23.5295 128.582 23.2354C127.985 22.6471 127.687 22.353 127.388 21.7648C127.09 21.1765 127.09 20.5883 127.09 19.7059V12.353C127.09 11.7648 127.09 11.1765 127.09 10.8824C127.388 10.2942 127.687 10.0001 127.985 9.41182C128.582 9.1177 128.88 8.82359 129.477 8.52947C130.073 8.52947 130.67 8.23535 131.267 8.23535H137.233V9.41182H131.267C130.372 9.41182 129.477 9.41182 128.88 10.0001C128.283 10.2942 127.985 11.1765 127.985 12.353V19.7059C127.985 20.0001 127.985 20.5883 128.283 21.1765C128.283 21.4706 128.582 22.0589 128.88 22.353C129.477 22.6471 129.775 22.9412 130.372 22.9412C130.67 22.9412 131.267 23.2354 131.565 23.2354H137.233V24.1177H131.565Z" fill="white"/>
<path fill-rule="evenodd" clip-rule="evenodd" d="M152.448 14.4118H144.692C143.797 14.4118 142.902 14.7059 142.603 15.2942C142.007 15.8824 141.708 16.7648 141.708 17.6471V20.0001C141.708 20.5883 141.708 20.8824 141.708 21.1765C142.007 21.7648 142.007 22.0589 142.603 22.353C143.2 22.9412 143.797 23.2354 144.692 23.2354H149.465C151.553 23.2354 152.448 22.0589 152.448 20.0001V14.4118ZM153.343 19.7059C153.343 20.2942 153.343 20.8824 153.343 21.4706C153.045 21.7648 153.045 22.353 152.448 22.9412C151.553 23.5295 150.658 24.1177 149.465 24.1177H144.692C143.498 24.1177 142.603 23.8236 142.007 22.9412C141.112 22.353 140.813 21.1765 140.813 20.0001V17.6471C140.813 15.0001 142.007 13.5295 144.692 13.5295H152.448V12.6471C152.448 11.7648 152.15 10.8824 151.852 10.2942C151.553 10.0001 150.957 9.70594 150.658 9.41182C150.062 9.41182 149.763 9.41182 149.167 9.41182H140.813V8.23535H148.868C149.465 8.23535 150.062 8.52947 150.658 8.52947C150.957 8.52947 151.255 8.82359 151.553 8.82359C151.852 9.1177 152.15 9.1177 152.448 9.70594C153.045 10.5883 153.343 11.4706 153.343 12.6471V19.7059Z" fill="white"/>
<path fill-rule="evenodd" clip-rule="evenodd" d="M162.293 9.41182C159.907 9.41182 159.012 10.5883 159.012 12.6471V24.1177H158.117V12.6471C158.117 9.70594 159.31 8.23535 162.293 8.23535H163.487V9.41182H162.293Z" fill="white"/>
<path fill-rule="evenodd" clip-rule="evenodd" d="M177.807 9.41182H170.647C170.05 9.41182 169.453 9.41182 169.155 9.41182C168.558 9.41182 168.26 9.70594 167.962 10.2942C167.365 10.5883 167.067 11.1765 167.067 11.4706C167.067 11.7648 166.768 12.353 166.768 12.9412V20.0001C166.768 21.1765 167.365 22.0589 167.962 22.353C168.26 22.6471 168.857 22.9412 169.155 22.9412C169.453 22.9412 170.05 23.2354 170.647 23.2354H173.928C175.122 23.2354 176.017 22.9412 176.613 22.353C177.508 21.7648 177.807 20.8824 177.807 19.7059V9.41182ZM179 19.7059C178.702 22.6471 177.21 24.1177 173.928 24.1177H170.647C169.752 24.1177 169.155 24.1177 168.558 23.8236C167.962 23.8236 167.365 23.2354 167.067 22.9412C166.47 22.353 166.172 21.7648 166.172 21.1765C165.873 20.8824 165.873 20.2942 165.873 19.4118V12.9412C165.873 9.70594 167.663 8.23535 170.647 8.23535H177.807V3.23535H179V19.7059Z" fill="white"/>
<path fill-rule="evenodd" clip-rule="evenodd" d="M1.79001 7.94117C2.08834 7.64706 2.38667 7.64706 2.68501 7.64706C3.28167 5 5.66834 2.94118 8.35334 2.94118C11.3367 2.94118 13.7233 5 14.0217 7.64706C14.9167 7.64706 15.8117 7.94117 16.4083 8.52941C16.4083 7.94117 16.4083 7.64706 16.4083 7.05882C15.8117 3.23529 12.53 0 8.35334 0C4.17667 0 0.596673 3.23529 0.29834 7.64706C0.29834 7.94117 0.29834 8.23529 0.29834 8.52941C0.895007 8.23529 1.19334 7.94117 1.79001 7.94117Z" fill="#B3B3B3"/>
<path fill-rule="evenodd" clip-rule="evenodd" d="M13.1267 8.5293H3.58C2.98333 8.5293 2.685 8.5293 2.08833 8.82341C1.49167 9.11753 1.19333 9.11753 0.895 9.41165C0.298333 10.294 0 11.1764 0 12.6469V19.9999C0 21.1764 0.298333 22.3528 0.895 22.9411C1.19333 23.2352 1.49167 23.5293 2.08833 23.8234C2.685 23.8234 2.98333 24.1175 3.58 24.1175H13.1267C15.5133 24.1175 16.7067 22.6469 16.7067 19.9999V12.3528C16.7067 9.70577 15.5133 8.5293 13.1267 8.5293Z" fill="#B3B3B3"/>
</svg>
