<svg width="89" height="31" viewBox="0 0 89 31" fill="none" xmlns="http://www.w3.org/2000/svg">
<g clip-path="url(#clip0)">
<path fill-rule="evenodd" clip-rule="evenodd" d="M0.0112305 10.8422C0.0112305 20.0048 10.6467 19.5467 12.2944 20.1575C14.3915 20.9211 14.2417 24.7388 9.4483 24.7388C6.90179 24.7388 4.80466 24.4334 2.40795 23.6698C1.80877 23.5171 1.20959 23.2117 0.610409 23.059V29.9309C2.40795 30.8472 8.54953 30.9999 11.096 30.9999C17.687 30.9999 23.6788 26.4186 22.0311 19.5467C20.3833 12.0639 10.7964 12.8275 9.4483 12.0639C7.80056 11.3004 7.80056 9.16244 9.59809 8.3989C11.9948 7.32993 16.7882 8.3989 19.185 9.16244C19.9339 9.46786 20.6829 9.77328 21.2821 9.92599V3.35949C20.2335 3.05407 19.6343 2.74865 17.5372 2.29052C14.5413 1.67969 13.343 1.67969 10.3471 1.67969C4.95446 1.67969 0.0112305 5.34471 0.0112305 10.8422Z" fill="white"/>
<path fill-rule="evenodd" clip-rule="evenodd" d="M24.1279 3.20678V30.6945H31.9173V22.4482C32.067 22.7536 31.9173 22.6009 32.067 22.9063L32.816 24.2807C33.1156 24.8915 33.4152 25.5023 33.7148 26.2659C34.0144 27.0294 34.9131 29.7782 34.9131 30.6945H44.3502C44.2004 30.389 44.0506 29.7782 43.9008 29.3201L42.1033 25.1969C38.3584 17.4088 39.1074 21.5319 42.4029 14.9654C43.0021 14.0491 44.6498 10.5368 44.7996 9.31516H35.9617C35.6621 10.8422 32.816 15.8817 31.9173 16.6452V1.67969C30.4193 1.67969 25.3263 3.20678 24.1279 3.20678Z" fill="white"/>
<path fill-rule="evenodd" clip-rule="evenodd" d="M70.7141 3.05407V30.6945H78.2038V1.67969C77.0055 1.67969 72.3619 2.90136 70.7141 3.05407Z" fill="white"/>
<path fill-rule="evenodd" clip-rule="evenodd" d="M81.4993 3.05407V30.6945H88.989V1.67969C88.0902 1.67969 82.398 3.05407 81.4993 3.05407Z" fill="white"/>
<path fill-rule="evenodd" clip-rule="evenodd" d="M45.6984 18.4779V30.6946H53.1881V21.5321C53.1881 17.2562 53.7873 15.5764 57.9815 15.5764V9.1626C56.6334 9.1626 57.8317 9.00989 55.5848 9.1626C53.3379 9.46802 51.6902 9.46802 49.2934 10.9951C47.1963 12.3695 45.6984 14.9656 45.6984 18.4779Z" fill="white"/>
<path fill-rule="evenodd" clip-rule="evenodd" d="M60.2285 30.6944H67.7182V9.46777H60.2285V30.6944Z" fill="white"/>
<path fill-rule="evenodd" clip-rule="evenodd" d="M60.3782 3.51224C60.3782 4.73392 60.528 5.49746 61.4268 6.41372C64.7223 9.77332 69.9651 4.73392 66.5198 1.06889C64.2729 -1.37446 60.3782 0.763474 60.3782 3.51224Z" fill="white"/>
</g>
<defs>
<clipPath id="clip0">
<rect width="89" height="31" fill="white"/>
</clipPath>
</defs>
</svg>
