<svg width="23" height="22" viewBox="0 0 23 22" fill="none" xmlns="http://www.w3.org/2000/svg">
<path d="M10.515 11.5928C10.5869 11.3893 10.7785 11.2336 11.006 11.2336C11.2935 11.2336 11.521 11.4611 11.521 11.7485C11.521 12.024 11.7486 12.2515 12.024 12.2515C12.2995 12.2515 12.527 12.024 12.527 11.7485C12.527 11.0899 12.1078 10.539 11.521 10.3234V9.9162C11.521 9.64075 11.2935 9.41321 11.018 9.41321C10.7426 9.41321 10.515 9.64075 10.515 9.9162V10.3234C9.9282 10.527 9.50903 11.0899 9.50903 11.7485C9.50903 11.8683 9.55694 11.9881 9.62879 12.0719L11.9522 14.7785C11.8683 15.2216 11.4851 15.5569 11.018 15.5569C10.4911 15.5569 10.0719 15.1258 10.0719 14.6108C10.0719 14.3354 9.84436 14.1078 9.56891 14.1078C9.29346 14.1078 9.06592 14.3354 9.06592 14.6108C9.06592 15.509 9.6767 16.2635 10.515 16.491V16.8743C10.515 17.1497 10.7426 17.3773 11.018 17.3773C11.2935 17.3773 11.521 17.1497 11.521 16.8743V16.491C12.3474 16.2755 12.9701 15.509 12.9701 14.6108C12.9701 14.491 12.9222 14.3713 12.8504 14.2875L10.515 11.5928Z" fill="url(#paint0_linear)"/>
<path d="M19.5689 2.80237H21.509C21.7845 2.80237 22.012 2.57483 22.012 2.29938C22.012 2.02393 21.7845 1.79639 21.509 1.79639H19.5689C19.2935 1.79639 19.0659 2.02393 19.0659 2.29938C19.0659 2.57483 19.2935 2.80237 19.5689 2.80237Z" fill="url(#paint1_linear)"/>
<path d="M21.5091 4.2395H17.5091C17.2336 4.2395 17.0061 4.46705 17.0061 4.7425C17.0061 5.01794 17.2336 5.24549 17.5091 5.24549H21.5091C21.7845 5.24549 22.0121 5.01794 22.0121 4.7425C22.0121 4.46705 21.7845 4.2395 21.5091 4.2395Z" fill="url(#paint2_linear)"/>
<path d="M21.509 6.67065H19.5689C19.2935 6.67065 19.0659 6.8982 19.0659 7.17365C19.0659 7.4491 19.2935 7.67664 19.5689 7.67664H21.509C21.7845 7.67664 22.012 7.4491 22.012 7.17365C22.012 6.8982 21.7845 6.67065 21.509 6.67065Z" fill="url(#paint3_linear)"/>
<path d="M0.502994 2.80237H2.44311C2.71856 2.80237 2.94611 2.57483 2.94611 2.29938C2.94611 2.02393 2.71856 1.79639 2.44311 1.79639H0.502994C0.227545 1.80836 0 2.03591 0 2.31136C0 2.58681 0.227545 2.80237 0.502994 2.80237Z" fill="url(#paint4_linear)"/>
<path d="M0.502994 5.23353H4.50299C4.77844 5.23353 5.00599 5.00598 5.00599 4.73053C5.00599 4.45508 4.77844 4.22754 4.50299 4.22754H0.502994C0.227545 4.22754 0 4.45508 0 4.73053C0 5.00598 0.227545 5.23353 0.502994 5.23353Z" fill="url(#paint5_linear)"/>
<path d="M0.502994 7.66468H2.44311C2.71856 7.66468 2.94611 7.43713 2.94611 7.16169C2.94611 6.88624 2.71856 6.65869 2.44311 6.65869H0.502994C0.227545 6.65869 0 6.88624 0 7.16169C0 7.43713 0.227545 7.66468 0.502994 7.66468Z" fill="url(#paint6_linear)"/>
<path d="M14.2275 5.32934L16.503 1.08982C16.6228 0.874252 16.5629 0.610779 16.3713 0.467066C16.0838 0.239521 15.7246 0 15.1018 0C14.4192 0 14.0479 0.299401 13.7725 0.51497C13.5329 0.706587 13.4012 0.814371 13.0539 0.814371C12.7186 0.814371 12.5749 0.706587 12.3353 0.51497C12.0599 0.299401 11.6886 0 11.006 0C10.3234 0 9.94012 0.299401 9.66467 0.51497C9.42515 0.706587 9.29341 0.814371 8.94611 0.814371C8.61078 0.814371 8.46707 0.706587 8.22754 0.51497C7.96407 0.299401 7.59281 0 6.91018 0C6.28743 0 5.92814 0.239521 5.64072 0.467066C5.4491 0.610779 5.38922 0.874252 5.50898 1.08982L7.78443 5.32934C6.73054 6.49102 2.03593 11.3413 1.58084 11.8084C0.562874 12.8862 0 14.3353 0 15.9042C0 19.2695 2.73054 22 6.09581 22H15.9042C19.2695 22 22 19.2695 22 15.9042C22 14.3353 21.4371 12.8862 20.4192 11.8084C19.976 11.3413 15.2814 6.49102 14.2275 5.32934ZM6.91018 0.994012C7.24551 0.994012 7.38922 1.1018 7.62874 1.29341C7.90419 1.50898 8.27545 1.80838 8.95808 1.80838C9.64072 1.80838 10.024 1.50898 10.2874 1.29341C10.5269 1.1018 10.6587 0.994012 11.006 0.994012C11.3413 0.994012 11.485 1.1018 11.7246 1.29341C12 1.50898 12.3713 1.80838 13.0539 1.80838C13.7365 1.80838 14.1078 1.50898 14.3832 1.29341C14.6228 1.1018 14.7545 0.994012 15.1018 0.994012C15.2216 0.994012 15.3174 1.00599 15.4012 1.02994L13.3293 4.91018H8.68264L6.5988 1.04192C6.68263 1.00599 6.77844 0.994012 6.91018 0.994012ZM15.9042 21.006H6.09581C3.28144 21.006 0.994012 18.7186 0.994012 15.9042C0.994012 14.5988 1.46108 13.3892 2.2994 12.491C2.74252 12.024 7.55689 7.05389 8.5988 5.89222H13.3892C14.4431 7.05389 19.2455 12.024 19.6886 12.491C20.5269 13.3772 20.994 14.5868 20.994 15.9042C21.006 18.7186 18.7186 21.006 15.9042 21.006Z" fill="url(#paint7_linear)"/>
<path d="M6.09583 18.8025C4.50301 18.8025 3.2096 17.509 3.2096 15.9162C3.2096 15.1737 3.4611 14.5031 3.90421 14.036C4.09583 13.8324 4.08385 13.521 3.88026 13.3294C3.67667 13.1378 3.36529 13.1498 3.17367 13.3534C2.55092 14.012 2.20361 14.9222 2.20361 15.9282C2.20361 18.0719 3.95212 19.8204 6.09583 19.8204C6.37128 19.8204 6.59882 19.5929 6.59882 19.3174C6.59882 19.018 6.37128 18.8025 6.09583 18.8025Z" fill="url(#paint8_linear)"/>
<path d="M18.1197 13.3173C17.9161 13.5089 17.9161 13.8203 18.0957 14.0239C18.5508 14.5029 18.7903 15.1736 18.7903 15.9041C18.7903 17.4969 17.4969 18.7904 15.9041 18.7904C15.6287 18.7904 15.4011 19.0179 15.4011 19.2934C15.4011 19.5688 15.6287 19.7964 15.9041 19.7964C18.0478 19.7964 19.7963 18.0478 19.7963 15.9041C19.7963 14.9101 19.449 13.988 18.8263 13.3293C18.6347 13.1377 18.3233 13.1257 18.1197 13.3173Z" fill="url(#paint9_linear)"/>
<defs>
<linearGradient id="paint0_linear" x1="11.018" y1="9.41321" x2="11.018" y2="17.3773" gradientUnits="userSpaceOnUse">
<stop stop-color="#1383D6"/>
<stop offset="1" stop-color="#00FFD1"/>
</linearGradient>
<linearGradient id="paint1_linear" x1="20.539" y1="1.79639" x2="20.539" y2="2.80237" gradientUnits="userSpaceOnUse">
<stop stop-color="#1383D6"/>
<stop offset="1" stop-color="#00FFD1"/>
</linearGradient>
<linearGradient id="paint2_linear" x1="19.5091" y1="4.2395" x2="19.5091" y2="5.24549" gradientUnits="userSpaceOnUse">
<stop stop-color="#1383D6"/>
<stop offset="1" stop-color="#00FFD1"/>
</linearGradient>
<linearGradient id="paint3_linear" x1="20.539" y1="6.67065" x2="20.539" y2="7.67664" gradientUnits="userSpaceOnUse">
<stop stop-color="#1383D6"/>
<stop offset="1" stop-color="#00FFD1"/>
</linearGradient>
<linearGradient id="paint4_linear" x1="1.47305" y1="1.79639" x2="1.47305" y2="2.80237" gradientUnits="userSpaceOnUse">
<stop stop-color="#1383D6"/>
<stop offset="1" stop-color="#00FFD1"/>
</linearGradient>
<linearGradient id="paint5_linear" x1="2.50299" y1="4.22754" x2="2.50299" y2="5.23353" gradientUnits="userSpaceOnUse">
<stop stop-color="#1383D6"/>
<stop offset="1" stop-color="#00FFD1"/>
</linearGradient>
<linearGradient id="paint6_linear" x1="1.47305" y1="6.65869" x2="1.47305" y2="7.66468" gradientUnits="userSpaceOnUse">
<stop stop-color="#1383D6"/>
<stop offset="1" stop-color="#00FFD1"/>
</linearGradient>
<linearGradient id="paint7_linear" x1="11" y1="0" x2="11" y2="22" gradientUnits="userSpaceOnUse">
<stop stop-color="#1383D6"/>
<stop offset="1" stop-color="#00FFD1"/>
</linearGradient>
<linearGradient id="paint8_linear" x1="4.40122" y1="13.1929" x2="4.40122" y2="19.8204" gradientUnits="userSpaceOnUse">
<stop stop-color="#1383D6"/>
<stop offset="1" stop-color="#00FFD1"/>
</linearGradient>
<linearGradient id="paint9_linear" x1="17.5987" y1="13.1794" x2="17.5987" y2="19.7964" gradientUnits="userSpaceOnUse">
<stop stop-color="#1383D6"/>
<stop offset="1" stop-color="#00FFD1"/>
</linearGradient>
</defs>
</svg>
