<svg width="23" height="23" viewBox="0 0 23 23" fill="none" xmlns="http://www.w3.org/2000/svg">
<path d="M8.63475 21.006H1.82038C1.54493 21.006 1.31738 21.2335 1.31738 21.509C1.31738 21.7844 1.54493 22.012 1.82038 22.012H8.63475C8.9102 22.012 9.13774 21.7844 9.13774 21.509C9.13774 21.2335 8.9102 21.006 8.63475 21.006Z" fill="url(#paint0_linear)"/>
<path d="M1.82038 18.5748C1.54493 18.5748 1.31738 18.8024 1.31738 19.0778C1.31738 19.3533 1.54493 19.5808 1.82038 19.5808H5.2096C5.48505 19.5808 5.71259 19.3533 5.71259 19.0778C5.71259 18.8024 5.48505 18.5748 5.2096 18.5748H1.82038Z" fill="url(#paint1_linear)"/>
<path d="M11.4852 1.32934H14.8864C15.1498 1.32934 15.3534 1.54491 15.3534 1.79641V4.75449C15.3534 5.02994 15.581 5.25748 15.8564 5.25748C16.1319 5.25748 16.3594 5.02994 16.3594 4.75449V1.80838C16.3594 0.99401 15.7007 0.335327 14.8864 0.335327H11.4852C11.2097 0.335327 10.9822 0.562872 10.9822 0.838321C10.9822 1.11377 11.2097 1.32934 11.4852 1.32934Z" fill="url(#paint2_linear)"/>
<path d="M6.85024 6.10773C6.70653 6.03587 6.52689 6.04785 6.39515 6.13168C6.25144 6.21551 6.16761 6.35923 6.14365 6.51492L5.92809 9.01791C5.90413 9.2215 6.02389 9.4251 6.21551 9.50893L8.49096 10.5748C8.56282 10.6107 8.63467 10.6227 8.70653 10.6227C8.79036 10.6227 8.8742 10.5988 8.95803 10.5508C9.10174 10.467 9.18557 10.3233 9.20953 10.1676L9.41312 7.66462C9.43707 7.46102 9.31731 7.25743 9.12569 7.1736L6.85024 6.10773ZM8.26342 9.36522L6.94605 8.75444L7.07779 7.30533L8.39515 7.91611L8.26342 9.36522Z" fill="url(#paint3_linear)"/>
<path d="M6.32335 16.1916C6.40718 16.1916 6.49101 16.1677 6.57485 16.1198C6.81437 15.988 6.8982 15.6766 6.75449 15.4371L1.05389 5.58084C0.994011 5.47305 0.970059 5.34132 1.00599 5.22156C1.04192 5.1018 1.11377 4.99401 1.22156 4.93413L7.92814 1.05389C8.15568 0.922156 8.44311 1.00599 8.57485 1.22156L12.0239 7.18563C12.1557 7.42515 12.4671 7.50898 12.7066 7.36527C12.9461 7.23353 13.0299 6.92216 12.8862 6.68264L9.4491 0.730539C9.25748 0.39521 8.93413 0.143713 8.56287 0.0479042C8.17964 -0.0479042 7.78443 0 7.4491 0.191617L0.730539 4.07186C0.395209 4.26347 0.143713 4.58683 0.0479042 4.95808C-0.0479042 5.34132 0 5.73653 0.191617 6.07186L5.88024 15.9281C5.98802 16.0958 6.15569 16.1916 6.32335 16.1916Z" fill="url(#paint4_linear)"/>
<path d="M17.8204 3.34128L20.7665 5.04188C20.994 5.17362 21.0659 5.46104 20.9341 5.68859L19.3413 8.44308C19.2096 8.6826 19.2814 8.982 19.521 9.12571C19.6048 9.17362 19.6886 9.19757 19.7725 9.19757C19.9401 9.19757 20.1078 9.11374 20.2036 8.94607L21.7964 6.19158C22.2036 5.485 21.9641 4.58679 21.2575 4.19158L18.3234 2.49098C18.0838 2.35925 17.7844 2.4311 17.6407 2.67062C17.509 2.91015 17.5928 3.20955 17.8204 3.34128Z" fill="url(#paint5_linear)"/>
<path d="M20.9461 17.4133C21.6287 16.7306 22.0119 15.8205 22.0119 14.8504C22.0119 13.8803 21.6287 12.9702 20.9461 12.2875L15.5928 6.93424C15.497 6.83843 15.3772 6.79053 15.2455 6.79053C15.1137 6.79053 14.982 6.83843 14.8982 6.93424L9.54487 12.2875C8.86224 12.9702 8.479 13.8803 8.479 14.8504C8.479 15.8205 8.86224 16.7306 9.54487 17.4133C10.2275 18.0959 11.1377 18.4791 12.1077 18.4791C12.503 18.4791 12.8982 18.4193 13.2694 18.2875C13.2215 18.5151 13.1377 18.7786 12.97 19.042C12.7065 19.4612 12.3113 19.7247 11.7964 19.8205C11.5688 19.8684 11.4012 20.072 11.4012 20.3115V21.5091C11.4012 21.7845 11.6287 22.0121 11.9042 22.0121H18.5868C18.8622 22.0121 19.0898 21.7845 19.0898 21.5091V20.3115C19.0898 20.072 18.9221 19.8684 18.6946 19.8205C18.1916 19.7247 17.7964 19.4612 17.5209 19.042C17.3533 18.7905 17.2694 18.5151 17.2215 18.2875C17.5928 18.4193 17.988 18.4791 18.3832 18.4791C19.3413 18.4791 20.2515 18.0959 20.9461 17.4133ZM18.0838 20.6827V21.0061H12.3952V20.6827C13.988 20.1438 14.3832 18.4672 14.2994 17.6887C14.2395 17.078 13.8443 17.03 13.7245 17.03C13.6287 17.03 13.5329 17.054 13.4491 17.1019C13.0419 17.3414 12.5748 17.4732 12.0958 17.4732C11.3892 17.4732 10.7305 17.1977 10.2275 16.7067C9.72451 16.2037 9.46104 15.545 9.46104 14.8384C9.46104 14.1318 9.73649 13.4732 10.2275 12.9702L15.2215 7.97616L20.2155 12.9702C20.7185 13.4732 20.982 14.1318 20.982 14.8384C20.982 15.545 20.7065 16.2037 20.2036 16.7067C19.7006 17.2097 19.0419 17.4732 18.3353 17.4732C17.8562 17.4732 17.3892 17.3414 16.982 17.1019C16.8982 17.054 16.8024 17.03 16.7065 17.03C16.5868 17.03 16.1916 17.078 16.1317 17.6887C16.0958 18.4791 16.479 20.1438 18.0838 20.6827Z" fill="url(#paint6_linear)"/>
<defs>
<linearGradient id="paint0_linear" x1="5.22756" y1="21.006" x2="5.22756" y2="22.012" gradientUnits="userSpaceOnUse">
<stop stop-color="#1383D6"/>
<stop offset="1" stop-color="#00FFD1"/>
</linearGradient>
<linearGradient id="paint1_linear" x1="3.51499" y1="18.5748" x2="3.51499" y2="19.5808" gradientUnits="userSpaceOnUse">
<stop stop-color="#1383D6"/>
<stop offset="1" stop-color="#00FFD1"/>
</linearGradient>
<linearGradient id="paint2_linear" x1="13.6708" y1="0.335327" x2="13.6708" y2="5.25748" gradientUnits="userSpaceOnUse">
<stop stop-color="#1383D6"/>
<stop offset="1" stop-color="#00FFD1"/>
</linearGradient>
<linearGradient id="paint3_linear" x1="7.6706" y1="6.06055" x2="7.6706" y2="10.6227" gradientUnits="userSpaceOnUse">
<stop stop-color="#1383D6"/>
<stop offset="1" stop-color="#00FFD1"/>
</linearGradient>
<linearGradient id="paint4_linear" x1="6.47837" y1="0" x2="6.47837" y2="16.1916" gradientUnits="userSpaceOnUse">
<stop stop-color="#1383D6"/>
<stop offset="1" stop-color="#00FFD1"/>
</linearGradient>
<linearGradient id="paint5_linear" x1="19.7864" y1="2.42578" x2="19.7864" y2="9.19757" gradientUnits="userSpaceOnUse">
<stop stop-color="#1383D6"/>
<stop offset="1" stop-color="#00FFD1"/>
</linearGradient>
<linearGradient id="paint6_linear" x1="15.2455" y1="6.79053" x2="15.2455" y2="22.0121" gradientUnits="userSpaceOnUse">
<stop stop-color="#1383D6"/>
<stop offset="1" stop-color="#00FFD1"/>
</linearGradient>
</defs>
</svg>
