<svg width="23" height="23" viewBox="0 0 23 23" fill="none" xmlns="http://www.w3.org/2000/svg">
<path d="M14.9341 4.41916C14.6587 4.41916 14.4311 4.64671 14.4311 4.92216V7.06587H13.2096V4.19162L14.2515 2.77844C14.3114 2.69461 14.3473 2.58683 14.3473 2.47904V0.502994C14.3473 0.227545 14.1198 0 13.8443 0H1.36527C1.08982 0 0.874252 0.227545 0.874252 0.502994V2.47904C0.874252 2.58683 0.91018 2.69461 0.97006 2.77844L2.01198 4.19162V10.982L0.0598802 14.6228C0.0239521 14.6946 0 14.7784 0 14.8623V18.3353C0 18.3952 0.011976 18.4431 0.0239521 18.503L1.12575 21.6766C1.1976 21.8802 1.38922 22.012 1.59281 22.012H13.6168C13.8323 22.012 14.012 21.8802 14.0838 21.6766L15.1856 18.503C15.2096 18.4551 15.2096 18.3952 15.2096 18.3353V14.8623C15.2096 14.7784 15.1856 14.6946 15.1497 14.6228L13.1976 10.9701V8.05988H14.9102C15.1856 8.05988 15.4132 7.83234 15.4132 7.55689V4.91018C15.4251 4.63473 15.2096 4.41916 14.9341 4.41916ZM12.2156 10.5988H3.00599V4.51497H12.2156V10.5988ZM1.86826 0.994012H13.3653V2.31138L12.4671 3.52096H2.76647L1.86826 2.31138V0.994012V0.994012ZM13.2695 21.006H1.9521L0.994012 18.2395V15.3413H4.67066C4.94611 15.3413 5.17365 15.1138 5.17365 14.8383C5.17365 14.5629 4.94611 14.3353 4.67066 14.3353H1.32934L2.81437 11.5689H12.4192L13.9042 14.3353H10.5629C10.2874 14.3353 10.0599 14.5629 10.0599 14.8383C10.0599 15.1138 10.2874 15.3413 10.5629 15.3413H14.2395V18.2395L13.2695 21.006Z" fill="url(#paint0_linear)"/>
<path d="M4.71857 9.37718H10.503C10.7785 9.37718 11.006 9.14964 11.006 8.87419V6.22748C11.006 5.95203 10.7785 5.72449 10.503 5.72449H4.71857C4.44312 5.72449 4.21558 5.95203 4.21558 6.22748V8.87419C4.22755 9.16161 4.4551 9.37718 4.71857 9.37718ZM5.22156 6.73048H10.012V8.38317H5.22156V6.73048V6.73048Z" fill="url(#paint1_linear)"/>
<path d="M3.96418 17.03C3.68873 17.03 3.46118 17.2576 3.46118 17.533V18.8504C3.46118 19.1258 3.68873 19.3534 3.96418 19.3534C4.23962 19.3534 4.46717 19.1258 4.46717 18.8504V17.533C4.46717 17.2456 4.23962 17.03 3.96418 17.03Z" fill="url(#paint2_linear)"/>
<path d="M6.39533 17.03C6.11988 17.03 5.89233 17.2576 5.89233 17.533V18.8504C5.89233 19.1258 6.11988 19.3534 6.39533 19.3534C6.67078 19.3534 6.89832 19.1258 6.89832 18.8504V17.533C6.89832 17.2456 6.67078 17.03 6.39533 17.03Z" fill="url(#paint3_linear)"/>
<path d="M8.82624 17.03C8.55079 17.03 8.32324 17.2576 8.32324 17.533V18.8504C8.32324 19.1258 8.55079 19.3534 8.82624 19.3534C9.10168 19.3534 9.32923 19.1258 9.32923 18.8504V17.533C9.32923 17.2456 9.10168 17.03 8.82624 17.03Z" fill="url(#paint4_linear)"/>
<path d="M11.2696 17.03C10.9941 17.03 10.7666 17.2576 10.7666 17.533V18.8504C10.7666 19.1258 10.9941 19.3534 11.2696 19.3534C11.545 19.3534 11.7726 19.1258 11.7726 18.8504V17.533C11.7606 17.2456 11.545 17.03 11.2696 17.03Z" fill="url(#paint5_linear)"/>
<path d="M18.4073 2.53892H19.4612V3.59281C19.4612 3.86826 19.6887 4.09581 19.9642 4.09581C20.2396 4.09581 20.4672 3.86826 20.4672 3.59281V2.53892H21.5211C21.7965 2.53892 22.0241 2.31138 22.0241 2.03593C22.0241 1.76048 21.7965 1.53293 21.5211 1.53293H20.4672V0.502994C20.4672 0.227545 20.2396 0 19.9642 0C19.6887 0 19.4612 0.227545 19.4612 0.502994V1.55689H18.4073C18.1318 1.55689 17.9043 1.78443 17.9043 2.05988C17.9043 2.33533 18.1318 2.53892 18.4073 2.53892Z" fill="url(#paint6_linear)"/>
<path d="M16.5389 12.2515C17.0879 12.2515 17.5329 11.8064 17.5329 11.2574C17.5329 10.7085 17.0879 10.2634 16.5389 10.2634C15.99 10.2634 15.5449 10.7085 15.5449 11.2574C15.5449 11.8064 15.99 12.2515 16.5389 12.2515Z" fill="url(#paint7_linear)"/>
<path d="M19.9882 8.55088C20.5371 8.55088 20.9822 8.10585 20.9822 7.55687C20.9822 7.0079 20.5371 6.56287 19.9882 6.56287C19.4392 6.56287 18.9941 7.0079 18.9941 7.55687C18.9941 8.10585 19.4392 8.55088 19.9882 8.55088Z" fill="url(#paint8_linear)"/>
<path d="M19.9642 14.2874C18.8384 14.2874 17.9163 15.2095 17.9163 16.3353C17.9163 17.461 18.8384 18.3832 19.9642 18.3832C21.0899 18.3832 22.0121 17.461 22.0121 16.3353C22.0001 15.2095 21.0899 14.2874 19.9642 14.2874ZM19.9642 17.3891C19.3893 17.3891 18.9103 16.9221 18.9103 16.3353C18.9103 15.7604 19.3773 15.2814 19.9642 15.2814C20.539 15.2814 21.0181 15.7484 21.0181 16.3353C21.0061 16.9101 20.539 17.3891 19.9642 17.3891Z" fill="url(#paint9_linear)"/>
<defs>
<linearGradient id="paint0_linear" x1="7.70682" y1="0" x2="7.70682" y2="22.012" gradientUnits="userSpaceOnUse">
<stop stop-color="#1383D6"/>
<stop offset="1" stop-color="#00FFD1"/>
</linearGradient>
<linearGradient id="paint1_linear" x1="7.61079" y1="5.72449" x2="7.61079" y2="9.37718" gradientUnits="userSpaceOnUse">
<stop stop-color="#1383D6"/>
<stop offset="1" stop-color="#00FFD1"/>
</linearGradient>
<linearGradient id="paint2_linear" x1="3.96418" y1="17.03" x2="3.96418" y2="19.3534" gradientUnits="userSpaceOnUse">
<stop stop-color="#1383D6"/>
<stop offset="1" stop-color="#00FFD1"/>
</linearGradient>
<linearGradient id="paint3_linear" x1="6.39533" y1="17.03" x2="6.39533" y2="19.3534" gradientUnits="userSpaceOnUse">
<stop stop-color="#1383D6"/>
<stop offset="1" stop-color="#00FFD1"/>
</linearGradient>
<linearGradient id="paint4_linear" x1="8.82624" y1="17.03" x2="8.82624" y2="19.3534" gradientUnits="userSpaceOnUse">
<stop stop-color="#1383D6"/>
<stop offset="1" stop-color="#00FFD1"/>
</linearGradient>
<linearGradient id="paint5_linear" x1="11.2696" y1="17.03" x2="11.2696" y2="19.3534" gradientUnits="userSpaceOnUse">
<stop stop-color="#1383D6"/>
<stop offset="1" stop-color="#00FFD1"/>
</linearGradient>
<linearGradient id="paint6_linear" x1="19.9642" y1="0" x2="19.9642" y2="4.09581" gradientUnits="userSpaceOnUse">
<stop stop-color="#1383D6"/>
<stop offset="1" stop-color="#00FFD1"/>
</linearGradient>
<linearGradient id="paint7_linear" x1="16.5389" y1="10.2634" x2="16.5389" y2="12.2515" gradientUnits="userSpaceOnUse">
<stop stop-color="#1383D6"/>
<stop offset="1" stop-color="#00FFD1"/>
</linearGradient>
<linearGradient id="paint8_linear" x1="19.9882" y1="6.56287" x2="19.9882" y2="8.55088" gradientUnits="userSpaceOnUse">
<stop stop-color="#1383D6"/>
<stop offset="1" stop-color="#00FFD1"/>
</linearGradient>
<linearGradient id="paint9_linear" x1="19.9642" y1="14.2874" x2="19.9642" y2="18.3832" gradientUnits="userSpaceOnUse">
<stop stop-color="#1383D6"/>
<stop offset="1" stop-color="#00FFD1"/>
</linearGradient>
</defs>
</svg>
