<svg width="22" height="22" viewBox="0 0 22 22" fill="none" xmlns="http://www.w3.org/2000/svg">
<path d="M17.8204 3.34128L20.7665 5.04188C20.8743 5.10176 20.9581 5.20955 20.982 5.32931C21.018 5.44907 20.994 5.5808 20.9341 5.68859L18.3234 10.2036C18.1916 10.4431 18.2635 10.7425 18.503 10.8862C18.5868 10.9341 18.6707 10.9581 18.7545 10.9581C18.9222 10.9581 19.0898 10.8742 19.1856 10.7066L21.7964 6.19158C21.988 5.85625 22.0479 5.46104 21.9401 5.07781C21.8443 4.69458 21.5928 4.3832 21.2575 4.19158L18.3234 2.49098C18.0838 2.35925 17.7844 2.4311 17.6407 2.67062C17.509 2.91015 17.5928 3.20955 17.8204 3.34128Z" fill="url(#paint0_linear)"/>
<path d="M11.4852 1.32934H14.8864C15.1498 1.32934 15.3534 1.54491 15.3534 1.7964V8.40718C15.3534 8.68263 15.581 8.91018 15.8564 8.91018C16.1319 8.91018 16.3594 8.68263 16.3594 8.40718V1.80838C16.3594 0.99401 15.7007 0.335327 14.8864 0.335327H11.4852C11.2097 0.335327 10.9822 0.562872 10.9822 0.838321C10.9822 1.11377 11.2097 1.32934 11.4852 1.32934Z" fill="url(#paint1_linear)"/>
<path d="M6.85024 6.10773C6.70653 6.03587 6.52689 6.04785 6.39515 6.13168C6.25144 6.21551 6.16761 6.35923 6.14365 6.51492L5.92809 9.01791C5.90413 9.2215 6.02389 9.4251 6.21551 9.50893L8.49096 10.5748C8.56282 10.6107 8.63467 10.6227 8.70653 10.6227C8.79036 10.6227 8.8742 10.5988 8.95803 10.5508C9.10174 10.467 9.18557 10.3233 9.20953 10.1676L9.41312 7.66462C9.43707 7.46102 9.31731 7.25743 9.12569 7.1736L6.85024 6.10773ZM8.26342 9.36522L6.94605 8.75444L7.07779 7.30533L8.39515 7.91611L8.26342 9.36522Z" fill="url(#paint2_linear)"/>
<path d="M9.64072 14.3234L7.4012 15.6168C7.29341 15.6766 7.16168 15.7006 7.04192 15.6647C6.92216 15.6287 6.81437 15.5569 6.75449 15.4491L1.05389 5.58084C0.922156 5.35329 1.00599 5.06587 1.22156 4.93413L7.92814 1.05389C8.03593 0.994012 8.16766 0.97006 8.28743 1.00599C8.40718 1.04192 8.51497 1.11377 8.57485 1.22156L14.0479 10.6946C14.1796 10.9341 14.491 11.018 14.7305 10.8743C14.9701 10.7425 15.0539 10.4311 14.9102 10.1916L9.4491 0.730539C9.25749 0.39521 8.93413 0.143713 8.56287 0.0479042C8.17964 -0.0479042 7.78443 0 7.4491 0.191617L0.730539 4.07186C0.39521 4.26347 0.143713 4.58683 0.0479042 4.95808C-0.0479042 5.34132 0 5.73653 0.191617 6.07186L5.88024 15.9281C6.07186 16.2635 6.39521 16.515 6.76647 16.6108C6.8982 16.6467 7.01796 16.6587 7.1497 16.6587C7.4012 16.6587 7.65269 16.5868 7.88024 16.4671L10.1198 15.1737C10.3593 15.0419 10.4431 14.7305 10.2994 14.491C10.1796 14.2635 9.88024 14.1796 9.64072 14.3234Z" fill="url(#paint3_linear)"/>
<path d="M20.3113 12.1677H13.1976C12.3113 12.1677 11.5928 12.8863 11.5928 13.7725V20.3953C11.5928 21.2815 12.3113 22.0001 13.1976 22.0001H20.3113C21.1976 22.0001 21.9161 21.2815 21.9161 20.3953V13.7725C21.9161 12.8863 21.1976 12.1677 20.3113 12.1677ZM20.9221 20.4072C20.9221 20.7426 20.6467 21.018 20.3113 21.018H13.1976C12.8622 21.018 12.5868 20.7426 12.5868 20.4072V13.7725C12.5868 13.4372 12.8622 13.1617 13.1976 13.1617H20.3113C20.6467 13.1617 20.9221 13.4372 20.9221 13.7725V20.4072Z" fill="url(#paint4_linear)"/>
<path d="M16.7545 17.8683C17.1844 17.8683 17.533 17.5198 17.533 17.0898C17.533 16.6599 17.1844 16.3114 16.7545 16.3114C16.3246 16.3114 15.9761 16.6599 15.9761 17.0898C15.9761 17.5198 16.3246 17.8683 16.7545 17.8683Z" fill="url(#paint5_linear)"/>
<path d="M18.7665 18.3114C18.5629 18.3114 18.3713 18.3952 18.2156 18.5389C18.0719 18.6827 17.988 18.8743 17.988 19.0898C17.988 19.2934 18.0719 19.4851 18.2156 19.6407C18.3593 19.7845 18.5509 19.8683 18.7665 19.8683C18.9701 19.8683 19.1617 19.7845 19.3174 19.6407C19.6168 19.3413 19.6168 18.8503 19.3174 18.5509C19.1617 18.3952 18.9701 18.3114 18.7665 18.3114Z" fill="url(#paint6_linear)"/>
<path d="M14.7545 14.3114C14.5509 14.3114 14.3593 14.3952 14.2036 14.5389C14.0599 14.6827 13.9761 14.8743 13.9761 15.0898C13.9761 15.2934 14.0599 15.497 14.2036 15.6407C14.3473 15.7845 14.5389 15.8683 14.7545 15.8683C14.9581 15.8683 15.1617 15.7845 15.3054 15.6407C15.4491 15.497 15.533 15.3054 15.533 15.0898C15.533 14.8863 15.4491 14.6946 15.3054 14.5389C15.1617 14.3952 14.9701 14.3114 14.7545 14.3114Z" fill="url(#paint7_linear)"/>
<path d="M18.7665 14.3114C18.5629 14.3114 18.3713 14.3952 18.2156 14.5389C18.0719 14.6827 17.988 14.8743 17.988 15.0898C17.988 15.2934 18.0719 15.497 18.2156 15.6407C18.3593 15.7845 18.5509 15.8683 18.7665 15.8683C18.9701 15.8683 19.1617 15.7845 19.3174 15.6407C19.6168 15.3413 19.6168 14.8503 19.3174 14.5509C19.1617 14.3952 18.9701 14.3114 18.7665 14.3114Z" fill="url(#paint8_linear)"/>
<path d="M14.7545 18.3114C14.5509 18.3114 14.3593 18.3952 14.2036 18.5389C14.0599 18.6827 13.9761 18.8743 13.9761 19.0898C13.9761 19.2934 14.0599 19.4851 14.2036 19.6407C14.3473 19.7845 14.5389 19.8683 14.7545 19.8683C14.9581 19.8683 15.1497 19.7845 15.3054 19.6407C15.4491 19.497 15.533 19.3054 15.533 19.0898C15.533 18.8863 15.4491 18.6946 15.3054 18.5389C15.1617 18.3952 14.9701 18.3114 14.7545 18.3114Z" fill="url(#paint9_linear)"/>
<defs>
<linearGradient id="paint0_linear" x1="19.7857" y1="2.42578" x2="19.7857" y2="10.9581" gradientUnits="userSpaceOnUse">
<stop stop-color="#1383D6"/>
<stop offset="1" stop-color="#00FFD1"/>
</linearGradient>
<linearGradient id="paint1_linear" x1="13.6708" y1="0.335327" x2="13.6708" y2="8.91018" gradientUnits="userSpaceOnUse">
<stop stop-color="#1383D6"/>
<stop offset="1" stop-color="#00FFD1"/>
</linearGradient>
<linearGradient id="paint2_linear" x1="7.6706" y1="6.06055" x2="7.6706" y2="10.6227" gradientUnits="userSpaceOnUse">
<stop stop-color="#1383D6"/>
<stop offset="1" stop-color="#00FFD1"/>
</linearGradient>
<linearGradient id="paint3_linear" x1="7.49035" y1="0" x2="7.49035" y2="16.6587" gradientUnits="userSpaceOnUse">
<stop stop-color="#1383D6"/>
<stop offset="1" stop-color="#00FFD1"/>
</linearGradient>
<linearGradient id="paint4_linear" x1="16.7545" y1="12.1677" x2="16.7545" y2="22.0001" gradientUnits="userSpaceOnUse">
<stop stop-color="#1383D6"/>
<stop offset="1" stop-color="#00FFD1"/>
</linearGradient>
<linearGradient id="paint5_linear" x1="16.7545" y1="16.3114" x2="16.7545" y2="17.8683" gradientUnits="userSpaceOnUse">
<stop stop-color="#1383D6"/>
<stop offset="1" stop-color="#00FFD1"/>
</linearGradient>
<linearGradient id="paint6_linear" x1="18.765" y1="18.3114" x2="18.765" y2="19.8683" gradientUnits="userSpaceOnUse">
<stop stop-color="#1383D6"/>
<stop offset="1" stop-color="#00FFD1"/>
</linearGradient>
<linearGradient id="paint7_linear" x1="14.7545" y1="14.3114" x2="14.7545" y2="15.8683" gradientUnits="userSpaceOnUse">
<stop stop-color="#1383D6"/>
<stop offset="1" stop-color="#00FFD1"/>
</linearGradient>
<linearGradient id="paint8_linear" x1="18.765" y1="14.3114" x2="18.765" y2="15.8683" gradientUnits="userSpaceOnUse">
<stop stop-color="#1383D6"/>
<stop offset="1" stop-color="#00FFD1"/>
</linearGradient>
<linearGradient id="paint9_linear" x1="14.7545" y1="18.3114" x2="14.7545" y2="19.8683" gradientUnits="userSpaceOnUse">
<stop stop-color="#1383D6"/>
<stop offset="1" stop-color="#00FFD1"/>
</linearGradient>
</defs>
</svg>
