<svg width="69" height="35" viewBox="0 0 69 35" fill="none" xmlns="http://www.w3.org/2000/svg">
<path d="M6.76562 27.1836H0.824219V0.183594H6.76562V27.1836ZM9.68359 17.498C9.68359 15.5996 10.0527 13.9121 10.791 12.4355C11.5293 10.9473 12.5898 9.80469 13.9727 9.00781C15.3555 8.21094 16.9785 7.8125 18.8418 7.8125C21.6895 7.8125 23.9336 8.69727 25.5742 10.4668C27.2148 12.2246 28.0352 14.6211 28.0352 17.6562V17.8672C28.0352 20.832 27.209 23.1875 25.5566 24.9336C23.916 26.668 21.6895 27.5352 18.877 27.5352C16.1699 27.5352 13.9961 26.7266 12.3555 25.1094C10.7148 23.4805 9.83008 21.2773 9.70117 18.5L9.68359 17.498ZM15.6074 17.8672C15.6074 19.625 15.8828 20.9141 16.4336 21.7344C16.9844 22.5547 17.7988 22.9648 18.877 22.9648C20.9863 22.9648 22.0645 21.3418 22.1113 18.0957V17.498C22.1113 14.0879 21.0215 12.3828 18.8418 12.3828C16.8613 12.3828 15.7891 13.8535 15.625 16.7949L15.6074 17.8672ZM29.9512 17.5332C29.9512 15.6113 30.2676 13.9121 30.9004 12.4355C31.5332 10.959 32.4414 9.82227 33.625 9.02539C34.8086 8.2168 36.1855 7.8125 37.7559 7.8125C39.7363 7.8125 41.2832 8.48047 42.3965 9.81641L42.6074 8.16406H47.9863V26.4629C47.9863 28.1387 47.5938 29.5918 46.8086 30.8223C46.0352 32.0645 44.9102 33.0137 43.4336 33.6699C41.957 34.3379 40.2461 34.6719 38.3008 34.6719C36.9062 34.6719 35.5527 34.4082 34.2402 33.8809C32.9395 33.3535 31.9434 32.668 31.252 31.8242L33.7305 28.3438C34.832 29.6445 36.2852 30.2949 38.0898 30.2949C40.7148 30.2949 42.0273 28.9473 42.0273 26.252V25.6543C40.8906 26.9082 39.4551 27.5352 37.7207 27.5352C35.4004 27.5352 33.5254 26.6504 32.0957 24.8809C30.666 23.0996 29.9512 20.7207 29.9512 17.7441V17.5332ZM35.8926 17.9023C35.8926 19.4609 36.1855 20.6973 36.7715 21.6113C37.3574 22.5137 38.1777 22.9648 39.2324 22.9648C40.5098 22.9648 41.4414 22.5371 42.0273 21.6816V13.6836C41.4531 12.8164 40.5332 12.3828 39.2676 12.3828C38.2129 12.3828 37.3867 12.8574 36.7891 13.8066C36.1914 14.7441 35.8926 16.1094 35.8926 17.9023ZM50.6055 17.498C50.6055 15.5996 50.9746 13.9121 51.7129 12.4355C52.4512 10.9473 53.5117 9.80469 54.8945 9.00781C56.2773 8.21094 57.9004 7.8125 59.7637 7.8125C62.6113 7.8125 64.8555 8.69727 66.4961 10.4668C68.1367 12.2246 68.957 14.6211 68.957 17.6562V17.8672C68.957 20.832 68.1309 23.1875 66.4785 24.9336C64.8379 26.668 62.6113 27.5352 59.7988 27.5352C57.0918 27.5352 54.918 26.7266 53.2773 25.1094C51.6367 23.4805 50.752 21.2773 50.623 18.5L50.6055 17.498ZM56.5293 17.8672C56.5293 19.625 56.8047 20.9141 57.3555 21.7344C57.9062 22.5547 58.7207 22.9648 59.7988 22.9648C61.9082 22.9648 62.9863 21.3418 63.0332 18.0957V17.498C63.0332 14.0879 61.9434 12.3828 59.7637 12.3828C57.7832 12.3828 56.7109 13.8535 56.5469 16.7949L56.5293 17.8672Z" fill="black"/>
</svg>
