<svg width="75" height="76" viewBox="0 0 75 76" fill="none" xmlns="http://www.w3.org/2000/svg">
<path d="M21.9465 55.9932C21.2916 55.9932 20.7486 55.4477 20.7486 54.7899V9.43376C20.7486 8.77596 21.2916 8.23047 21.9465 8.23047H53.269C53.9239 8.23047 54.467 8.77596 54.467 9.43376V49.2066C54.467 49.8644 53.9239 50.4099 53.269 50.4099C52.6141 50.4099 52.0711 49.8644 52.0711 49.2066V10.6371H23.1445V54.7899C23.1445 55.4477 22.6174 55.9932 21.9465 55.9932Z" fill="url(#paint0_linear)"/>
<path d="M17.8415 52.0463C17.3144 52.0463 16.8193 51.6773 16.6755 51.1478L8.65722 19.7178C8.57735 19.3969 8.62527 19.076 8.80097 18.7872C8.97667 18.5145 9.24821 18.3059 9.55169 18.2417L17.57 16.4288C18.2089 16.2844 18.8638 16.6855 19.0075 17.3433C19.1513 17.985 18.752 18.6428 18.0971 18.7872L11.2767 20.3275L18.9916 50.5381C19.1513 51.1799 18.7679 51.8377 18.129 51.9981C18.0332 52.0302 17.9374 52.0463 17.8415 52.0463Z" fill="url(#paint1_linear)"/>
<path d="M13.6567 52.5277C13.2254 52.5277 12.8101 52.287 12.5865 51.8699L1.82088 30.8523C1.67712 30.5635 1.64518 30.2427 1.74101 29.9378C1.83685 29.633 2.0445 29.3763 2.33201 29.2319L6.67659 26.9857C7.26758 26.6809 7.98635 26.9216 8.28983 27.4992C8.59331 28.0928 8.35372 28.8148 7.7787 29.1196L4.5043 30.8042L14.7109 50.7628C15.0143 51.3564 14.7748 52.0784 14.1997 52.3833C14.024 52.4956 13.8324 52.5277 13.6567 52.5277Z" fill="url(#paint2_linear)"/>
<path d="M58.4282 46.5434C58.3324 46.5434 58.2365 46.5273 58.1247 46.5113C57.4858 46.3508 57.1025 45.693 57.2622 45.0513L63.5714 20.3116L56.7511 18.7713C56.1121 18.6269 55.6969 17.9852 55.8406 17.3274C55.9844 16.6856 56.6233 16.2685 57.2782 16.4129L65.2965 18.2258C65.6159 18.29 65.8875 18.4986 66.0472 18.7713C66.2229 19.0441 66.2708 19.381 66.1909 19.7019L59.5782 45.6449C59.4504 46.1904 58.9553 46.5434 58.4282 46.5434Z" fill="url(#paint3_linear)"/>
<path d="M60.6803 53.5546C60.4887 53.5546 60.313 53.5065 60.1373 53.4263C59.5463 53.1214 59.3227 52.3995 59.6261 51.8058L70.3598 30.8204L67.0854 29.1358C66.4944 28.831 66.2708 28.109 66.5743 27.5154C66.8778 26.9217 67.5965 26.6971 68.1875 27.0019L72.5321 29.2481C72.8196 29.3925 73.0273 29.6492 73.1231 29.954C73.2189 30.2589 73.187 30.5958 73.0432 30.8685L61.7665 52.9289C61.5269 53.33 61.1116 53.5546 60.6803 53.5546Z" fill="url(#paint4_linear)"/>
<path d="M43.5576 37.286L39.229 24.5792C39.1332 24.3064 38.8776 24.146 38.5901 24.146H36.6095C36.322 24.146 36.0664 24.3064 35.9706 24.5792L31.6579 37.302C31.594 37.5106 31.626 37.7673 31.7538 37.9438C31.8815 38.1202 32.0732 38.2646 32.2968 38.2646H34.0219C34.3094 38.2646 34.565 38.0721 34.6608 37.7994L35.8268 34.2537H39.3568L40.5547 37.7994C40.6506 38.0721 40.9061 38.2646 41.1936 38.2646H42.9347C43.1423 38.2646 43.35 38.1202 43.4777 37.9438C43.6055 37.7673 43.6375 37.4945 43.5576 37.286ZM37.5519 28.7346C37.5678 28.7025 37.5678 28.6864 37.5838 28.6543C37.5998 28.6864 37.6157 28.7185 37.6317 28.7666L38.5741 31.5422H36.6254L37.5519 28.7346Z" fill="url(#paint5_linear)"/>
<path fill-rule="evenodd" clip-rule="evenodd" d="M28.6071 14.0705C27.8245 12.2415 25.6043 12.6746 25.5883 14.7924C25.5723 15.9636 26.5626 16.477 27.2654 16.9584C27.9522 17.4076 28.5273 17.937 28.6071 18.2098C28.671 17.9531 29.3099 17.3915 29.9488 16.9423C30.6516 16.445 31.6419 15.9636 31.626 14.8085C31.61 12.6426 29.3578 12.3056 28.6071 14.0705Z" fill="url(#paint6_linear)"/>
<path d="M24.55 72.3097H8.28981C7.63493 72.3097 7.09186 71.7642 7.09186 71.1064V54.7897C7.09186 54.1319 7.63493 53.5864 8.28981 53.5864H24.55C25.2049 53.5864 25.748 54.1319 25.748 54.7897V71.1224C25.748 71.7802 25.2049 72.3097 24.55 72.3097ZM9.48777 69.9031H23.3521V55.993H9.48777V69.9031Z" fill="url(#paint7_linear)"/>
<path d="M24.5181 61.3675H8.86484C8.20996 61.3675 7.66689 60.822 7.66689 60.1642C7.66689 59.5064 8.20996 58.9609 8.86484 58.9609H24.5181C25.173 58.9609 25.7161 59.5064 25.7161 60.1642C25.7161 60.822 25.173 61.3675 24.5181 61.3675Z" fill="url(#paint8_linear)"/>
<path d="M24.5181 66.8226H8.86484C8.20996 66.8226 7.66689 66.2771 7.66689 65.6193C7.66689 64.9615 8.20996 64.416 8.86484 64.416H24.5181C25.173 64.416 25.7161 64.9615 25.7161 65.6193C25.7161 66.2771 25.173 66.8226 24.5181 66.8226Z" fill="url(#paint9_linear)"/>
<path d="M40.7145 64.7853C40.0596 64.7853 39.5165 64.2399 39.5165 63.5821V49.2067C39.5165 48.5489 40.0596 48.0034 40.7145 48.0034H56.9747C57.6296 48.0034 58.1726 48.5489 58.1726 49.2067V59.6834C58.1726 60.3412 57.6296 60.8867 56.9747 60.8867C56.3198 60.8867 55.7767 60.3412 55.7767 59.6834V50.41H41.9124V63.5821C41.9124 64.2559 41.3693 64.7853 40.7145 64.7853Z" fill="url(#paint10_linear)"/>
<path d="M56.9428 61.368H40.8103C40.1554 61.368 39.6124 60.8225 39.6124 60.1647C39.6124 59.5069 40.1554 58.9614 40.8103 58.9614H56.9428C57.5976 58.9614 58.1407 59.5069 58.1407 60.1647C58.1407 60.8225 57.5976 61.368 56.9428 61.368Z" fill="url(#paint11_linear)"/>
<path d="M56.9428 55.9129H40.8103C40.1554 55.9129 39.6124 55.3674 39.6124 54.7096C39.6124 54.0518 40.1554 53.5063 40.8103 53.5063H56.9428C57.5976 53.5063 58.1407 54.0518 58.1407 54.7096C58.1407 55.3674 57.5976 55.9129 56.9428 55.9129Z" fill="url(#paint12_linear)"/>
<path d="M45.1549 75.9999H28.8946C28.2398 75.9999 27.6967 75.4544 27.6967 74.7966V63.8547C27.6967 63.1969 28.2398 62.6514 28.8946 62.6514H45.1549C45.8098 62.6514 46.3528 63.1969 46.3528 63.8547V74.7966C46.3528 75.4705 45.8098 75.9999 45.1549 75.9999ZM30.0926 73.5933H43.9569V65.058H30.0926V73.5933Z" fill="url(#paint13_linear)"/>
<path d="M45.1229 70.513H29.4697C28.8148 70.513 28.2717 69.9675 28.2717 69.3097C28.2717 68.6519 28.8148 68.1064 29.4697 68.1064H45.1229C45.7778 68.1064 46.3209 68.6519 46.3209 69.3097C46.3209 69.9675 45.7778 70.513 45.1229 70.513Z" fill="url(#paint14_linear)"/>
<path d="M68.3153 72.31H52.0551C51.4002 72.31 50.8571 71.7645 50.8571 71.1067V60.1647C50.8571 59.5069 51.4002 58.9614 52.0551 58.9614H68.3153C68.9702 58.9614 69.5133 59.5069 69.5133 60.1647V71.1067C69.5133 71.7805 68.9702 72.31 68.3153 72.31ZM53.253 69.9034H67.1174V61.368H53.253V69.9034Z" fill="url(#paint15_linear)"/>
<path d="M68.2834 66.8226H45.2827C44.6278 66.8226 44.0847 66.2771 44.0847 65.6193C44.0847 64.9615 44.6278 64.416 45.2827 64.416H68.2834C68.9383 64.416 69.4813 64.9615 69.4813 65.6193C69.4813 66.2771 68.9383 66.8226 68.2834 66.8226Z" fill="url(#paint16_linear)"/>
<path d="M51.9912 72.2777H45.4424C44.7875 72.2777 44.2444 71.7322 44.2444 71.0744C44.2444 70.4166 44.7875 69.8711 45.4424 69.8711H51.9912C52.6461 69.8711 53.1892 70.4166 53.1892 71.0744C53.1892 71.7322 52.6461 72.2777 51.9912 72.2777Z" fill="url(#paint17_linear)"/>
<path d="M4.47237 2.8879C3.81749 2.8879 3.27441 2.34241 3.27441 1.68461V1.20329C3.27441 0.545493 3.81749 0 4.47237 0C5.12725 0 5.67032 0.545493 5.67032 1.20329V1.68461C5.67032 2.34241 5.12725 2.8879 4.47237 2.8879Z" fill="url(#paint18_linear)"/>
<path d="M4.47237 8.98458C3.81749 8.98458 3.27441 8.43909 3.27441 7.78129V7.29997C3.27441 6.64217 3.81749 6.09668 4.47237 6.09668C5.12725 6.09668 5.67032 6.64217 5.67032 7.29997V7.78129C5.67032 8.43909 5.12725 8.98458 4.47237 8.98458Z" fill="url(#paint19_linear)"/>
<path d="M1.67714 5.69565H1.19795C0.543073 5.69565 0 5.15016 0 4.49236C0 3.83456 0.543073 3.28906 1.19795 3.28906H1.67714C2.33202 3.28906 2.87509 3.83456 2.87509 4.49236C2.87509 5.15016 2.33202 5.69565 1.67714 5.69565Z" fill="url(#paint20_linear)"/>
<path d="M7.74678 5.69565H7.2676C6.61271 5.69565 6.06964 5.15016 6.06964 4.49236C6.06964 3.83456 6.61271 3.28906 7.2676 3.28906H7.74678C8.40166 3.28906 8.94473 3.83456 8.94473 4.49236C8.94473 5.15016 8.40166 5.69565 7.74678 5.69565Z" fill="url(#paint21_linear)"/>
<path d="M70.1202 7.21994C69.4653 7.21994 68.9223 6.67444 68.9223 6.01664V5.53532C68.9223 4.87752 69.4653 4.33203 70.1202 4.33203C70.7751 4.33203 71.3182 4.87752 71.3182 5.53532V6.01664C71.3182 6.67444 70.7751 7.21994 70.1202 7.21994Z" fill="url(#paint22_linear)"/>
<path d="M70.1202 13.3161C69.4653 13.3161 68.9223 12.7706 68.9223 12.1128V11.6315C68.9223 10.9737 69.4653 10.4282 70.1202 10.4282C70.7751 10.4282 71.3182 10.9737 71.3182 11.6315V12.1128C71.3182 12.7706 70.7751 13.3161 70.1202 13.3161Z" fill="url(#paint23_linear)"/>
<path d="M67.325 10.0277H66.8458C66.1909 10.0277 65.6479 9.48219 65.6479 8.82439C65.6479 8.16659 66.1909 7.62109 66.8458 7.62109H67.325C67.9799 7.62109 68.523 8.16659 68.523 8.82439C68.523 9.48219 67.9799 10.0277 67.325 10.0277Z" fill="url(#paint24_linear)"/>
<path d="M73.3946 10.0277H72.9155C72.2606 10.0277 71.7175 9.48219 71.7175 8.82439C71.7175 8.16659 72.2606 7.62109 72.9155 7.62109H73.3946C74.0495 7.62109 74.5926 8.16659 74.5926 8.82439C74.5926 9.48219 74.0495 10.0277 73.3946 10.0277Z" fill="url(#paint25_linear)"/>
<path d="M13.5129 12.1773C14.5362 12.1773 15.3658 11.344 15.3658 10.3162C15.3658 9.28832 14.5362 8.45508 13.5129 8.45508C12.4896 8.45508 11.6601 9.28832 11.6601 10.3162C11.6601 11.344 12.4896 12.1773 13.5129 12.1773Z" fill="url(#paint26_linear)"/>
<path d="M61.0318 5.16628C62.0551 5.16628 62.8846 4.33304 62.8846 3.30519C62.8846 2.27733 62.0551 1.44409 61.0318 1.44409C60.0085 1.44409 59.1789 2.27733 59.1789 3.30519C59.1789 4.33304 60.0085 5.16628 61.0318 5.16628Z" fill="url(#paint27_linear)"/>
<defs>
<linearGradient id="paint0_linear" x1="37.6078" y1="8.23047" x2="37.6078" y2="55.9932" gradientUnits="userSpaceOnUse">
<stop stop-color="#1383D6"/>
<stop offset="1" stop-color="#00FFD1"/>
</linearGradient>
<linearGradient id="paint1_linear" x1="13.8283" y1="16.3994" x2="13.8283" y2="52.0463" gradientUnits="userSpaceOnUse">
<stop stop-color="#1383D6"/>
<stop offset="1" stop-color="#00FFD1"/>
</linearGradient>
<linearGradient id="paint2_linear" x1="8.26461" y1="26.853" x2="8.26461" y2="52.5277" gradientUnits="userSpaceOnUse">
<stop stop-color="#1383D6"/>
<stop offset="1" stop-color="#00FFD1"/>
</linearGradient>
<linearGradient id="paint3_linear" x1="61.0203" y1="16.3843" x2="61.0203" y2="46.5434" gradientUnits="userSpaceOnUse">
<stop stop-color="#1383D6"/>
<stop offset="1" stop-color="#00FFD1"/>
</linearGradient>
<linearGradient id="paint4_linear" x1="66.3344" y1="26.8662" x2="66.3344" y2="53.5546" gradientUnits="userSpaceOnUse">
<stop stop-color="#1383D6"/>
<stop offset="1" stop-color="#00FFD1"/>
</linearGradient>
<linearGradient id="paint5_linear" x1="37.6136" y1="24.146" x2="37.6136" y2="38.2646" gradientUnits="userSpaceOnUse">
<stop stop-color="#1383D6"/>
<stop offset="1" stop-color="#00FFD1"/>
</linearGradient>
<linearGradient id="paint6_linear" x1="28.6071" y1="12.9199" x2="28.6071" y2="18.2098" gradientUnits="userSpaceOnUse">
<stop stop-color="#1383D6"/>
<stop offset="1" stop-color="#00FFD1"/>
</linearGradient>
<linearGradient id="paint7_linear" x1="16.4199" y1="53.5864" x2="16.4199" y2="72.3097" gradientUnits="userSpaceOnUse">
<stop stop-color="#1383D6"/>
<stop offset="1" stop-color="#00FFD1"/>
</linearGradient>
<linearGradient id="paint8_linear" x1="16.6915" y1="58.9609" x2="16.6915" y2="61.3675" gradientUnits="userSpaceOnUse">
<stop stop-color="#1383D6"/>
<stop offset="1" stop-color="#00FFD1"/>
</linearGradient>
<linearGradient id="paint9_linear" x1="16.6915" y1="64.416" x2="16.6915" y2="66.8226" gradientUnits="userSpaceOnUse">
<stop stop-color="#1383D6"/>
<stop offset="1" stop-color="#00FFD1"/>
</linearGradient>
<linearGradient id="paint10_linear" x1="48.8446" y1="48.0034" x2="48.8446" y2="64.7853" gradientUnits="userSpaceOnUse">
<stop stop-color="#1383D6"/>
<stop offset="1" stop-color="#00FFD1"/>
</linearGradient>
<linearGradient id="paint11_linear" x1="48.8765" y1="58.9614" x2="48.8765" y2="61.368" gradientUnits="userSpaceOnUse">
<stop stop-color="#1383D6"/>
<stop offset="1" stop-color="#00FFD1"/>
</linearGradient>
<linearGradient id="paint12_linear" x1="48.8765" y1="53.5063" x2="48.8765" y2="55.9129" gradientUnits="userSpaceOnUse">
<stop stop-color="#1383D6"/>
<stop offset="1" stop-color="#00FFD1"/>
</linearGradient>
<linearGradient id="paint13_linear" x1="37.0248" y1="62.6514" x2="37.0248" y2="75.9999" gradientUnits="userSpaceOnUse">
<stop stop-color="#1383D6"/>
<stop offset="1" stop-color="#00FFD1"/>
</linearGradient>
<linearGradient id="paint14_linear" x1="37.2963" y1="68.1064" x2="37.2963" y2="70.513" gradientUnits="userSpaceOnUse">
<stop stop-color="#1383D6"/>
<stop offset="1" stop-color="#00FFD1"/>
</linearGradient>
<linearGradient id="paint15_linear" x1="60.1852" y1="58.9614" x2="60.1852" y2="72.31" gradientUnits="userSpaceOnUse">
<stop stop-color="#1383D6"/>
<stop offset="1" stop-color="#00FFD1"/>
</linearGradient>
<linearGradient id="paint16_linear" x1="56.783" y1="64.416" x2="56.783" y2="66.8226" gradientUnits="userSpaceOnUse">
<stop stop-color="#1383D6"/>
<stop offset="1" stop-color="#00FFD1"/>
</linearGradient>
<linearGradient id="paint17_linear" x1="48.7168" y1="69.8711" x2="48.7168" y2="72.2777" gradientUnits="userSpaceOnUse">
<stop stop-color="#1383D6"/>
<stop offset="1" stop-color="#00FFD1"/>
</linearGradient>
<linearGradient id="paint18_linear" x1="4.47237" y1="0" x2="4.47237" y2="2.8879" gradientUnits="userSpaceOnUse">
<stop stop-color="#1383D6"/>
<stop offset="1" stop-color="#00FFD1"/>
</linearGradient>
<linearGradient id="paint19_linear" x1="4.47237" y1="6.09668" x2="4.47237" y2="8.98458" gradientUnits="userSpaceOnUse">
<stop stop-color="#1383D6"/>
<stop offset="1" stop-color="#00FFD1"/>
</linearGradient>
<linearGradient id="paint20_linear" x1="1.43754" y1="3.28906" x2="1.43754" y2="5.69565" gradientUnits="userSpaceOnUse">
<stop stop-color="#1383D6"/>
<stop offset="1" stop-color="#00FFD1"/>
</linearGradient>
<linearGradient id="paint21_linear" x1="7.50719" y1="3.28906" x2="7.50719" y2="5.69565" gradientUnits="userSpaceOnUse">
<stop stop-color="#1383D6"/>
<stop offset="1" stop-color="#00FFD1"/>
</linearGradient>
<linearGradient id="paint22_linear" x1="70.1202" y1="4.33203" x2="70.1202" y2="7.21994" gradientUnits="userSpaceOnUse">
<stop stop-color="#1383D6"/>
<stop offset="1" stop-color="#00FFD1"/>
</linearGradient>
<linearGradient id="paint23_linear" x1="70.1202" y1="10.4282" x2="70.1202" y2="13.3161" gradientUnits="userSpaceOnUse">
<stop stop-color="#1383D6"/>
<stop offset="1" stop-color="#00FFD1"/>
</linearGradient>
<linearGradient id="paint24_linear" x1="67.0854" y1="7.62109" x2="67.0854" y2="10.0277" gradientUnits="userSpaceOnUse">
<stop stop-color="#1383D6"/>
<stop offset="1" stop-color="#00FFD1"/>
</linearGradient>
<linearGradient id="paint25_linear" x1="73.1551" y1="7.62109" x2="73.1551" y2="10.0277" gradientUnits="userSpaceOnUse">
<stop stop-color="#1383D6"/>
<stop offset="1" stop-color="#00FFD1"/>
</linearGradient>
<linearGradient id="paint26_linear" x1="13.5129" y1="8.45508" x2="13.5129" y2="12.1773" gradientUnits="userSpaceOnUse">
<stop stop-color="#1383D6"/>
<stop offset="1" stop-color="#00FFD1"/>
</linearGradient>
<linearGradient id="paint27_linear" x1="61.0318" y1="1.44409" x2="61.0318" y2="5.16628" gradientUnits="userSpaceOnUse">
<stop stop-color="#1383D6"/>
<stop offset="1" stop-color="#00FFD1"/>
</linearGradient>
</defs>
</svg>
