<svg width="71" height="83" viewBox="0 0 71 83" fill="none" xmlns="http://www.w3.org/2000/svg">
<path d="M23.2208 82.1675C23.0023 82.1675 22.7656 82.1152 22.5653 82.0106C21.9097 81.6621 21.6548 80.8604 22.019 80.2329L24.5684 75.7887C25.6064 73.7845 27.7916 72.4948 30.1225 72.4948H53.7229C54.9612 72.4948 56.0721 71.8325 56.6184 70.7868L67.0528 51.302C67.3077 50.8314 67.326 50.2912 67.1256 49.7857C66.9253 49.2803 66.5065 48.9143 65.9784 48.7226C65.0861 48.4089 64.1028 48.7575 63.6293 49.5417L55.6168 62.8744C54.5606 64.6521 52.5575 65.75 50.4269 65.75H31.3608C30.6142 65.75 29.995 65.1575 29.995 64.4429C29.995 63.7284 30.6142 63.1358 31.3608 63.1358H42.6147C43.7437 63.1358 44.6543 62.2644 44.6543 61.1838C44.6543 60.1033 43.7437 59.2319 42.6147 59.2319H20.2162C17.0112 59.2319 14.0975 60.9224 12.6225 63.6412C12.6225 63.6412 12.6225 63.6586 12.6043 63.6586L2.57047 81.4529C2.20627 82.0803 1.38681 82.3243 0.713028 81.9758C0.057461 81.6272 -0.197482 80.8429 0.166722 80.1981L10.2188 62.4038C12.1672 58.8136 16.0096 56.6002 20.2344 56.6002H42.6147C45.2552 56.6002 47.3858 58.6567 47.3858 61.1664C47.3858 61.8635 47.2219 62.5258 46.9305 63.1184H50.4451C51.6105 63.1184 52.685 62.5258 53.2677 61.5498L61.2802 48.2172C62.4092 46.3349 64.7947 45.4984 66.9253 46.2478C68.1818 46.6835 69.1834 47.6072 69.6751 48.8098C70.1667 49.9949 70.1121 51.3369 69.5112 52.4697L59.0767 71.9545C58.057 73.889 56.0174 75.0916 53.7411 75.0916H30.1407C28.8296 75.0916 27.5913 75.8236 27.0268 76.9564C27.0086 76.9739 27.0086 76.9913 26.9904 77.0087L24.4227 81.4703C24.186 81.9235 23.7125 82.1675 23.2208 82.1675Z" fill="url(#paint0_linear)"/>
<path d="M21.2723 52.8706C19.1599 52.8706 16.9383 52.5046 14.7713 51.7726C11.2931 50.5874 8.32487 48.618 6.4128 46.2128C4.37326 43.6507 3.75411 40.8795 4.66462 38.4046C5.57513 35.9471 7.86962 34.1694 11.1475 33.3851C14.225 32.6531 17.8124 32.9145 21.2905 34.0822C24.7687 35.25 27.7369 37.2369 29.649 39.6421C31.6886 42.2041 32.3077 44.9753 31.3972 47.4502C30.4867 49.9077 28.1922 51.6854 24.9144 52.4697C23.7671 52.7312 22.547 52.8706 21.2723 52.8706ZM14.8259 35.616C11.1292 35.616 8.10635 36.9406 7.23226 39.276C6.64954 40.8795 7.123 42.7793 8.57982 44.6267C10.1823 46.6311 12.6953 48.2868 15.6636 49.2977C21.5091 51.2846 27.5366 50.0297 28.8113 46.5788C30.0861 43.1278 26.2255 38.544 20.3618 36.5571C18.4862 35.9123 16.5923 35.616 14.8259 35.616Z" fill="url(#paint1_linear)"/>
<path d="M20.2525 46.6831C19.1781 46.6831 18.0127 46.4914 16.8655 46.0906C15.3176 45.5677 13.97 44.7486 13.0595 43.8075C11.9487 42.6573 11.5481 41.3327 11.9669 40.1999C12.7682 38.0563 16.0642 37.3417 19.6516 38.5617C21.1995 39.0845 22.547 39.9036 23.4575 40.8447C24.5684 41.995 24.969 43.3195 24.5502 44.4523C24.1313 45.5851 22.9659 46.3868 21.3269 46.6134C20.9992 46.6483 20.635 46.6831 20.2525 46.6831ZM16.2645 40.5833C15.263 40.5833 14.6256 40.8273 14.5346 41.0713C14.4981 41.1933 14.5892 41.5593 15.0626 42.0473C15.6818 42.6747 16.6651 43.2672 17.776 43.6332C18.8868 44.0166 20.034 44.1561 20.9263 44.0341C21.6001 43.9295 21.9279 43.7204 21.9643 43.5984C22.0007 43.4764 21.9097 43.1104 21.4362 42.6224C20.8171 41.995 19.8337 41.4024 18.7229 41.0365C17.7942 40.6879 16.9565 40.5833 16.2645 40.5833Z" fill="url(#paint2_linear)"/>
<path d="M13.4237 41.5938C13.2781 41.5938 13.1142 41.5763 12.9685 41.524L6.35818 39.2932C5.64798 39.0492 5.26556 38.2998 5.5205 37.6201C5.77545 36.9404 6.55849 36.5744 7.26869 36.8184L13.879 39.0492C14.5892 39.2932 14.9716 40.0426 14.7167 40.7223C14.5163 41.2626 13.9883 41.5938 13.4237 41.5938Z" fill="url(#paint3_linear)"/>
<path d="M6.54026 44.2085C5.79365 44.2085 5.1745 43.6333 5.1745 42.9186C5.1745 42.2039 5.77544 41.6286 6.54026 41.6112L13.5876 41.5938C14.3342 41.5938 14.9534 42.169 14.9534 42.8837C14.9534 43.5984 14.3524 44.1736 13.5876 44.1911L6.54026 44.2085Z" fill="url(#paint4_linear)"/>
<path d="M27.5731 51.3364C27.2635 51.3364 26.9721 51.2319 26.7172 51.0402L21.2541 46.7704C20.6714 46.3172 20.5803 45.4981 21.0538 44.923C21.5273 44.3653 22.3831 44.2782 22.9841 44.7313L28.4471 49.0011C29.0299 49.4542 29.1209 50.2733 28.6475 50.8484C28.3561 51.1621 27.9737 51.3364 27.5731 51.3364Z" fill="url(#paint5_linear)"/>
<path d="M17.3935 40.48C16.6469 40.48 16.046 39.9223 16.0278 39.2078L15.9185 34.9033C15.9003 34.1888 16.5012 33.5788 17.2479 33.5614C18.0127 33.544 18.6318 34.1191 18.65 34.8336L18.7593 39.1381C18.7775 39.8526 18.1766 40.4626 17.43 40.48C17.4117 40.48 17.4117 40.48 17.3935 40.48Z" fill="url(#paint6_linear)"/>
<path d="M20.7624 41.6118C20.4529 41.6118 20.1433 41.5072 19.8883 41.3155C19.3056 40.8624 19.2146 40.0258 19.7062 39.4681L22.547 36.1567C23.0205 35.599 23.8946 35.5118 24.4773 35.9824C25.06 36.4355 25.1511 37.2721 24.6594 37.8298L21.8186 41.1412C21.5455 41.455 21.1631 41.6118 20.7624 41.6118Z" fill="url(#paint7_linear)"/>
<path d="M18.468 52.2251H18.4497C17.7031 52.2251 17.1022 51.6326 17.1022 50.918L17.1932 46.1602C17.2114 45.4457 17.8124 44.9229 18.559 44.9229H18.5772C19.3238 44.9229 19.9248 45.498 19.9248 46.2125L19.8337 50.9877C19.8155 51.6848 19.2146 52.2251 18.468 52.2251Z" fill="url(#paint8_linear)"/>
<path d="M12.149 50.1167C11.8576 50.1167 11.5663 50.0296 11.3296 49.8553C10.7286 49.4195 10.6194 48.6004 11.0746 48.0252L14.0975 44.2257C14.5528 43.6505 15.4086 43.546 16.0096 43.9817C16.6105 44.4174 16.7198 45.2366 16.2645 45.8117L13.2416 49.6113C12.9685 49.9424 12.5678 50.1167 12.149 50.1167Z" fill="url(#paint9_linear)"/>
<path d="M30.4685 46.7881C30.3228 46.7881 30.1589 46.7707 30.0132 46.7184L23.239 44.4351C22.5288 44.1911 22.1464 43.4416 22.4014 42.7618C22.6563 42.0821 23.4393 41.716 24.1495 41.96L30.9237 44.2433C31.6339 44.4874 32.0164 45.2368 31.7614 45.9166C31.5611 46.4569 31.033 46.7881 30.4685 46.7881Z" fill="url(#paint10_linear)"/>
<path d="M40.4659 22.3706C37.097 22.3706 34.4201 21.1681 32.9269 18.9895C31.4336 16.811 31.3426 13.9702 32.6719 11.0074C33.9284 8.23635 36.314 5.63955 39.3915 3.68759C42.469 1.75306 45.8925 0.689941 49.0611 0.689941C52.43 0.689941 55.1069 1.89249 56.6001 4.07101C58.0934 6.24953 58.1844 9.09033 56.8551 12.0531C55.5986 14.8242 53.213 17.421 50.1355 19.373C47.058 21.2901 43.6345 22.3706 40.4659 22.3706ZM49.0611 3.30417C46.4206 3.30417 43.5252 4.22786 40.8847 5.88354C38.2442 7.53922 36.2229 9.73517 35.1667 12.0531C34.2016 14.1794 34.2198 16.1313 35.1849 17.5604C37.2973 20.6278 43.4524 20.4535 48.6423 17.177C53.8322 13.9179 56.4362 8.56748 54.3238 5.50012C53.3587 4.08844 51.4831 3.30417 49.0611 3.30417Z" fill="url(#paint11_linear)"/>
<path d="M41.9227 15.8872C40.5387 15.8872 39.4279 15.3992 38.827 14.5104C38.135 13.4996 38.1896 12.1402 38.9726 10.7634C39.6282 9.63056 40.739 8.5326 42.1048 7.6612C43.4706 6.80723 44.9638 6.26696 46.3114 6.14496C47.9503 6.00554 49.2796 6.49352 49.9716 7.50435C50.6636 8.51517 50.609 9.87455 49.8259 11.2514C49.1704 12.3842 48.0595 13.4821 46.6938 14.3535C45.328 15.2075 43.8348 15.7478 42.4872 15.8698C42.2869 15.8698 42.1048 15.8872 41.9227 15.8872ZM46.8759 8.70688C46.7848 8.70688 46.6756 8.70688 46.5663 8.72431C45.674 8.81145 44.5814 9.21229 43.598 9.82227C42.6147 10.4497 41.7952 11.2339 41.3582 11.9833C41.0304 12.5585 41.0304 12.9419 41.1032 13.0464C41.1761 13.151 41.5403 13.2904 42.2323 13.2382C43.1246 13.151 44.2172 12.7502 45.2005 12.1402C46.1839 11.5128 47.0033 10.7285 47.4404 9.97912C47.7682 9.404 47.7682 9.02058 47.6953 8.91601C47.6225 8.82887 47.3493 8.70688 46.8759 8.70688Z" fill="url(#paint12_linear)"/>
<path d="M33.9284 18.4321C33.4914 18.4321 33.0543 18.223 32.7812 17.8396C32.3623 17.2295 32.5445 16.4278 33.1636 16.027L39.0091 12.3495C39.6464 11.9487 40.4841 12.1229 40.9029 12.7155C41.3218 13.3255 41.1397 14.1272 40.5205 14.5281L34.675 18.2056C34.4383 18.3624 34.1834 18.4321 33.9284 18.4321Z" fill="url(#paint13_linear)"/>
<path d="M37.789 21.5864C37.4976 21.5864 37.2244 21.4993 36.9695 21.325C36.3686 20.8893 36.2411 20.0701 36.6963 19.495L40.9393 14.0922C41.3946 13.517 42.2505 13.395 42.8514 13.8308C43.4523 14.2665 43.5798 15.0856 43.1246 15.6607L38.8816 21.0636C38.6266 21.4121 38.2078 21.5864 37.789 21.5864Z" fill="url(#paint14_linear)"/>
<path d="M49.571 11.4438C48.9518 11.4438 48.3873 11.043 48.2416 10.4504C48.0595 9.75318 48.5148 9.03857 49.2432 8.86427L56.0902 7.27818C56.8186 7.10388 57.5652 7.53962 57.7474 8.23681C57.9295 8.93399 57.4742 9.6486 56.7458 9.8229L49.8988 11.409C49.7895 11.4264 49.6802 11.4438 49.571 11.4438Z" fill="url(#paint15_linear)"/>
<path d="M41.2489 11.0601C40.9758 11.0601 40.6844 10.9729 40.4477 10.8161L36.8056 8.2889C36.1865 7.87061 36.059 7.05147 36.496 6.45889C36.9331 5.86632 37.789 5.74432 38.4081 6.16261L42.0502 8.68976C42.6693 9.10805 42.7968 9.9272 42.3597 10.5198C42.0866 10.8683 41.6677 11.0601 41.2489 11.0601Z" fill="url(#paint16_linear)"/>
<path d="M44.2354 9.17773C43.6163 9.17773 43.0518 8.77688 42.9061 8.16688L41.8681 4.00147C41.686 3.30433 42.1413 2.58976 42.8879 2.4329C43.6163 2.25862 44.3629 2.69433 44.5268 3.4089L45.5648 7.57431C45.7469 8.27145 45.2916 8.98602 44.545 9.14288C44.4357 9.16031 44.3265 9.17773 44.2354 9.17773Z" fill="url(#paint17_linear)"/>
<path d="M51.7016 17.3516C51.4102 17.3516 51.1007 17.2644 50.8639 17.0727L46.9123 14.1098C46.3114 13.6567 46.2203 12.8375 46.6756 12.2798C47.1491 11.7046 48.0049 11.6175 48.5877 12.0532L52.5393 15.0161C53.1402 15.4693 53.2313 16.2884 52.776 16.8461C52.5029 17.1773 52.1022 17.3516 51.7016 17.3516Z" fill="url(#paint18_linear)"/>
<path d="M46.0928 20.8721C45.4919 20.8721 44.9456 20.4887 44.7817 19.9136L43.4524 15.2952C43.252 14.5981 43.6709 13.8836 44.3993 13.6919C45.1277 13.5002 45.8743 13.901 46.0746 14.5981L47.404 19.2164C47.6043 19.9136 47.1855 20.6281 46.457 20.8198C46.3478 20.8721 46.2203 20.8721 46.0928 20.8721Z" fill="url(#paint19_linear)"/>
<path d="M48.4055 8.68994C47.9685 8.68994 47.5314 8.48078 47.2583 8.09733C46.8394 7.48729 47.0215 6.68551 47.6407 6.28463L53.6501 2.50236C54.2874 2.10148 55.1251 2.27577 55.5439 2.86839C55.9628 3.47843 55.7807 4.2802 55.1615 4.68109L49.1521 8.46335C48.9154 8.62022 48.6605 8.68994 48.4055 8.68994Z" fill="url(#paint20_linear)"/>
<path d="M54.2874 46.6484C53.9779 46.6484 53.6683 46.5439 53.4133 46.3347L37.1698 33.263C36.8967 33.0364 36.7146 32.7227 36.6964 32.3741C36.66 32.0255 36.7874 31.677 37.0059 31.4155L40.1745 27.8252C40.6662 27.2674 41.5221 27.1977 42.1048 27.6683L58.3483 40.74C58.6215 40.9666 58.8036 41.2803 58.8218 41.6289C58.8582 41.9775 58.7307 42.3261 58.5122 42.5875L55.3436 46.1779C55.0705 46.4916 54.6881 46.6484 54.2874 46.6484ZM39.956 32.0953L54.1235 43.4938L55.5257 41.8903L41.3582 30.4918L39.956 32.0953Z" fill="url(#paint21_linear)"/>
<defs>
<linearGradient id="paint0_linear" x1="35.0035" y1="45.9746" x2="35.0035" y2="82.1675" gradientUnits="userSpaceOnUse">
<stop stop-color="#1383D6"/>
<stop offset="1" stop-color="#00FFD1"/>
</linearGradient>
<linearGradient id="paint1_linear" x1="18.0309" y1="32.9761" x2="18.0309" y2="52.8706" gradientUnits="userSpaceOnUse">
<stop stop-color="#1383D6"/>
<stop offset="1" stop-color="#00FFD1"/>
</linearGradient>
<linearGradient id="paint2_linear" x1="18.2585" y1="37.9678" x2="18.2585" y2="46.6831" gradientUnits="userSpaceOnUse">
<stop stop-color="#1383D6"/>
<stop offset="1" stop-color="#00FFD1"/>
</linearGradient>
<linearGradient id="paint3_linear" x1="10.1186" y1="36.7427" x2="10.1186" y2="41.5938" gradientUnits="userSpaceOnUse">
<stop stop-color="#1383D6"/>
<stop offset="1" stop-color="#00FFD1"/>
</linearGradient>
<linearGradient id="paint4_linear" x1="10.0639" y1="41.5938" x2="10.0639" y2="44.2085" gradientUnits="userSpaceOnUse">
<stop stop-color="#1383D6"/>
<stop offset="1" stop-color="#00FFD1"/>
</linearGradient>
<linearGradient id="paint5_linear" x1="24.8506" y1="44.4409" x2="24.8506" y2="51.3364" gradientUnits="userSpaceOnUse">
<stop stop-color="#1383D6"/>
<stop offset="1" stop-color="#00FFD1"/>
</linearGradient>
<linearGradient id="paint6_linear" x1="17.3389" y1="33.561" x2="17.3389" y2="40.48" gradientUnits="userSpaceOnUse">
<stop stop-color="#1383D6"/>
<stop offset="1" stop-color="#00FFD1"/>
</linearGradient>
<linearGradient id="paint7_linear" x1="22.1828" y1="35.6777" x2="22.1828" y2="41.6118" gradientUnits="userSpaceOnUse">
<stop stop-color="#1383D6"/>
<stop offset="1" stop-color="#00FFD1"/>
</linearGradient>
<linearGradient id="paint8_linear" x1="18.5135" y1="44.9229" x2="18.5135" y2="52.2251" gradientUnits="userSpaceOnUse">
<stop stop-color="#1383D6"/>
<stop offset="1" stop-color="#00FFD1"/>
</linearGradient>
<linearGradient id="paint9_linear" x1="13.6696" y1="43.7134" x2="13.6696" y2="50.1167" gradientUnits="userSpaceOnUse">
<stop stop-color="#1383D6"/>
<stop offset="1" stop-color="#00FFD1"/>
</linearGradient>
<linearGradient id="paint10_linear" x1="27.0814" y1="41.8843" x2="27.0814" y2="46.7881" gradientUnits="userSpaceOnUse">
<stop stop-color="#1383D6"/>
<stop offset="1" stop-color="#00FFD1"/>
</linearGradient>
<linearGradient id="paint11_linear" x1="44.7635" y1="0.689941" x2="44.7635" y2="22.3706" gradientUnits="userSpaceOnUse">
<stop stop-color="#1383D6"/>
<stop offset="1" stop-color="#00FFD1"/>
</linearGradient>
<linearGradient id="paint12_linear" x1="44.3993" y1="6.12158" x2="44.3993" y2="15.8872" gradientUnits="userSpaceOnUse">
<stop stop-color="#1383D6"/>
<stop offset="1" stop-color="#00FFD1"/>
</linearGradient>
<linearGradient id="paint13_linear" x1="36.8421" y1="12.1328" x2="36.8421" y2="18.4321" gradientUnits="userSpaceOnUse">
<stop stop-color="#1383D6"/>
<stop offset="1" stop-color="#00FFD1"/>
</linearGradient>
<linearGradient id="paint14_linear" x1="39.9105" y1="13.5688" x2="39.9105" y2="21.5864" gradientUnits="userSpaceOnUse">
<stop stop-color="#1383D6"/>
<stop offset="1" stop-color="#00FFD1"/>
</linearGradient>
<linearGradient id="paint15_linear" x1="52.9945" y1="7.23975" x2="52.9945" y2="11.4438" gradientUnits="userSpaceOnUse">
<stop stop-color="#1383D6"/>
<stop offset="1" stop-color="#00FFD1"/>
</linearGradient>
<linearGradient id="paint16_linear" x1="39.4279" y1="5.91553" x2="39.4279" y2="11.0601" gradientUnits="userSpaceOnUse">
<stop stop-color="#1383D6"/>
<stop offset="1" stop-color="#00FFD1"/>
</linearGradient>
<linearGradient id="paint17_linear" x1="43.7164" y1="2.39453" x2="43.7164" y2="9.17773" gradientUnits="userSpaceOnUse">
<stop stop-color="#1383D6"/>
<stop offset="1" stop-color="#00FFD1"/>
</linearGradient>
<linearGradient id="paint18_linear" x1="49.7258" y1="11.7783" x2="49.7258" y2="17.3516" gradientUnits="userSpaceOnUse">
<stop stop-color="#1383D6"/>
<stop offset="1" stop-color="#00FFD1"/>
</linearGradient>
<linearGradient id="paint19_linear" x1="45.4282" y1="13.644" x2="45.4282" y2="20.8721" gradientUnits="userSpaceOnUse">
<stop stop-color="#1383D6"/>
<stop offset="1" stop-color="#00FFD1"/>
</linearGradient>
<linearGradient id="paint20_linear" x1="51.4011" y1="2.28564" x2="51.4011" y2="8.68994" gradientUnits="userSpaceOnUse">
<stop stop-color="#1383D6"/>
<stop offset="1" stop-color="#00FFD1"/>
</linearGradient>
<linearGradient id="paint21_linear" x1="47.7591" y1="27.3564" x2="47.7591" y2="46.6484" gradientUnits="userSpaceOnUse">
<stop stop-color="#1383D6"/>
<stop offset="1" stop-color="#00FFD1"/>
</linearGradient>
</defs>
</svg>
