<svg width="76" height="80" viewBox="0 0 76 80" fill="none" xmlns="http://www.w3.org/2000/svg">
<path d="M66.1274 33.4744C66.0301 33.4744 65.9327 33.4582 65.8354 33.442L2.43297 18.1524C1.78419 17.9904 1.3787 17.3425 1.54089 16.6785C1.70309 16.0306 2.35187 15.6257 3.01688 15.7877L66.4193 31.0773C67.0681 31.2393 67.4736 31.8872 67.3114 32.5512C67.1654 33.1019 66.6626 33.4744 66.1274 33.4744Z" fill="url(#paint0_linear)"/>
<path d="M66.5328 36.2926C66.4841 36.2926 66.4192 36.2926 66.3706 36.2764L15.9438 25.8943C15.5059 25.7972 15.2301 25.3761 15.3112 24.9387C15.4086 24.5014 15.8303 24.2261 16.2682 24.3071L66.695 34.6891C67.1329 34.7863 67.4086 35.2074 67.3275 35.6447C67.2464 36.0173 66.9058 36.2926 66.5328 36.2926Z" fill="url(#paint1_linear)"/>
<path d="M16.1222 56.4739C15.7167 56.4739 15.3761 56.1824 15.3113 55.7775C15.2464 55.3402 15.5708 54.9191 16.0087 54.8705L66.4355 48.1327C66.8734 48.0679 67.2951 48.3918 67.3438 48.8291C67.4086 49.2664 67.0843 49.6875 66.6463 49.7361L16.2196 56.4577C16.1871 56.4739 16.1547 56.4739 16.1222 56.4739Z" fill="url(#paint2_linear)"/>
<path d="M2.725 63.8436C2.14109 63.8436 1.62207 63.4225 1.52475 62.8232C1.41121 62.1591 1.86536 61.5274 2.51414 61.4303L65.9166 50.7567C66.5816 50.6433 67.2142 51.0968 67.3115 51.7446C67.425 52.4087 66.9709 53.0404 66.3221 53.1376L2.91963 63.8274C2.85476 63.8274 2.78988 63.8436 2.725 63.8436Z" fill="url(#paint3_linear)"/>
<path d="M3.55216 57.7374C2.88716 57.7374 2.33569 57.1868 2.33569 56.5227V23.6435C2.33569 22.9794 2.88716 22.4287 3.55216 22.4287C4.21717 22.4287 4.76863 22.9794 4.76863 23.6435V56.5227C4.76863 57.1868 4.23339 57.7374 3.55216 57.7374Z" fill="url(#paint4_linear)"/>
<path d="M10.5266 62.5316C10.3969 62.5316 10.2509 62.5154 10.1211 62.4668C9.48857 62.2401 9.16418 61.5436 9.39126 60.912C15.279 44.5371 9.40748 19.3999 9.35882 19.1569C9.19662 18.5091 9.60211 17.845 10.2671 17.6992C10.9159 17.5373 11.5809 17.9422 11.7269 18.6062C11.7918 18.8654 13.284 25.1821 14.0301 33.6692C15.0519 45.1202 14.2571 54.5791 11.6782 61.7542C11.4836 62.2239 11.0294 62.5316 10.5266 62.5316Z" fill="url(#paint5_linear)"/>
<path d="M66.5815 52.9914C66.4355 52.9914 66.2896 52.959 66.1598 52.9104C65.5273 52.6837 65.2029 51.971 65.4462 51.3555C67.7818 45.0874 66.7924 38.6897 65.3651 32.697C65.2029 32.0491 65.6084 31.385 66.2734 31.2393C66.9221 31.0773 67.5871 31.4822 67.7331 32.1463C69.2415 38.4954 70.2958 45.3304 67.7331 52.214C67.5385 52.6999 67.0843 52.9914 66.5815 52.9914Z" fill="url(#paint6_linear)"/>
<path d="M53.9303 55.1298C53.8168 55.1298 53.687 55.1136 53.5735 55.0812C52.9247 54.8868 52.5679 54.2066 52.7625 53.5587C55.1954 45.5575 54.0925 37.1029 52.6976 29.8953C52.5679 29.2313 53.0058 28.5996 53.6546 28.47C54.3196 28.3405 54.9521 28.7778 55.0819 29.4256C55.6496 32.3734 56.4281 36.8437 56.5903 41.4598C56.7525 46.2054 56.2659 50.3841 55.0981 54.239C54.9359 54.7896 54.4656 55.1298 53.9303 55.1298Z" fill="url(#paint7_linear)"/>
<path d="M35.6994 58.0126C35.6021 58.0126 35.521 57.9964 35.4237 57.9802C34.7749 57.8344 34.3694 57.1703 34.5154 56.5225C36.9808 45.9136 35.8616 34.7703 34.4667 25.2629C34.3694 24.5988 34.8236 23.9833 35.4886 23.8862C36.1536 23.789 36.7699 24.2425 36.8672 24.9065C37.4349 28.7452 38.2135 34.5436 38.3594 40.5525C38.5216 46.6911 38.035 52.0846 36.8835 57.0569C36.7537 57.64 36.2509 58.0126 35.6994 58.0126Z" fill="url(#paint8_linear)"/>
<path d="M19.8854 31.4016L30.8823 33.329C31.1904 33.3776 31.4013 33.6529 31.4013 33.9607V36.6169C31.4013 36.7951 31.3202 36.9571 31.1904 37.0866C30.2173 37.9936 29.3901 38.9816 28.7251 40.0182C27.8654 41.3787 27.168 42.885 26.6652 44.5695C26.3083 45.7357 26.0488 47.6145 25.9028 49.2827C25.8704 49.5905 25.6271 49.8334 25.3189 49.8496L22.2859 50.0926C21.8804 50.125 21.5398 49.7686 21.6046 49.3637C21.9615 47.0638 22.5778 44.4561 23.2266 42.966C23.8267 41.5407 24.3458 39.9534 25.4487 38.3338C25.7082 37.945 25.4811 37.4268 25.027 37.362L19.6583 36.4712C19.3501 36.4226 19.123 36.1634 19.123 35.8395V32.0495C19.1393 31.6283 19.4961 31.3368 19.8854 31.4016Z" fill="url(#paint9_linear)"/>
<path d="M42.6738 35.0456L50.6052 36.4385C50.8323 36.4871 51.0107 36.6815 51.0107 36.9244V38.8194C51.0107 38.949 50.9458 39.0786 50.8485 39.1758C50.1511 39.8398 49.5509 40.5363 49.0644 41.2975C48.4318 42.2855 47.9452 43.3869 47.5722 44.6017C47.3126 45.4439 47.1342 46.5615 47.0207 47.7114C47.0045 47.9382 46.8261 48.1163 46.599 48.1487L44.458 48.4403C44.1336 48.4889 43.8579 48.1973 43.9065 47.8896C44.166 46.2699 44.6202 44.5207 45.0743 43.4517C45.5123 42.4151 45.8853 41.2813 46.6639 40.1152C46.8585 39.8236 46.6801 39.4187 46.3395 39.3701L42.5116 38.7385C42.2683 38.7061 42.1062 38.4955 42.1062 38.2526V35.5477C42.0899 35.2238 42.3657 34.997 42.6738 35.0456Z" fill="url(#paint10_linear)"/>
<path d="M59.1042 37.5076L64.3107 38.4146C64.408 38.4308 64.4891 38.528 64.4891 38.6252V39.9533C64.4891 40.0181 64.4567 40.0667 64.4242 40.1153C63.9701 40.5364 63.5808 40.9899 63.2726 41.492C62.8671 42.1237 62.559 42.8039 62.3319 43.5814C62.1535 44.1321 62.0399 45.1687 61.9751 45.9785C61.9588 46.0757 61.894 46.1566 61.7966 46.1728L60.2396 46.4158C60.0936 46.432 59.98 46.3186 59.9963 46.1728C60.1585 45.0553 60.4504 43.5652 60.7586 42.8525C61.0505 42.1723 61.2938 41.411 61.8453 40.6336C61.9426 40.504 61.8615 40.3258 61.7155 40.2934L59.0555 39.8561C58.9582 39.8399 58.8771 39.7428 58.8771 39.6456V37.7344C58.8447 37.5886 58.9744 37.4914 59.1042 37.5076Z" fill="url(#paint11_linear)"/>
<path d="M10.5265 15.2536C10.1859 15.2536 9.82906 15.1078 9.60198 14.8163L0.291927 3.80255C-0.146002 3.28426 -0.0811239 2.52302 0.437904 2.08571C0.940712 1.6484 1.71925 1.71318 2.14096 2.23148L11.451 13.2614C11.8889 13.7797 11.8241 14.5409 11.305 14.9783C11.078 15.1564 10.8022 15.2536 10.5265 15.2536Z" fill="url(#paint12_linear)"/>
<path d="M22.6749 12.2245C22.237 12.2245 21.8153 11.9816 21.6044 11.5767L17.2251 3.21918C16.9169 2.6199 17.144 1.89105 17.7441 1.58332C18.3443 1.27558 19.0741 1.50233 19.3823 2.10161L23.7616 10.4591C24.0698 11.0584 23.8427 11.7872 23.2426 12.095C23.0642 12.1759 22.8695 12.2245 22.6749 12.2245Z" fill="url(#paint13_linear)"/>
<path d="M24.7024 16.0794C24.2645 16.0794 23.8428 15.8365 23.6157 15.4315L23.4697 15.1562C23.1616 14.5569 23.3886 13.8281 23.9888 13.5203C24.5889 13.2126 25.3188 13.4393 25.6269 14.0386L25.7729 14.314C26.0811 14.9132 25.854 15.6421 25.2539 15.9498C25.0917 16.0308 24.8971 16.0794 24.7024 16.0794Z" fill="url(#paint14_linear)"/>
<path d="M56.5414 9.38989C56.3792 9.38989 56.2008 9.3575 56.0548 9.27652C55.4385 9.00117 55.1628 8.28852 55.4385 7.67305L55.7467 6.99279C56.0224 6.37731 56.7361 6.10197 57.3524 6.37731C57.9688 6.65266 58.2445 7.36531 57.9688 7.98078L57.6606 8.66104C57.4497 9.11455 57.0118 9.38989 56.5414 9.38989Z" fill="url(#paint15_linear)"/>
<path d="M51.7729 20.0799C51.6107 20.0799 51.4323 20.0475 51.2863 19.9665C50.6699 19.6912 50.3942 18.9785 50.6699 18.3631L53.849 11.2203C54.1247 10.6049 54.8384 10.3295 55.4547 10.6049C56.0711 10.8802 56.3468 11.5928 56.0711 12.2083L52.892 19.3511C52.6812 19.8046 52.2433 20.0799 51.7729 20.0799Z" fill="url(#paint16_linear)"/>
<path d="M73.4098 14.3948C73.1016 14.3948 72.7934 14.2814 72.5664 14.0546C72.0798 13.5849 72.0798 12.8237 72.5339 12.3378L72.907 11.9653C73.3773 11.4794 74.1397 11.4794 74.6263 11.9329C75.1128 12.4026 75.1128 13.1638 74.6587 13.6497L74.2856 14.0222C74.0424 14.2652 73.7342 14.3948 73.4098 14.3948Z" fill="url(#paint17_linear)"/>
<path d="M62.9808 25.117C62.6727 25.117 62.3645 25.0037 62.1374 24.7769C61.6508 24.3072 61.6508 23.5459 62.105 23.06L69.566 15.3666C70.0363 14.8807 70.7987 14.8807 71.2853 15.3342C71.7718 15.8039 71.7718 16.5652 71.3177 17.0511L63.8567 24.7445C63.6134 25.0037 63.3052 25.117 62.9808 25.117Z" fill="url(#paint18_linear)"/>
<path d="M38.7485 17.699C38.116 17.699 37.5807 17.2131 37.5321 16.5652L36.6238 2.29596C36.5751 1.6319 37.0941 1.04882 37.7591 1.00023C38.4404 0.951638 39.008 1.46993 39.0567 2.13399L39.9812 16.4033C40.0299 17.0673 39.5109 17.6504 38.8459 17.699C38.8134 17.699 38.781 17.699 38.7485 17.699Z" fill="url(#paint19_linear)"/>
<path d="M1.21644 78.4202C0.940711 78.4202 0.664978 78.323 0.437904 78.1286C-0.0811239 77.6913 -0.146002 76.9301 0.291927 76.4118L9.60198 65.3819C10.0399 64.8636 10.8022 64.7988 11.3213 65.2361C11.8403 65.6734 11.9052 66.4347 11.4672 66.9529L2.15718 77.9829C1.91389 78.2744 1.55706 78.4202 1.21644 78.4202Z" fill="url(#paint20_linear)"/>
<path d="M18.2957 78.7765C18.1011 78.7765 17.9064 78.728 17.728 78.6308C17.1279 78.323 16.9008 77.578 17.209 76.9949L17.501 76.428C17.8091 75.8288 18.5552 75.602 19.1391 75.9097C19.7393 76.2175 19.9663 76.9625 19.6582 77.5456L19.3662 78.1125C19.1554 78.5336 18.7336 78.7765 18.2957 78.7765Z" fill="url(#paint21_linear)"/>
<path d="M20.3719 74.8409C20.1772 74.8409 19.9826 74.7923 19.8042 74.6952C19.2041 74.3874 18.977 73.6424 19.2852 73.0593L23.6158 64.799C23.924 64.1997 24.6701 63.973 25.254 64.2807C25.8541 64.5884 26.0812 65.3335 25.773 65.9166L21.4424 74.1769C21.2315 74.598 20.8098 74.8409 20.3719 74.8409Z" fill="url(#paint22_linear)"/>
<path d="M57.3363 75.2456C56.8659 75.2456 56.428 74.9703 56.2172 74.5168L55.9414 73.8851C55.6657 73.2696 55.9414 72.557 56.5578 72.2816C57.1741 72.0063 57.8878 72.2816 58.1635 72.8971L58.4392 73.5288C58.715 74.1442 58.4392 74.8569 57.8229 75.1322C57.6607 75.197 57.4985 75.2456 57.3363 75.2456Z" fill="url(#paint23_linear)"/>
<path d="M55.617 71.1966C55.1466 71.1966 54.7087 70.9212 54.4978 70.4677L51.2215 63.1145C50.9457 62.499 51.2215 61.7863 51.8378 61.511C52.4542 61.2356 53.1678 61.511 53.4435 62.1265L56.7199 69.4797C56.9956 70.0952 56.7199 70.8079 56.1036 71.0832C55.9576 71.1642 55.7792 71.1966 55.617 71.1966Z" fill="url(#paint24_linear)"/>
<path d="M73.783 68.6374C73.4586 68.6374 73.1504 68.5079 72.9071 68.2649L72.599 67.9572C72.1286 67.4713 72.1448 66.71 72.6314 66.2403C73.118 65.7706 73.8803 65.7868 74.3507 66.2727L74.6589 66.5805C75.1292 67.0664 75.113 67.8276 74.6264 68.2973C74.3831 68.5241 74.0912 68.6374 73.783 68.6374Z" fill="url(#paint25_linear)"/>
<path d="M70.5229 65.2848C70.1985 65.2848 69.8903 65.1553 69.647 64.9123L63.5484 58.6442C63.0781 58.1583 63.0943 57.3971 63.5809 56.9273C64.0675 56.4576 64.8298 56.4738 65.3002 56.9597L71.3987 63.2279C71.8691 63.7138 71.8529 64.475 71.3663 64.9447C71.1392 65.1715 70.831 65.2848 70.5229 65.2848Z" fill="url(#paint26_linear)"/>
<path d="M37.8402 79.2139C37.8078 79.2139 37.7916 79.2139 37.7591 79.2139C37.0941 79.1653 36.5751 78.5985 36.6238 77.9182L37.2077 68.8319C37.2563 68.1678 37.824 67.6495 38.5052 67.6981C39.1703 67.7467 39.6893 68.3136 39.6406 68.9938L39.0567 78.0802C39.0081 78.728 38.4728 79.2139 37.8402 79.2139Z" fill="url(#paint27_linear)"/>
<path d="M38.7162 65.4953C38.6838 65.4953 38.6676 65.4953 38.6351 65.4953C37.9701 65.4467 37.4511 64.8798 37.4997 64.1996L37.5322 63.6489C37.5808 62.9848 38.1485 62.4665 38.8298 62.5151C39.4948 62.5637 40.0138 63.1306 39.9651 63.8109L39.9327 64.3615C39.9002 65.0094 39.365 65.4953 38.7162 65.4953Z" fill="url(#paint28_linear)"/>
<defs>
<linearGradient id="paint0_linear" x1="34.4262" y1="15.752" x2="34.4262" y2="33.4744" gradientUnits="userSpaceOnUse">
<stop stop-color="#1383D6"/>
<stop offset="1" stop-color="#00FFD1"/>
</linearGradient>
<linearGradient id="paint1_linear" x1="41.3194" y1="24.293" x2="41.3194" y2="36.2926" gradientUnits="userSpaceOnUse">
<stop stop-color="#1383D6"/>
<stop offset="1" stop-color="#00FFD1"/>
</linearGradient>
<linearGradient id="paint2_linear" x1="41.3275" y1="48.1244" x2="41.3275" y2="56.4739" gradientUnits="userSpaceOnUse">
<stop stop-color="#1383D6"/>
<stop offset="1" stop-color="#00FFD1"/>
</linearGradient>
<linearGradient id="paint3_linear" x1="34.4181" y1="50.7393" x2="34.4181" y2="63.8436" gradientUnits="userSpaceOnUse">
<stop stop-color="#1383D6"/>
<stop offset="1" stop-color="#00FFD1"/>
</linearGradient>
<linearGradient id="paint4_linear" x1="3.55216" y1="22.4287" x2="3.55216" y2="57.7374" gradientUnits="userSpaceOnUse">
<stop stop-color="#1383D6"/>
<stop offset="1" stop-color="#00FFD1"/>
</linearGradient>
<linearGradient id="paint5_linear" x1="11.8904" y1="17.6636" x2="11.8904" y2="62.5316" gradientUnits="userSpaceOnUse">
<stop stop-color="#1383D6"/>
<stop offset="1" stop-color="#00FFD1"/>
</linearGradient>
<linearGradient id="paint6_linear" x1="67.307" y1="31.2036" x2="67.307" y2="52.9914" gradientUnits="userSpaceOnUse">
<stop stop-color="#1383D6"/>
<stop offset="1" stop-color="#00FFD1"/>
</linearGradient>
<linearGradient id="paint7_linear" x1="54.6477" y1="28.4473" x2="54.6477" y2="55.1298" gradientUnits="userSpaceOnUse">
<stop stop-color="#1383D6"/>
<stop offset="1" stop-color="#00FFD1"/>
</linearGradient>
<linearGradient id="paint8_linear" x1="36.4217" y1="23.873" x2="36.4217" y2="58.0126" gradientUnits="userSpaceOnUse">
<stop stop-color="#1383D6"/>
<stop offset="1" stop-color="#00FFD1"/>
</linearGradient>
<linearGradient id="paint9_linear" x1="25.2622" y1="31.3926" x2="25.2622" y2="50.0946" gradientUnits="userSpaceOnUse">
<stop stop-color="#1383D6"/>
<stop offset="1" stop-color="#00FFD1"/>
</linearGradient>
<linearGradient id="paint10_linear" x1="46.5581" y1="35.0391" x2="46.5581" y2="48.4456" gradientUnits="userSpaceOnUse">
<stop stop-color="#1383D6"/>
<stop offset="1" stop-color="#00FFD1"/>
</linearGradient>
<linearGradient id="paint11_linear" x1="61.6806" y1="37.5059" x2="61.6806" y2="46.4173" gradientUnits="userSpaceOnUse">
<stop stop-color="#1383D6"/>
<stop offset="1" stop-color="#00FFD1"/>
</linearGradient>
<linearGradient id="paint12_linear" x1="5.87147" y1="1.7959" x2="5.87147" y2="15.2536" gradientUnits="userSpaceOnUse">
<stop stop-color="#1383D6"/>
<stop offset="1" stop-color="#00FFD1"/>
</linearGradient>
<linearGradient id="paint13_linear" x1="20.4934" y1="1.44629" x2="20.4934" y2="12.2245" gradientUnits="userSpaceOnUse">
<stop stop-color="#1383D6"/>
<stop offset="1" stop-color="#00FFD1"/>
</linearGradient>
<linearGradient id="paint14_linear" x1="24.6213" y1="13.3833" x2="24.6213" y2="16.0794" gradientUnits="userSpaceOnUse">
<stop stop-color="#1383D6"/>
<stop offset="1" stop-color="#00FFD1"/>
</linearGradient>
<linearGradient id="paint15_linear" x1="56.7036" y1="6.27051" x2="56.7036" y2="9.38989" gradientUnits="userSpaceOnUse">
<stop stop-color="#1383D6"/>
<stop offset="1" stop-color="#00FFD1"/>
</linearGradient>
<linearGradient id="paint16_linear" x1="53.3705" y1="10.498" x2="53.3705" y2="20.0799" gradientUnits="userSpaceOnUse">
<stop stop-color="#1383D6"/>
<stop offset="1" stop-color="#00FFD1"/>
</linearGradient>
<linearGradient id="paint17_linear" x1="73.5963" y1="11.5967" x2="73.5963" y2="14.3948" gradientUnits="userSpaceOnUse">
<stop stop-color="#1383D6"/>
<stop offset="1" stop-color="#00FFD1"/>
</linearGradient>
<linearGradient id="paint18_linear" x1="66.7113" y1="14.998" x2="66.7113" y2="25.117" gradientUnits="userSpaceOnUse">
<stop stop-color="#1383D6"/>
<stop offset="1" stop-color="#00FFD1"/>
</linearGradient>
<linearGradient id="paint19_linear" x1="38.3025" y1="0.99707" x2="38.3025" y2="17.699" gradientUnits="userSpaceOnUse">
<stop stop-color="#1383D6"/>
<stop offset="1" stop-color="#00FFD1"/>
</linearGradient>
<linearGradient id="paint20_linear" x1="5.87958" y1="64.9463" x2="5.87958" y2="78.4202" gradientUnits="userSpaceOnUse">
<stop stop-color="#1383D6"/>
<stop offset="1" stop-color="#00FFD1"/>
</linearGradient>
<linearGradient id="paint21_linear" x1="18.4336" y1="75.7727" x2="18.4336" y2="78.7765" gradientUnits="userSpaceOnUse">
<stop stop-color="#1383D6"/>
<stop offset="1" stop-color="#00FFD1"/>
</linearGradient>
<linearGradient id="paint22_linear" x1="22.5291" y1="64.1437" x2="22.5291" y2="74.8409" gradientUnits="userSpaceOnUse">
<stop stop-color="#1383D6"/>
<stop offset="1" stop-color="#00FFD1"/>
</linearGradient>
<linearGradient id="paint23_linear" x1="57.1903" y1="72.1748" x2="57.1903" y2="75.2456" gradientUnits="userSpaceOnUse">
<stop stop-color="#1383D6"/>
<stop offset="1" stop-color="#00FFD1"/>
</linearGradient>
<linearGradient id="paint24_linear" x1="53.9707" y1="61.4042" x2="53.9707" y2="71.1966" gradientUnits="userSpaceOnUse">
<stop stop-color="#1383D6"/>
<stop offset="1" stop-color="#00FFD1"/>
</linearGradient>
<linearGradient id="paint25_linear" x1="73.6289" y1="65.8979" x2="73.6289" y2="68.6374" gradientUnits="userSpaceOnUse">
<stop stop-color="#1383D6"/>
<stop offset="1" stop-color="#00FFD1"/>
</linearGradient>
<linearGradient id="paint26_linear" x1="67.4736" y1="56.585" x2="67.4736" y2="65.2848" gradientUnits="userSpaceOnUse">
<stop stop-color="#1383D6"/>
<stop offset="1" stop-color="#00FFD1"/>
</linearGradient>
<linearGradient id="paint27_linear" x1="38.1322" y1="67.6949" x2="38.1322" y2="79.2139" gradientUnits="userSpaceOnUse">
<stop stop-color="#1383D6"/>
<stop offset="1" stop-color="#00FFD1"/>
</linearGradient>
<linearGradient id="paint28_linear" x1="38.7324" y1="62.512" x2="38.7324" y2="65.4953" gradientUnits="userSpaceOnUse">
<stop stop-color="#1383D6"/>
<stop offset="1" stop-color="#00FFD1"/>
</linearGradient>
</defs>
</svg>
