<svg width="71" height="72" viewBox="0 0 71 72" fill="none" xmlns="http://www.w3.org/2000/svg">
<path d="M49.124 56.3794C48.5019 56.3794 47.9861 55.8636 47.9861 55.2415V15.5668H23.4378V55.2415C23.4378 55.8636 22.922 56.3794 22.2999 56.3794C21.6779 56.3794 21.162 55.8636 21.162 55.2415V14.4289C21.162 13.8069 21.6779 13.291 22.2999 13.291H49.124C49.746 13.291 50.2619 13.8069 50.2619 14.4289V55.2415C50.2619 55.8788 49.7612 56.3794 49.124 56.3794Z" fill="url(#paint0_linear)"/>
<path d="M18.78 50.8718C18.2793 50.8718 17.809 50.5229 17.6725 50.0222L10.7996 23.2285C10.7237 22.925 10.7692 22.6216 10.9361 22.3485C11.103 22.0906 11.3609 21.8933 11.6492 21.8326L18.5221 20.2851C19.129 20.1486 19.751 20.5279 19.8876 21.1499C20.0241 21.7568 19.6448 22.3788 19.0228 22.5154L13.2878 23.805L19.8724 49.4456C20.0241 50.0525 19.66 50.6746 19.0531 50.8263C18.9621 50.8566 18.871 50.8718 18.78 50.8718Z" fill="url(#paint1_linear)"/>
<path d="M15.1843 51.2967C14.7746 51.2967 14.3801 51.0692 14.1677 50.6747L4.95835 32.7414C4.67008 32.1801 4.89766 31.4973 5.44385 31.2091L9.16098 29.2974C9.72235 29.0091 10.4051 29.2367 10.6934 29.7829C10.9816 30.3442 10.754 31.027 10.2079 31.3153L7.50724 32.7111L16.2008 49.6278C16.489 50.1892 16.2615 50.8719 15.7153 51.1602C15.5484 51.2512 15.3663 51.2967 15.1843 51.2967Z" fill="url(#paint2_linear)"/>
<path d="M53.539 46.1835C53.448 46.1835 53.357 46.1683 53.2507 46.1531C52.6439 46.0014 52.2797 45.3794 52.4315 44.7725L57.8023 23.7896L52.0673 22.5C51.4605 22.3635 51.066 21.7566 51.2025 21.1345C51.3391 20.5277 51.946 20.1332 52.568 20.2697L59.4409 21.8173C59.7444 21.878 60.0023 22.0752 60.154 22.3331C60.3209 22.591 60.3664 22.9097 60.2905 23.2131L54.6162 45.3187C54.51 45.8497 54.0397 46.1835 53.539 46.1835Z" fill="url(#paint3_linear)"/>
<path d="M55.4659 52.1615C55.2838 52.1615 55.1169 52.116 54.95 52.0401C54.3887 51.7518 54.1762 51.0691 54.4645 50.5077L63.6132 32.711L60.9126 31.3152C60.3512 31.0269 60.1388 30.3442 60.4271 29.7828C60.7154 29.2214 61.3981 29.009 61.9595 29.2973L65.6766 31.209C66.238 31.4972 66.4504 32.18 66.1621 32.7413L56.4976 51.5546C56.27 51.9339 55.8755 52.1615 55.4659 52.1615Z" fill="url(#paint4_linear)"/>
<path d="M49.1998 71.9H22.3758C19.0986 71.9 16.4283 69.2298 16.4283 65.9526V54.4978C16.4283 53.8757 16.9442 53.3599 17.5662 53.3599C18.1883 53.3599 18.7041 53.8757 18.7041 54.4978V65.9526C18.7041 67.9705 20.3427 69.6242 22.3758 69.6242H49.1998C51.2177 69.6242 52.8714 67.9856 52.8714 65.9526V54.4978C52.8714 53.8757 53.3873 53.3599 54.0093 53.3599C54.6314 53.3599 55.1472 53.8757 55.1472 54.4978V65.9526C55.1472 69.2449 52.477 71.9 49.1998 71.9Z" fill="url(#paint5_linear)"/>
<path d="M54.0093 19.2077C53.3873 19.2077 52.8714 18.6919 52.8714 18.0698V5.94741C52.8714 3.92954 51.2329 2.2758 49.1998 2.2758H22.3758C20.3579 2.2758 18.7041 3.91437 18.7041 5.94741V17.4023C18.7041 18.0243 18.1883 18.5402 17.5662 18.5402C16.9442 18.5402 16.4283 18.0243 16.4283 17.4023V5.94741C16.4283 2.67027 19.0986 0 22.3758 0H49.1998C52.477 0 55.1472 2.67027 55.1472 5.94741V18.0698C55.1472 18.6919 54.6466 19.2077 54.0093 19.2077Z" fill="url(#paint6_linear)"/>
<path d="M53.6301 62.1142H17.9759C17.3539 62.1142 16.838 61.5983 16.838 60.9763C16.838 60.3542 17.3539 59.8384 17.9759 59.8384H53.6301C54.2521 59.8384 54.768 60.3542 54.768 60.9763C54.768 61.6135 54.2673 62.1142 53.6301 62.1142Z" fill="url(#paint7_linear)"/>
<path d="M53.6301 8.86027H17.9759C17.3539 8.86027 16.838 8.34442 16.838 7.72237C16.838 7.10032 17.3539 6.58447 17.9759 6.58447H53.6301C54.2521 6.58447 54.768 7.10032 54.768 7.72237C54.768 8.34442 54.2673 8.86027 53.6301 8.86027Z" fill="url(#paint8_linear)"/>
<path d="M37.6995 66.9692H33.7548C33.1327 66.9692 32.6169 66.4533 32.6169 65.8313C32.6169 65.2092 33.1327 64.6934 33.7548 64.6934H37.6995C38.3215 64.6934 38.8374 65.2092 38.8374 65.8313C38.8374 66.4685 38.3367 66.9692 37.6995 66.9692Z" fill="url(#paint9_linear)"/>
<path d="M4.57903 19.2986C4.27559 19.2986 3.97215 19.1773 3.74457 18.9345L0.300529 15.2022C-0.124286 14.7471 -0.0939425 14.0188 0.361217 13.594C0.816376 13.1692 1.54463 13.1995 1.96945 13.6547L5.41349 17.387C5.8383 17.8421 5.80796 18.5704 5.3528 18.9952C5.14039 19.1924 4.86729 19.2986 4.57903 19.2986Z" fill="url(#paint10_linear)"/>
<path d="M9.88922 13.9884C9.44923 13.9884 9.03959 13.7457 8.85752 13.3209L6.62724 8.37481C6.36932 7.79828 6.62724 7.13071 7.18861 6.87279C7.76514 6.61486 8.43271 6.87279 8.69063 7.43415L10.9209 12.3802C11.1788 12.9567 10.9209 13.6243 10.3595 13.8822C10.2078 13.9581 10.0561 13.9884 9.88922 13.9884Z" fill="url(#paint11_linear)"/>
<path d="M65.4642 19.2986C65.1911 19.2986 64.918 19.1924 64.6904 18.9952C64.2352 18.5704 64.2049 17.8421 64.6297 17.387L68.0737 13.6547C68.4986 13.1995 69.2268 13.1692 69.682 13.594C70.1371 14.0188 70.1675 14.7471 69.7427 15.2022L66.2986 18.9345C66.071 19.1773 65.7676 19.2986 65.4642 19.2986Z" fill="url(#paint12_linear)"/>
<path d="M60.154 13.9886C60.0023 13.9886 59.8354 13.9582 59.6836 13.8824C59.1071 13.6245 58.8644 12.9417 59.1223 12.3804L61.3526 7.43429C61.6105 6.85776 62.2932 6.59984 62.8546 6.87293C63.4311 7.13086 63.6739 7.81359 63.416 8.37496L61.1857 13.321C61.0036 13.7307 60.594 13.9886 60.154 13.9886Z" fill="url(#paint13_linear)"/>
<defs>
<linearGradient id="paint0_linear" x1="35.7119" y1="13.291" x2="35.7119" y2="56.3794" gradientUnits="userSpaceOnUse">
<stop stop-color="#1383D6"/>
<stop offset="1" stop-color="#00FFD1"/>
</linearGradient>
<linearGradient id="paint1_linear" x1="15.3397" y1="20.2573" x2="15.3397" y2="50.8718" gradientUnits="userSpaceOnUse">
<stop stop-color="#1383D6"/>
<stop offset="1" stop-color="#00FFD1"/>
</linearGradient>
<linearGradient id="paint2_linear" x1="10.5796" y1="29.1719" x2="10.5796" y2="51.2967" gradientUnits="userSpaceOnUse">
<stop stop-color="#1383D6"/>
<stop offset="1" stop-color="#00FFD1"/>
</linearGradient>
<linearGradient id="paint3_linear" x1="55.7508" y1="20.2427" x2="55.7508" y2="46.1835" gradientUnits="userSpaceOnUse">
<stop stop-color="#1383D6"/>
<stop offset="1" stop-color="#00FFD1"/>
</linearGradient>
<linearGradient id="paint4_linear" x1="60.3133" y1="29.1689" x2="60.3133" y2="52.1615" gradientUnits="userSpaceOnUse">
<stop stop-color="#1383D6"/>
<stop offset="1" stop-color="#00FFD1"/>
</linearGradient>
<linearGradient id="paint5_linear" x1="35.7878" y1="53.3599" x2="35.7878" y2="71.9" gradientUnits="userSpaceOnUse">
<stop stop-color="#1383D6"/>
<stop offset="1" stop-color="#00FFD1"/>
</linearGradient>
<linearGradient id="paint6_linear" x1="35.7878" y1="0" x2="35.7878" y2="19.2077" gradientUnits="userSpaceOnUse">
<stop stop-color="#1383D6"/>
<stop offset="1" stop-color="#00FFD1"/>
</linearGradient>
<linearGradient id="paint7_linear" x1="35.803" y1="59.8384" x2="35.803" y2="62.1142" gradientUnits="userSpaceOnUse">
<stop stop-color="#1383D6"/>
<stop offset="1" stop-color="#00FFD1"/>
</linearGradient>
<linearGradient id="paint8_linear" x1="35.803" y1="6.58447" x2="35.803" y2="8.86027" gradientUnits="userSpaceOnUse">
<stop stop-color="#1383D6"/>
<stop offset="1" stop-color="#00FFD1"/>
</linearGradient>
<linearGradient id="paint9_linear" x1="35.7271" y1="64.6934" x2="35.7271" y2="66.9692" gradientUnits="userSpaceOnUse">
<stop stop-color="#1383D6"/>
<stop offset="1" stop-color="#00FFD1"/>
</linearGradient>
<linearGradient id="paint10_linear" x1="2.85701" y1="13.2935" x2="2.85701" y2="19.2986" gradientUnits="userSpaceOnUse">
<stop stop-color="#1383D6"/>
<stop offset="1" stop-color="#00FFD1"/>
</linearGradient>
<linearGradient id="paint11_linear" x1="8.77408" y1="6.77246" x2="8.77408" y2="13.9884" gradientUnits="userSpaceOnUse">
<stop stop-color="#1383D6"/>
<stop offset="1" stop-color="#00FFD1"/>
</linearGradient>
<linearGradient id="paint12_linear" x1="67.1862" y1="13.2935" x2="67.1862" y2="19.2986" gradientUnits="userSpaceOnUse">
<stop stop-color="#1383D6"/>
<stop offset="1" stop-color="#00FFD1"/>
</linearGradient>
<linearGradient id="paint13_linear" x1="61.2691" y1="6.76367" x2="61.2691" y2="13.9886" gradientUnits="userSpaceOnUse">
<stop stop-color="#1383D6"/>
<stop offset="1" stop-color="#00FFD1"/>
</linearGradient>
</defs>
</svg>
