<svg width="75" height="75" viewBox="0 0 75 75" fill="none" xmlns="http://www.w3.org/2000/svg">
<path d="M49.3227 67.9126C48.9708 67.9126 48.6508 67.8006 48.4108 67.5447L37.484 55.002C37.0521 54.506 37.1001 53.7541 37.596 53.3222C38.0919 52.8902 38.8599 52.9382 39.2918 53.4502L49.3227 64.9689L72.1523 39.0677L64.3451 31.1325L35.8202 31.1165C35.1643 31.1165 34.6203 30.5886 34.6203 29.9167C34.6203 29.2607 35.1643 28.7168 35.8202 28.7168L64.8411 28.7328C65.1611 28.7328 65.465 28.8608 65.689 29.0848L74.632 38.1718C75.08 38.6197 75.096 39.3397 74.68 39.8036L50.2347 67.5447C49.9947 67.8006 49.6747 67.9126 49.3227 67.9126Z" fill="url(#paint0_linear)"/>
<path d="M73.8002 40.2357H41.3236C40.6677 40.2357 40.1237 39.6917 40.1237 39.0358C40.1237 38.3799 40.6677 37.8359 41.3236 37.8359H73.8002C74.4561 37.8359 75 38.3799 75 39.0358C75 39.6917 74.4561 40.2357 73.8002 40.2357Z" fill="url(#paint1_linear)"/>
<path d="M58.3938 57.6899C57.9618 57.6899 57.5299 57.45 57.3219 57.034L49.4347 41.6756L41.4196 57.05C41.1156 57.6419 40.3957 57.8659 39.8038 57.562C39.2118 57.258 38.9878 56.5381 39.2918 55.9461L48.3788 38.508C48.5868 38.108 49.0028 37.8521 49.4347 37.8521C49.8827 37.8521 50.2986 38.124 50.4906 38.524L59.4337 55.9621C59.7376 56.5541 59.4977 57.274 58.9057 57.578C58.7617 57.6419 58.5698 57.6899 58.3938 57.6899Z" fill="url(#paint2_linear)"/>
<path d="M49.4507 40.2678C49.2108 40.2678 48.9868 40.2039 48.7788 40.0599L35.1483 30.9088C34.6043 30.5409 34.4443 29.789 34.8283 29.245C35.1962 28.7011 35.9482 28.5411 36.4921 28.9251L49.4987 37.6601L64.2491 28.8771C64.8251 28.5411 65.561 28.7171 65.897 29.293C66.2329 29.869 66.0569 30.6049 65.481 30.9408L50.0747 40.1079C49.8827 40.2039 49.6587 40.2678 49.4507 40.2678Z" fill="url(#paint3_linear)"/>
<path d="M9.51898 47.7229C4.27154 47.7229 0 43.4514 0 38.1879C0 32.9405 4.27154 28.6689 9.51898 28.6689C14.7664 28.6689 19.038 32.9405 19.038 38.1879C19.054 43.4514 14.7824 47.7229 9.51898 47.7229ZM9.51898 31.0687C5.5834 31.0687 2.39974 34.2683 2.39974 38.1879C2.39974 42.1235 5.5994 45.3072 9.51898 45.3072C13.4546 45.3072 16.6382 42.1075 16.6382 38.1879C16.6542 34.2683 13.4546 31.0687 9.51898 31.0687Z" fill="url(#paint4_linear)"/>
<path d="M30.0448 55.0023C24.7974 55.0023 20.5258 50.7308 20.5258 45.4833C20.5258 40.2359 24.7974 35.9644 30.0448 35.9644C35.2922 35.9644 39.5638 40.2359 39.5638 45.4833C39.5798 50.7308 35.3082 55.0023 30.0448 55.0023ZM30.0448 38.3481C26.1092 38.3481 22.9256 41.5478 22.9256 45.4673C22.9256 49.4029 26.1252 52.5866 30.0448 52.5866C33.9804 52.5866 37.1641 49.3869 37.1641 45.4673C37.18 41.5478 33.9804 38.3481 30.0448 38.3481Z" fill="url(#paint5_linear)"/>
<path d="M30.0448 38.3481C29.9008 38.3481 29.7408 38.3161 29.5968 38.2522C28.9889 37.9962 28.6849 37.3083 28.9409 36.6843C31.7726 29.7571 28.8129 21.134 26.4292 16.0145C26.0132 21.118 24.0454 25.1336 22.2216 27.8533C19.6139 31.7249 16.7982 33.7886 16.6862 33.8686C16.1423 34.2526 15.4064 34.1406 15.0064 33.5966C14.6224 33.0527 14.7344 32.3168 15.2784 31.9168C15.3104 31.9008 17.9181 29.965 20.2858 26.4294C23.4215 21.7419 24.6374 16.5905 23.9175 11.1031C23.8375 10.5431 24.1734 10.0152 24.7014 9.8232C25.2293 9.63122 25.8213 9.8392 26.1252 10.3031C26.2212 10.4631 28.605 14.2227 30.4288 19.4382C32.8925 26.4454 33.1485 32.7167 31.1647 37.5802C30.9727 38.0762 30.5247 38.3481 30.0448 38.3481Z" fill="url(#paint6_linear)"/>
<path d="M19.3899 13.807C18.878 13.807 18.398 13.471 18.2381 12.9591C18.0461 12.3191 18.398 11.6472 19.038 11.4712L30.5087 7.99959C31.1487 7.80761 31.8206 8.15957 31.9966 8.7995C32.1886 9.43943 31.8366 10.1114 31.1967 10.2873L19.7419 13.759C19.6139 13.791 19.5019 13.807 19.3899 13.807Z" fill="url(#paint7_linear)"/>
<path d="M68.4407 3.03968C67.7848 3.03968 67.2408 2.49573 67.2408 1.8398V1.19987C67.2408 0.543942 67.7848 0 68.4407 0C69.0966 0 69.6406 0.543942 69.6406 1.19987V1.8398C69.6406 2.49573 69.0966 3.03968 68.4407 3.03968Z" fill="url(#paint8_linear)"/>
<path d="M68.4407 11.199C67.7848 11.199 67.2408 10.6551 67.2408 9.99916V9.51921C67.2408 8.86328 67.7848 8.31934 68.4407 8.31934C69.0966 8.31934 69.6406 8.86328 69.6406 9.51921V9.99916C69.6406 10.6551 69.0966 11.199 68.4407 11.199Z" fill="url(#paint9_linear)"/>
<path d="M64.6811 6.79916H64.0412C63.3852 6.79916 62.8413 6.25522 62.8413 5.59929C62.8413 4.94336 63.3852 4.39941 64.0412 4.39941H64.6811C65.337 4.39941 65.881 4.94336 65.881 5.59929C65.881 6.25522 65.337 6.79916 64.6811 6.79916Z" fill="url(#paint10_linear)"/>
<path d="M72.8402 6.79916H72.2003C71.5444 6.79916 71.0004 6.25522 71.0004 5.59929C71.0004 4.94336 71.5444 4.39941 72.2003 4.39941H72.8402C73.4962 4.39941 74.0401 4.94336 74.0401 5.59929C74.0401 6.25522 73.4962 6.79916 72.8402 6.79916Z" fill="url(#paint11_linear)"/>
<path d="M50.6826 17.1183C50.0267 17.1183 49.4827 16.5743 49.4827 15.9184V15.2785C49.4827 14.6226 50.0267 14.0786 50.6826 14.0786C51.3385 14.0786 51.8825 14.6226 51.8825 15.2785V15.9184C51.8825 16.5743 51.3385 17.1183 50.6826 17.1183Z" fill="url(#paint12_linear)"/>
<path d="M50.6826 23.0378C50.0267 23.0378 49.4827 22.4938 49.4827 21.8379V21.6779C49.4827 21.022 50.0267 20.478 50.6826 20.478C51.3385 20.478 51.8825 21.022 51.8825 21.6779V21.8379C51.8825 22.4938 51.3385 23.0378 50.6826 23.0378Z" fill="url(#paint13_linear)"/>
<path d="M48.0429 19.7581H47.5629C46.907 19.7581 46.3631 19.2142 46.3631 18.5583C46.3631 17.9023 46.907 17.3584 47.5629 17.3584H48.0429C48.6988 17.3584 49.2427 17.9023 49.2427 18.5583C49.2427 19.2142 48.6988 19.7581 48.0429 19.7581Z" fill="url(#paint14_linear)"/>
<path d="M53.9622 19.7581H53.4823C52.8264 19.7581 52.2824 19.2142 52.2824 18.5583C52.2824 17.9023 52.8264 17.3584 53.4823 17.3584H53.9622C54.6182 17.3584 55.1621 17.9023 55.1621 18.5583C55.1621 19.2142 54.6182 19.7581 53.9622 19.7581Z" fill="url(#paint15_linear)"/>
<path d="M64.1212 67.033C63.4652 67.033 62.9213 66.4891 62.9213 65.8331V65.3532C62.9213 64.6973 63.4652 64.1533 64.1212 64.1533C64.7771 64.1533 65.321 64.6973 65.321 65.3532V65.8331C65.321 66.4891 64.7771 67.033 64.1212 67.033Z" fill="url(#paint16_linear)"/>
<path d="M64.1212 72.9523C63.4652 72.9523 62.9213 72.4084 62.9213 71.7524V71.5925C62.9213 70.9365 63.4652 70.3926 64.1212 70.3926C64.7771 70.3926 65.321 70.9365 65.321 71.5925V71.7524C65.321 72.4084 64.7771 72.9523 64.1212 72.9523Z" fill="url(#paint17_linear)"/>
<path d="M61.3215 69.8324H60.8415C60.1856 69.8324 59.6416 69.2884 59.6416 68.6325C59.6416 67.9766 60.1856 67.4326 60.8415 67.4326H61.3215C61.9774 67.4326 62.5213 67.9766 62.5213 68.6325C62.5213 69.2884 61.9774 69.8324 61.3215 69.8324Z" fill="url(#paint18_linear)"/>
<path d="M67.2408 69.8324H66.7609C66.1049 69.8324 65.561 69.2884 65.561 68.6325C65.561 67.9766 66.1049 67.4326 66.7609 67.4326H67.2408C67.8968 67.4326 68.4407 67.9766 68.4407 68.6325C68.4407 69.2884 67.8968 69.8324 67.2408 69.8324Z" fill="url(#paint19_linear)"/>
<path d="M7.80717 66.073C7.15124 66.073 6.6073 65.529 6.6073 64.8731V64.0732C6.6073 63.4172 7.15124 62.8733 7.80717 62.8733C8.4631 62.8733 9.00704 63.4172 9.00704 64.0732V64.8731C9.00704 65.529 8.4631 66.073 7.80717 66.073Z" fill="url(#paint20_linear)"/>
<path d="M7.80717 74.2321C7.15124 74.2321 6.6073 73.6881 6.6073 73.0322V72.3923C6.6073 71.7363 7.15124 71.1924 7.80717 71.1924C8.4631 71.1924 9.00704 71.7363 9.00704 72.3923V73.0322C9.00704 73.6881 8.4631 74.2321 7.80717 74.2321Z" fill="url(#paint21_linear)"/>
<path d="M4.04757 69.8324H3.40764C2.75171 69.8324 2.20776 69.2884 2.20776 68.6325C2.20776 67.9766 2.75171 67.4326 3.40764 67.4326H4.04757C4.7035 67.4326 5.24744 67.9766 5.24744 68.6325C5.24744 69.2884 4.7035 69.8324 4.04757 69.8324Z" fill="url(#paint22_linear)"/>
<path d="M12.2067 69.8324H11.5668C10.9108 69.8324 10.3669 69.2884 10.3669 68.6325C10.3669 67.9766 10.9108 67.4326 11.5668 67.4326H12.2067C12.8626 67.4326 13.4066 67.9766 13.4066 68.6325C13.4066 69.2884 12.8626 69.8324 12.2067 69.8324Z" fill="url(#paint23_linear)"/>
<path d="M23.6295 67.6247C21.7097 67.6247 20.1418 66.0568 20.1418 64.137C20.1418 62.2172 21.7097 60.6494 23.6295 60.6494C25.5493 60.6494 27.1171 62.2172 27.1171 64.137C27.1171 66.0568 25.5493 67.6247 23.6295 67.6247ZM23.6295 63.0652C23.0375 63.0652 22.5416 63.5451 22.5416 64.153C22.5416 64.745 23.0215 65.2409 23.6295 65.2409C24.2374 65.2409 24.7174 64.761 24.7174 64.153C24.7174 63.5451 24.2374 63.0652 23.6295 63.0652Z" fill="url(#paint24_linear)"/>
<path d="M45.1952 7.63102C43.2754 7.63102 41.7076 6.06319 41.7076 4.14339C41.7076 2.22359 43.2754 0.655762 45.1952 0.655762C47.115 0.655762 48.6828 2.22359 48.6828 4.14339C48.6828 6.06319 47.115 7.63102 45.1952 7.63102ZM45.1952 3.0715C44.6032 3.0715 44.1073 3.55145 44.1073 4.15939C44.1073 4.75133 44.5872 5.24727 45.1952 5.24727C45.8031 5.24727 46.2831 4.76732 46.2831 4.15939C46.2831 3.55145 45.8031 3.0715 45.1952 3.0715Z" fill="url(#paint25_linear)"/>
<defs>
<linearGradient id="paint0_linear" x1="54.8004" y1="28.7168" x2="54.8004" y2="67.9126" gradientUnits="userSpaceOnUse">
<stop stop-color="#1383D6"/>
<stop offset="1" stop-color="#00FFD1"/>
</linearGradient>
<linearGradient id="paint1_linear" x1="57.5619" y1="37.8359" x2="57.5619" y2="40.2357" gradientUnits="userSpaceOnUse">
<stop stop-color="#1383D6"/>
<stop offset="1" stop-color="#00FFD1"/>
</linearGradient>
<linearGradient id="paint2_linear" x1="49.361" y1="37.8521" x2="49.361" y2="57.6973" gradientUnits="userSpaceOnUse">
<stop stop-color="#1383D6"/>
<stop offset="1" stop-color="#00FFD1"/>
</linearGradient>
<linearGradient id="paint3_linear" x1="50.3419" y1="28.7075" x2="50.3419" y2="40.2678" gradientUnits="userSpaceOnUse">
<stop stop-color="#1383D6"/>
<stop offset="1" stop-color="#00FFD1"/>
</linearGradient>
<linearGradient id="paint4_linear" x1="9.519" y1="28.6689" x2="9.519" y2="47.7229" gradientUnits="userSpaceOnUse">
<stop stop-color="#1383D6"/>
<stop offset="1" stop-color="#00FFD1"/>
</linearGradient>
<linearGradient id="paint5_linear" x1="30.0448" y1="35.9644" x2="30.0448" y2="55.0023" gradientUnits="userSpaceOnUse">
<stop stop-color="#1383D6"/>
<stop offset="1" stop-color="#00FFD1"/>
</linearGradient>
<linearGradient id="paint6_linear" x1="23.6324" y1="9.75195" x2="23.6324" y2="38.3481" gradientUnits="userSpaceOnUse">
<stop stop-color="#1383D6"/>
<stop offset="1" stop-color="#00FFD1"/>
</linearGradient>
<linearGradient id="paint7_linear" x1="25.1173" y1="7.94727" x2="25.1173" y2="13.807" gradientUnits="userSpaceOnUse">
<stop stop-color="#1383D6"/>
<stop offset="1" stop-color="#00FFD1"/>
</linearGradient>
<linearGradient id="paint8_linear" x1="68.4407" y1="0" x2="68.4407" y2="3.03968" gradientUnits="userSpaceOnUse">
<stop stop-color="#1383D6"/>
<stop offset="1" stop-color="#00FFD1"/>
</linearGradient>
<linearGradient id="paint9_linear" x1="68.4407" y1="8.31934" x2="68.4407" y2="11.199" gradientUnits="userSpaceOnUse">
<stop stop-color="#1383D6"/>
<stop offset="1" stop-color="#00FFD1"/>
</linearGradient>
<linearGradient id="paint10_linear" x1="64.3611" y1="4.39941" x2="64.3611" y2="6.79916" gradientUnits="userSpaceOnUse">
<stop stop-color="#1383D6"/>
<stop offset="1" stop-color="#00FFD1"/>
</linearGradient>
<linearGradient id="paint11_linear" x1="72.5203" y1="4.39941" x2="72.5203" y2="6.79916" gradientUnits="userSpaceOnUse">
<stop stop-color="#1383D6"/>
<stop offset="1" stop-color="#00FFD1"/>
</linearGradient>
<linearGradient id="paint12_linear" x1="50.6826" y1="14.0786" x2="50.6826" y2="17.1183" gradientUnits="userSpaceOnUse">
<stop stop-color="#1383D6"/>
<stop offset="1" stop-color="#00FFD1"/>
</linearGradient>
<linearGradient id="paint13_linear" x1="50.6826" y1="20.478" x2="50.6826" y2="23.0378" gradientUnits="userSpaceOnUse">
<stop stop-color="#1383D6"/>
<stop offset="1" stop-color="#00FFD1"/>
</linearGradient>
<linearGradient id="paint14_linear" x1="47.8029" y1="17.3584" x2="47.8029" y2="19.7581" gradientUnits="userSpaceOnUse">
<stop stop-color="#1383D6"/>
<stop offset="1" stop-color="#00FFD1"/>
</linearGradient>
<linearGradient id="paint15_linear" x1="53.7223" y1="17.3584" x2="53.7223" y2="19.7581" gradientUnits="userSpaceOnUse">
<stop stop-color="#1383D6"/>
<stop offset="1" stop-color="#00FFD1"/>
</linearGradient>
<linearGradient id="paint16_linear" x1="64.1212" y1="64.1533" x2="64.1212" y2="67.033" gradientUnits="userSpaceOnUse">
<stop stop-color="#1383D6"/>
<stop offset="1" stop-color="#00FFD1"/>
</linearGradient>
<linearGradient id="paint17_linear" x1="64.1212" y1="70.3926" x2="64.1212" y2="72.9523" gradientUnits="userSpaceOnUse">
<stop stop-color="#1383D6"/>
<stop offset="1" stop-color="#00FFD1"/>
</linearGradient>
<linearGradient id="paint18_linear" x1="61.0815" y1="67.4326" x2="61.0815" y2="69.8324" gradientUnits="userSpaceOnUse">
<stop stop-color="#1383D6"/>
<stop offset="1" stop-color="#00FFD1"/>
</linearGradient>
<linearGradient id="paint19_linear" x1="67.0009" y1="67.4326" x2="67.0009" y2="69.8324" gradientUnits="userSpaceOnUse">
<stop stop-color="#1383D6"/>
<stop offset="1" stop-color="#00FFD1"/>
</linearGradient>
<linearGradient id="paint20_linear" x1="7.80717" y1="62.8733" x2="7.80717" y2="66.073" gradientUnits="userSpaceOnUse">
<stop stop-color="#1383D6"/>
<stop offset="1" stop-color="#00FFD1"/>
</linearGradient>
<linearGradient id="paint21_linear" x1="7.80717" y1="71.1924" x2="7.80717" y2="74.2321" gradientUnits="userSpaceOnUse">
<stop stop-color="#1383D6"/>
<stop offset="1" stop-color="#00FFD1"/>
</linearGradient>
<linearGradient id="paint22_linear" x1="3.7276" y1="67.4326" x2="3.7276" y2="69.8324" gradientUnits="userSpaceOnUse">
<stop stop-color="#1383D6"/>
<stop offset="1" stop-color="#00FFD1"/>
</linearGradient>
<linearGradient id="paint23_linear" x1="11.8867" y1="67.4326" x2="11.8867" y2="69.8324" gradientUnits="userSpaceOnUse">
<stop stop-color="#1383D6"/>
<stop offset="1" stop-color="#00FFD1"/>
</linearGradient>
<linearGradient id="paint24_linear" x1="23.6295" y1="60.6494" x2="23.6295" y2="67.6247" gradientUnits="userSpaceOnUse">
<stop stop-color="#1383D6"/>
<stop offset="1" stop-color="#00FFD1"/>
</linearGradient>
<linearGradient id="paint25_linear" x1="45.1952" y1="0.655762" x2="45.1952" y2="7.63102" gradientUnits="userSpaceOnUse">
<stop stop-color="#1383D6"/>
<stop offset="1" stop-color="#00FFD1"/>
</linearGradient>
</defs>
</svg>
