<svg width="75" height="76" viewBox="0 0 75 76" fill="none" xmlns="http://www.w3.org/2000/svg">
<path d="M7.04382 45.6151C7.04382 45.7088 7.04382 45.7557 7.04382 45.8338C7.05944 46.5994 7.12194 47.1462 7.24692 47.5055C7.37191 47.8649 7.65313 48.1149 8.09059 48.2711C8.52804 48.4117 8.80927 48.3336 8.9655 48.0211C9.05924 47.8336 9.10611 47.4743 9.10611 46.9743C9.15298 44.5058 9.18423 42.0373 9.2311 39.5532C10.0435 39.5688 10.4497 39.5688 11.2621 39.5688C11.2153 42.1936 11.1528 44.8183 11.1059 47.4274C11.0903 48.3805 10.934 49.1148 10.6528 49.5835C10.1685 50.3803 9.34046 50.5209 8.15308 50.0365C6.9657 49.5522 6.18453 48.8804 5.79395 48.0836C5.38774 47.2868 5.20026 46.3807 5.20026 45.3183C5.20026 45.2401 5.20026 45.1933 5.20026 45.1152C5.93456 45.3183 6.30952 45.4276 7.04382 45.6151Z" fill="url(#paint0_linear)"/>
<path d="M16.1835 39.6157C17.1053 39.6157 17.5584 39.6313 18.4802 39.6313C19.5738 44.334 20.6049 49.0366 21.6048 53.7549C20.7143 53.5831 20.2769 53.4893 19.4019 53.2862C19.1676 52.0988 19.0582 51.5208 18.8239 50.3646C17.4021 50.099 16.6835 49.9428 15.2617 49.6147C14.9805 50.5834 14.8399 51.0677 14.5431 52.0051C13.6994 51.7551 13.2932 51.6301 12.4651 51.3489C13.7931 47.4587 15.0118 43.5528 16.1835 39.6157ZM15.8554 47.5368C16.8397 47.7086 17.3397 47.7868 18.3239 47.943C17.9646 46.1619 17.6053 44.3809 17.2303 42.5998C16.7772 44.2559 16.3241 45.8963 15.8554 47.5368Z" fill="url(#paint1_linear)"/>
<path d="M24.0265 41.1782C24.8076 40.0064 25.8388 39.3971 27.0418 39.3971C28.7291 39.3815 30.0102 40.5064 30.5571 41.9281C30.9633 42.8812 31.182 43.8498 31.1976 44.8028C30.3852 44.7872 29.979 44.7716 29.1509 44.7403C29.026 44.006 28.8697 43.4592 28.6666 43.0843C28.3073 42.4125 27.7761 42.0844 27.073 42.0687C26.3544 42.0531 25.7763 42.4906 25.3388 43.3811C24.9014 44.2716 24.667 45.5215 24.6358 47.1463C24.6045 48.7868 24.8076 50.0367 25.2295 50.9116C25.6669 51.7865 26.2137 52.2708 26.9012 52.3489C27.6042 52.4271 28.1511 52.1146 28.526 51.4272C28.7291 51.0522 28.9166 50.4741 29.0572 49.7086C29.8696 49.7711 30.2758 49.7867 31.1039 49.8336C31.0101 51.1303 30.5258 52.7395 29.7134 53.8175C28.9791 54.7862 28.0104 55.1924 26.9012 55.0518C25.5419 54.8956 24.1515 53.6457 23.6359 52.5364C22.8078 50.771 22.511 48.7712 22.5579 46.912C22.6047 44.9903 22.8703 42.9124 24.0265 41.1782Z" fill="url(#paint2_linear)"/>
<path d="M32.9006 39.6938C33.6974 39.6938 34.1036 39.6938 34.9004 39.6938C34.9004 41.8343 34.8848 43.959 34.8848 46.0994C36.1503 43.9747 37.4157 41.8343 38.65 39.6938C39.6968 39.6938 40.228 39.6938 41.2747 39.6938C39.9467 41.8343 38.6344 43.9747 37.2908 46.0994C38.6969 49.1304 40.1186 52.1457 41.5872 55.1454C40.5248 55.2079 39.978 55.2235 38.9156 55.2548C37.8845 53.005 36.8689 50.7396 35.869 48.4586C35.4784 49.0835 35.2753 49.4116 34.8691 50.0365C34.8691 51.7707 34.8535 53.5049 34.8535 55.2391C34.0411 55.2079 33.6349 55.1923 32.8068 55.161C32.8225 50.0053 32.8693 44.8496 32.9006 39.6938Z" fill="url(#paint3_linear)"/>
<path d="M49.2583 47.9899C48.6958 48.7554 47.8834 49.2085 46.821 49.2866C46.0086 49.3491 45.5868 49.3804 44.7744 49.4272C44.79 51.2552 44.8212 53.0831 44.8369 54.8954C44.0088 54.9735 43.6026 55.0048 42.7746 55.0673C42.7277 49.9428 42.6808 44.8027 42.634 39.6782C44.3057 39.6782 45.1337 39.6782 46.8054 39.6626C47.7584 39.6626 48.5396 40.0376 49.1177 40.7875C49.6957 41.5374 50.0082 42.6779 50.0395 44.2559C50.0863 45.9901 49.8207 47.2243 49.2583 47.9899ZM47.6178 42.756C47.3522 42.4279 46.9929 42.2717 46.5242 42.2873C45.7899 42.303 45.4306 42.3186 44.6962 42.3342C44.7119 43.8341 44.7275 45.3183 44.7431 46.8181C45.4774 46.7869 45.8524 46.7713 46.5867 46.7244C47.0554 46.6931 47.4147 46.49 47.6647 46.1151C47.9147 45.7401 48.0397 45.1777 48.024 44.3965C48.0084 43.6309 47.8834 43.0841 47.6178 42.756Z" fill="url(#paint4_linear)"/>
<path d="M59.3197 51.0052C58.6167 52.1457 57.5856 52.9893 56.1951 53.333C54.8046 53.6768 53.7422 53.3799 52.9766 52.4269C51.6487 50.7864 51.4612 48.7085 51.3674 46.7868C51.2737 44.8027 51.5705 42.5998 52.7267 40.8499C53.4453 39.7563 54.4765 39.2095 55.867 39.2095C57.2575 39.2095 58.3199 39.7563 59.0854 40.6624C60.2259 42.0217 60.6321 43.8965 60.6634 45.5994C60.6946 47.4586 60.3196 49.3959 59.3197 51.0052ZM58.023 49.3803C58.4761 48.4898 58.6792 47.3493 58.6479 45.9275C58.6167 44.5058 58.3511 43.4434 57.8668 42.6779C57.3824 41.9279 56.7263 41.553 55.9295 41.5842C55.1327 41.6155 54.4921 42.0529 54.039 42.9278C53.586 43.8028 53.3672 45.0214 53.3985 46.5993C53.4297 48.1617 53.6953 49.3491 54.1953 50.1146C54.6952 50.8802 55.3514 51.1614 56.1482 50.9895C56.945 50.8177 57.5699 50.2709 58.023 49.3803Z" fill="url(#paint5_linear)"/>
<path d="M69.1 39.5063C69.1 40.1469 69.1 40.475 69.1 41.1156C67.9595 41.2093 67.3814 41.2562 66.2253 41.3499C66.2565 44.1465 66.2878 46.9431 66.3347 49.7241C65.5535 50.0365 65.1629 50.1928 64.3661 50.474C64.3192 47.4743 64.2567 44.4902 64.2099 41.4905C63.0537 41.5686 62.4757 41.6155 61.3039 41.6936C61.2883 40.85 61.2727 40.4281 61.257 39.6001C63.8662 39.5688 66.4909 39.5376 69.1 39.5063Z" fill="url(#paint6_linear)"/>
<path d="M20.8237 37.444C20.2768 37.444 19.7769 37.0534 19.6675 36.491L17.4646 24.7265C17.3709 24.2266 17.6052 23.7266 18.0583 23.4766C18.5114 23.2267 19.0582 23.3048 19.4332 23.6641L27.5261 31.3977C27.7761 31.6477 28.1198 31.7571 28.4791 31.7102C28.8228 31.6633 29.1353 31.4602 29.3228 31.1634L36.1658 20.0707C36.3846 19.727 36.7595 19.5083 37.1657 19.5083C37.572 19.5083 37.9469 19.727 38.1656 20.0707L44.9618 31.1477C45.1493 31.4446 45.4462 31.6477 45.8055 31.6946C46.1492 31.7414 46.5085 31.6321 46.7585 31.3821L54.8514 23.6329C55.2264 23.2735 55.7732 23.2111 56.2263 23.4454C56.6794 23.6954 56.9137 24.1953 56.82 24.6953L54.6171 36.4753C54.4921 37.1159 53.8828 37.5377 53.2422 37.4127C52.6017 37.2878 52.1798 36.6784 52.3048 36.0379L53.8359 27.8512L48.3834 33.0694C47.6178 33.8037 46.571 34.1474 45.5086 34.0068C44.4463 33.8662 43.5245 33.2725 42.9777 32.3664L37.1657 22.9142L31.3226 32.382C30.7601 33.2882 29.8384 33.8818 28.7916 34.0225C27.7448 34.1631 26.6981 33.8194 25.9325 33.0851L20.4643 27.8668L21.9954 36.0535C22.1204 36.6941 21.6986 37.3034 21.058 37.4284C20.9643 37.444 20.8861 37.444 20.8237 37.444Z" fill="url(#paint7_linear)"/>
<path d="M17.699 25.8202C15.9804 25.8202 14.5899 24.4297 14.5899 22.7111C14.5899 20.9925 15.9804 19.6021 17.699 19.6021C19.4175 19.6021 20.808 20.9925 20.808 22.7111C20.7924 24.4297 19.4019 25.8202 17.699 25.8202ZM17.699 21.9456C17.2771 21.9456 16.9334 22.2893 16.9334 22.7111C16.9334 23.1329 17.2771 23.4767 17.699 23.4767C18.1208 23.4767 18.4645 23.1329 18.4645 22.7111C18.4489 22.2893 18.1208 21.9456 17.699 21.9456Z" fill="url(#paint8_linear)"/>
<path d="M37.1345 21.43C35.4159 21.43 34.0255 20.0395 34.0255 18.321C34.0255 16.6024 35.4159 15.2119 37.1345 15.2119C38.8531 15.2119 40.2436 16.6024 40.2436 18.321C40.2279 20.0395 38.8375 21.43 37.1345 21.43ZM37.1345 17.571C36.7127 17.571 36.369 17.9148 36.369 18.3366C36.369 18.7584 36.7127 19.1021 37.1345 19.1021C37.5563 19.1021 37.9001 18.7584 37.9001 18.3366C37.9001 17.9148 37.5563 17.571 37.1345 17.571Z" fill="url(#paint9_linear)"/>
<path d="M56.3357 25.6795C54.6171 25.6795 53.2267 24.2891 53.2267 22.5705C53.2267 20.8519 54.6171 19.4614 56.3357 19.4614C58.0543 19.4614 59.4448 20.8519 59.4448 22.5705C59.4448 24.2891 58.0387 25.6795 56.3357 25.6795ZM56.3357 21.8206C55.9139 21.8206 55.5702 22.1643 55.5702 22.5861C55.5702 23.0079 55.9139 23.3517 56.3357 23.3517C56.7575 23.3517 57.1013 23.0079 57.1013 22.5861C57.1013 22.1487 56.7575 21.8206 56.3357 21.8206Z" fill="url(#paint10_linear)"/>
<path d="M73.3183 23.4455C72.9277 23.4455 72.5372 23.2424 72.3184 22.883C71.9903 22.3362 72.1622 21.6019 72.709 21.2738L73.2246 20.9614C73.7714 20.6333 74.5057 20.8051 74.8338 21.3519C75.1619 21.8988 74.99 22.6331 74.4432 22.9612L73.9276 23.2736C73.7245 23.383 73.5214 23.4455 73.3183 23.4455Z" fill="url(#paint11_linear)"/>
<path d="M65.8816 27.945C65.491 27.945 65.1004 27.7419 64.8817 27.3826C64.5536 26.8357 64.7254 26.1014 65.2722 25.7734L69.5843 23.1642C70.1311 22.8361 70.8654 23.008 71.1935 23.5548C71.5216 24.1016 71.3498 24.8359 70.8029 25.164L66.4909 27.7731C66.2878 27.8825 66.0847 27.945 65.8816 27.945Z" fill="url(#paint12_linear)"/>
<path d="M63.3818 16.0712C63.1162 16.0712 62.8506 15.9774 62.6319 15.8056C62.132 15.3837 62.0695 14.6494 62.4913 14.1495L71.9122 2.86938C72.334 2.36943 73.0683 2.30694 73.5683 2.72877C74.0682 3.1506 74.1307 3.8849 73.7089 4.38485L64.288 15.665C64.038 15.9306 63.7099 16.0712 63.3818 16.0712Z" fill="url(#paint13_linear)"/>
<path d="M12.1995 16.0711C11.8558 16.0711 11.5121 15.9148 11.2777 15.6336L10.5747 14.7587C10.1685 14.2587 10.2466 13.5244 10.7465 13.1182C11.2465 12.712 11.9964 12.7901 12.387 13.2901L13.0901 14.165C13.4963 14.665 13.4181 15.3993 12.9182 15.8055C12.7151 15.9773 12.4651 16.0711 12.1995 16.0711Z" fill="url(#paint14_linear)"/>
<path d="M8.02807 10.8685C7.68436 10.8685 7.34064 10.7123 7.10629 10.4311L3.40354 5.82217C2.99734 5.32222 3.07545 4.58792 3.5754 4.18171C4.07535 3.7755 4.80965 3.85362 5.21586 4.35357L8.91861 8.96248C9.32482 9.46243 9.2467 10.1967 8.74675 10.6029C8.54365 10.7748 8.27805 10.8685 8.02807 10.8685Z" fill="url(#paint15_linear)"/>
<path d="M1.62248 2.90068C1.27876 2.90068 0.935047 2.74445 0.700696 2.46323L0.247617 1.90078C-0.142968 1.40083 -0.0648514 0.65091 0.435098 0.260325C0.935047 -0.145884 1.68497 -0.0677667 2.07556 0.432183L2.52864 0.994626C2.93484 1.49457 2.85673 2.2445 2.35678 2.63508C2.13805 2.82257 1.88808 2.90068 1.62248 2.90068Z" fill="url(#paint16_linear)"/>
<path d="M47.3366 17.2901C47.2116 17.2901 47.1023 17.2745 46.9773 17.2276C46.368 17.0245 46.0242 16.3684 46.2273 15.759L48.0397 10.119C48.2428 9.50968 48.899 9.16597 49.5083 9.36907C50.1176 9.57217 50.4613 10.2284 50.2582 10.8377L48.4459 16.4777C48.3053 16.9621 47.8366 17.2901 47.3366 17.2901Z" fill="url(#paint17_linear)"/>
<path d="M28.1823 16.4462C27.6823 16.4462 27.2136 16.1181 27.0574 15.6181L26.823 14.8682C26.6356 14.2433 26.9793 13.5871 27.6042 13.3996C28.2291 13.2121 28.8853 13.5558 29.0728 14.1808L29.3072 14.9307C29.4946 15.5556 29.1509 16.2118 28.526 16.3993C28.4166 16.4305 28.3073 16.4462 28.1823 16.4462Z" fill="url(#paint18_linear)"/>
<path d="M26.698 11.6339C26.1981 11.6339 25.7294 11.3058 25.5732 10.8059L22.7609 1.71306C22.5735 1.08812 22.9172 0.431935 23.5421 0.244454C24.1671 0.0569729 24.8232 0.400688 25.0107 1.02562L27.8229 10.1185C28.0104 10.7434 27.6667 11.3996 27.0418 11.5871C26.9324 11.6183 26.823 11.6339 26.698 11.6339Z" fill="url(#paint19_linear)"/>
<path d="M2.66926 63.5037C2.2318 63.5037 1.82559 63.2694 1.62249 62.8476C1.34126 62.2695 1.57562 61.5664 2.15368 61.2696L3.71602 60.4884C4.29409 60.2072 4.99714 60.4416 5.29399 61.0196C5.57521 61.5977 5.34086 62.3007 4.76279 62.5976L3.20045 63.3788C3.02859 63.4725 2.84111 63.5037 2.66926 63.5037Z" fill="url(#paint20_linear)"/>
<path d="M7.99683 60.8634C7.55937 60.8634 7.15317 60.6291 6.95006 60.2073C6.66884 59.6292 6.90319 58.9261 7.48126 58.6293L12.4183 56.1764C12.9963 55.8952 13.6994 56.1295 13.9962 56.7076C14.2774 57.2857 14.0431 57.9887 13.465 58.2856L8.52803 60.7384C8.34055 60.8322 8.16869 60.8634 7.99683 60.8634Z" fill="url(#paint21_linear)"/>
<path d="M62.585 58.4734C62.5069 58.4734 62.4288 58.4734 62.3507 58.4578C62.2726 58.4422 62.1945 58.4265 62.132 58.3953C62.0538 58.364 61.9913 58.3328 61.9289 58.2859C61.8664 58.239 61.8039 58.1922 61.757 58.1453C61.5383 57.9266 61.4133 57.6297 61.4133 57.3173C61.4133 57.2391 61.4133 57.161 61.4445 57.0829C61.4602 57.0048 61.4758 56.9267 61.507 56.8642C61.5383 56.8017 61.5695 56.7236 61.6164 56.6611C61.6633 56.5986 61.7101 56.5361 61.757 56.4892C61.8039 56.4424 61.8664 56.3799 61.9289 56.3486C61.9913 56.3017 62.0538 56.2705 62.132 56.2392C62.2101 56.208 62.2726 56.1924 62.3507 56.1768C62.5069 56.1455 62.6632 56.1455 62.8038 56.1768C62.8819 56.1924 62.96 56.208 63.0225 56.2392C63.1006 56.2705 63.1631 56.3017 63.2256 56.3486C63.2881 56.3955 63.3506 56.4424 63.3975 56.4892C63.4443 56.5361 63.5068 56.5986 63.5381 56.6611C63.5849 56.7236 63.6162 56.8017 63.6474 56.8642C63.6787 56.9423 63.6943 57.0048 63.7099 57.0829C63.7255 57.161 63.7255 57.2391 63.7255 57.3173C63.7255 57.6297 63.6006 57.9266 63.3818 58.1453C63.335 58.2078 63.2725 58.2547 63.21 58.2859C63.1475 58.3328 63.085 58.364 63.0069 58.3953C62.9288 58.4265 62.8663 58.4422 62.7881 58.4578C62.7413 58.4734 62.6632 58.4734 62.585 58.4734Z" fill="url(#paint22_linear)"/>
<path d="M72.334 63.5038C72.1466 63.5038 71.9747 63.4569 71.8028 63.3788L66.694 60.7384C66.1159 60.4416 65.8972 59.7385 66.194 59.1604C66.4909 58.5824 67.1939 58.3637 67.772 58.6605L72.8809 61.3009C73.4589 61.5977 73.6777 62.3008 73.3808 62.8788C73.1777 63.2694 72.7559 63.5038 72.334 63.5038Z" fill="url(#paint23_linear)"/>
<path d="M24.5889 62.1603C24.3233 62.1603 24.0577 62.0665 23.839 61.8947C23.339 61.4728 23.2765 60.7385 23.6984 60.2386L24.2296 59.598C24.6514 59.0981 25.3857 59.0356 25.8856 59.4574C26.3856 59.8792 26.4481 60.6135 26.0262 61.1135L25.4951 61.754C25.2607 62.0196 24.917 62.1603 24.5889 62.1603Z" fill="url(#paint24_linear)"/>
<path d="M15.168 73.784C14.918 73.784 14.6524 73.7059 14.4337 73.534C13.9337 73.1278 13.84 72.3935 14.2462 71.8936L20.3237 64.2537C20.7299 63.7537 21.4642 63.66 21.9642 64.0662C22.4641 64.4724 22.5579 65.2067 22.1517 65.7067L16.0898 73.3465C15.8554 73.6434 15.5117 73.784 15.168 73.784Z" fill="url(#paint25_linear)"/>
<path d="M28.3541 75.1902C28.2292 75.1902 28.1198 75.1745 27.9948 75.1277C27.3855 74.9246 27.0418 74.2684 27.2449 73.6591L27.8698 71.6905C28.0729 71.0812 28.7291 70.7375 29.3384 70.9406C29.9477 71.1437 30.2914 71.7999 30.0883 72.4092L29.4634 74.3778C29.3072 74.8777 28.8541 75.1902 28.3541 75.1902Z" fill="url(#paint26_linear)"/>
<path d="M29.9477 70.2377C29.8227 70.2377 29.7134 70.2221 29.5884 70.1752C28.9791 69.9721 28.6354 69.3159 28.8385 68.7066L31.2445 61.2074C31.4476 60.5981 32.1038 60.2543 32.7131 60.4574C33.3224 60.6606 33.6661 61.3167 33.463 61.926L31.057 69.4253C30.9008 69.9096 30.4477 70.2377 29.9477 70.2377Z" fill="url(#paint27_linear)"/>
<path d="M47.0397 75.909C46.5398 75.909 46.0711 75.5809 45.9148 75.0809L42.0871 62.6759C41.8996 62.051 42.2433 61.3948 42.8683 61.2073C43.4932 61.0199 44.1494 61.3636 44.3369 61.9885L48.1646 74.3935C48.3521 75.0184 48.0084 75.6746 47.3834 75.8621C47.2741 75.8934 47.1491 75.909 47.0397 75.909Z" fill="url(#paint28_linear)"/>
<path d="M5.05967 23.2267C4.41911 23.2267 3.88791 22.6956 3.88791 22.055V21.4301C3.88791 20.7895 4.41911 20.2583 5.05967 20.2583C5.70023 20.2583 6.23142 20.7895 6.23142 21.4301V22.055C6.23142 22.6956 5.70023 23.2267 5.05967 23.2267Z" fill="url(#paint29_linear)"/>
<path d="M5.05967 29.0076C4.41911 29.0076 3.88791 28.4764 3.88791 27.8358V27.6796C3.88791 27.039 4.41911 26.5078 5.05967 26.5078C5.70023 26.5078 6.23142 27.039 6.23142 27.6796V27.8358C6.23142 28.4764 5.70023 29.0076 5.05967 29.0076Z" fill="url(#paint30_linear)"/>
<path d="M2.4818 25.8044H2.0131C1.37254 25.8044 0.841339 25.2733 0.841339 24.6327C0.841339 23.9921 1.37254 23.4609 2.0131 23.4609H2.4818C3.12236 23.4609 3.65355 23.9921 3.65355 24.6327C3.65355 25.2733 3.12236 25.8044 2.4818 25.8044Z" fill="url(#paint31_linear)"/>
<path d="M8.26244 25.8044H7.79373C7.15317 25.8044 6.62198 25.2733 6.62198 24.6327C6.62198 23.9921 7.15317 23.4609 7.79373 23.4609H8.26244C8.903 23.4609 9.43419 23.9921 9.43419 24.6327C9.43419 25.2733 8.903 25.8044 8.26244 25.8044Z" fill="url(#paint32_linear)"/>
<path d="M57.3981 65.7224C56.7575 65.7224 56.2263 65.1912 56.2263 64.5506V63.9257C56.2263 63.2851 56.7575 62.7539 57.3981 62.7539C58.0386 62.7539 58.5698 63.2851 58.5698 63.9257V64.5506C58.5698 65.1912 58.0386 65.7224 57.3981 65.7224Z" fill="url(#paint33_linear)"/>
<path d="M57.3981 71.5032C56.7575 71.5032 56.2263 70.972 56.2263 70.3314V70.1752C56.2263 69.5346 56.7575 69.0034 57.3981 69.0034C58.0386 69.0034 58.5698 69.5346 58.5698 70.1752V70.3314C58.5698 70.972 58.0386 71.5032 57.3981 71.5032Z" fill="url(#paint34_linear)"/>
<path d="M54.8202 68.3005H54.3515C53.711 68.3005 53.1798 67.7693 53.1798 67.1288C53.1798 66.4882 53.711 65.957 54.3515 65.957H54.8202C55.4608 65.957 55.992 66.4882 55.992 67.1288C55.992 67.7693 55.4608 68.3005 54.8202 68.3005Z" fill="url(#paint35_linear)"/>
<path d="M60.6009 68.3005H60.1322C59.4916 68.3005 58.9604 67.7693 58.9604 67.1288C58.9604 66.4882 59.4916 65.957 60.1322 65.957H60.6009C61.2415 65.957 61.7726 66.4882 61.7726 67.1288C61.7726 67.7693 61.2415 68.3005 60.6009 68.3005Z" fill="url(#paint36_linear)"/>
<path d="M55.2108 3.38495C54.5702 3.38495 54.039 2.85376 54.039 2.2132V1.58826C54.039 0.9477 54.5702 0.416504 55.2108 0.416504C55.8514 0.416504 56.3826 0.9477 56.3826 1.58826V2.2132C56.3826 2.85376 55.8514 3.38495 55.2108 3.38495Z" fill="url(#paint37_linear)"/>
<path d="M55.2108 9.16576C54.5702 9.16576 54.039 8.63457 54.039 7.99401V7.83777C54.039 7.19721 54.5702 6.66602 55.2108 6.66602C55.8514 6.66602 56.3826 7.19721 56.3826 7.83777V7.99401C56.3826 8.63457 55.8514 9.16576 55.2108 9.16576Z" fill="url(#paint38_linear)"/>
<path d="M52.633 5.96265H52.1642C51.5237 5.96265 50.9925 5.43146 50.9925 4.7909C50.9925 4.15034 51.5237 3.61914 52.1642 3.61914H52.633C53.2735 3.61914 53.8047 4.15034 53.8047 4.7909C53.8047 5.43146 53.2735 5.96265 52.633 5.96265Z" fill="url(#paint39_linear)"/>
<path d="M58.4136 5.96265H57.9449C57.3044 5.96265 56.7732 5.43146 56.7732 4.7909C56.7732 4.15034 57.3044 3.61914 57.9449 3.61914H58.4136C59.0542 3.61914 59.5854 4.15034 59.5854 4.7909C59.5854 5.43146 59.0542 5.96265 58.4136 5.96265Z" fill="url(#paint40_linear)"/>
<defs>
<linearGradient id="paint0_linear" x1="8.2312" y1="39.5532" x2="8.2312" y2="50.3163" gradientUnits="userSpaceOnUse">
<stop stop-color="#1383D6"/>
<stop offset="1" stop-color="#00FFD1"/>
</linearGradient>
<linearGradient id="paint1_linear" x1="17.035" y1="39.6157" x2="17.035" y2="53.7549" gradientUnits="userSpaceOnUse">
<stop stop-color="#1383D6"/>
<stop offset="1" stop-color="#00FFD1"/>
</linearGradient>
<linearGradient id="paint2_linear" x1="26.8754" y1="39.397" x2="26.8754" y2="55.0789" gradientUnits="userSpaceOnUse">
<stop stop-color="#1383D6"/>
<stop offset="1" stop-color="#00FFD1"/>
</linearGradient>
<linearGradient id="paint3_linear" x1="37.197" y1="39.6938" x2="37.197" y2="55.2548" gradientUnits="userSpaceOnUse">
<stop stop-color="#1383D6"/>
<stop offset="1" stop-color="#00FFD1"/>
</linearGradient>
<linearGradient id="paint4_linear" x1="46.3393" y1="39.6626" x2="46.3393" y2="55.0673" gradientUnits="userSpaceOnUse">
<stop stop-color="#1383D6"/>
<stop offset="1" stop-color="#00FFD1"/>
</linearGradient>
<linearGradient id="paint5_linear" x1="56.0082" y1="39.2095" x2="56.0082" y2="53.4711" gradientUnits="userSpaceOnUse">
<stop stop-color="#1383D6"/>
<stop offset="1" stop-color="#00FFD1"/>
</linearGradient>
<linearGradient id="paint6_linear" x1="65.1785" y1="39.5063" x2="65.1785" y2="50.474" gradientUnits="userSpaceOnUse">
<stop stop-color="#1383D6"/>
<stop offset="1" stop-color="#00FFD1"/>
</linearGradient>
<linearGradient id="paint7_linear" x1="37.1423" y1="19.5083" x2="37.1423" y2="37.444" gradientUnits="userSpaceOnUse">
<stop stop-color="#1383D6"/>
<stop offset="1" stop-color="#00FFD1"/>
</linearGradient>
<linearGradient id="paint8_linear" x1="17.699" y1="19.6021" x2="17.699" y2="25.8202" gradientUnits="userSpaceOnUse">
<stop stop-color="#1383D6"/>
<stop offset="1" stop-color="#00FFD1"/>
</linearGradient>
<linearGradient id="paint9_linear" x1="37.1345" y1="15.2119" x2="37.1345" y2="21.43" gradientUnits="userSpaceOnUse">
<stop stop-color="#1383D6"/>
<stop offset="1" stop-color="#00FFD1"/>
</linearGradient>
<linearGradient id="paint10_linear" x1="56.3357" y1="19.4614" x2="56.3357" y2="25.6795" gradientUnits="userSpaceOnUse">
<stop stop-color="#1383D6"/>
<stop offset="1" stop-color="#00FFD1"/>
</linearGradient>
<linearGradient id="paint11_linear" x1="73.5761" y1="20.7952" x2="73.5761" y2="23.4455" gradientUnits="userSpaceOnUse">
<stop stop-color="#1383D6"/>
<stop offset="1" stop-color="#00FFD1"/>
</linearGradient>
<linearGradient id="paint12_linear" x1="68.0376" y1="22.998" x2="68.0376" y2="27.945" gradientUnits="userSpaceOnUse">
<stop stop-color="#1383D6"/>
<stop offset="1" stop-color="#00FFD1"/>
</linearGradient>
<linearGradient id="paint13_linear" x1="68.1001" y1="2.44922" x2="68.1001" y2="16.0712" gradientUnits="userSpaceOnUse">
<stop stop-color="#1383D6"/>
<stop offset="1" stop-color="#00FFD1"/>
</linearGradient>
<linearGradient id="paint14_linear" x1="11.8324" y1="12.8579" x2="11.8324" y2="16.0711" gradientUnits="userSpaceOnUse">
<stop stop-color="#1383D6"/>
<stop offset="1" stop-color="#00FFD1"/>
</linearGradient>
<linearGradient id="paint15_linear" x1="6.16108" y1="3.92139" x2="6.16108" y2="10.8685" gradientUnits="userSpaceOnUse">
<stop stop-color="#1383D6"/>
<stop offset="1" stop-color="#00FFD1"/>
</linearGradient>
<linearGradient id="paint16_linear" x1="1.39448" y1="0" x2="1.39448" y2="2.90068" gradientUnits="userSpaceOnUse">
<stop stop-color="#1383D6"/>
<stop offset="1" stop-color="#00FFD1"/>
</linearGradient>
<linearGradient id="paint17_linear" x1="48.2428" y1="9.31055" x2="48.2428" y2="17.2901" gradientUnits="userSpaceOnUse">
<stop stop-color="#1383D6"/>
<stop offset="1" stop-color="#00FFD1"/>
</linearGradient>
<linearGradient id="paint18_linear" x1="28.0651" y1="13.3485" x2="28.0651" y2="16.4462" gradientUnits="userSpaceOnUse">
<stop stop-color="#1383D6"/>
<stop offset="1" stop-color="#00FFD1"/>
</linearGradient>
<linearGradient id="paint19_linear" x1="25.2919" y1="0.193359" x2="25.2919" y2="11.6339" gradientUnits="userSpaceOnUse">
<stop stop-color="#1383D6"/>
<stop offset="1" stop-color="#00FFD1"/>
</linearGradient>
<linearGradient id="paint20_linear" x1="3.45824" y1="60.3696" x2="3.45824" y2="63.5037" gradientUnits="userSpaceOnUse">
<stop stop-color="#1383D6"/>
<stop offset="1" stop-color="#00FFD1"/>
</linearGradient>
<linearGradient id="paint21_linear" x1="10.4731" y1="56.0576" x2="10.4731" y2="60.8634" gradientUnits="userSpaceOnUse">
<stop stop-color="#1383D6"/>
<stop offset="1" stop-color="#00FFD1"/>
</linearGradient>
<linearGradient id="paint22_linear" x1="62.5694" y1="56.1533" x2="62.5694" y2="58.4734" gradientUnits="userSpaceOnUse">
<stop stop-color="#1383D6"/>
<stop offset="1" stop-color="#00FFD1"/>
</linearGradient>
<linearGradient id="paint23_linear" x1="69.7874" y1="58.5283" x2="69.7874" y2="63.5038" gradientUnits="userSpaceOnUse">
<stop stop-color="#1383D6"/>
<stop offset="1" stop-color="#00FFD1"/>
</linearGradient>
<linearGradient id="paint24_linear" x1="24.8623" y1="59.1779" x2="24.8623" y2="62.1603" gradientUnits="userSpaceOnUse">
<stop stop-color="#1383D6"/>
<stop offset="1" stop-color="#00FFD1"/>
</linearGradient>
<linearGradient id="paint25_linear" x1="18.1989" y1="63.812" x2="18.1989" y2="73.784" gradientUnits="userSpaceOnUse">
<stop stop-color="#1383D6"/>
<stop offset="1" stop-color="#00FFD1"/>
</linearGradient>
<linearGradient id="paint26_linear" x1="28.6666" y1="70.8821" x2="28.6666" y2="75.1902" gradientUnits="userSpaceOnUse">
<stop stop-color="#1383D6"/>
<stop offset="1" stop-color="#00FFD1"/>
</linearGradient>
<linearGradient id="paint27_linear" x1="31.1507" y1="60.3989" x2="31.1507" y2="70.2377" gradientUnits="userSpaceOnUse">
<stop stop-color="#1383D6"/>
<stop offset="1" stop-color="#00FFD1"/>
</linearGradient>
<linearGradient id="paint28_linear" x1="45.1259" y1="61.1562" x2="45.1259" y2="75.909" gradientUnits="userSpaceOnUse">
<stop stop-color="#1383D6"/>
<stop offset="1" stop-color="#00FFD1"/>
</linearGradient>
<linearGradient id="paint29_linear" x1="5.05967" y1="20.2583" x2="5.05967" y2="23.2267" gradientUnits="userSpaceOnUse">
<stop stop-color="#1383D6"/>
<stop offset="1" stop-color="#00FFD1"/>
</linearGradient>
<linearGradient id="paint30_linear" x1="5.05967" y1="26.5078" x2="5.05967" y2="29.0076" gradientUnits="userSpaceOnUse">
<stop stop-color="#1383D6"/>
<stop offset="1" stop-color="#00FFD1"/>
</linearGradient>
<linearGradient id="paint31_linear" x1="2.24745" y1="23.4609" x2="2.24745" y2="25.8044" gradientUnits="userSpaceOnUse">
<stop stop-color="#1383D6"/>
<stop offset="1" stop-color="#00FFD1"/>
</linearGradient>
<linearGradient id="paint32_linear" x1="8.02809" y1="23.4609" x2="8.02809" y2="25.8044" gradientUnits="userSpaceOnUse">
<stop stop-color="#1383D6"/>
<stop offset="1" stop-color="#00FFD1"/>
</linearGradient>
<linearGradient id="paint33_linear" x1="57.3981" y1="62.7539" x2="57.3981" y2="65.7224" gradientUnits="userSpaceOnUse">
<stop stop-color="#1383D6"/>
<stop offset="1" stop-color="#00FFD1"/>
</linearGradient>
<linearGradient id="paint34_linear" x1="57.3981" y1="69.0034" x2="57.3981" y2="71.5032" gradientUnits="userSpaceOnUse">
<stop stop-color="#1383D6"/>
<stop offset="1" stop-color="#00FFD1"/>
</linearGradient>
<linearGradient id="paint35_linear" x1="54.5859" y1="65.957" x2="54.5859" y2="68.3005" gradientUnits="userSpaceOnUse">
<stop stop-color="#1383D6"/>
<stop offset="1" stop-color="#00FFD1"/>
</linearGradient>
<linearGradient id="paint36_linear" x1="60.3665" y1="65.957" x2="60.3665" y2="68.3005" gradientUnits="userSpaceOnUse">
<stop stop-color="#1383D6"/>
<stop offset="1" stop-color="#00FFD1"/>
</linearGradient>
<linearGradient id="paint37_linear" x1="55.2108" y1="0.416504" x2="55.2108" y2="3.38495" gradientUnits="userSpaceOnUse">
<stop stop-color="#1383D6"/>
<stop offset="1" stop-color="#00FFD1"/>
</linearGradient>
<linearGradient id="paint38_linear" x1="55.2108" y1="6.66602" x2="55.2108" y2="9.16576" gradientUnits="userSpaceOnUse">
<stop stop-color="#1383D6"/>
<stop offset="1" stop-color="#00FFD1"/>
</linearGradient>
<linearGradient id="paint39_linear" x1="52.3986" y1="3.61914" x2="52.3986" y2="5.96265" gradientUnits="userSpaceOnUse">
<stop stop-color="#1383D6"/>
<stop offset="1" stop-color="#00FFD1"/>
</linearGradient>
<linearGradient id="paint40_linear" x1="58.1793" y1="3.61914" x2="58.1793" y2="5.96265" gradientUnits="userSpaceOnUse">
<stop stop-color="#1383D6"/>
<stop offset="1" stop-color="#00FFD1"/>
</linearGradient>
</defs>
</svg>
