<svg width="61" height="77" viewBox="0 0 61 77" fill="none" xmlns="http://www.w3.org/2000/svg">
<path d="M28.5604 77.0002C28.3689 77.0002 28.1775 76.9524 28.002 76.8726L8.72997 66.8218C8.29922 66.5984 8.05991 66.1517 8.09182 65.6731L9.46384 46.8638C9.49574 46.4809 9.70314 46.1299 10.0382 45.9225C10.3732 45.7151 10.772 45.6991 11.123 45.8427L31.6394 54.6013C32.134 54.8087 32.4211 55.3192 32.3573 55.8616L29.7569 75.9632C29.709 76.3461 29.4697 76.6971 29.1187 76.8726C28.9273 76.9524 28.7518 77.0002 28.5604 77.0002ZM10.5327 65.0509L27.5872 73.9531L29.8526 56.4519L11.7133 48.6984L10.5327 65.0509Z" fill="url(#paint0_linear)"/>
<path d="M10.6444 48.1399C10.2934 48.1399 9.9584 47.9963 9.71909 47.7092C9.3043 47.1986 9.36811 46.4488 9.87863 46.0181L22.5618 35.4727C22.8968 35.1855 23.3595 35.1217 23.7743 35.2813L28.3211 37.084C28.9432 37.3233 29.2304 38.0253 28.9911 38.6315C28.7518 39.2537 28.0498 39.5409 27.4436 39.3016L23.5669 37.77L11.4261 47.8687C11.1868 48.0442 10.9156 48.1399 10.6444 48.1399Z" fill="url(#paint1_linear)"/>
<path d="M31.1608 56.8982C30.8417 56.8982 30.5386 56.7706 30.2993 56.5313C29.8366 56.0527 29.8526 55.3029 30.3312 54.8402L39.1855 46.3529C39.6641 45.8902 40.4139 45.9062 40.8766 46.3848C41.3392 46.8634 41.3233 47.6132 40.8447 48.0759L31.9904 56.5632C31.7511 56.7866 31.4639 56.8982 31.1608 56.8982Z" fill="url(#paint2_linear)"/>
<path d="M28.5603 76.9998C28.2572 76.9998 27.9701 76.8881 27.7308 76.6647C27.2521 76.2021 27.2362 75.4523 27.6829 74.9737L40.3022 61.7002L40.5096 60.2006C40.6054 59.5465 41.1956 59.0838 41.8497 59.1795C42.5038 59.2753 42.9665 59.8655 42.8708 60.5196L42.6155 62.4022C42.5836 62.6574 42.4719 62.8808 42.2964 63.0722L29.4218 76.6328C29.1825 76.8721 28.8794 76.9998 28.5603 76.9998Z" fill="url(#paint3_linear)"/>
<path d="M42.3922 56.3721C42.3443 56.3721 42.2805 56.3721 42.2326 56.3561C41.5785 56.2604 41.1159 55.6701 41.2116 55.016L41.5466 52.5272C41.6423 51.8731 42.2326 51.4105 42.8867 51.5062C43.5408 51.6019 44.0035 52.1922 43.9078 52.8463L43.5727 55.3351C43.493 55.9254 42.9824 56.3721 42.3922 56.3721Z" fill="url(#paint4_linear)"/>
<path d="M21.4264 61.7631C21.7113 60.6082 21.0061 59.4411 19.8512 59.1562C18.6963 58.8713 17.5292 59.5766 17.2443 60.7314C16.9594 61.8863 17.6647 63.0534 18.8196 63.3383C19.9744 63.6232 21.1416 62.9179 21.4264 61.7631Z" fill="url(#paint5_linear)"/>
<path d="M31.5613 47.9331C32.1156 47.1381 31.9206 46.0442 31.1257 45.4898C30.3308 44.9353 29.237 45.1303 28.6826 45.9253C28.1283 46.7203 28.3233 47.8142 29.1182 48.3686C29.9131 48.9231 31.0069 48.7281 31.5613 47.9331Z" fill="url(#paint6_linear)"/>
<path d="M25.0615 45.1422C25.6159 44.3473 25.4209 43.2534 24.626 42.699C23.831 42.1447 22.7372 42.3397 22.1828 43.1346C21.6284 43.9296 21.8234 45.0234 22.6183 45.5778C23.4133 46.1321 24.5071 45.9371 25.0615 45.1422Z" fill="url(#paint7_linear)"/>
<path d="M39.8213 54.3952C40.2559 53.5685 40.153 52.6591 39.5915 52.3639C39.03 52.0687 38.2225 52.4996 37.788 53.3262C37.3534 54.1529 37.4563 55.0623 38.0178 55.3575C38.5793 55.6527 39.3868 55.2218 39.8213 54.3952Z" fill="url(#paint8_linear)"/>
<path d="M37.482 59.6364C37.9165 58.8097 37.8137 57.9003 37.2522 57.6051C36.6907 57.3099 35.8832 57.7408 35.4486 58.5674C35.014 59.3941 35.1169 60.3035 35.6784 60.5987C36.2399 60.8939 37.0474 60.463 37.482 59.6364Z" fill="url(#paint9_linear)"/>
<path d="M35.2488 64.7738C35.6833 63.9472 35.5804 63.0378 35.0189 62.7426C34.4574 62.4474 33.65 62.8782 33.2154 63.7049C32.7808 64.5315 32.8837 65.441 33.4452 65.7361C34.0067 66.0313 34.8142 65.6005 35.2488 64.7738Z" fill="url(#paint10_linear)"/>
<path d="M39.8715 61.1902C39.8236 61.1902 39.7598 61.1902 39.7119 61.1902C39.0578 61.1902 38.5154 60.6637 38.5314 59.9937C38.5314 59.3396 39.0738 58.8291 39.7279 58.8291H39.7439C39.7917 58.8291 39.8396 58.8131 39.8715 58.8131C43.5887 58.8131 46.7475 56.9944 49.2682 53.4048C49.8106 52.6231 50.2733 51.8254 50.6562 51.1075C48.8215 51.6499 47.0187 51.267 45.6946 50.4055C43.8439 49.209 43.126 47.1988 43.8918 45.4439C45.1043 42.652 47.2421 42.6042 49.1246 42.5723C51.1348 42.5244 53.2087 42.4925 55.538 39.6049C58.1544 36.3504 58.6489 32.7129 58.6011 30.2082C57.1174 32.1067 54.6924 34.404 51.1667 35.5367C50.704 35.6803 50.2254 35.792 49.7308 35.8717C49.0767 35.9675 48.4705 35.5208 48.3588 34.8826C48.2631 34.2285 48.7098 33.6223 49.348 33.5106C49.7149 33.4468 50.0818 33.367 50.4328 33.2553C55.8251 31.5324 58.2501 26.3315 58.282 26.2836C58.4894 25.8209 58.968 25.5497 59.4626 25.5816C59.9571 25.6135 60.3879 25.9645 60.5155 26.4431C60.6112 26.7782 62.7012 34.5316 57.3886 41.1045C54.3574 44.8537 51.3581 44.9175 49.1565 44.9653C47.258 44.9972 46.6358 45.077 46.0615 46.4012C45.7105 47.2148 46.3327 47.9965 46.9709 48.4113C48.8055 49.6078 50.9593 48.7144 52.2675 47.2946C52.6344 46.8957 53.2406 46.784 53.7352 47.0553C54.2138 47.3265 54.4531 47.8848 54.3095 48.4113C54.2776 48.5389 53.4002 51.6499 51.2145 54.7768C48.2791 58.9726 44.3545 61.1902 39.8715 61.1902Z" fill="url(#paint11_linear)"/>
<path d="M26.8852 41.9178C26.7576 41.9178 26.6459 41.9018 26.5183 41.854C25.8961 41.6466 25.5451 40.9765 25.7525 40.3543C26.5661 37.8496 28.2094 35.7756 30.6343 34.1484C34.878 31.3246 39.2014 32.1861 43.0144 32.9359C43.5568 33.0476 44.1152 33.1592 44.6576 33.255C45.3117 33.3666 45.7424 33.9888 45.6308 34.6429C45.5191 35.297 44.8969 35.7278 44.2428 35.6161C43.6844 35.5204 43.1101 35.4087 42.5517 35.297C38.8664 34.5632 35.3885 33.8772 31.9585 36.1585C29.9802 37.4667 28.6561 39.1419 28.0179 41.1042C27.8584 41.5987 27.3957 41.9178 26.8852 41.9178Z" fill="url(#paint12_linear)"/>
<path d="M58.1863 21.2261C57.7077 21.2261 57.245 20.9389 57.0695 20.4603C56.7664 19.6626 56.3995 18.8649 56.0006 18.0832C55.6975 17.4929 55.9209 16.775 56.5111 16.4719C57.1014 16.1688 57.8193 16.3921 58.1225 16.9824C58.5532 17.8279 58.9521 18.7054 59.2871 19.5988C59.5264 20.221 59.2233 20.907 58.6011 21.1463C58.4734 21.2101 58.3299 21.2261 58.1863 21.2261Z" fill="url(#paint13_linear)"/>
<path d="M5.01275 12.9777C4.72559 12.9777 4.43842 12.882 4.19912 12.6586C3.72051 12.2279 3.6886 11.4621 4.1353 10.9835C10.2296 4.28298 19.3072 0.454102 29.023 0.454102C38.3399 0.454102 47.1783 4.02772 53.2566 10.2656C53.7193 10.7442 53.7033 11.494 53.2406 11.9567C52.762 12.4193 52.0122 12.4034 51.5496 11.9407C45.9179 6.16551 37.7018 2.84715 29.023 2.84715C19.9773 2.84715 11.5378 6.40481 5.8902 12.5948C5.66685 12.8501 5.33183 12.9777 5.01275 12.9777Z" fill="url(#paint14_linear)"/>
<path d="M1.98156 16.998C1.77416 16.998 1.55081 16.9342 1.35937 16.8226C0.80099 16.4716 0.6255 15.7377 0.97648 15.1793C1.18388 14.8443 1.40723 14.5093 1.63058 14.1742C1.99751 13.6318 2.74734 13.4882 3.28976 13.8552C3.83218 14.2221 3.97577 14.9719 3.60883 15.5144C3.40144 15.8175 3.20999 16.1206 3.01855 16.4237C2.77924 16.7906 2.3804 16.998 1.98156 16.998Z" fill="url(#paint15_linear)"/>
<path d="M49.8106 35.2969C49.683 35.2969 49.5554 35.281 49.4277 35.2331C48.8055 35.0257 48.4705 34.3397 48.6779 33.7175C49.2363 32.0903 49.5075 30.3832 49.5075 28.6762C49.5075 18.8328 40.3182 10.824 29.023 10.824C27.5553 10.824 26.0875 10.9676 24.6677 11.2229C24.0136 11.3505 23.3914 10.9198 23.2637 10.2657C23.1361 9.61156 23.5669 8.98937 24.221 8.86174C25.7844 8.57458 27.3957 8.41504 29.0071 8.41504C41.6264 8.41504 51.8846 17.4927 51.8846 28.6602C51.8846 30.6385 51.5655 32.5848 50.9274 34.4674C50.7838 34.9938 50.3211 35.2969 49.8106 35.2969Z" fill="url(#paint16_linear)"/>
<path d="M15.925 14.7008C15.5422 14.7008 15.1593 14.5094 14.9359 14.1743C14.569 13.6319 14.7126 12.8821 15.2709 12.5152C16.6749 11.5739 18.2064 10.7762 19.8018 10.154C20.424 9.91472 21.11 10.2178 21.3493 10.84C21.5886 11.4622 21.2855 12.1482 20.6633 12.3875C19.2115 12.9459 17.8554 13.6638 16.5791 14.5094C16.3717 14.637 16.1484 14.7008 15.925 14.7008Z" fill="url(#paint17_linear)"/>
<path d="M40.7011 34.2123C40.5256 34.2123 40.3501 34.1804 40.1906 34.1006C39.6003 33.8134 39.345 33.0955 39.6322 32.5052C40.0629 31.6118 40.3341 30.6546 40.4458 29.6974C40.5256 29.0433 41.1159 28.5647 41.77 28.6444C42.4241 28.7242 42.9027 29.3145 42.8229 29.9686C42.6793 31.197 42.3284 32.4095 41.7859 33.5422C41.5785 33.957 41.1478 34.2123 40.7011 34.2123Z" fill="url(#paint18_linear)"/>
<path d="M40.8606 25.8844C40.398 25.8844 39.9672 25.6132 39.7598 25.1665C38.7069 22.7735 36.6648 20.8271 34.0005 19.7104C33.3943 19.4551 33.1071 18.7531 33.3624 18.1469C33.6177 17.5407 34.3196 17.2535 34.9259 17.5088C38.1645 18.8648 40.6692 21.2419 41.9614 24.2093C42.2326 24.8155 41.9455 25.5175 41.3392 25.7887C41.1956 25.8525 41.0202 25.8844 40.8606 25.8844Z" fill="url(#paint19_linear)"/>
<path d="M30.3312 18.8013C30.2993 18.8013 30.2674 18.8013 30.2195 18.8013C29.8207 18.7694 29.4218 18.7534 29.023 18.7534C28.3689 18.7534 27.8265 18.211 27.8265 17.5569C27.8265 16.9028 28.3689 16.3604 29.023 16.3604C29.4857 16.3604 29.9643 16.3763 30.4269 16.4242C31.081 16.488 31.5756 17.0623 31.5118 17.7164C31.4639 18.3227 30.9374 18.8013 30.3312 18.8013Z" fill="url(#paint20_linear)"/>
<defs>
<linearGradient id="paint0_linear" x1="20.2276" y1="45.7485" x2="20.2276" y2="77.0002" gradientUnits="userSpaceOnUse">
<stop stop-color="#1383D6"/>
<stop offset="1" stop-color="#00FFD1"/>
</linearGradient>
<linearGradient id="paint1_linear" x1="19.261" y1="35.1958" x2="19.261" y2="48.1399" gradientUnits="userSpaceOnUse">
<stop stop-color="#1383D6"/>
<stop offset="1" stop-color="#00FFD1"/>
</linearGradient>
<linearGradient id="paint2_linear" x1="35.5879" y1="46.0156" x2="35.5879" y2="56.8982" gradientUnits="userSpaceOnUse">
<stop stop-color="#1383D6"/>
<stop offset="1" stop-color="#00FFD1"/>
</linearGradient>
<linearGradient id="paint3_linear" x1="35.1214" y1="59.167" x2="35.1214" y2="76.9998" gradientUnits="userSpaceOnUse">
<stop stop-color="#1383D6"/>
<stop offset="1" stop-color="#00FFD1"/>
</linearGradient>
<linearGradient id="paint4_linear" x1="42.5597" y1="51.4937" x2="42.5597" y2="56.3721" gradientUnits="userSpaceOnUse">
<stop stop-color="#1383D6"/>
<stop offset="1" stop-color="#00FFD1"/>
</linearGradient>
<linearGradient id="paint5_linear" x1="17.2443" y1="60.7314" x2="21.4264" y2="61.7631" gradientUnits="userSpaceOnUse">
<stop stop-color="#1383D6"/>
<stop offset="1" stop-color="#00FFD1"/>
</linearGradient>
<linearGradient id="paint6_linear" x1="28.6826" y1="45.9253" x2="31.5615" y2="47.9327" gradientUnits="userSpaceOnUse">
<stop stop-color="#1383D6"/>
<stop offset="1" stop-color="#00FFD1"/>
</linearGradient>
<linearGradient id="paint7_linear" x1="22.1828" y1="43.1346" x2="25.0615" y2="45.1423" gradientUnits="userSpaceOnUse">
<stop stop-color="#1383D6"/>
<stop offset="1" stop-color="#00FFD1"/>
</linearGradient>
<linearGradient id="paint8_linear" x1="37.788" y1="53.3262" x2="39.8213" y2="54.3952" gradientUnits="userSpaceOnUse">
<stop stop-color="#1383D6"/>
<stop offset="1" stop-color="#00FFD1"/>
</linearGradient>
<linearGradient id="paint9_linear" x1="35.4486" y1="58.5674" x2="37.482" y2="59.6364" gradientUnits="userSpaceOnUse">
<stop stop-color="#1383D6"/>
<stop offset="1" stop-color="#00FFD1"/>
</linearGradient>
<linearGradient id="paint10_linear" x1="33.2154" y1="63.7049" x2="35.2488" y2="64.7738" gradientUnits="userSpaceOnUse">
<stop stop-color="#1383D6"/>
<stop offset="1" stop-color="#00FFD1"/>
</linearGradient>
<linearGradient id="paint11_linear" x1="49.7655" y1="25.5791" x2="49.7655" y2="61.1902" gradientUnits="userSpaceOnUse">
<stop stop-color="#1383D6"/>
<stop offset="1" stop-color="#00FFD1"/>
</linearGradient>
<linearGradient id="paint12_linear" x1="35.6706" y1="32.1987" x2="35.6706" y2="41.9178" gradientUnits="userSpaceOnUse">
<stop stop-color="#1383D6"/>
<stop offset="1" stop-color="#00FFD1"/>
</linearGradient>
<linearGradient id="paint13_linear" x1="57.6173" y1="16.3369" x2="57.6173" y2="21.2261" gradientUnits="userSpaceOnUse">
<stop stop-color="#1383D6"/>
<stop offset="1" stop-color="#00FFD1"/>
</linearGradient>
<linearGradient id="paint14_linear" x1="28.7075" y1="0.454102" x2="28.7075" y2="12.9777" gradientUnits="userSpaceOnUse">
<stop stop-color="#1383D6"/>
<stop offset="1" stop-color="#00FFD1"/>
</linearGradient>
<linearGradient id="paint15_linear" x1="2.30371" y1="13.6519" x2="2.30371" y2="16.998" gradientUnits="userSpaceOnUse">
<stop stop-color="#1383D6"/>
<stop offset="1" stop-color="#00FFD1"/>
</linearGradient>
<linearGradient id="paint16_linear" x1="37.563" y1="8.41504" x2="37.563" y2="35.2969" gradientUnits="userSpaceOnUse">
<stop stop-color="#1383D6"/>
<stop offset="1" stop-color="#00FFD1"/>
</linearGradient>
<linearGradient id="paint17_linear" x1="18.0822" y1="10.0723" x2="18.0822" y2="14.7008" gradientUnits="userSpaceOnUse">
<stop stop-color="#1383D6"/>
<stop offset="1" stop-color="#00FFD1"/>
</linearGradient>
<linearGradient id="paint18_linear" x1="41.1728" y1="28.6357" x2="41.1728" y2="34.2123" gradientUnits="userSpaceOnUse">
<stop stop-color="#1383D6"/>
<stop offset="1" stop-color="#00FFD1"/>
</linearGradient>
<linearGradient id="paint19_linear" x1="37.6666" y1="17.4155" x2="37.6666" y2="25.8844" gradientUnits="userSpaceOnUse">
<stop stop-color="#1383D6"/>
<stop offset="1" stop-color="#00FFD1"/>
</linearGradient>
<linearGradient id="paint20_linear" x1="29.6719" y1="16.3604" x2="29.6719" y2="18.8013" gradientUnits="userSpaceOnUse">
<stop stop-color="#1383D6"/>
<stop offset="1" stop-color="#00FFD1"/>
</linearGradient>
</defs>
</svg>
