<svg width="98" height="30" viewBox="0 0 98 30" fill="none" xmlns="http://www.w3.org/2000/svg">
<g clip-path="url(#clip0)">
<path d="M20.0908 12.8573C18.7841 18.2968 13.2308 21.7584 7.67744 20.2748C2.28744 18.9562 -0.979223 13.3518 0.327443 7.74736C1.63411 2.3078 7.18744 -0.988899 12.7408 0.329782C18.1308 1.64846 21.5608 7.25286 20.0908 12.8573ZM14.7008 8.90121C14.8641 7.41769 13.8841 6.75835 12.4141 6.26385L12.9041 4.45066L11.7608 4.12099L11.4341 5.93418C11.1074 5.76934 10.7808 5.76934 10.4541 5.76934L10.9441 3.95616L9.80078 3.62649L9.31078 5.43967C9.14744 5.43967 8.82078 5.27484 8.65744 5.27484L7.02411 4.94517L6.86078 6.09901L7.67744 6.26385C8.00411 6.42868 8.16744 6.75835 8.16744 6.92319L7.67744 9.06605L6.86078 12.0331C6.86078 12.1979 6.69744 12.3628 6.37078 12.3628L5.55411 12.1979L4.90078 13.3518L6.37078 13.8463C6.69744 13.8463 7.02411 14.0111 7.18744 14.0111L6.69744 15.8243L7.84078 16.154L8.33078 14.3408C8.65744 14.3408 8.98411 14.5056 9.31078 14.5056L8.82078 16.3188L9.96411 16.6485L10.4541 14.8353C12.2508 15.1649 13.7208 15.0001 14.3741 13.1869C14.8641 11.8682 14.3741 11.0441 13.2308 10.5496C14.0474 10.3847 14.5374 9.89022 14.7008 8.90121ZM12.2508 12.5276C11.7608 13.8463 9.47411 13.1869 8.65744 13.0221L9.31078 10.3847C10.1274 10.7144 12.5774 11.0441 12.2508 12.5276ZM12.5774 8.90121C12.2508 10.0551 10.2908 9.39572 9.63744 9.23088L10.1274 7.08802C10.7808 7.25286 12.9041 7.58253 12.5774 8.90121Z" fill="white"/>
<path d="M30.0533 6.26374C30.87 6.26374 31.5233 6.42857 32.1767 6.75824C32.6667 6.92308 33.1567 7.41758 33.6467 7.91209C33.9733 8.40659 34.3 9.06593 34.4633 9.72527C34.6267 10.3846 34.79 11.044 34.79 11.8681C34.79 13.022 34.6267 14.1758 34.1367 15.3297C33.6467 16.3187 33.1567 17.3077 32.34 18.1319C31.5233 18.7912 30.7067 19.4505 29.7267 19.9451C28.5833 20.4396 27.44 20.6044 26.2967 20.6044C26.1333 20.6044 25.8067 20.6044 25.48 20.6044C25.1533 20.6044 24.6633 20.6044 24.1733 20.4396C23.6833 20.4396 23.03 20.2747 22.54 20.2747C22.05 20.1099 21.3967 19.9451 20.9067 19.6154L25.48 0.659341L29.4 0L27.7667 6.75824C28.2567 6.59341 28.5833 6.42857 28.91 6.42857C29.2367 6.26374 29.5633 6.26374 30.0533 6.26374ZM26.6233 17.4725C27.2767 17.4725 27.7667 17.3077 28.2567 16.978C28.91 16.6483 29.4 16.3187 29.7267 15.8242C30.0533 15.3297 30.38 14.6703 30.7067 14.1758C30.87 13.5165 31.0333 12.8571 31.0333 12.1978C31.0333 11.3736 30.87 10.7143 30.5433 10.2198C30.2167 9.72527 29.7267 9.56044 29.0733 9.56044C28.7467 9.56044 28.42 9.56044 28.0933 9.56044C27.7667 9.72527 27.2767 9.89011 26.95 10.2198L25.3167 17.3077C25.48 17.3077 25.48 17.3077 25.6433 17.3077C25.6433 17.4725 25.8067 17.4725 25.8067 17.4725C25.97 17.4725 25.97 17.4725 26.1333 17.4725C26.2967 17.4725 26.46 17.4725 26.6233 17.4725Z" fill="white"/>
<path d="M39.0366 20.2746H35.1166L38.3833 6.59333H42.3033L39.0366 20.2746ZM40.8333 4.94497C40.3433 4.94497 39.8533 4.78014 39.3633 4.45047C38.8733 4.1208 38.71 3.62629 38.71 2.96695C38.71 2.47245 38.8733 2.14278 38.8733 1.81311C39.0366 1.48344 39.3633 1.3186 39.5266 0.988931C39.8533 0.824095 40.0166 0.65926 40.3433 0.494425C40.67 0.32959 40.9966 0.32959 41.3233 0.32959C41.9766 0.32959 42.4666 0.494425 42.7933 0.824095C43.2833 1.15377 43.4466 1.48344 43.4466 2.30761C43.4466 2.63728 43.4466 2.96695 43.2833 3.29662C43.12 3.62629 42.9566 3.79113 42.63 4.1208C42.4666 4.28563 42.14 4.45047 41.8133 4.6153C41.4866 4.78014 41.16 4.94497 40.8333 4.94497Z" fill="white"/>
<path d="M45.57 3.132L49.6533 2.47266L48.6733 6.59354H52.92L52.1033 9.7254H47.8567L46.7133 14.5056C46.55 15.0001 46.55 15.3298 46.55 15.6595C46.55 15.9891 46.55 16.3188 46.7133 16.4836C46.7133 16.8133 46.8767 16.9782 47.2033 17.143C47.53 17.3078 47.8567 17.3078 48.3467 17.3078C48.8367 17.3078 49.1633 17.3078 49.6533 17.3078C49.98 17.143 50.3067 16.9782 50.7967 16.9782L51.1233 19.9452C50.47 20.11 49.98 20.2749 49.3267 20.4397C48.8367 20.6045 48.02 20.6045 47.2033 20.6045C46.06 20.6045 45.08 20.4397 44.4267 20.11C43.7733 19.7803 43.2833 19.2858 43.12 18.6265C42.7933 17.9672 42.63 17.3078 42.63 16.4836C42.7933 15.6595 42.7933 14.8353 43.12 14.0111L45.57 3.132Z" fill="white"/>
<path d="M52.7567 14.8349C52.7567 13.681 52.92 12.5272 53.2467 11.3734C53.7367 10.3843 54.2267 9.56017 54.88 8.736C55.6966 7.91182 56.5133 7.25248 57.4933 6.92281C58.4733 6.4283 59.6166 6.09863 60.9233 6.09863C61.74 6.09863 62.3933 6.26347 63.0466 6.4283C63.5366 6.59314 64.19 6.75797 64.68 6.92281L63.3733 10.0547C63.0466 9.88984 62.5566 9.72501 62.23 9.56017C61.9033 9.56017 61.4133 9.39534 60.9233 9.39534C59.6166 9.39534 58.6366 9.88984 57.82 10.8789C57.1666 11.703 56.6766 12.8569 56.6766 14.3404C56.6766 15.3294 56.84 15.9887 57.33 16.4832C57.6566 17.1426 58.31 17.3074 59.4533 17.3074C59.9433 17.3074 60.4333 17.3074 60.9233 17.1426C61.25 17.1426 61.74 16.9778 62.0666 16.8129L62.3933 19.9448C61.9033 20.1096 61.4133 20.2745 60.76 20.4393C60.1066 20.6041 59.4533 20.6041 58.6366 20.6041C57.6566 20.6041 56.6766 20.4393 56.0233 20.1096C55.2066 19.9448 54.5533 19.4503 54.0633 18.9558C53.5733 18.4613 53.2467 17.8019 53.0833 16.9778C52.92 16.3184 52.7567 15.6591 52.7567 14.8349Z" fill="white"/>
<path d="M69.7433 20.6041C68.9266 20.6041 68.1099 20.4393 67.4566 20.2745C66.6399 19.9448 66.1499 19.6151 65.6599 19.1206C65.3333 18.6261 65.0066 17.9668 64.6799 17.3074C64.5166 16.6481 64.3533 15.8239 64.3533 14.9997C64.3533 14.0107 64.5166 12.8569 64.8433 11.8679C65.1699 10.8789 65.6599 9.88984 66.3133 9.06567C66.9666 8.24149 67.7833 7.58215 68.7633 6.92281C69.7433 6.4283 70.8866 6.09863 72.03 6.09863C73.01 6.09863 73.6633 6.26347 74.48 6.59314C75.1333 6.92281 75.6233 7.25248 76.1133 7.74698C76.6033 8.24149 76.93 8.90083 77.0933 9.56017C77.2566 10.2195 77.42 11.0437 77.42 11.8679C77.42 12.8569 77.2566 14.0107 76.93 14.9997C76.6033 15.9887 76.1133 16.9778 75.46 17.8019C74.8066 18.6261 73.99 19.2854 73.1733 19.78C72.1933 20.4393 71.0499 20.6041 69.7433 20.6041ZM71.7033 9.39534C71.0499 9.39534 70.5599 9.56017 70.2333 9.88984C69.7433 10.2195 69.4166 10.714 69.0899 11.2085C68.7633 11.703 68.5999 12.1975 68.4366 12.8569C68.2733 13.5162 68.2733 14.0107 68.2733 14.5052C68.2733 15.4942 68.2733 16.1536 68.5999 16.6481C68.9266 17.1426 69.4166 17.3074 70.0699 17.3074C70.7233 17.3074 71.2133 17.1426 71.7033 16.8129C72.03 16.4832 72.3566 16.1536 72.6833 15.6591C73.01 15.1646 73.1733 14.5052 73.3366 14.0107C73.5 13.3514 73.6633 12.692 73.6633 12.1975C73.6633 11.3734 73.5 10.714 73.1733 10.2195C72.8466 9.72501 72.3566 9.39534 71.7033 9.39534Z" fill="white"/>
<path d="M81.6666 20.2746H77.7466L81.0133 6.59333H84.9333L81.6666 20.2746ZM83.4633 4.94497C82.9733 4.94497 82.4833 4.78014 81.9933 4.45047C81.6666 4.1208 81.34 3.62629 81.34 2.96695C81.34 2.47245 81.5033 2.14278 81.6666 1.81311C81.6666 1.48344 81.9933 1.3186 82.1566 0.988931C82.4833 0.824095 82.6466 0.65926 82.9733 0.494425C83.3 0.32959 83.6266 0.32959 84.1166 0.32959C84.6066 0.32959 85.0966 0.494425 85.4233 0.824095C85.9133 1.15377 86.0766 1.48344 86.0766 2.30761C86.0766 2.63728 86.0766 2.96695 85.9133 3.29662C85.75 3.62629 85.5866 3.79113 85.26 4.1208C85.0966 4.28563 84.77 4.45047 84.4433 4.6153C84.1166 4.78014 83.79 4.94497 83.4633 4.94497Z" fill="white"/>
<path d="M87.71 7.08785C87.8733 7.08785 88.2 6.92301 88.5266 6.92301C89.0166 6.75818 89.3433 6.59334 89.8333 6.59334C90.16 6.42851 90.65 6.42851 91.3033 6.26367C91.7933 6.26367 92.4466 6.26367 93.1 6.26367C95.06 6.26367 96.53 6.75818 97.3466 8.07686C98 9.23071 98.1633 10.8791 97.6733 12.8571L95.8766 20.2747H92.12L93.7533 13.0219C93.9166 12.5274 93.9166 12.1977 94.08 11.7032C94.08 11.2087 94.08 10.8791 94.08 10.5494C93.9166 10.2197 93.7533 10.0549 93.59 9.72521C93.2633 9.56038 92.9366 9.56038 92.4466 9.56038C91.9566 9.56038 91.4666 9.56038 90.8133 9.72521L88.3633 20.2747H84.4433L87.71 7.08785Z" fill="white"/>
<path d="M41.16 28.5166L40.3433 29.8353H39.5267C40.18 28.8463 40.67 27.8573 41.3233 27.0331C41.8133 26.0441 42.3033 25.2199 42.9567 24.5605H43.61C43.7733 24.8902 43.7733 25.2199 43.7733 25.7144C43.9367 26.0441 43.9367 26.5386 43.9367 26.8682C44.1 27.3627 44.1 27.8573 44.2633 28.3518C44.2633 28.8463 44.2633 29.3408 44.4267 29.8353H43.61C43.61 29.6704 43.61 29.3408 43.61 29.1759C43.4467 28.8463 43.4467 28.6814 43.4467 28.5166H41.16ZM43.4467 27.8573C43.4467 27.5276 43.2833 27.0331 43.2833 26.7034C43.2833 26.2089 43.12 25.7144 43.12 25.3847C42.9567 25.5496 42.63 25.8792 42.4667 26.3737C42.14 26.7034 41.8133 27.3627 41.4867 27.8573H43.4467Z" fill="white"/>
<path d="M47.04 29.9999C46.7133 29.9999 46.55 29.9999 46.2233 29.8351C45.8966 29.6702 45.7333 29.5054 45.57 29.3406C45.4066 29.1757 45.2433 29.0109 45.2433 28.6812C45.08 28.5164 45.08 28.1867 45.08 27.857C45.08 27.3625 45.08 27.0329 45.2433 26.5384C45.4066 26.2087 45.7333 25.7142 45.8966 25.3845C46.2233 25.0548 46.55 24.89 46.8766 24.7252C47.2033 24.3955 47.6933 24.3955 48.1833 24.3955C48.51 24.3955 48.8366 24.3955 49.1633 24.5603C49.3266 24.5603 49.49 24.7252 49.6533 24.7252L49.3266 25.3845C49.1633 25.2197 49 25.2197 48.8366 25.0548C48.6733 25.0548 48.3466 25.0548 48.1833 25.0548C47.6933 25.0548 47.53 25.0548 47.2033 25.2197C46.8766 25.3845 46.7133 25.7142 46.3866 25.879C46.2233 26.2087 46.06 26.5384 46.06 26.868C45.8966 27.1977 45.8966 27.5274 45.8966 27.857C45.8966 28.8461 46.2233 29.3406 47.2033 29.3406C47.3666 29.3406 47.53 29.3406 47.6933 29.3406C47.8566 29.1757 47.8566 29.1757 48.02 29.1757C48.1833 29.1757 48.1833 29.1757 48.3466 29.0109H48.51L48.6733 29.6702C48.6733 29.6702 48.51 29.6702 48.3466 29.6702C48.3466 29.8351 48.1833 29.8351 48.02 29.8351C47.8566 29.8351 47.8566 29.8351 47.6933 29.9999C47.53 29.9999 47.3666 29.9999 47.04 29.9999Z" fill="white"/>
<path d="M51.45 29.9999C51.1233 29.9999 50.7967 29.9999 50.47 29.8351C50.3067 29.6702 50.1433 29.5054 49.98 29.3406C49.8167 29.1757 49.6533 29.0109 49.49 28.6812C49.49 28.5164 49.49 28.1867 49.49 27.857C49.49 27.3625 49.49 27.0329 49.6533 26.5384C49.8167 26.2087 49.98 25.7142 50.3067 25.3845C50.47 25.0548 50.7967 24.89 51.2867 24.7252C51.6133 24.3955 52.1033 24.3955 52.43 24.3955C52.92 24.3955 53.2467 24.3955 53.41 24.5603C53.7367 24.5603 53.9 24.7252 53.9 24.7252L53.5733 25.3845C53.5733 25.2197 53.41 25.2197 53.2467 25.0548C52.92 25.0548 52.7567 25.0548 52.43 25.0548C52.1033 25.0548 51.7767 25.0548 51.45 25.2197C51.2867 25.3845 50.96 25.7142 50.7967 25.879C50.6333 26.2087 50.47 26.5384 50.3067 26.868C50.3067 27.1977 50.1433 27.5274 50.1433 27.857C50.1433 28.8461 50.6333 29.3406 51.45 29.3406C51.6133 29.3406 51.7767 29.3406 51.94 29.3406C52.1033 29.1757 52.2667 29.1757 52.43 29.1757C52.43 29.1757 52.5933 29.1757 52.5933 29.0109C52.7567 29.0109 52.7567 29.0109 52.92 29.0109V29.6702C52.92 29.6702 52.92 29.6702 52.7567 29.6702C52.5933 29.8351 52.5933 29.8351 52.43 29.8351C52.2667 29.8351 52.1033 29.8351 51.94 29.9999C51.7767 29.9999 51.6133 29.9999 51.45 29.9999Z" fill="white"/>
<path d="M53.5733 29.8353L54.7166 24.5605H57.9833L57.82 25.0551H55.37L55.0433 26.7034H57.1666L57.0033 27.3627H54.88L54.39 29.1759H57.0033L56.84 29.8353H53.5733Z" fill="white"/>
<path d="M60.1066 24.3955C60.76 24.3955 61.25 24.5603 61.5766 24.7252C61.9033 25.0548 62.0666 25.3845 62.0666 25.879C62.0666 26.2087 61.9033 26.5384 61.9033 26.7032C61.74 27.0329 61.5766 27.1977 61.25 27.3625C61.0866 27.5274 60.76 27.6922 60.4333 27.6922C60.1066 27.857 59.6166 27.857 59.29 27.857H58.8L58.31 29.8351H57.4933L58.8 24.5603C58.9633 24.5603 59.29 24.3955 59.4533 24.3955C59.78 24.3955 59.9433 24.3955 60.1066 24.3955ZM60.1066 25.0548C59.78 25.0548 59.4533 25.0548 59.4533 25.0548L58.9633 27.1977H59.4533C59.6166 27.1977 59.78 27.1977 60.1066 27.1977C60.27 27.1977 60.4333 27.0329 60.5966 27.0329C60.76 26.868 60.9233 26.7032 61.0866 26.5384C61.25 26.3735 61.25 26.2087 61.25 25.879C61.25 25.5494 61.0866 25.3845 60.9233 25.2197C60.76 25.0548 60.4333 25.0548 60.1066 25.0548Z" fill="white"/>
<path d="M66.64 24.5605L66.4766 25.0551H64.8433L63.7 29.8353H62.8833L64.0266 25.0551H62.5566V24.5605H66.64Z" fill="white"/>
<path d="M65.9866 29.8353L67.13 24.5605H70.3966L70.2333 25.0551H67.7833L67.4566 26.7034H69.58L69.4166 27.3627H67.2933L66.8033 29.1759H69.4166L69.2533 29.8353H65.9866Z" fill="white"/>
<path d="M72.52 24.3955C73.3367 24.3955 73.99 24.5603 74.3167 25.0548C74.6433 25.3845 74.97 25.879 74.97 26.5384C74.97 27.0329 74.8067 27.3625 74.6433 27.857C74.48 28.1867 74.3167 28.5164 73.99 28.8461C73.8267 29.1757 73.3367 29.5054 73.01 29.6702C72.52 29.8351 71.8667 29.8351 71.3767 29.8351C71.05 29.8351 70.8867 29.8351 70.56 29.8351C70.3967 29.8351 70.07 29.8351 69.9067 29.8351L71.2133 24.5603C71.3767 24.5603 71.7033 24.3955 71.8667 24.3955C72.03 24.3955 72.3567 24.3955 72.52 24.3955ZM72.52 25.0548C72.03 25.0548 71.8667 25.0548 71.8667 25.0548L70.8867 29.1757C70.8867 29.1757 70.8867 29.1757 71.05 29.3406C71.05 29.3406 71.2133 29.3406 71.54 29.3406C71.8667 29.3406 72.1933 29.1757 72.52 29.0109C72.8467 29.0109 73.1733 28.6812 73.3367 28.5164C73.6633 28.1867 73.8267 28.0219 73.99 27.6922C73.99 27.3625 74.1533 26.868 74.1533 26.5384C74.1533 26.0439 73.99 25.7142 73.6633 25.3845C73.5 25.2197 73.01 25.0548 72.52 25.0548Z" fill="white"/>
<path d="M80.6867 29.8353H79.87L80.5233 27.3627H78.0733L77.42 29.8353H76.6033L77.91 24.5605H78.7267L78.2367 26.7034H80.6867L81.1767 24.5605H81.83L80.6867 29.8353Z" fill="white"/>
<path d="M81.83 29.8353L83.1367 24.5605H86.24L86.0767 25.0551H83.6267L83.3 26.7034H85.4234L85.26 27.3627H83.1367L82.6467 29.1759H85.26L85.0967 29.8353H81.83Z" fill="white"/>
<path d="M88.5267 24.3955C89.0167 24.3955 89.5067 24.5603 89.8333 24.7252C90.16 25.0548 90.3233 25.3845 90.3233 25.879C90.3233 26.2087 90.16 26.7032 89.9967 26.868C89.67 27.1977 89.3433 27.5274 88.8533 27.5274C88.8533 27.6922 89.0167 27.857 89.0167 28.0219C89.18 28.1867 89.18 28.3516 89.3433 28.5164C89.3433 28.8461 89.5067 29.0109 89.5067 29.1757C89.67 29.5054 89.67 29.6702 89.67 29.8351H89.0167C88.8533 29.6702 88.8533 29.5054 88.69 29.1757C88.69 29.0109 88.69 28.8461 88.5267 28.6812C88.5267 28.5164 88.3633 28.3516 88.3633 28.1867C88.2 28.0219 88.2 27.857 88.0367 27.6922H87.8733H87.71H87.0567L86.5667 29.8351H85.9133L87.0567 24.5603C87.3833 24.5603 87.5467 24.3955 87.71 24.3955C88.0367 24.3955 88.2 24.3955 88.5267 24.3955ZM88.3633 25.0548C88.0367 25.0548 87.8733 25.0548 87.71 25.0548L87.22 27.1977H87.71C87.8733 27.1977 88.0367 27.0329 88.3633 27.0329C88.5267 27.0329 88.69 27.0329 88.8533 26.868C89.18 26.868 89.3433 26.7032 89.3433 26.5384C89.5067 26.3735 89.5067 26.2087 89.5067 25.879C89.5067 25.5494 89.5067 25.3845 89.18 25.2197C89.0167 25.0548 88.69 25.0548 88.3633 25.0548Z" fill="white"/>
<path d="M90.3234 29.8353L91.63 24.5605H94.7334V25.0551H92.2834L91.7934 26.7034H94.08L93.9167 27.3627H91.7934L91.3034 29.1759H93.9167L93.7534 29.8353H90.3234Z" fill="white"/>
</g>
<defs>
<clipPath id="clip0">
<rect width="98" height="30" fill="white"/>
</clipPath>
</defs>
</svg>
