<svg width="54" height="32" viewBox="0 0 54 32" fill="none" xmlns="http://www.w3.org/2000/svg">
<g clip-path="url(#clip0)">
<path fill-rule="evenodd" clip-rule="evenodd" d="M37.8188 31.9792H38.6655L39.4181 31.886L40.2648 31.7929L41.0174 31.6997L41.8641 31.5133L42.6167 31.327L43.3693 31.0475L44.122 30.7679L44.7805 30.3952L45.5331 30.1157L46.1916 29.6499L46.8502 29.2772L47.5087 28.8113L48.0732 28.3454L48.6376 27.8795L49.2021 27.3205L49.7666 26.7615L50.2369 26.2024L50.8014 25.5502L51.1777 24.9911L51.6481 24.3389L52.0244 23.5935L52.4007 22.9413L52.6829 22.1959L52.9652 21.4505L53.2474 20.7051L53.4355 19.9598L53.6237 19.2144L53.8118 18.469L53.9059 17.6304V16.7918L54 15.9533L53.9059 15.2079V14.3693L53.8118 13.5307L53.6237 12.7853L53.4355 12.04L53.2474 11.2946L52.9652 10.5492L52.6829 9.80378L52.4007 9.05839L52.0244 8.40617L51.6481 7.75395L51.1777 7.10173L50.8014 6.44952L50.2369 5.7973L49.7666 5.23825L49.2021 4.67921L48.6376 4.21334L48.0732 3.6543L47.5087 3.18842L46.8502 2.72255L46.1916 2.34986L45.5331 1.97716L44.7805 1.60447L44.122 1.23177L43.3693 0.952248L42.6167 0.7659L41.8641 0.486378L41.0174 0.30003L40.2648 0.206856L39.4181 0.113682L38.6655 0.0205078H37.8188H36.9721L36.1254 0.113682L35.3728 0.206856L34.5261 0.30003L33.7735 0.486378L33.0209 0.7659L32.2683 0.952248L31.5157 1.23177L30.7631 1.60447L30.1045 1.97716L29.446 2.34986L28.7875 2.72255L28.1289 3.18842L27.5645 3.6543L26.9059 4.21334L26.3415 4.67921L25.8711 5.23825L25.3066 5.7973L24.8362 6.44952L24.4599 7.10173L23.9896 7.75395L23.6132 8.40617L23.2369 9.05839L22.9547 9.80378L22.6725 10.5492L22.3902 11.2946L22.2021 12.04L22.0139 12.7853L21.9199 12.9717H22.108L21.9199 14.2761H22.7666L22.5784 15.4874H21.6376V15.9533L21.7317 16.7918V17.6304L21.8258 18.469L21.9199 18.8417H22.0139H22.108H22.2021H22.2962V18.7485L22.108 19.7734L22.2021 19.9598L22.3902 20.7051L22.6725 21.4505L22.9547 22.1959L23.2369 22.9413L23.6132 23.5935L23.9896 24.3389L24.4599 24.9911L24.8362 25.5502L25.3066 26.2024L25.8711 26.7615L26.3415 27.3205L26.9059 27.8795L27.5645 28.3454L28.1289 28.8113L28.7875 29.2772L29.446 29.6499L30.1045 30.1157L30.7631 30.3952L31.5157 30.7679L32.2683 31.0475L33.0209 31.327L33.7735 31.5133L34.5261 31.6997L35.3728 31.7929L36.1254 31.886L36.9721 31.9792H37.8188ZM23.9896 17.5372V17.6304V17.7236V17.8167V17.9099L24.0836 18.0031V18.0963L24.1777 18.1894V18.2826L24.2718 18.3758L24.3659 18.469L24.4599 18.5621L24.554 18.6553H24.6481L24.7422 18.7485H24.8362H25.0244L25.1185 18.8417H25.3066H25.4007H25.5889H25.6829H25.8711H25.9652H26.1533H26.2474L26.4355 18.7485H26.5296H26.7178L26.9059 18.6553L27 18.5621L27.1882 18.469L27.3763 18.3758L27.0941 19.7734H27H26.9059V19.8666H26.8118H26.7178L26.6237 19.9598H26.5296H26.4355H26.3415H26.2474L26.1533 20.0529H25.9652H25.8711H25.6829H25.4948H25.3066H25.1185L24.8362 19.9598H24.554L24.2718 19.8666L23.9896 19.7734L23.7073 19.6802L23.5192 19.5871L23.2369 19.4007L23.0488 19.2144L22.8606 19.028L22.6725 18.7485L22.5784 18.469L22.4843 18.1894L22.3902 17.8167V17.4441V16.9782L22.4843 16.7918V16.6055L22.5784 16.4191V16.1396L22.6725 15.9533L22.7666 15.6737L22.8606 15.4874L23.0488 15.2079L23.2369 15.0215L23.4251 14.8352L23.7073 14.6488L23.9896 14.4625L24.2718 14.3693L24.6481 14.183H25.0244H25.4948H25.6829H25.8711H26.1533L26.3415 14.2761L26.5296 14.3693L26.8118 14.4625L27 14.5557L27.1882 14.742L27.2822 14.9284L27.4704 15.1147L27.5645 15.3942L27.6585 15.6737V15.9533V16.326V16.7918L27.5645 17.1645V17.5372L23.9896 17.6304L24.1777 16.5123H26.1533L26.2474 16.326L26.1533 16.2328V16.0464V15.9533V15.8601L26.0592 15.7669V15.6737H25.9652L25.8711 15.5806V15.4874H25.777L25.6829 15.3942H25.5889H25.4948H25.4007L25.3066 15.301H25.2125L25.1185 15.3942H25.0244H24.9303L24.8362 15.4874H24.7422L24.6481 15.5806V15.6737H24.554L24.4599 15.7669L24.3659 15.8601V15.9533L24.2718 16.0464V16.1396V16.2328L24.1777 16.4191L23.9896 17.5372ZM27.4704 20.0529H29.0697L29.6341 16.9782V16.885V16.6987V16.6055L29.7282 16.5123V16.4191L29.8223 16.326V16.2328L29.9164 16.1396L30.0105 16.0464L30.1045 15.9533L30.2927 15.8601H30.3868L30.5749 15.7669H30.669L30.8571 15.6737H31.1394H31.2335H31.3275V15.4874V15.3942V15.301L31.4216 15.1147V14.9284L31.5157 14.8352V14.742L31.6098 14.6488L31.7038 14.5557V14.4625L31.7979 14.3693V14.2761V14.183H31.7038H31.6098H31.4216H31.2335L31.1394 14.2761H30.9512L30.8571 14.3693H30.7631L30.669 14.4625H30.5749L30.4808 14.5557L30.3868 14.6488L30.2927 14.742L30.1986 14.8352L30.1045 14.9284L30.0105 15.0215V15.1147L29.9164 15.2079L30.1045 14.2761H28.5052L27.4704 20.0529ZM50.4251 20.0529H48.9199L49.0139 19.4007L48.9199 19.4939L48.8258 19.5871L48.7317 19.6802L48.6376 19.7734H48.5436L48.4495 19.8666L48.3554 19.9598H48.2613L48.1672 20.0529H48.0732H47.885H47.7909H47.6969L47.6028 20.1461H47.5087H47.4146L47.1324 20.0529H46.8502L46.5679 19.9598L46.3798 19.7734L46.1916 19.6802L46.0035 19.4939L45.9094 19.3075L45.7213 19.028L45.6272 18.8417L45.5331 18.5621L45.439 18.2826V18.0031V17.7236V17.4441V17.1645L45.5331 16.885V16.6055L45.7213 16.326L45.8153 16.0464L45.9094 15.7669L46.0976 15.4874L46.1916 15.301L46.3798 15.1147L46.5679 14.9284L46.7561 14.742L46.9443 14.6488L47.2265 14.5557L47.4146 14.4625L47.6028 14.3693L47.7909 14.2761H48.0732H48.2613H48.4495H48.5436H48.7317L48.8258 14.3693H49.0139L49.108 14.4625H49.2021L49.2962 14.5557L49.3902 14.6488H49.4843V14.742L49.5784 14.8352L49.6725 14.9284L49.7666 15.0215V15.1147L50.1429 12.9717H51.6481L50.4251 20.0529ZM47.9791 18.7485H48.0732L48.2613 18.6553H48.3554L48.4495 18.5621H48.6376L48.7317 18.469L48.8258 18.3758L48.9199 18.2826L49.0139 18.1894L49.108 18.0031V17.9099L49.2021 17.8167L49.2962 17.6304V17.5372V17.3509L49.3902 17.1645V17.0714V16.885V16.7918V16.6055V16.4191V16.326L49.2962 16.2328V16.0464L49.2021 15.9533V15.8601L49.108 15.7669L49.0139 15.6737H48.9199L48.8258 15.5806H48.7317H48.6376H48.4495H48.3554L48.1672 15.6737H48.0732L47.9791 15.7669L47.885 15.8601L47.7909 15.9533L47.6969 16.0464L47.6028 16.1396L47.5087 16.2328L47.4146 16.4191V16.5123L47.3206 16.6987V16.885L47.2265 16.9782V17.1645L47.1324 17.3509L47.2265 17.6304V17.9099L47.3206 18.1894L47.4146 18.3758L47.5087 18.5621L47.6969 18.6553L47.9791 18.7485ZM41.9582 20.0529H43.4634L44.0279 16.9782V16.885V16.6987L44.122 16.6055V16.5123L44.216 16.326L44.3101 16.2328V16.1396L44.4042 16.0464L44.4983 15.9533L44.5923 15.8601L44.7805 15.7669H44.8746L45.0627 15.6737L45.2509 15.5806H45.439H45.6272H45.7213H45.8153L46.0035 14.183H45.9094H45.7213L45.5331 14.2761H45.439L45.3449 14.3693H45.2509L45.0627 14.4625H44.9686L44.8746 14.5557L44.7805 14.6488L44.6864 14.742L44.5923 14.8352V14.9284L44.4983 15.0215L44.4042 15.1147L44.3101 15.2079L44.4983 14.2761H42.993L41.9582 20.0529ZM41.4878 18.8417L41.2997 20.0529H39.8885L39.9826 19.7734V19.5871V19.4939V19.4007L39.8885 19.4939L39.7944 19.5871L39.7003 19.6802H39.6063L39.5122 19.7734L39.324 19.8666L39.23 19.9598H39.0418L38.9477 20.0529H38.7596H38.6655L38.4774 20.1461H38.2892H38.1951H38.007L37.9129 20.0529H37.6307L37.5366 19.9598H37.3484L37.1603 19.8666L37.0662 19.7734L36.9721 19.6802L36.878 19.5871L36.784 19.4007V19.3075L36.6899 19.2144V19.1212L36.5958 18.9348V18.8417V18.7485V18.5621V18.469V18.2826V18.0963L36.6899 17.9099L36.784 17.7236V17.5372L36.9721 17.3509L37.0662 17.2577L37.1603 17.0714L37.3484 16.9782L37.4425 16.885L37.6307 16.7918L37.8188 16.6987L37.9129 16.6055L38.101 16.5123H38.2892L38.4774 16.4191H38.5714H38.6655H38.7596H38.8537H38.9477H39.0418L39.1359 16.326H39.23H39.324H39.4181H39.5122H39.6063H39.7944H39.8885H39.9826H40.1707H40.2648H40.3589L40.453 16.2328V16.1396V16.0464V15.8601L40.3589 15.7669L40.2648 15.6737V15.5806H40.1707L39.9826 15.4874H39.8885H39.7944H39.6063L39.4181 15.3942H39.324L39.1359 15.4874H38.9477H38.7596H38.5714H38.3833H38.2892L38.101 15.5806H37.9129H37.8188L37.7247 15.6737H37.6307H37.5366L37.4425 15.7669L37.8188 14.4625L38.007 14.3693H38.101L38.1951 14.2761H38.3833H38.4774H38.5714L38.7596 14.183H38.9477H39.0418H39.23H39.4181H39.5122H39.7003H39.8885H40.0767H40.2648H40.453L40.547 14.2761H40.7352H40.9233L41.1115 14.3693L41.2997 14.4625L41.3937 14.5557L41.5819 14.6488L41.676 14.742L41.8641 14.9284L41.9582 15.0215L42.0523 15.2079V15.3942L42.1463 15.5806V15.7669L42.0523 15.9533L41.4878 18.8417ZM40.1707 17.4441V17.3509H40.0767H39.9826H39.8885H39.7944H39.7003H39.6063H39.5122H39.4181H39.324V17.4441H39.23H39.1359H39.0418H38.9477L38.8537 17.5372L38.7596 17.6304H38.6655L38.5714 17.7236L38.4774 17.8167L38.3833 17.9099L38.2892 18.0031V18.0963V18.1894V18.3758V18.5621L38.3833 18.6553V18.7485H38.4774L38.5714 18.8417H38.6655H38.7596H38.9477H39.1359L39.23 18.7485H39.324H39.5122L39.6063 18.6553L39.7003 18.5621H39.7944L39.8885 18.469V18.3758H39.9826V18.2826L40.0767 18.1894V18.0963V18.0031L40.1707 17.9099V17.7236V17.5372V17.4441ZM51.8362 19.7734V18.9348H52.2125C52.2125 18.9348 52.3066 18.9348 52.4007 18.9348C52.4007 18.9348 52.4007 18.9348 52.4948 19.028V19.1212C52.4948 19.2144 52.4948 19.2144 52.4007 19.3075L52.3066 19.4007C52.3066 19.4007 52.3066 19.4007 52.4007 19.4007C52.4007 19.4939 52.4007 19.4939 52.4948 19.5871L52.5889 19.7734H52.4007L52.2125 19.5871C52.2125 19.4939 52.2125 19.4939 52.1185 19.4007H52.0244V19.7734H51.8362ZM52.0244 19.3075H52.1185C52.2125 19.3075 52.2125 19.2144 52.2125 19.2144C52.3066 19.2144 52.3066 19.2144 52.3066 19.2144C52.3066 19.2144 52.3066 19.2144 52.3066 19.1212C52.3066 19.028 52.3066 19.028 52.2125 19.028C52.2125 19.028 52.2125 19.028 52.1185 19.028H52.0244V19.3075ZM52.2125 18.5621C52.4007 18.5621 52.5889 18.6553 52.777 18.7485C52.8711 18.9348 52.9652 19.1212 52.9652 19.3075C52.9652 19.4939 52.8711 19.7734 52.777 19.8666C52.5889 20.0529 52.4007 20.0529 52.2125 20.0529C51.9303 20.0529 51.7422 20.0529 51.6481 19.8666C51.4599 19.7734 51.4599 19.4939 51.4599 19.3075C51.4599 19.1212 51.4599 18.9348 51.6481 18.7485C51.7422 18.6553 51.9303 18.5621 52.2125 18.5621ZM52.6829 18.8417C52.4948 18.7485 52.4007 18.6553 52.2125 18.6553C52.0244 18.6553 51.8362 18.7485 51.7422 18.8417C51.6481 19.028 51.554 19.1212 51.554 19.3075C51.554 19.4939 51.6481 19.6802 51.7422 19.7734C51.8362 19.8666 52.0244 19.9598 52.2125 19.9598C52.4007 19.9598 52.4948 19.8666 52.6829 19.7734C52.777 19.6802 52.777 19.4939 52.777 19.3075C52.777 19.1212 52.777 19.028 52.6829 18.8417ZM36.9721 14.5557H36.878V14.4625H36.784H36.6899L36.5958 14.3693H36.5017H36.4077L36.3136 14.2761H36.2195H36.1254H36.0314L35.9373 14.183H35.7491H35.6551H35.4669H35.3728H35.2787H35.0906H34.9965L34.8084 14.2761H34.6202L34.5261 14.3693L34.338 14.4625L34.1498 14.5557L34.0558 14.6488L33.8676 14.742L33.7735 14.9284L33.5854 15.1147L33.4913 15.3942L33.3972 15.6737L33.3031 15.9533L33.2091 16.326V16.5123L33.115 16.6987V16.885V17.0714L33.2091 17.2577V17.4441V17.6304L33.3031 17.7236L33.3972 17.9099L33.4913 18.0031L33.5854 18.1894L33.7735 18.2826L33.8676 18.3758L34.0558 18.469L34.2439 18.5621H34.4321H34.5261H34.6202L34.7143 18.6553H34.8084H34.9024H35.0906H35.1847H35.2787L35.4669 18.5621H35.561H35.7491L35.8432 18.469H36.0314L36.1254 18.3758L36.2195 18.2826L36.4077 18.1894L36.1254 19.5871V19.6802H36.0314L35.9373 19.7734L35.8432 19.8666H35.7491H35.6551L35.4669 19.9598H35.3728H35.1847L34.9965 20.0529H34.8084H34.5261H34.2439H33.9617L33.6794 19.9598H33.4913L33.2091 19.8666L32.9268 19.7734L32.7387 19.5871L32.5505 19.4007L32.2683 19.2144L32.0801 19.028L31.892 18.8417L31.7979 18.5621L31.6098 18.1894L31.5157 17.9099L31.4216 17.5372V17.1645V16.6987L31.5157 16.326V16.0464L31.6098 15.8601V15.6737L31.7038 15.3942L31.7979 15.2079V15.0215L31.892 14.8352L31.9861 14.742L32.0801 14.5557L32.1742 14.3693L32.2683 14.2761L32.3624 14.0898L32.4564 13.9966L32.5505 13.8103L32.6446 13.7171L32.7387 13.6239L32.9268 13.5307L33.0209 13.4376L33.115 13.3444L33.3031 13.2512L33.3972 13.158L33.5854 13.0649L33.7735 12.9717H33.8676L34.0558 12.8785H34.2439L34.4321 12.7853H34.6202H34.8084L34.9965 12.6922H35.1847H35.3728H35.561H35.7491H35.8432L36.0314 12.7853H36.2195H36.3136L36.5017 12.8785H36.5958H36.784L36.878 12.9717H36.9721H37.0662L37.1603 13.0649H37.2544L36.9721 14.5557Z" fill="white"/>
<path fill-rule="evenodd" clip-rule="evenodd" d="M16.1812 31.9792H17.0279L17.8746 31.886L18.6272 31.7929L19.4739 31.6997L20.2265 31.5133L20.9791 31.327L21.7317 31.0475L22.4843 30.7679L23.1429 30.3952L23.8955 30.1157L24.554 29.6499L25.2125 29.2772L25.8711 28.8113L26.4355 28.3454L27 27.8795L27.5645 27.3205L28.1289 26.7615L28.5993 26.2024L29.0697 25.5502L29.5401 24.9911L30.0105 24.3389L30.3868 23.5935L30.7631 22.9413L31.0453 22.1959L31.3275 21.4505L31.6098 20.7051L31.7979 19.9598L31.9861 19.2144V18.9348L31.892 18.8417L31.7979 18.5621L31.6098 18.1894L31.5157 17.9099L31.4216 17.5372V17.1645V16.6987L31.5157 16.326V16.0464L31.6098 15.8601V15.6737L31.7038 15.3942L31.7979 15.2079V15.0215L31.892 14.8352L31.9861 14.742L32.0801 14.5557L32.1742 14.3693V14.2761L32.0801 13.5307L31.9861 12.7853L31.7979 12.04L31.6098 11.2946L31.3275 10.5492L31.0453 9.80378L30.7631 9.05839L30.3868 8.40617L30.0105 7.75395L29.5401 7.10173L29.0697 6.44952L28.5993 5.7973L28.1289 5.23825L27.5645 4.67921L27 4.21334L26.4355 3.6543L25.8711 3.18842L25.2125 2.72255L24.554 2.34986L23.8955 1.97716L23.1429 1.60447L22.4843 1.23177L21.7317 0.952248L20.9791 0.7659L20.2265 0.486378L19.4739 0.30003L18.6272 0.206856L17.8746 0.113682L17.0279 0.0205078H16.1812H15.3345L14.4878 0.113682L13.7352 0.206856L12.8885 0.30003L12.1359 0.486378L11.3833 0.7659L10.6307 0.952248L9.87805 1.23177L9.12544 1.60447L8.4669 1.97716L7.80836 2.34986L7.14983 2.72255L6.49129 3.18842L5.92683 3.6543L5.26829 4.21334L4.70383 4.67921L4.23345 5.23825L3.66899 5.7973L3.19861 6.44952L2.72822 7.10173L2.35192 7.75395L1.97561 8.40617L1.5993 9.05839L1.223 9.80378L0.940767 10.5492L0.752613 11.2946L0.470383 12.04L0.28223 12.7853L0.188153 13.5307L0.0940767 14.3693L0 15.2079V15.9533V16.7918L0.0940767 17.6304L0.188153 18.469L0.28223 19.2144L0.470383 19.9598L0.752613 20.7051L0.940767 21.4505L1.223 22.1959L1.5993 22.9413L1.97561 23.5935L2.35192 24.3389L2.72822 24.9911L3.19861 25.5502L3.66899 26.2024L4.23345 26.7615L4.70383 27.3205L5.26829 27.8795L5.92683 28.3454L6.49129 28.8113L7.14983 29.2772L7.80836 29.6499L8.4669 30.1157L9.12544 30.3952L9.87805 30.7679L10.6307 31.0475L11.3833 31.327L12.1359 31.5133L12.8885 31.6997L13.7352 31.7929L14.4878 31.886L15.3345 31.9792H16.1812ZM3.01045 20.0529H1.50523L2.72822 12.9717H5.36237L5.55052 17.1645L7.33798 12.9717H10.0662L8.84321 20.0529H7.33798L8.27875 14.742H8.18467L6.02091 20.0529H4.32753V19.7734L4.23345 19.2144V18.3758L4.13937 17.4441V16.4191L4.0453 15.5806V15.0215V14.742H3.95122L3.01045 20.0529ZM19.2857 15.4874H19.1916H19.0976H19.0035H18.9094L18.8153 15.3942H18.7213H18.6272H18.5331H18.439H18.3449H18.2509H18.1568H17.9686H17.7805H17.6864L17.5923 15.4874H17.4983H17.4042V15.5806H17.3101L17.216 15.6737L17.122 15.7669V15.8601V15.9533V16.0464L17.216 16.1396V16.2328L17.4042 16.326L17.4983 16.4191L17.6864 16.5123H17.7805L17.9686 16.6055L18.1568 16.6987H18.3449L18.5331 16.7918L18.7213 16.885L18.8153 16.9782L19.0035 17.1645L19.0976 17.2577L19.1916 17.5372V17.7236L19.2857 18.0031L19.1916 18.3758V18.6553L19.0976 18.8417L19.0035 19.028L18.9094 19.2144L18.8153 19.4007L18.6272 19.4939L18.5331 19.6802L18.3449 19.7734L18.1568 19.8666H17.9686L17.7805 19.9598H17.5923L17.4042 20.0529H17.216H17.0279H16.9338H16.6516H16.4634H16.2753H16.0871H15.899H15.8049H15.6167H15.5226L15.4286 19.9598H15.3345H15.1463H15.0523L14.9582 19.8666H14.8641L14.77 19.7734L14.9582 18.6553H15.0523H15.1463H15.2404L15.3345 18.7485H15.4286H15.6167H15.7108L15.8049 18.8417H15.993H16.1812H16.2753H16.4634H16.6516H16.7456H16.9338H17.122L17.216 18.7485H17.3101L17.4042 18.6553V18.5621L17.4983 18.469V18.3758V18.2826V18.1894V18.0031L17.4042 17.9099L17.216 17.8167L17.122 17.7236L16.9338 17.6304H16.6516L16.4634 17.5372L16.2753 17.4441L16.0871 17.2577L15.899 17.1645L15.7108 16.9782L15.5226 16.7918L15.4286 16.5123V16.2328V15.8601V15.6737L15.5226 15.4874V15.301L15.6167 15.1147L15.7108 15.0215L15.8049 14.8352L15.899 14.742L15.993 14.5557L16.1812 14.4625L16.3693 14.3693L16.5575 14.2761H16.7456L17.0279 14.183H17.3101H17.5923H17.8746H18.0627H18.2509H18.439H18.6272H18.7213H18.9094H19.0035H19.0976H19.1916H19.2857V14.2761H19.3798H19.4739H19.5679L19.2857 15.4874ZM14.4878 18.8417L14.2997 20.0529H12.8885V19.7734L12.9826 19.5871V19.4939V19.4007L12.8885 19.4939L12.7944 19.5871L12.7003 19.6802H12.6063L12.5122 19.7734L12.324 19.8666L12.23 19.9598H12.0418L11.9477 20.0529H11.7596H11.5714L11.3833 20.1461H11.2892H11.101H10.9129L10.8188 20.0529H10.6307L10.4425 19.9598H10.2544L10.1603 19.8666L10.0662 19.7734L9.97213 19.6802L9.87805 19.5871L9.78397 19.4007L9.6899 19.3075V19.2144L9.59582 19.1212V18.9348L9.50174 18.8417V18.7485V18.5621V18.469V18.2826L9.59582 18.0963V17.9099L9.6899 17.7236L9.78397 17.5372L9.87805 17.3509L9.97213 17.2577L10.1603 17.0714L10.2544 16.9782L10.4425 16.885L10.5366 16.7918L10.7247 16.6987L10.9129 16.6055L11.101 16.5123H11.2892L11.4774 16.4191H11.5714H11.6655H11.7596H11.8537H11.9477H12.0418L12.1359 16.326H12.23H12.324H12.4181H12.5122H12.6063H12.7003H12.8885H12.9826H13.0767H13.1707H13.2648H13.3589V16.2328V16.1396L13.453 16.0464L13.3589 15.8601V15.7669L13.2648 15.6737L13.1707 15.5806H13.0767L12.9826 15.4874H12.7944H12.7003H12.5122L12.4181 15.3942H12.23L12.0418 15.4874H11.8537H11.6655H11.4774H11.3833H11.1951L11.007 15.5806H10.9129H10.7247L10.6307 15.6737H10.5366H10.4425L10.3484 15.7669L10.8188 14.4625L10.9129 14.3693H11.007L11.1951 14.2761H11.2892H11.3833H11.5714L11.6655 14.183H11.8537H12.0418H12.1359H12.324H12.5122H12.7003H12.7944H13.0767H13.2648H13.3589L13.547 14.2761H13.7352H13.9233L14.0174 14.3693L14.2056 14.4625L14.3937 14.5557L14.4878 14.6488L14.676 14.742L14.77 14.9284L14.8641 15.0215L14.9582 15.2079L15.0523 15.3942V15.5806V15.7669V15.9533L14.4878 18.8417ZM13.1707 17.4441V17.3509H13.0767H12.9826H12.8885H12.7944H12.7003H12.6063H12.5122H12.4181H12.324H12.23L12.1359 17.4441H12.0418H11.9477V17.5372H11.8537H11.7596L11.6655 17.6304L11.5714 17.7236H11.4774L11.3833 17.8167V17.9099L11.2892 18.0031L11.1951 18.0963V18.1894V18.3758V18.5621L11.2892 18.6553L11.3833 18.7485H11.4774L11.5714 18.8417H11.6655H11.7596H11.8537H12.0418L12.1359 18.7485H12.324H12.4181L12.5122 18.6553H12.6063L12.7003 18.5621L12.7944 18.469L12.8885 18.3758V18.2826H12.9826V18.1894V18.0963L13.0767 17.9099V17.7236L13.1707 17.5372V17.4441ZM27.4704 20.0529H29.0697L29.6341 16.9782V16.885V16.6987V16.6055L29.7282 16.5123V16.4191L29.8223 16.326V16.2328L29.9164 16.1396L30.0105 16.0464L30.1045 15.9533L30.2927 15.8601H30.3868L30.5749 15.7669H30.669L30.8571 15.6737H31.1394H31.2334H31.3275V15.4874V15.3942V15.301L31.4216 15.1147V14.9284L31.5157 14.8352V14.742L31.6098 14.6488L31.7038 14.5557V14.4625L31.7979 14.3693V14.2761V14.183H31.7038H31.6098H31.4216H31.2334L31.1394 14.2761H30.9512L30.8571 14.3693H30.7631L30.669 14.4625H30.5749L30.4808 14.5557L30.3868 14.6488L30.2927 14.742L30.1986 14.8352L30.1045 14.9284L30.0105 15.0215V15.1147L29.9164 15.2079L30.1045 14.2761H28.5052L27.4704 20.0529ZM23.9895 17.5372V17.6304V17.7236V17.8167V17.9099L24.0836 18.0031V18.0963L24.1777 18.1894V18.2826L24.2718 18.3758L24.3659 18.469L24.4599 18.5621L24.554 18.6553H24.6481L24.7422 18.7485H24.8362H25.0244L25.1185 18.8417H25.3066H25.4007H25.5889H25.6829H25.8711H25.9652H26.1533H26.2474L26.4355 18.7485H26.5296H26.7178L26.9059 18.6553L27 18.5621L27.1882 18.469L27.3763 18.3758L27.0941 19.7734H27H26.9059V19.8666H26.8118H26.7178L26.6237 19.9598H26.5296H26.4355H26.3415H26.2474L26.1533 20.0529H25.9652H25.8711H25.6829H25.4948H25.3066H25.1185L24.8362 19.9598H24.554L24.2718 19.8666L23.9895 19.7734L23.7073 19.6802L23.5192 19.5871L23.2369 19.4007L23.0488 19.2144L22.8606 19.028L22.6725 18.7485L22.5784 18.469L22.4843 18.1894L22.3902 17.8167V17.4441V16.9782L22.4843 16.7918V16.6055L22.5784 16.4191V16.1396L22.6725 15.9533L22.7666 15.6737L22.8606 15.4874L23.0488 15.2079L23.2369 15.0215L23.4251 14.8352L23.7073 14.6488L23.9895 14.4625L24.2718 14.3693L24.6481 14.183H25.0244H25.4948H25.6829H25.8711H26.1533L26.3415 14.2761L26.5296 14.3693L26.8118 14.4625L27 14.5557L27.1882 14.742L27.2822 14.9284L27.4704 15.1147L27.5645 15.3942L27.6585 15.6737V15.9533V16.326V16.7918L27.5645 17.1645V17.5372L23.9895 17.6304L24.1777 16.5123H26.1533L26.2474 16.326L26.1533 16.2328V16.0464V15.9533V15.8601L26.0592 15.7669V15.6737H25.9652L25.8711 15.5806V15.4874H25.777L25.6829 15.3942H25.5889H25.4948H25.4007L25.3066 15.301H25.2125L25.1185 15.3942H25.0244H24.9303L24.8362 15.4874H24.7422L24.6481 15.5806V15.6737H24.554L24.4599 15.7669L24.3659 15.8601V15.9533L24.2718 16.0464V16.1396V16.2328L24.1777 16.4191L23.9895 17.5372ZM20.6028 12.9717H22.108L21.9199 14.2761H22.7666L22.5784 15.4874H21.6376L21.0732 18.469V18.5621L21.1672 18.6553V18.7485H21.2613L21.3554 18.8417H21.4495H21.6376L21.7317 18.9348L21.8258 18.8417H21.9199H22.0139H22.108H22.2021H22.2962V18.7485L22.108 19.7734L22.0139 19.8666H21.9199L21.8258 19.9598H21.7317H21.6376H21.5436H21.4495L21.3554 20.0529H21.2613H21.1672H20.7909H20.6028L20.4146 19.9598H20.2265H20.0383L19.9443 19.8666H19.8502L19.7561 19.7734L19.662 19.6802L19.5679 19.5871V19.4939V19.4007V19.3075V19.2144V19.1212V18.9348V18.8417L20.6028 12.9717Z" fill="#E6E6E6"/>
<path fill-rule="evenodd" clip-rule="evenodd" d="M26.1533 27.0411H33.6795V26.2025H25.4007L26.1533 27.0411ZM24.554 25.1776H33.6795V24.2459H23.9896L24.554 25.1776ZM23.4251 23.221H33.6795V22.3824H22.9547L23.4251 23.221ZM22.5784 21.2643H33.6795V20.4257H22.2962L22.5784 21.2643ZM29.1638 19.3076H32.3624L32.2683 19.2145L32.0802 19.0281L31.892 18.8418L31.7979 18.5623L31.7039 18.4691H29.3519L29.1638 19.3076ZM25.1185 6.17011H33.6795V5.33154H25.8711L25.1185 6.17011ZM23.8014 8.12676H33.6795V7.19502H24.3659L23.8014 8.12676ZM22.8607 9.99024H33.6795V9.15168H23.237L22.8607 9.99024ZM22.2021 11.9469H33.6795V11.1083H22.4843L22.2021 11.9469ZM21.9199 13.9036H32.5506V13.8104L32.6446 13.7172L32.7387 13.624L32.9269 13.5309L33.0209 13.4377L33.115 13.3445L33.3032 13.2513L33.3972 13.1582L33.5854 13.065H33.6795V12.9718H22.108V13.1582L21.9199 13.9036ZM29.5401 17.4442H31.4216V17.1646V16.6988L31.5157 16.5124H29.7283L29.6342 16.6056V16.6988V16.8851V16.9783L29.5401 17.4442ZM33.2091 17.4442H33.5854V16.5124H33.2091L33.115 16.6988V16.8851V17.0715L33.2091 17.2578V17.4442ZM21.5436 16.5124H22.4843V16.6056V16.7919L22.3903 16.9783V17.4442H21.5436V16.5124Z" fill="white"/>
</g>
<defs>
<clipPath id="clip0">
<rect width="54" height="32" fill="white"/>
</clipPath>
</defs>
</svg>
