<svg width="180" height="30" viewBox="0 0 180 30" fill="none" xmlns="http://www.w3.org/2000/svg">
<g clip-path="url(#clip0)">
<path d="M158.7 12.7723C157.8 13.3663 156.3 13.6634 154.5 13.6634H153.6H152.7L153.9 5.94059H154.8H155.4C156.9 5.94059 158.1 6.23762 159 6.53465C159.6 7.12871 160.2 7.72277 160.2 9.50495C160.2 11.2871 159.6 12.1782 158.7 12.7723ZM45.3 22.5743H30.6L31.5 17.2277H40.8L41.7 11.5842H32.7L33.6 6.53465H48.3L45.3 22.5743ZM166.8 2.07921C164.4 0.594059 161.1 0 156.9 0H145.8L141.6 22.5743H126.9L127.8 17.2277H136.5L137.7 11.5842H128.7L129.9 6.53465H138.9L140.1 0H121.5L117.6 21.3861H110.7L114.9 0H105L101.1 21.3861H94.5L98.4 0H88.8L84.6 22.5743H69.9L70.8 17.2277H79.5L80.7 11.5842H71.7L72.6 6.53465H81.9L83.1 0H25.2L21.9 17.8218L15.6 0H5.4L0 29.1089H9.6L12.9 10.6931L19.2 29.1089H53.7L57.9 6.53465H63.3L59.1 29.1089H149.7L152.4 14.8515L156.6 29.1089H166.2L161.7 17.5248L162.9 17.2277C165 16.6337 166.8 15.7426 168 14.2574C169.2 12.7723 169.8 10.6931 169.8 8.31683C169.8 5.64357 168.9 3.56436 166.8 2.07921Z" fill="white"/>
<path d="M174.6 25.5445H175.8C176.1 25.5445 176.4 25.5445 176.7 25.5445C176.7 25.2475 176.7 25.2475 177 25.2475C177 24.9505 177 24.9505 177 24.6535C177 24.3564 177 24.3564 176.7 24.0594C176.7 24.0594 176.4 24.0594 176.1 24.0594H174.6V25.5445ZM174 28.2178V23.7624L175.8 23.4653C176.4 23.4653 176.7 23.4653 177 23.4653C177 23.7624 177.3 23.7624 177.3 24.0594C177.6 24.0594 177.6 24.3564 177.6 24.6535C177.6 24.9505 177.6 25.2475 177.3 25.5445C177.3 25.8416 176.7 25.8416 176.4 26.1386C176.7 26.1386 176.7 26.1386 176.7 26.1386C177 26.4356 177 26.4356 177.3 26.7327L178.2 27.9208H177.3L176.7 27.0297C176.7 26.7327 176.4 26.7327 176.4 26.4356C176.1 26.4356 176.1 26.1386 176.1 26.1386C175.8 26.1386 175.8 26.1386 175.8 26.1386C175.5 26.1386 175.5 26.1386 175.2 26.1386H174.6V28.2178H174Z" fill="white"/>
<path d="M172.2 25.8417C172.2 24.9506 172.5 24.0595 173.1 23.4654C173.7 22.8714 174.6 22.2773 175.5 22.2773C177.6 22.2773 179.1 23.7625 179.4 25.5447V25.8417C179.4 27.6239 177.9 29.109 175.8 29.406C174 29.406 172.2 27.9209 172.2 25.8417ZM175.5 21.6833C174.3 21.6833 173.4 21.9803 172.5 22.8714C171.6 23.7625 171.3 24.9506 171.3 26.1387C171.6 28.515 173.4 30.2971 175.8 30.0001C178.2 30.0001 180 27.9209 180 25.5447C180 23.1684 177.9 21.3862 175.5 21.6833Z" fill="white"/>
</g>
<defs>
<clipPath id="clip0">
<rect width="180" height="30" fill="white"/>
</clipPath>
</defs>
</svg>
