<svg width="98" height="30" viewBox="0 0 98 30" fill="none" xmlns="http://www.w3.org/2000/svg">
<g clip-path="url(#clip0)">
<path fill-rule="evenodd" clip-rule="evenodd" d="M34.5882 29.6402L39.5052 0.529297H47.474L42.5571 29.6402H34.5882Z" fill="white"/>
<path fill-rule="evenodd" clip-rule="evenodd" d="M71.2111 1.20623C69.6851 0.698482 67.3114 0.0214844 64.09 0.0214844C56.2907 0.0214844 50.8651 3.91422 50.6955 9.66869C50.6955 13.7307 54.7647 16.1002 57.6471 17.4542C60.8685 18.9774 61.8858 19.8237 61.8858 21.1776C61.8858 23.0394 59.3426 23.8856 57.1384 23.8856C53.917 23.8856 52.2215 23.5471 49.6782 22.3624L48.4914 22.0239L47.4741 28.4554C49.3391 29.3016 52.7301 29.9786 56.2907 29.9786C64.5986 29.9786 70.0242 26.0859 70.1938 20.1622C70.1938 16.7772 67.9896 14.2384 63.4118 12.2074C60.699 10.8534 59.0035 10.0072 59.0035 8.6532C59.0035 7.46845 60.5294 6.11446 63.5813 6.11446C66.1246 6.11446 67.9896 6.62221 69.5156 7.12995L70.1938 7.46845L71.2111 1.20623Z" fill="white"/>
<path fill-rule="evenodd" clip-rule="evenodd" d="M91.7267 0.529297H85.4533C83.5882 0.529297 82.2318 1.03704 81.3841 2.89879L69.5156 29.6402H77.8235C77.8235 29.6402 79.1799 26.0859 79.519 25.2397C80.5363 25.2397 88.5052 25.2397 89.692 25.2397C90.0312 26.2552 90.7094 29.6402 90.7094 29.6402H98L91.7267 0.529297ZM81.8927 19.316C82.5709 17.6235 84.9446 11.192 84.9446 11.192C84.9446 11.192 85.6228 9.49951 86.1315 8.31476L86.6401 10.8535C86.6401 10.8535 88.1661 17.7927 88.5052 19.316H81.8927Z" fill="white"/>
<path fill-rule="evenodd" clip-rule="evenodd" d="M27.8062 0.529297L20.1765 20.3315L19.3287 16.2695C17.8028 11.6998 13.3945 6.62227 8.30795 4.08353L15.4291 29.6402H23.737L36.2837 0.529297H27.8062Z" fill="white"/>
<path fill-rule="evenodd" clip-rule="evenodd" d="M12.8858 0.529297H0.16955L0 1.20629C10.0035 3.57578 16.6159 9.33026 19.3287 16.2695L16.4464 3.06804C16.1073 1.20629 14.5813 0.529297 12.8858 0.529297Z" fill="#B3B3B3"/>
</g>
<defs>
<clipPath id="clip0">
<rect width="98" height="30" fill="white"/>
</clipPath>
</defs>
</svg>
