<svg width="153" height="31" viewBox="0 0 153 31" fill="none" xmlns="http://www.w3.org/2000/svg">
<path fill-rule="evenodd" clip-rule="evenodd" d="M79.305 19.6333C79.305 23.25 81.09 27.125 85.17 27.125C87.975 27.125 89.76 25.3167 90.27 22.2167H95.115C94.35 27.9 90.78 31 85.17 31C78.285 31 74.715 26.0917 74.715 19.6333C74.715 12.9167 78.285 7.75 85.425 7.75C90.27 7.75 94.605 10.3333 95.115 15.7583H90.27C90.015 13.175 87.975 11.625 85.425 11.625C82.875 11.625 79.305 12.9167 79.305 19.6333ZM117.045 27.125C117.3 27.125 117.81 27.125 118.32 27.125V30.4833C117.555 30.7417 116.025 31 115.26 31C113.22 31 111.945 30.225 111.435 28.4167C109.65 30.225 106.59 31 104.04 31C100.215 31 96.645 28.9333 96.645 24.5417C96.645 19.1167 100.98 18.0833 104.805 17.825C108.375 17.05 111.435 17.5667 111.435 14.725C111.435 12.1417 108.885 11.625 106.845 11.625C104.295 11.625 102.255 12.6583 102.255 14.9833H97.41C97.665 9.55833 102.51 7.75 107.355 7.75C111.435 7.75 116.025 9.55833 116.025 14.2083V25.575C116.025 26.6083 116.28 27.125 117.045 27.125ZM111.18 19.375C109.65 20.4083 107.355 20.4083 105.315 20.6667C103.275 20.925 101.235 21.7 101.235 24.2833C101.235 26.6083 104.04 27.125 105.825 27.125C107.865 27.125 111.18 26.0917 111.18 22.9917V19.375ZM148.155 0H153V30.4833H148.41V27.3833C147.135 29.9667 144.33 31 141.78 31C134.895 31 131.58 25.8333 131.58 19.1167C131.58 11.3667 136.17 7.75 141.015 7.75C143.565 7.75 146.625 8.78333 148.155 11.3667V0ZM148.41 19.375C148.41 14.4667 146.115 11.625 142.29 11.625C137.955 11.625 136.425 15.7583 136.425 19.6333C136.425 23.5083 138.21 27.125 142.29 27.125C146.625 27.125 148.41 23.25 148.41 19.375ZM132.6 8.00833C132.09 8.00833 131.835 7.75 130.815 7.75C127.755 7.75 124.95 10.3333 124.44 12.6583H124.185V8.525H119.85V30.4833H124.695V19.8917C124.695 14.9833 127.245 12.4 130.56 12.4C131.07 12.4 131.835 12.4 132.6 12.6583V8.00833ZM73.185 20.6667H57.375C57.375 24.025 59.16 27.125 63.24 27.125C66.045 27.125 67.575 25.8333 68.595 23.5083H72.93C71.91 28.4167 67.83 31 63.24 31C56.355 31 52.53 26.0917 52.53 19.375C52.53 13.175 56.61 7.75 62.985 7.75C69.87 7.75 74.205 13.95 73.185 20.6667ZM68.595 17.5667C68.34 14.4667 66.3 11.625 62.985 11.625C59.67 11.625 57.375 14.2083 57.375 17.5667H68.595ZM33.405 30.4833H38.25V8.525H33.405V30.4833ZM53.55 8.00833C53.04 8.00833 52.785 7.75 51.765 7.75C48.705 7.75 45.9 10.3333 45.39 12.6583V8.525H40.8V30.4833H45.645V19.8917C45.645 14.9833 48.195 12.4 51.51 12.4C52.275 12.4 52.785 12.4 53.55 12.6583V8.00833ZM33.405 4.90833H38.25V0H33.405V4.90833ZM22.185 24.8L18.36 8.525H13.515L9.435 24.8L5.1 8.525H0L6.63 30.4833H11.73L15.81 13.95L19.89 30.4833H24.735L31.62 8.525H26.775L22.185 24.8Z" fill="white"/>
</svg>
