<svg width="113" height="30" viewBox="0 0 113 30" fill="none" xmlns="http://www.w3.org/2000/svg">
<g clip-path="url(#clip0)">
<path fill-rule="evenodd" clip-rule="evenodd" d="M23.5555 4.88609C24.9415 4.88609 26.2321 3.79345 26.4453 2.44866C26.6586 1.09827 25.7102 0.00562474 24.3242 2.14551e-05C22.9438 -0.00558183 21.6476 1.08706 21.4344 2.43745C21.2211 3.78784 22.1695 4.88049 23.5555 4.88609Z" fill="#FEFEFE"/>
<path fill-rule="evenodd" clip-rule="evenodd" d="M89.7531 13.8737C90.202 11.6997 91.9696 9.85617 93.9504 9.85617C95.0671 9.85617 95.8695 10.6799 95.5777 11.6044L89.4613 15.8069C89.5455 14.7142 89.7531 13.8737 89.7531 13.8737ZM61.3201 18.9895L62.2909 13.4759C62.723 12.1703 64.2493 10.4277 65.8429 10.3268C66.4546 10.2876 67.1897 10.31 67.8799 10.8648C68.4747 11.5372 68.7777 12.5457 68.7777 13.7841C68.7777 17.7064 66.8642 20.4408 64.1595 20.4408C62.8072 20.4408 61.7466 19.746 61.3201 18.9895ZM112.995 6.27006C110.689 6.14679 107.681 8.96525 107.681 8.96525L106.722 6.56144H104.101L102.839 13.7336C102.755 14.2267 102.485 14.6694 102.093 14.9776L98.6191 17.712C98.6191 17.712 97.1938 18.7934 95.2298 20.0654C94.3376 20.508 93.5969 20.7041 92.8562 20.7041C91.2513 20.7041 90.2637 20.0878 89.7924 19.0288C89.7194 18.8382 89.6577 18.6365 89.6072 18.4236L98.5237 12.4057C99.8031 11.5091 99.7975 10.2708 99.6123 9.65445C99.0399 7.73813 97.306 6.29248 94.4442 6.29248C89.0965 6.29248 85.4267 10.848 85.4267 17.3085C85.4267 17.7456 85.4548 18.1714 85.5109 18.5861L82.9801 20.3623C82.4807 20.6649 81.7793 20.9339 81.336 20.9339C80.5728 20.9339 80.2474 20.3455 80.4774 19.0624L83.7938 0.577125L79.6301 0.565918L77.9748 9.76652C77.9018 10.1587 77.7222 10.5174 77.4473 10.8087L72.8964 15.5995C73.0087 14.8039 73.0704 13.969 73.0704 13.0893C73.0704 9.19498 71.2635 6.31489 68.2278 6.31489C65.2986 6.31489 63.1102 8.79154 63.1102 8.79154L61.9598 6.57825H59.3674L57.9421 14.6862C57.8803 15.0392 57.7232 15.3698 57.4932 15.6444L54.8502 18.7654C54.1151 19.5443 53.3407 20.5304 52.9592 20.5584C52.2633 20.6761 51.9659 20.4184 52.196 19.1296L53.2509 13.2574C54.0758 8.60664 52.6561 6.26446 48.6664 6.26446C46.2816 6.26446 43.4815 8.93723 43.4815 8.93723C42.8867 7.189 41.4333 6.26446 39.2225 6.26446C36.8096 6.26446 34.1834 9.07731 34.1834 9.07731L33.1004 6.56144H30.4743L29.1275 14.2379C29.0658 14.5909 28.9087 14.9271 28.673 15.2017L25.6541 18.7654C24.919 19.5443 24.1446 20.5304 23.7631 20.5584C23.0672 20.6761 22.7698 20.4184 22.9999 19.1296L25.2837 6.57264H21.1257L20.4467 10.2708C20.3569 10.7583 20.1437 11.2066 19.8182 11.582L13.7411 18.6029C12.1587 20.2895 10.1891 20.5304 9.78506 20.5641H5.48673L15.273 9.51437L15.7724 6.52221H3.20289L2.60247 9.88419H9.90851L0.475752 20.9283L0.00439453 24.0661C0.00439453 24.0661 8.83673 24.0997 8.98824 24.0661C11.5751 24.0661 13.8814 21.7744 14.8185 20.8442L19.5321 15.2914L18.6735 19.9589C18.146 22.9903 19.302 24.4191 21.8103 24.3743C23.3534 24.3463 24.4028 23.3209 25.4633 22.2618L28.2971 18.9447L27.3543 24.2958H31.518L33.3361 13.8121C33.5774 12.5121 35.2327 10.31 36.9835 10.31C38.8353 10.31 39.7163 11.2122 39.2898 13.6832L37.4212 24.2958H41.5512L43.5545 13.0108C43.6723 12.2712 45.019 10.1587 46.882 10.1587C48.8292 10.1587 49.4576 11.2122 49.0256 13.6832L47.8696 19.9589C47.3421 22.9903 48.4981 24.4191 51.0064 24.3743C52.5495 24.3463 53.5989 23.3209 54.6538 22.2618L57.1172 19.3874L56.2474 24.307L55.2486 30H59.4066L60.759 22.2506C61.3314 22.9791 62.1394 23.5674 63.1494 23.8868C63.3739 23.954 63.6096 24.0101 63.8565 24.0549C66.55 24.1894 68.9516 22.8838 71.084 20.6649L71.0952 20.6537L77.1387 14.4004L76.1511 19.8748C75.618 22.9062 76.7683 24.2902 79.2766 24.2958C80.9039 24.3014 82.4302 23.4946 84.0295 22.4243L86.1506 20.9059C86.1898 20.9843 86.2291 21.0683 86.2684 21.1468C87.2223 23.0071 88.9899 24.2342 91.6048 24.2622C91.6105 24.2622 91.6161 24.2622 91.6161 24.2622C94.3657 24.2622 97.0535 21.6735 98.6023 20.5865C99.0007 20.3063 100.51 19.096 102.126 17.7848L100.981 24.2958H105.14L106.958 13.8121C107.199 12.5121 108.86 10.31 110.611 10.31C111.278 10.31 111.823 10.4277 112.221 10.7023L112.995 6.27006Z" fill="#FEFEFE"/>
</g>
<defs>
<clipPath id="clip0">
<rect width="113" height="30" fill="white"/>
</clipPath>
</defs>
</svg>
