<svg width="115" height="20" viewBox="0 0 115 20" fill="none" xmlns="http://www.w3.org/2000/svg">
<path d="M19.7979 19.7518C20.2229 19.4419 20.4976 18.951 20.4976 18.398V1.41869C20.4976 0.865731 20.2229 0.374838 19.7979 0.0649414H36.4381C37.379 0.0649414 38.1432 0.798814 38.1432 1.7053V18.1114C38.1432 19.0179 37.379 19.7518 36.4381 19.7518H19.7979ZM25.156 10.0547V9.88478C25.1544 9.52969 25.0883 9.21476 24.9577 8.93999C24.8271 8.66521 24.6442 8.45343 24.409 8.30463C24.1738 8.15583 23.9061 8.08143 23.606 8.08143C23.3027 8.08143 23.0322 8.15667 22.7945 8.30716C22.5569 8.45766 22.3744 8.67113 22.247 8.94759C22.1197 9.22406 22.056 9.54321 22.056 9.90507V10.1131C22.0625 10.4614 22.131 10.77 22.2616 11.0388C22.3922 11.3077 22.5743 11.5144 22.8079 11.659C23.0415 11.8035 23.3092 11.8758 23.6109 11.8758C23.9126 11.8758 24.1815 11.801 24.4175 11.6514C24.6536 11.5017 24.8357 11.2882 24.9638 11.0109C25.092 10.7336 25.156 10.4149 25.156 10.0547ZM24.2874 9.9V10.0699C24.2857 10.4284 24.2265 10.7032 24.1097 10.8942C23.9929 11.0853 23.8266 11.1809 23.6109 11.1809C23.3838 11.1809 23.2126 11.0836 23.0975 10.8892C22.9823 10.6947 22.9247 10.4166 22.9247 10.0547L22.9271 9.78332C22.9515 9.11372 23.1778 8.77893 23.606 8.77893C23.825 8.77893 23.9933 8.87404 24.1109 9.06427C24.2285 9.25449 24.2874 9.53307 24.2874 9.9ZM26.3119 9.08075H25.5429V11.8251H26.363V9.88731C26.4408 9.75542 26.5601 9.68948 26.7207 9.68948C26.8618 9.68948 26.9591 9.72203 27.0127 9.78713C27.0662 9.85223 27.093 9.95411 27.093 10.0928V11.8251H27.9154V10.0573C27.9106 9.71399 27.8404 9.45698 27.7049 9.2862C27.5695 9.11542 27.3647 9.03003 27.0905 9.03003C26.771 9.03003 26.5203 9.15431 26.3386 9.40287L26.3119 9.08075ZM29.2343 11.8251V7.92925H28.4118V11.8251H29.2343ZM30.6042 11.8251V9.08075H29.7818V11.8251H30.6042ZM29.7331 8.37311C29.7331 8.49485 29.7753 8.59462 29.8596 8.6724C29.944 8.75018 30.0535 8.78907 30.1881 8.78907C30.3228 8.78907 30.4323 8.75018 30.5166 8.6724C30.601 8.59462 30.6432 8.49485 30.6432 8.37311C30.6432 8.25136 30.601 8.1516 30.5166 8.07382C30.4323 7.99604 30.3228 7.95715 30.1881 7.95715C30.0535 7.95715 29.944 7.99604 29.8596 8.07382C29.7753 8.1516 29.7331 8.25136 29.7331 8.37311ZM31.8623 9.08075H31.0933V11.8251H31.9134V9.88731C31.9912 9.75542 32.1105 9.68948 32.2711 9.68948C32.4122 9.68948 32.5095 9.72203 32.563 9.78713C32.6166 9.85223 32.6433 9.95411 32.6433 10.0928V11.8251H33.4658V10.0573C33.4609 9.71399 33.3908 9.45698 33.2553 9.2862C33.1199 9.11542 32.9151 9.03003 32.6409 9.03003C32.3213 9.03003 32.0707 9.15431 31.889 9.40287L31.8623 9.08075ZM35.1935 11.8758C35.4092 11.8758 35.6108 11.8323 35.7981 11.7452C35.9855 11.6581 36.1303 11.541 36.2325 11.3939L35.8578 10.9323C35.7118 11.1217 35.509 11.2164 35.2494 11.2164C35.0921 11.2164 34.9639 11.1724 34.865 11.0845C34.766 10.9965 34.7019 10.8757 34.6727 10.7218H36.303V10.3895C36.303 9.96171 36.196 9.62819 35.9819 9.38892C35.7677 9.14966 35.4757 9.03003 35.1059 9.03003C34.8431 9.03003 34.616 9.08878 34.4245 9.2063C34.2331 9.32382 34.0875 9.48995 33.9878 9.7047C33.888 9.91944 33.8381 10.1672 33.8381 10.4479V10.5189C33.8381 10.9213 33.963 11.2481 34.2128 11.4992C34.4627 11.7503 34.7895 11.8758 35.1935 11.8758ZM35.101 9.68948C35.2308 9.68948 35.3305 9.7271 35.4003 9.80235C35.47 9.87759 35.5033 9.9837 35.5001 10.1207V10.1866H34.6727C34.7181 9.85519 34.8609 9.68948 35.101 9.68948Z" fill="white"/>
<path d="M44.8435 7.90153C44.9459 7.90153 45.0391 7.86864 45.1231 7.80285C45.2072 7.73706 45.2492 7.64934 45.2492 7.53969C45.2492 7.42273 45.2017 7.33867 45.1067 7.2875C45.0116 7.23633 44.9239 7.21074 44.8435 7.21074H44.3282V7.90153H44.8435ZM45.326 9.46951L44.7229 8.38399H44.3282V9.46951H43.6593V6.6625H44.8654C44.997 6.6625 45.1249 6.67711 45.2492 6.70635C45.3735 6.73559 45.4868 6.78311 45.5891 6.8489C45.6915 6.91469 45.7737 7.00423 45.8358 7.11754C45.898 7.23084 45.929 7.37156 45.929 7.53969C45.929 7.72975 45.876 7.88691 45.7701 8.01118C45.6641 8.13545 45.5307 8.22682 45.3698 8.2853L46.1154 9.46951H45.326ZM42.2229 8.0989C42.2229 7.75533 42.2887 7.43187 42.4203 7.1285C42.5518 6.82514 42.7309 6.56198 42.9576 6.33903C43.1842 6.11608 43.4491 5.93881 43.7525 5.80723C44.0559 5.67565 44.3793 5.60986 44.7229 5.60986C45.0665 5.60986 45.3899 5.67565 45.6933 5.80723C45.9967 5.93881 46.2616 6.11608 46.4883 6.33903C46.7149 6.56198 46.894 6.82514 47.0255 7.1285C47.1571 7.43187 47.2229 7.75533 47.2229 8.0989C47.2229 8.44247 47.1571 8.7641 47.0255 9.06381C46.894 9.36352 46.7149 9.62485 46.4883 9.8478C46.2616 10.0708 45.9967 10.2462 45.6933 10.3741C45.3899 10.502 45.0665 10.566 44.7229 10.566C44.3793 10.566 44.0559 10.502 43.7525 10.3741C43.4491 10.2462 43.1842 10.0708 42.9576 9.8478C42.7309 9.62485 42.5518 9.36352 42.4203 9.06381C42.2887 8.7641 42.2229 8.44247 42.2229 8.0989ZM42.6176 8.0989C42.6176 8.38399 42.6725 8.65445 42.7821 8.9103C42.8918 9.16615 43.0416 9.39093 43.2317 9.58464C43.4217 9.77836 43.6447 9.93004 43.9005 10.0397C44.1564 10.1493 44.4305 10.2042 44.7229 10.2042C45.0153 10.2042 45.2894 10.1493 45.5453 10.0397C45.8011 9.93004 46.0241 9.77836 46.2141 9.58464C46.4042 9.39093 46.554 9.16615 46.6637 8.9103C46.7733 8.65445 46.8282 8.38399 46.8282 8.0989C46.8282 7.8065 46.7733 7.53238 46.6637 7.27653C46.554 7.02068 46.4042 6.79773 46.2141 6.60767C46.0241 6.41761 45.8011 6.26776 45.5453 6.15811C45.2894 6.04846 45.0153 5.99364 44.7229 5.99364C44.4305 5.99364 44.1564 6.04846 43.9005 6.15811C43.6447 6.26776 43.4217 6.41761 43.2317 6.60767C43.0416 6.79773 42.8918 7.02068 42.7821 7.27653C42.6725 7.53238 42.6176 7.8065 42.6176 8.0989Z" fill="white"/>
<path fill-rule="evenodd" clip-rule="evenodd" d="M50.3923 9.40576V6.43213H49.3303V5.82666H52.1746V6.43213H51.115V9.40576H50.3923ZM53.2927 9.40576H52.6067V6.81299H53.2439V7.18164C53.3529 7.00749 53.451 6.89274 53.5381 6.8374C53.6252 6.78206 53.724 6.75439 53.8347 6.75439C53.991 6.75439 54.1415 6.79753 54.2864 6.88379L54.074 7.48193C53.9584 7.40706 53.851 7.36963 53.7517 7.36963C53.6557 7.36963 53.5743 7.39608 53.5076 7.44897C53.4408 7.50187 53.3883 7.59749 53.3501 7.73584C53.3118 7.87419 53.2927 8.1639 53.2927 8.60498V9.40576ZM55.0945 7.604L54.4719 7.4917C54.5419 7.24105 54.6624 7.0555 54.8333 6.93506C55.0042 6.81462 55.2581 6.75439 55.595 6.75439C55.901 6.75439 56.1288 6.79061 56.2786 6.86304C56.4283 6.93547 56.5337 7.02742 56.5947 7.13892C56.6558 7.25041 56.6863 7.45508 56.6863 7.75293L56.679 8.55371C56.679 8.78158 56.6899 8.94963 56.7119 9.05786C56.7339 9.1661 56.775 9.28206 56.8352 9.40576H56.1565C56.1386 9.36019 56.1166 9.29264 56.0906 9.20313C56.0792 9.16244 56.071 9.13558 56.0662 9.12256C55.949 9.23649 55.8236 9.32194 55.6902 9.37891C55.5567 9.43587 55.4143 9.46436 55.2629 9.46436C54.996 9.46436 54.7856 9.39193 54.6318 9.24707C54.478 9.10221 54.4011 8.91911 54.4011 8.69775C54.4011 8.55127 54.4361 8.42066 54.5061 8.30591C54.5761 8.19116 54.6742 8.10327 54.8003 8.04224C54.9264 7.9812 55.1083 7.9279 55.3459 7.88232C55.6666 7.8221 55.8888 7.76595 56.0125 7.71387V7.64551C56.0125 7.51367 55.9799 7.41968 55.9148 7.36353C55.8497 7.30737 55.7268 7.2793 55.5461 7.2793C55.4241 7.2793 55.3289 7.3033 55.2605 7.35132C55.1921 7.39933 55.1368 7.48356 55.0945 7.604ZM56.0125 8.16065C55.9246 8.18994 55.7854 8.22494 55.595 8.26563C55.4045 8.30632 55.28 8.34619 55.2214 8.38525C55.1319 8.44873 55.0872 8.5293 55.0872 8.62695C55.0872 8.72298 55.123 8.80599 55.1946 8.87598C55.2662 8.94596 55.3573 8.98096 55.468 8.98096C55.5917 8.98096 55.7097 8.94027 55.822 8.85889C55.905 8.79704 55.9596 8.72136 55.9856 8.63184C56.0035 8.57324 56.0125 8.46175 56.0125 8.29736V8.16065ZM59.7405 9.40576H59.1033V9.0249C58.9975 9.17302 58.8726 9.28328 58.7285 9.35571C58.5845 9.42814 58.4392 9.46436 58.2927 9.46436C57.9949 9.46436 57.7397 9.34432 57.5273 9.10425C57.3149 8.86418 57.2087 8.5293 57.2087 8.09961C57.2087 7.66015 57.3121 7.32609 57.5188 7.09741C57.7255 6.86873 57.9867 6.75439 58.3025 6.75439C58.5922 6.75439 58.8429 6.87484 59.0544 7.11572V5.82666H59.7405V9.40576ZM57.9094 8.05322C57.9094 8.32992 57.9477 8.53011 58.0242 8.65381C58.1348 8.83285 58.2895 8.92236 58.488 8.92236C58.6459 8.92236 58.7802 8.85523 58.8909 8.72095C59.0015 8.58667 59.0569 8.38607 59.0569 8.11914C59.0569 7.82129 59.0032 7.60685 58.8958 7.47583C58.7883 7.34481 58.6508 7.2793 58.4832 7.2793C58.3204 7.2793 58.1841 7.34399 58.0742 7.47339C57.9644 7.60278 57.9094 7.79606 57.9094 8.05322ZM61.9182 8.58057L62.6018 8.69531C62.5139 8.94597 62.3752 9.1368 62.1855 9.26782C61.9959 9.39885 61.7587 9.46436 61.4739 9.46436C61.023 9.46436 60.6894 9.31706 60.4729 9.02246C60.302 8.78646 60.2166 8.48861 60.2166 8.12891C60.2166 7.69922 60.3289 7.36271 60.5535 7.11938C60.7781 6.87606 61.0621 6.75439 61.4055 6.75439C61.7913 6.75439 62.0956 6.88175 62.3186 7.13647C62.5416 7.3912 62.6482 7.78141 62.6384 8.30713H60.9197C60.9246 8.51058 60.9799 8.66886 61.0857 8.78198C61.1915 8.8951 61.3233 8.95166 61.4812 8.95166C61.5886 8.95166 61.679 8.92236 61.7522 8.86377C61.8254 8.80518 61.8808 8.71078 61.9182 8.58057ZM61.9573 7.88721C61.9524 7.68864 61.9011 7.53768 61.8035 7.43433C61.7058 7.33097 61.587 7.2793 61.447 7.2793C61.2973 7.2793 61.1736 7.33382 61.0759 7.44287C60.9783 7.55192 60.9303 7.70003 60.9319 7.88721H61.9573ZM63.1194 8.45117V7.76514H64.467V8.45117H63.1194ZM64.8113 6.81299H65.4436V7.16699C65.6698 6.89193 65.9392 6.75439 66.2517 6.75439C66.4177 6.75439 66.5618 6.78857 66.6838 6.85693C66.8059 6.92529 66.906 7.02865 66.9841 7.16699C67.0981 7.02865 67.221 6.92529 67.3528 6.85693C67.4846 6.78857 67.6254 6.75439 67.7752 6.75439C67.9656 6.75439 68.1267 6.79305 68.2585 6.87036C68.3904 6.94767 68.4889 7.0612 68.554 7.21094C68.6012 7.32162 68.6248 7.50065 68.6248 7.74805V9.40576H67.9387V7.92383C67.9387 7.66667 67.9151 7.50065 67.8679 7.42578C67.8044 7.32812 67.7068 7.2793 67.575 7.2793C67.4789 7.2793 67.3886 7.30859 67.304 7.36719C67.2193 7.42578 67.1583 7.51164 67.1209 7.62476C67.0834 7.73787 67.0647 7.9165 67.0647 8.16065V9.40576H66.3787V7.98486C66.3787 7.73258 66.3665 7.56982 66.342 7.49658C66.3176 7.42334 66.2798 7.36882 66.2285 7.33301C66.1772 7.2972 66.1077 7.2793 66.0198 7.2793C65.914 7.2793 65.8188 7.30778 65.7341 7.36475C65.6495 7.42171 65.5889 7.50391 65.5522 7.61133C65.5156 7.71875 65.4973 7.89697 65.4973 8.146V9.40576H64.8113V6.81299ZM69.821 7.604L69.1985 7.4917C69.2685 7.24105 69.3889 7.0555 69.5598 6.93506C69.7307 6.81462 69.9846 6.75439 70.3215 6.75439C70.6275 6.75439 70.8554 6.79061 71.0051 6.86304C71.1549 6.93547 71.2603 7.02742 71.3213 7.13892C71.3823 7.25041 71.4128 7.45508 71.4128 7.75293L71.4055 8.55371C71.4055 8.78158 71.4165 8.94963 71.4385 9.05786C71.4605 9.1661 71.5015 9.28206 71.5618 9.40576H70.8831C70.8652 9.36019 70.8432 9.29264 70.8171 9.20313C70.8057 9.16244 70.7976 9.13558 70.7927 9.12256C70.6755 9.23649 70.5502 9.32194 70.4168 9.37891C70.2833 9.43587 70.1409 9.46436 69.9895 9.46436C69.7226 9.46436 69.5122 9.39193 69.3584 9.24707C69.2046 9.10221 69.1277 8.91911 69.1277 8.69775C69.1277 8.55127 69.1627 8.42066 69.2327 8.30591C69.3027 8.19116 69.4007 8.10327 69.5269 8.04224C69.653 7.9812 69.8349 7.9279 70.0725 7.88232C70.3932 7.8221 70.6153 7.76595 70.739 7.71387V7.64551C70.739 7.51367 70.7065 7.41968 70.6414 7.36353C70.5763 7.30737 70.4534 7.2793 70.2727 7.2793C70.1506 7.2793 70.0554 7.3033 69.9871 7.35132C69.9187 7.39933 69.8634 7.48356 69.821 7.604ZM70.739 8.16065C70.6511 8.18994 70.512 8.22494 70.3215 8.26563C70.1311 8.30632 70.0066 8.34619 69.948 8.38525C69.8585 8.44873 69.8137 8.5293 69.8137 8.62695C69.8137 8.72298 69.8495 8.80599 69.9211 8.87598C69.9928 8.94596 70.0839 8.98096 70.1946 8.98096C70.3183 8.98096 70.4363 8.94027 70.5486 8.85889C70.6316 8.79704 70.6861 8.72136 70.7122 8.63184C70.7301 8.57324 70.739 8.46175 70.739 8.29736V8.16065ZM72.7459 9.40576H72.0598V6.81299H72.697V7.18164C72.8061 7.00749 72.9041 6.89274 72.9912 6.8374C73.0783 6.78206 73.1772 6.75439 73.2878 6.75439C73.4441 6.75439 73.5946 6.79753 73.7395 6.88379L73.5271 7.48193C73.4115 7.40706 73.3041 7.36963 73.2048 7.36963C73.1088 7.36963 73.0274 7.39608 72.9607 7.44897C72.894 7.50187 72.8415 7.59749 72.8032 7.73584C72.765 7.87419 72.7459 8.1639 72.7459 8.60498V9.40576ZM74.0105 9.40576V5.82666H74.6965V7.72607L75.4998 6.81299H76.3445L75.4583 7.76025L76.408 9.40576H75.6682L75.0164 8.24121L74.6965 8.57568V9.40576H74.0105ZM78.0461 8.07275C78.0461 7.84489 78.1023 7.62435 78.2146 7.41113C78.3269 7.19792 78.486 7.03516 78.6919 6.92285C78.8978 6.81055 79.1277 6.75439 79.3816 6.75439C79.7738 6.75439 80.0953 6.88175 80.346 7.13647C80.5966 7.3912 80.7219 7.71305 80.7219 8.10205C80.7219 8.49431 80.5954 8.81942 80.3423 9.07739C80.0892 9.33537 79.7706 9.46436 79.3865 9.46436C79.1488 9.46436 78.9222 9.41065 78.7065 9.30322C78.4909 9.1958 78.3269 9.03833 78.2146 8.83081C78.1023 8.62329 78.0461 8.37061 78.0461 8.07275ZM78.7493 8.10938C78.7493 8.36654 78.8103 8.56348 78.9324 8.7002C79.0544 8.83692 79.205 8.90527 79.384 8.90527C79.5631 8.90527 79.7132 8.83692 79.8345 8.7002C79.9557 8.56348 80.0164 8.36491 80.0164 8.10449C80.0164 7.85059 79.9557 7.65527 79.8345 7.51855C79.7132 7.38184 79.5631 7.31348 79.384 7.31348C79.205 7.31348 79.0544 7.38184 78.9324 7.51855C78.8103 7.65527 78.7493 7.85221 78.7493 8.10938ZM80.9587 6.81299H81.3396V6.61768C81.3396 6.39958 81.3628 6.23682 81.4092 6.12939C81.4556 6.02197 81.541 5.93449 81.6655 5.86694C81.79 5.7994 81.9475 5.76562 82.1379 5.76562C82.3333 5.76562 82.5245 5.79492 82.7117 5.85352L82.6189 6.33203C82.5098 6.30599 82.4049 6.29297 82.304 6.29297C82.2047 6.29297 82.1335 6.31616 82.0903 6.36255C82.0472 6.40894 82.0256 6.49805 82.0256 6.62988V6.81299H82.5383V7.35254H82.0256V9.40576H81.3396V7.35254H80.9587V6.81299ZM84.2961 9.40576V5.82666H85.0188V9.40576H84.2961ZM88.0608 9.40576H87.3748V8.08252C87.3748 7.80257 87.3601 7.6215 87.3308 7.53931C87.3015 7.45711 87.2539 7.39323 87.188 7.34766C87.1221 7.30208 87.0427 7.2793 86.95 7.2793C86.8311 7.2793 86.7245 7.31185 86.6301 7.37695C86.5357 7.44206 86.471 7.52832 86.436 7.63574C86.401 7.74316 86.3835 7.94173 86.3835 8.23145V9.40576H85.6975V6.81299H86.3347V7.19385C86.561 6.90088 86.8458 6.75439 87.1892 6.75439C87.3406 6.75439 87.4789 6.78166 87.6043 6.83618C87.7296 6.89071 87.8244 6.96029 87.8887 7.04492C87.953 7.12956 87.9977 7.22559 88.023 7.33301C88.0482 7.44043 88.0608 7.59424 88.0608 7.79443V9.40576ZM89.9456 6.81299V7.35986H89.4768V8.40479C89.4768 8.61638 89.4813 8.73967 89.4902 8.77466C89.4992 8.80965 89.5195 8.83854 89.5513 8.86133C89.583 8.88412 89.6217 8.89551 89.6672 8.89551C89.7307 8.89551 89.8227 8.87354 89.9431 8.82959L90.0017 9.36182C89.8422 9.43018 89.6615 9.46436 89.4597 9.46436C89.336 9.46436 89.2245 9.4436 89.1252 9.4021C89.026 9.3606 88.9531 9.30689 88.9067 9.24097C88.8604 9.17505 88.8282 9.08594 88.8103 8.97363C88.7957 8.89388 88.7883 8.73275 88.7883 8.49023V7.35986H88.4734V6.81299H88.7883V6.29785L89.4768 5.89746V6.81299H89.9456ZM91.9231 8.58057L92.6067 8.69531C92.5188 8.94597 92.3801 9.1368 92.1904 9.26782C92.0008 9.39885 91.7636 9.46436 91.4788 9.46436C91.0279 9.46436 90.6943 9.31706 90.4778 9.02246C90.3069 8.78646 90.2214 8.48861 90.2214 8.12891C90.2214 7.69922 90.3337 7.36271 90.5584 7.11938C90.783 6.87606 91.067 6.75439 91.4104 6.75439C91.7962 6.75439 92.1005 6.88175 92.3235 7.13647C92.5465 7.3912 92.6531 7.78141 92.6433 8.30713H90.9246C90.9294 8.51058 90.9848 8.66886 91.0906 8.78198C91.1964 8.8951 91.3282 8.95166 91.4861 8.95166C91.5935 8.95166 91.6838 8.92236 91.7571 8.86377C91.8303 8.80518 91.8857 8.71078 91.9231 8.58057ZM91.9622 7.88721C91.9573 7.68864 91.906 7.53768 91.8084 7.43433C91.7107 7.33097 91.5919 7.2793 91.4519 7.2793C91.3022 7.2793 91.1785 7.33382 91.0808 7.44287C90.9832 7.55192 90.9351 7.70003 90.9368 7.88721H91.9622ZM93.8591 9.40576H93.1731V6.81299H93.8103V7.18164C93.9194 7.00749 94.0174 6.89274 94.1045 6.8374C94.1916 6.78206 94.2905 6.75439 94.4011 6.75439C94.5574 6.75439 94.7079 6.79753 94.8528 6.88379L94.6404 7.48193C94.5248 7.40706 94.4174 7.36963 94.3181 7.36963C94.2221 7.36963 94.1407 7.39608 94.074 7.44897C94.0072 7.50187 93.9548 7.59749 93.9165 7.73584C93.8783 7.87419 93.8591 8.1639 93.8591 8.60498V9.40576ZM95.6609 7.604L95.0383 7.4917C95.1083 7.24105 95.2288 7.0555 95.3997 6.93506C95.5706 6.81462 95.8245 6.75439 96.1614 6.75439C96.4674 6.75439 96.6952 6.79061 96.845 6.86304C96.9947 6.93547 97.1001 7.02742 97.1611 7.13892C97.2222 7.25041 97.2527 7.45508 97.2527 7.75293L97.2454 8.55371C97.2454 8.78158 97.2564 8.94963 97.2783 9.05786C97.3003 9.1661 97.3414 9.28206 97.4016 9.40576H96.7229C96.705 9.36019 96.683 9.29264 96.657 9.20313C96.6456 9.16244 96.6375 9.13558 96.6326 9.12256C96.5154 9.23649 96.3901 9.32194 96.2566 9.37891C96.1231 9.43587 95.9807 9.46436 95.8293 9.46436C95.5624 9.46436 95.3521 9.39193 95.1982 9.24707C95.0444 9.10221 94.9675 8.91911 94.9675 8.69775C94.9675 8.55127 95.0025 8.42066 95.0725 8.30591C95.1425 8.19116 95.2406 8.10327 95.3667 8.04224C95.4928 7.9812 95.6747 7.9279 95.9124 7.88232C96.233 7.8221 96.4552 7.76595 96.5789 7.71387V7.64551C96.5789 7.51367 96.5463 7.41968 96.4812 7.36353C96.4161 7.30737 96.2932 7.2793 96.1126 7.2793C95.9905 7.2793 95.8953 7.3033 95.8269 7.35132C95.7585 7.39933 95.7032 7.48356 95.6609 7.604ZM96.5789 8.16065C96.491 8.18994 96.3518 8.22494 96.1614 8.26563C95.971 8.30632 95.8464 8.34619 95.7878 8.38525C95.6983 8.44873 95.6536 8.5293 95.6536 8.62695C95.6536 8.72298 95.6894 8.80599 95.761 8.87598C95.8326 8.94596 95.9238 8.98096 96.0344 8.98096C96.1581 8.98096 96.2761 8.94027 96.3884 8.85889C96.4714 8.79704 96.526 8.72136 96.552 8.63184C96.5699 8.57324 96.5789 8.46175 96.5789 8.29736V8.16065ZM100.19 7.57959L99.5134 7.70166C99.4906 7.56657 99.439 7.46484 99.3584 7.39648C99.2778 7.32812 99.1733 7.29395 99.0447 7.29395C98.8738 7.29395 98.7375 7.35295 98.6357 7.47095C98.534 7.58895 98.4832 7.78629 98.4832 8.06299C98.4832 8.37061 98.5348 8.58789 98.6382 8.71484C98.7415 8.8418 98.8803 8.90527 99.0544 8.90527C99.1847 8.90527 99.2913 8.86825 99.3743 8.79419C99.4573 8.72013 99.5159 8.59277 99.5501 8.41211L100.224 8.52686C100.154 8.8361 100.02 9.06966 99.821 9.22754C99.6225 9.38542 99.3564 9.46436 99.0227 9.46436C98.6435 9.46436 98.3412 9.34473 98.1157 9.10547C97.8903 8.86621 97.7776 8.535 97.7776 8.11182C97.7776 7.68375 97.8907 7.35051 98.1169 7.11206C98.3432 6.87362 98.6492 6.75439 99.0349 6.75439C99.3507 6.75439 99.6017 6.82235 99.7881 6.95825C99.9745 7.09416 100.108 7.30127 100.19 7.57959ZM104.394 8.08984L105.094 8.31201C104.987 8.70264 104.808 8.99276 104.559 9.18237C104.309 9.37199 103.992 9.4668 103.608 9.4668C103.132 9.4668 102.742 9.30445 102.436 8.97974C102.13 8.65503 101.977 8.2111 101.977 7.64795C101.977 7.05224 102.131 6.5896 102.438 6.26001C102.746 5.93042 103.15 5.76562 103.652 5.76562C104.089 5.76562 104.445 5.89502 104.719 6.15381C104.881 6.3068 105.003 6.52653 105.085 6.81299L104.369 6.98389C104.327 6.79834 104.239 6.65186 104.104 6.54443C103.97 6.43701 103.807 6.3833 103.615 6.3833C103.35 6.3833 103.134 6.47851 102.969 6.66895C102.804 6.85938 102.721 7.1678 102.721 7.59424C102.721 8.04671 102.803 8.36898 102.966 8.56104C103.128 8.75309 103.34 8.84912 103.6 8.84912C103.792 8.84912 103.958 8.78809 104.096 8.66602C104.234 8.54395 104.334 8.35189 104.394 8.08984ZM105.551 8.07275C105.551 7.84489 105.607 7.62435 105.719 7.41113C105.832 7.19792 105.991 7.03516 106.197 6.92285C106.403 6.81055 106.633 6.75439 106.886 6.75439C107.279 6.75439 107.6 6.88175 107.851 7.13647C108.101 7.3912 108.227 7.71305 108.227 8.10205C108.227 8.49431 108.1 8.81942 107.847 9.07739C107.594 9.33537 107.275 9.46436 106.891 9.46436C106.654 9.46436 106.427 9.41065 106.211 9.30322C105.996 9.1958 105.832 9.03833 105.719 8.83081C105.607 8.62329 105.551 8.37061 105.551 8.07275ZM106.254 8.10938C106.254 8.36654 106.315 8.56348 106.437 8.7002C106.559 8.83692 106.71 8.90527 106.889 8.90527C107.068 8.90527 107.218 8.83692 107.339 8.7002C107.461 8.56348 107.521 8.36491 107.521 8.10449C107.521 7.85059 107.461 7.65527 107.339 7.51855C107.218 7.38184 107.068 7.31348 106.889 7.31348C106.71 7.31348 106.559 7.38184 106.437 7.51855C106.315 7.65527 106.254 7.85221 106.254 8.10938ZM109.421 9.40576H108.735V6.81299H109.372V7.18164C109.481 7.00749 109.579 6.89274 109.666 6.8374C109.753 6.78206 109.852 6.75439 109.963 6.75439C110.119 6.75439 110.269 6.79753 110.414 6.88379L110.202 7.48193C110.086 7.40706 109.979 7.36963 109.88 7.36963C109.784 7.36963 109.702 7.39608 109.636 7.44897C109.569 7.50187 109.516 7.59749 109.478 7.73584C109.44 7.87419 109.421 8.1639 109.421 8.60498V9.40576ZM110.69 6.81299H111.33V7.19385C111.413 7.06364 111.525 6.95785 111.667 6.87646C111.808 6.79508 111.965 6.75439 112.138 6.75439C112.439 6.75439 112.695 6.87239 112.905 7.1084C113.115 7.3444 113.219 7.67318 113.219 8.09473C113.219 8.52767 113.114 8.86418 112.902 9.10425C112.691 9.34432 112.434 9.46436 112.133 9.46436C111.99 9.46436 111.86 9.43587 111.744 9.37891C111.627 9.32194 111.505 9.22429 111.376 9.08594V10.3921H110.69V6.81299ZM111.369 8.06543C111.369 8.35677 111.427 8.57202 111.542 8.71118C111.658 8.85034 111.799 8.91992 111.965 8.91992C112.124 8.91992 112.257 8.85604 112.363 8.72827C112.468 8.6005 112.521 8.39095 112.521 8.09961C112.521 7.8278 112.467 7.62598 112.358 7.49414C112.249 7.3623 112.114 7.29639 111.952 7.29639C111.785 7.29639 111.646 7.36108 111.535 7.49048C111.424 7.61987 111.369 7.81152 111.369 8.06543ZM113.764 9.40576V8.71973H114.45V9.40576H113.764ZM49.5818 11.8267H50.3044V13.7651C50.3044 14.0728 50.3134 14.2721 50.3313 14.3633C50.3622 14.5098 50.4359 14.6274 50.5522 14.7161C50.6686 14.8048 50.8277 14.8491 51.0295 14.8491C51.2346 14.8491 51.3892 14.8072 51.4934 14.7234C51.5976 14.6396 51.6602 14.5366 51.6814 14.4146C51.7026 14.2925 51.7131 14.0898 51.7131 13.8066V11.8267H52.4358V13.7065C52.4358 14.1362 52.4163 14.4398 52.3772 14.6172C52.3381 14.7946 52.2661 14.9443 52.1611 15.0664C52.0562 15.1885 51.9158 15.2857 51.74 15.3582C51.5642 15.4306 51.3347 15.4668 51.0515 15.4668C50.7097 15.4668 50.4505 15.4273 50.2739 15.3484C50.0973 15.2694 49.9578 15.1669 49.8552 15.0408C49.7527 14.9146 49.6851 14.7824 49.6526 14.644C49.6054 14.439 49.5818 14.1362 49.5818 13.7358V11.8267ZM52.9509 14.666L53.6394 14.561C53.6687 14.6945 53.7281 14.7958 53.8176 14.865C53.9071 14.9342 54.0325 14.9688 54.1936 14.9688C54.371 14.9688 54.5045 14.9362 54.594 14.8711C54.6542 14.8255 54.6843 14.7645 54.6843 14.688C54.6843 14.6359 54.6681 14.5928 54.6355 14.5586C54.6013 14.526 54.5248 14.4959 54.406 14.4683C53.8526 14.3462 53.5019 14.2347 53.3538 14.1338C53.1487 13.9938 53.0461 13.7993 53.0461 13.5503C53.0461 13.3257 53.1348 13.1369 53.3123 12.9839C53.4897 12.8309 53.7647 12.7544 54.1375 12.7544C54.4923 12.7544 54.7559 12.8122 54.9285 12.9277C55.101 13.0433 55.2198 13.2142 55.2849 13.4404L54.6379 13.5601C54.6103 13.4591 54.5578 13.3818 54.4805 13.3281C54.4032 13.2744 54.2929 13.2476 54.1497 13.2476C53.969 13.2476 53.8396 13.2728 53.7615 13.3232C53.7094 13.3591 53.6833 13.4054 53.6833 13.4624C53.6833 13.5112 53.7061 13.5527 53.7517 13.5869C53.8136 13.6325 54.0272 13.6968 54.3926 13.7798C54.758 13.8628 55.0131 13.9645 55.158 14.085C55.3012 14.207 55.3728 14.3771 55.3728 14.5952C55.3728 14.8328 55.2735 15.0371 55.075 15.208C54.8764 15.3789 54.5826 15.4644 54.1936 15.4644C53.8404 15.4644 53.5609 15.3927 53.355 15.2495C53.1491 15.1063 53.0144 14.9118 52.9509 14.666ZM57.4749 14.5806L58.1584 14.6953C58.0706 14.946 57.9318 15.1368 57.7422 15.2678C57.5526 15.3988 57.3153 15.4644 57.0305 15.4644C56.5797 15.4644 56.246 15.3171 56.0295 15.0225C55.8586 14.7865 55.7732 14.4886 55.7732 14.1289C55.7732 13.6992 55.8855 13.3627 56.1101 13.1194C56.3347 12.8761 56.6187 12.7544 56.9622 12.7544C57.3479 12.7544 57.6523 12.8818 57.8752 13.1365C58.0982 13.3912 58.2048 13.7814 58.1951 14.3071H56.4763C56.4812 14.5106 56.5365 14.6689 56.6423 14.782C56.7481 14.8951 56.88 14.9517 57.0378 14.9517C57.1453 14.9517 57.2356 14.9224 57.3088 14.8638C57.3821 14.8052 57.4374 14.7108 57.4749 14.5806ZM57.5139 13.8872C57.509 13.6886 57.4578 13.5377 57.3601 13.4343C57.2625 13.331 57.1436 13.2793 57.0037 13.2793C56.8539 13.2793 56.7302 13.3338 56.6326 13.4429C56.5349 13.5519 56.4869 13.7 56.4885 13.8872H57.5139ZM61.1321 15.4058H60.4949V15.0249C60.3891 15.173 60.2642 15.2833 60.1201 15.3557C59.9761 15.4281 59.8308 15.4644 59.6843 15.4644C59.3865 15.4644 59.1313 15.3443 58.9189 15.1042C58.7065 14.8642 58.6003 14.5293 58.6003 14.0996C58.6003 13.6602 58.7037 13.3261 58.9104 13.0974C59.1171 12.8687 59.3783 12.7544 59.6941 12.7544C59.9838 12.7544 60.2345 12.8748 60.446 13.1157V11.8267H61.1321V15.4058ZM59.301 14.0532C59.301 14.3299 59.3393 14.5301 59.4158 14.6538C59.5264 14.8328 59.6811 14.9224 59.8796 14.9224C60.0375 14.9224 60.1718 14.8552 60.2825 14.7209C60.3931 14.5867 60.4485 14.3861 60.4485 14.1191C60.4485 13.8213 60.3948 13.6069 60.2874 13.4758C60.1799 13.3448 60.0424 13.2793 59.8748 13.2793C59.712 13.2793 59.5757 13.344 59.4658 13.4734C59.356 13.6028 59.301 13.7961 59.301 14.0532ZM64.9041 15.4058V15.0176C64.8097 15.1559 64.6856 15.265 64.5317 15.3447C64.3779 15.4245 64.2156 15.4644 64.0447 15.4644C63.8705 15.4644 63.7143 15.4261 63.5759 15.3496C63.4376 15.2731 63.3375 15.1657 63.2756 15.0273C63.2138 14.889 63.1829 14.6978 63.1829 14.4536V12.813H63.8689V14.0044C63.8689 14.369 63.8815 14.5924 63.9067 14.6746C63.932 14.7568 63.9779 14.8219 64.0447 14.8699C64.1114 14.9179 64.196 14.9419 64.2986 14.9419C64.4158 14.9419 64.5208 14.9097 64.6135 14.8455C64.7063 14.7812 64.7698 14.7014 64.804 14.6062C64.8381 14.511 64.8552 14.2778 64.8552 13.9067V12.813H65.5413V15.4058H64.9041ZM68.6101 15.4058H67.9241V14.0825C67.9241 13.8026 67.9094 13.6215 67.8801 13.5393C67.8508 13.4571 67.8032 13.3932 67.7373 13.3477C67.6714 13.3021 67.592 13.2793 67.4993 13.2793C67.3805 13.2793 67.2738 13.3118 67.1794 13.377C67.085 13.4421 67.0203 13.5283 66.9854 13.6357C66.9504 13.7432 66.9329 13.9417 66.9329 14.2314V15.4058H66.2468V12.813H66.884V13.1938C67.1103 12.9009 67.3951 12.7544 67.7385 12.7544C67.8899 12.7544 68.0282 12.7817 68.1536 12.8362C68.2789 12.8907 68.3737 12.9603 68.438 13.0449C68.5023 13.1296 68.547 13.2256 68.5723 13.333C68.5975 13.4404 68.6101 13.5942 68.6101 13.7944V15.4058ZM71.6838 15.4058H71.0466V15.0249C70.9408 15.173 70.8159 15.2833 70.6719 15.3557C70.5278 15.4281 70.3826 15.4644 70.2361 15.4644C69.9382 15.4644 69.6831 15.3443 69.4707 15.1042C69.2583 14.8642 69.1521 14.5293 69.1521 14.0996C69.1521 13.6602 69.2555 13.3261 69.4622 13.0974C69.6689 12.8687 69.9301 12.7544 70.2459 12.7544C70.5356 12.7544 70.7862 12.8748 70.9978 13.1157V11.8267H71.6838V15.4058ZM69.8528 14.0532C69.8528 14.3299 69.891 14.5301 69.9675 14.6538C70.0782 14.8328 70.2328 14.9224 70.4314 14.9224C70.5893 14.9224 70.7236 14.8552 70.8342 14.7209C70.9449 14.5867 71.0002 14.3861 71.0002 14.1191C71.0002 13.8213 70.9465 13.6069 70.8391 13.4758C70.7317 13.3448 70.5942 13.2793 70.4265 13.2793C70.2638 13.2793 70.1274 13.344 70.0176 13.4734C69.9077 13.6028 69.8528 13.7961 69.8528 14.0532ZM73.8616 14.5806L74.5452 14.6953C74.4573 14.946 74.3185 15.1368 74.1289 15.2678C73.9393 15.3988 73.7021 15.4644 73.4172 15.4644C72.9664 15.4644 72.6327 15.3171 72.4163 15.0225C72.2454 14.7865 72.1599 14.4886 72.1599 14.1289C72.1599 13.6992 72.2722 13.3627 72.4968 13.1194C72.7214 12.8761 73.0055 12.7544 73.3489 12.7544C73.7346 12.7544 74.039 12.8818 74.262 13.1365C74.4849 13.3912 74.5916 13.7814 74.5818 14.3071H72.863C72.8679 14.5106 72.9233 14.6689 73.0291 14.782C73.1349 14.8951 73.2667 14.9517 73.4246 14.9517C73.532 14.9517 73.6223 14.9224 73.6956 14.8638C73.7688 14.8052 73.8241 14.7108 73.8616 14.5806ZM73.9006 13.8872C73.8958 13.6886 73.8445 13.5377 73.7468 13.4343C73.6492 13.331 73.5304 13.2793 73.3904 13.2793C73.2406 13.2793 73.1169 13.3338 73.0193 13.4429C72.9216 13.5519 72.8736 13.7 72.8752 13.8872H73.9006ZM75.7976 15.4058H75.1116V12.813H75.7488V13.1816C75.8578 13.0075 75.9559 12.8927 76.043 12.8374C76.1301 12.7821 76.2289 12.7544 76.3396 12.7544C76.4959 12.7544 76.6464 12.7975 76.7913 12.8838L76.5789 13.4819C76.4633 13.4071 76.3559 13.3696 76.2566 13.3696C76.1606 13.3696 76.0792 13.3961 76.0125 13.449C75.9457 13.5019 75.8932 13.5975 75.855 13.7358C75.8167 13.8742 75.7976 14.1639 75.7976 14.605V15.4058ZM78.4758 15.4058V11.8267H79.1619V15.4058H78.4758ZM79.865 12.4614V11.8267H80.551V12.4614H79.865ZM79.865 15.4058V12.813H80.551V15.4058H79.865ZM83.5149 13.5796L82.8386 13.7017C82.8158 13.5666 82.7642 13.4648 82.6836 13.3965C82.603 13.3281 82.4985 13.2939 82.3699 13.2939C82.199 13.2939 82.0627 13.3529 81.9609 13.4709C81.8592 13.5889 81.8084 13.7863 81.8084 14.063C81.8084 14.3706 81.86 14.5879 81.9634 14.7148C82.0667 14.8418 82.2055 14.9053 82.3796 14.9053C82.5098 14.9053 82.6165 14.8682 82.6995 14.7942C82.7825 14.7201 82.8411 14.5928 82.8752 14.4121L83.5491 14.5269C83.4791 14.8361 83.3448 15.0697 83.1462 15.2275C82.9477 15.3854 82.6816 15.4644 82.3479 15.4644C81.9687 15.4644 81.6663 15.3447 81.4409 15.1055C81.2155 14.8662 81.1028 14.535 81.1028 14.1118C81.1028 13.6838 81.2159 13.3505 81.4421 13.1121C81.6684 12.8736 81.9744 12.7544 82.3601 12.7544C82.6759 12.7544 82.9269 12.8223 83.1133 12.9583C83.2996 13.0942 83.4335 13.3013 83.5149 13.5796ZM85.5364 14.5806L86.22 14.6953C86.1321 14.946 85.9933 15.1368 85.8037 15.2678C85.6141 15.3988 85.3769 15.4644 85.092 15.4644C84.6412 15.4644 84.3075 15.3171 84.0911 15.0225C83.9202 14.7865 83.8347 14.4886 83.8347 14.1289C83.8347 13.6992 83.947 13.3627 84.1716 13.1194C84.3962 12.8761 84.6803 12.7544 85.0237 12.7544C85.4094 12.7544 85.7138 12.8818 85.9368 13.1365C86.1598 13.3912 86.2664 13.7814 86.2566 14.3071H84.5378C84.5427 14.5106 84.5981 14.6689 84.7039 14.782C84.8097 14.8951 84.9415 14.9517 85.0994 14.9517C85.2068 14.9517 85.2971 14.9224 85.3704 14.8638C85.4436 14.8052 85.4989 14.7108 85.5364 14.5806ZM85.5754 13.8872C85.5706 13.6886 85.5193 13.5377 85.4216 13.4343C85.324 13.331 85.2052 13.2793 85.0652 13.2793C84.9154 13.2793 84.7918 13.3338 84.6941 13.4429C84.5964 13.5519 84.5484 13.7 84.5501 13.8872H85.5754ZM89.1741 15.4058H88.488V14.0825C88.488 13.8026 88.4734 13.6215 88.4441 13.5393C88.4148 13.4571 88.3672 13.3932 88.3013 13.3477C88.2354 13.3021 88.156 13.2793 88.0632 13.2793C87.9444 13.2793 87.8378 13.3118 87.7434 13.377C87.649 13.4421 87.5843 13.5283 87.5493 13.6357C87.5143 13.7432 87.4968 13.9417 87.4968 14.2314V15.4058H86.8108V12.813H87.448V13.1938C87.6742 12.9009 87.9591 12.7544 88.3025 12.7544C88.4539 12.7544 88.5922 12.7817 88.7175 12.8362C88.8429 12.8907 88.9377 12.9603 89.002 13.0449C89.0662 13.1296 89.111 13.2256 89.1362 13.333C89.1615 13.4404 89.1741 13.5942 89.1741 13.7944V15.4058ZM89.6282 14.666L90.3167 14.561C90.346 14.6945 90.4054 14.7958 90.4949 14.865C90.5844 14.9342 90.7097 14.9688 90.8709 14.9688C91.0483 14.9688 91.1817 14.9362 91.2712 14.8711C91.3315 14.8255 91.3616 14.7645 91.3616 14.688C91.3616 14.6359 91.3453 14.5928 91.3127 14.5586C91.2786 14.526 91.2021 14.4959 91.0833 14.4683C90.5299 14.3462 90.1791 14.2347 90.031 14.1338C89.8259 13.9938 89.7234 13.7993 89.7234 13.5503C89.7234 13.3257 89.8121 13.1369 89.9895 12.9839C90.1669 12.8309 90.442 12.7544 90.8147 12.7544C91.1695 12.7544 91.4332 12.8122 91.6057 12.9277C91.7782 13.0433 91.8971 13.2142 91.9622 13.4404L91.3152 13.5601C91.2875 13.4591 91.235 13.3818 91.1577 13.3281C91.0804 13.2744 90.9701 13.2476 90.8269 13.2476C90.6462 13.2476 90.5168 13.2728 90.4387 13.3232C90.3866 13.3591 90.3606 13.4054 90.3606 13.4624C90.3606 13.5112 90.3834 13.5527 90.429 13.5869C90.4908 13.6325 90.7044 13.6968 91.0698 13.7798C91.4352 13.8628 91.6903 13.9645 91.8352 14.085C91.9784 14.207 92.0501 14.3771 92.0501 14.5952C92.0501 14.8328 91.9508 15.0371 91.7522 15.208C91.5536 15.3789 91.2599 15.4644 90.8709 15.4644C90.5177 15.4644 90.2381 15.3927 90.0322 15.2495C89.8263 15.1063 89.6917 14.9118 89.6282 14.666ZM94.1521 14.5806L94.8357 14.6953C94.7478 14.946 94.6091 15.1368 94.4194 15.2678C94.2298 15.3988 93.9926 15.4644 93.7078 15.4644C93.2569 15.4644 92.9233 15.3171 92.7068 15.0225C92.5359 14.7865 92.4504 14.4886 92.4504 14.1289C92.4504 13.6992 92.5627 13.3627 92.7874 13.1194C93.012 12.8761 93.296 12.7544 93.6394 12.7544C94.0252 12.7544 94.3295 12.8818 94.5525 13.1365C94.7755 13.3912 94.8821 13.7814 94.8723 14.3071H93.1536C93.1585 14.5106 93.2138 14.6689 93.3196 14.782C93.4254 14.8951 93.5572 14.9517 93.7151 14.9517C93.8225 14.9517 93.9128 14.9224 93.9861 14.8638C94.0593 14.8052 94.1147 14.7108 94.1521 14.5806ZM94.1912 13.8872C94.1863 13.6886 94.135 13.5377 94.0374 13.4343C93.9397 13.331 93.8209 13.2793 93.6809 13.2793C93.5312 13.2793 93.4075 13.3338 93.3098 13.4429C93.2122 13.5519 93.1641 13.7 93.1658 13.8872H94.1912Z" fill="white"/>
<path d="M19.8318 18.1793C19.8318 19.0925 19.0912 19.8318 18.1794 19.8318H1.65309C0.739902 19.8318 0 19.0925 0 18.1793V1.65244C0 0.739277 0.739902 0 1.65309 0H18.1794C19.0912 0 19.8318 0.739277 19.8318 1.65244V18.1793ZM11.0554 10.1435L12.0206 9.91419L12.0197 7.94807C12.0197 7.49637 12.1896 7.20077 12.5265 7.06492C12.7974 6.95455 13.0045 6.96335 13.0045 6.96335V6.05473C13.0045 6.05473 12.9195 6.02895 12.7506 6.07204C12.2024 6.21478 11.9664 6.82848 11.9664 6.82848V6.36207L11.0538 6.58221L11.0554 10.1435ZM6.15006 11.3139L7.19669 11.0635C7.19669 11.0635 6.98091 10.9064 6.98091 10.0872C6.97994 9.73476 6.98091 8.28507 6.98091 8.28507L7.67264 8.11942V7.39149L6.98091 7.55677V6.76232L6.00154 6.99506V7.78951L5.5269 7.90265V8.63158L6.00091 8.51814V10.288C6.00091 11.0876 6.15006 11.3139 6.15006 11.3139ZM7.80268 9.19992C7.80268 10.2312 8.1127 10.9464 9.274 10.6683C10.5 10.3766 10.5979 9.53385 10.6059 9.19409C10.6069 9.11295 10.605 9.03997 10.605 9.03997L9.7225 9.25313C9.7225 9.25313 9.72087 9.35666 9.71638 9.3982C9.69093 9.65099 9.60079 9.85608 9.27623 9.92487C8.90085 10.0053 8.77624 9.72203 8.77624 9.12432V9.09351L10.6594 8.64763C10.6594 8.64763 10.6581 8.49837 10.6632 8.19267C10.6784 7.33798 10.293 6.70029 9.22407 6.94531C8.68161 7.06959 8.30909 7.34183 8.08246 7.75981C7.89153 8.11221 7.80268 8.57072 7.80268 9.19992ZM9.26306 7.60405C9.60947 7.52455 9.72795 7.72799 9.72955 8.11352C9.72955 8.19331 9.72955 8.24461 9.72796 8.26764L8.78043 8.49512C8.78756 7.9837 8.95108 7.67542 9.26306 7.60405ZM16.3887 7.10882C16.4261 8.22561 16.6653 8.93733 17.8852 8.64857C18.7716 8.44087 19.244 7.87062 19.2466 6.96641C19.2466 6.88895 19.2457 6.8184 19.2457 6.8184L18.304 7.04247C18.304 7.04247 18.302 7.18163 18.3013 7.2253C18.2955 7.50184 18.2467 7.81781 17.8901 7.89195C17.4794 7.9789 17.3857 7.66296 17.3857 6.97325C17.3857 6.94078 17.3844 6.89779 17.3844 6.65664C17.3844 5.97781 17.5285 5.63659 17.8852 5.54635C18.1852 5.47055 18.2994 5.62872 18.2991 6.04537C18.2991 6.04934 18.2994 6.17795 18.2994 6.17795L19.2434 5.95192L19.2424 5.88693C19.2424 5.53587 19.1874 5.28519 19.0455 5.09915C18.8978 4.90461 18.6063 4.70315 17.837 4.87935C16.6318 5.15427 16.3519 6.01913 16.3887 7.10882ZM13.0695 8.64069C13.0695 9.24831 13.4481 9.69053 14.1621 9.52222C14.8418 9.36209 15.0388 8.86523 15.0388 8.86523C15.0757 9.01497 15.16 9.18919 15.16 9.18919L16.0605 8.97572C16.0605 8.97572 15.9191 8.86429 15.9191 8.10071V6.52235C15.9175 5.8556 15.5918 5.42743 14.6165 5.65231C13.8658 5.82619 13.4304 6.15824 13.2838 6.65182C13.2057 6.91131 13.2204 7.19437 13.2204 7.19437L14.1376 6.97767C14.1376 6.97767 14.1347 6.88777 14.1435 6.79463C14.1595 6.6214 14.2388 6.40405 14.5381 6.32824C14.8637 6.2452 14.9552 6.41486 14.9516 6.61258C14.9486 6.84826 14.9349 6.9826 14.281 7.25319C13.5536 7.55425 13.0695 7.81539 13.0695 8.64069ZM14.9457 7.51369V8.01021C14.9457 8.38803 14.7432 8.66031 14.4515 8.73353C14.1801 8.8012 14.0301 8.64231 14.0301 8.40079C14.0301 8.12233 14.1664 7.94122 14.4662 7.79415C14.7582 7.65195 14.9457 7.51369 14.9457 7.51369ZM1.01674 13.7847C1.05564 13.7847 1.09519 13.7808 1.13216 13.7718C1.20642 13.7561 1.56481 13.6711 1.86476 13.5961L1.88565 13.5911V12.5493L0.562533 12.873L0.55194 12.8757L0.545828 12.8837C0.486343 12.9794 0.455156 13.0884 0.455156 13.2014C0.455156 13.5234 0.707171 13.7847 1.01674 13.7847ZM1.01674 15.1502C1.05564 15.1502 1.09519 15.1466 1.13216 15.1389C1.20642 15.1239 1.56481 15.0375 1.86476 14.9628L1.88565 14.9571V13.9148L0.562533 14.2389L0.55194 14.2412L0.545828 14.2516C0.486343 14.3449 0.455156 14.4539 0.455156 14.5684C0.455156 14.8898 0.707171 15.1502 1.01674 15.1502ZM1.01674 16.4506C1.05564 16.4506 1.09519 16.4463 1.13216 16.439C1.19609 16.424 1.54811 16.3416 1.86476 16.2623L1.88565 16.257V15.2152L0.55194 15.5409L0.545828 15.5515C0.486343 15.6445 0.455156 15.7541 0.455156 15.8681C0.455156 16.1897 0.707171 16.4506 1.01674 16.4506ZM0.845629 12.5493L1.88565 12.3045V6.63228L0.84529 6.87683L0.845629 12.5493ZM3.43689 12.0823C3.43689 11.7305 3.14748 11.4439 2.79183 11.4439C2.43417 11.4439 2.14574 11.7305 2.14574 12.0823L2.14638 17.3877C2.14638 18.3399 2.93058 19.1166 3.89364 19.1166C4.38219 19.1166 5.7206 19.1143 5.7206 19.1143L5.72128 16.901C5.72162 15.6917 5.72196 14.4608 5.72196 14.4329C5.72196 14.1528 5.58215 13.8932 5.34658 13.7371L3.71776 12.643C3.71776 12.643 3.71742 15.0187 3.71742 15.1274C3.71742 15.2036 3.65538 15.2659 3.57829 15.2659C3.50185 15.2659 3.44018 15.2036 3.44018 15.1274C3.44018 15.1008 3.43689 12.4104 3.43689 12.0823ZM4.3461 8.10148C3.66977 8.2567 3.41355 8.81851 3.41355 8.81851V8.41686L2.47085 8.63878L2.47183 11.2046C2.58155 11.1612 2.70175 11.1373 2.8276 11.1373C3.07163 11.1373 3.29399 11.2275 3.46449 11.3772V9.72056C3.46449 9.3238 3.66353 9.00676 3.94666 8.94467C4.16016 8.89793 4.33819 8.97408 4.33819 9.35189L4.33883 11.769L5.33183 11.537V8.98033C5.33183 8.36034 5.09267 7.92762 4.3461 8.10148ZM18.6289 4.48654C18.9692 4.48654 19.2466 4.2093 19.2466 3.86929C19.2466 3.52866 18.9692 3.25112 18.6289 3.25112C18.2886 3.25112 18.0112 3.52866 18.0112 3.86929C18.0112 4.2093 18.2886 4.48654 18.6289 4.48654Z" fill="white"/>
</svg>
