<svg width="99" height="30" viewBox="0 0 99 30" fill="none" xmlns="http://www.w3.org/2000/svg">
<g clip-path="url(#clip0)">
<path d="M12.4608 13.743H5.78701L4.78595 16.9274C4.45226 17.5978 4.28542 18.2682 4.28542 18.6034C4.28542 18.9385 4.45226 19.2737 4.61911 19.4413C4.95279 19.6089 5.45332 19.7765 6.28754 19.9441V20.4469H0.948547V19.9441C1.61592 19.7765 2.11645 19.6089 2.2833 19.2737C2.78383 18.7709 3.28436 17.933 3.78489 16.4246L9.62441 0H10.1249L15.9645 16.5922C16.2982 17.933 16.7987 18.7709 17.1324 19.2737C17.6329 19.6089 18.1334 19.7765 18.8008 19.9441V20.4469H12.1271V19.9441C12.7944 19.7765 13.295 19.7765 13.4618 19.4413C13.7955 19.2737 13.7955 18.9385 13.7955 18.6034C13.7955 18.2682 13.6287 17.5978 13.295 16.5922L12.4608 13.743ZM11.9602 12.7374L9.12388 4.69274L6.28754 12.7374H11.9602Z" fill="white"/>
<path d="M26.8093 5.36314L30.8135 16.4246L34.6509 5.36314H38.822V5.86594C38.3215 5.86594 37.9878 6.03354 37.821 6.03354C37.4873 6.20113 37.3204 6.36873 37.1536 6.70393C36.9868 6.87153 36.9868 7.20672 36.9868 7.54192C36.9868 7.87711 36.9868 8.37991 36.9868 8.7151V17.095C36.9868 17.4302 36.9868 17.7654 36.9868 18.1006C36.9868 18.4358 36.9868 18.771 37.1536 18.9386C37.3204 19.2738 37.4873 19.4414 37.6541 19.609C37.9878 19.7766 38.3215 19.7766 38.822 19.7766V20.4469H32.9825V19.7766C33.483 19.7766 33.8167 19.7766 33.9836 19.609C34.1504 19.4414 34.3173 19.1062 34.4841 18.9386C34.6509 18.6034 34.6509 18.2682 34.6509 17.933C34.6509 17.5978 34.6509 17.095 34.6509 16.7598V7.54192L30.313 20.4469H29.8125L25.6414 8.21231H25.4746V17.2626C25.4746 17.933 25.4746 18.2682 25.6414 18.6034C25.6414 18.9386 25.8082 19.2738 25.9751 19.4414C26.1419 19.609 26.3088 19.609 26.6425 19.7766C26.9761 19.7766 27.3098 19.7766 27.6435 19.7766V20.4469H22.8051V19.7766C23.3056 19.7766 23.6393 19.7766 23.973 19.609C24.1398 19.4414 24.3066 19.2738 24.4735 19.1062C24.6403 18.771 24.6403 18.6034 24.6403 18.2682C24.6403 17.933 24.6403 17.7654 24.6403 17.4302V9.38549C24.6403 8.8827 24.6403 8.37991 24.6403 7.87711C24.6403 7.37432 24.6403 7.03912 24.4735 6.70393C24.3066 6.53633 24.1398 6.20113 23.973 6.03354C23.6393 6.03354 23.3056 5.86594 22.8051 5.86594V5.36314H26.8093ZM43.3268 20.4469V19.7766C43.4937 19.7766 43.6605 19.7766 43.8273 19.7766C43.9942 19.7766 44.161 19.609 44.3279 19.4414C44.4947 19.2738 44.6616 18.9386 44.8284 18.6034C44.9952 18.2682 45.3289 17.7654 45.4958 17.095L49.6669 4.86035H50.0006L54.6722 17.933C54.839 18.4358 55.0059 18.771 55.1727 18.9386C55.3396 19.2738 55.5064 19.4414 55.6732 19.609C55.8401 19.609 56.0069 19.7766 56.1738 19.7766C56.3406 19.7766 56.5075 19.7766 56.6743 19.7766V20.4469H51.5021V19.7766C51.5021 19.7766 51.669 19.7766 51.8358 19.7766C51.8358 19.7766 52.0027 19.7766 52.1695 19.7766C52.3364 19.609 52.3364 19.609 52.5032 19.4414C52.5032 19.4414 52.6701 19.2738 52.6701 19.1062C52.6701 18.9386 52.6701 18.6034 52.5032 18.4358C52.5032 18.2682 52.3364 17.933 52.3364 17.7654L51.5021 15.7542H46.9974L46.33 17.7654C46.33 17.933 46.1632 18.1006 46.1632 18.2682C46.1632 18.4358 46.1632 18.6034 46.1632 18.771C46.1632 18.9386 46.1632 19.1062 46.33 19.2738C46.33 19.4414 46.4968 19.609 46.6637 19.609C46.6637 19.609 46.8305 19.7766 46.9974 19.7766C47.1642 19.7766 47.1642 19.7766 47.3311 19.7766V20.4469H43.3268ZM47.3311 14.7486H51.1685L49.1663 9.21789L47.3311 14.7486ZM69.8549 5.36314L70.0218 8.8827H69.5213C69.5213 8.37991 69.3544 7.87711 69.3544 7.54192C69.1876 7.20672 69.0207 7.03912 68.8539 6.70393C68.5202 6.53633 68.3534 6.53633 68.1865 6.36873C67.8528 6.36873 67.5191 6.36873 67.3523 6.36873H65.3502V17.2626C65.3502 17.5978 65.3502 17.933 65.517 18.2682C65.517 18.6034 65.517 18.9386 65.6839 19.1062C65.8507 19.2738 66.0175 19.4414 66.3512 19.609C66.5181 19.7766 66.8518 19.7766 67.3523 19.7766V20.4469H61.1791V19.7766C61.6796 19.7766 62.0133 19.7766 62.347 19.609C62.5138 19.4414 62.6807 19.2738 62.8475 19.1062C63.0144 18.9386 63.0144 18.6034 63.0144 18.2682C63.1812 17.933 63.1812 17.5978 63.1812 17.2626V6.36873H61.3459C60.8454 6.36873 60.5117 6.36873 60.178 6.53633C59.8443 6.53633 59.6775 6.70393 59.5106 7.03912C59.3438 7.20672 59.177 7.54192 59.177 7.87711C59.0101 8.21231 59.0101 8.5475 59.0101 8.8827H58.5096L58.6764 5.36314H69.8549ZM81.0335 20.4469H75.0271V19.7766C75.5276 19.7766 75.8613 19.7766 76.0282 19.609C76.3618 19.609 76.5287 19.4414 76.5287 19.1062C76.6955 18.9386 76.8624 18.771 76.8624 18.4358C76.8624 18.1006 76.8624 17.7654 76.8624 17.2626V8.37991C76.8624 8.04471 76.8624 7.87711 76.8624 7.54192C76.8624 7.20672 76.8624 6.87153 76.6955 6.70393C76.5287 6.36873 76.3618 6.20113 76.195 6.03354C75.8613 6.03354 75.5276 5.86594 75.0271 5.86594V5.36314H81.0335V5.86594C80.5329 5.86594 80.1992 6.03354 79.8656 6.03354C79.6987 6.20113 79.5319 6.36873 79.365 6.70393C79.1982 6.87153 79.1982 7.20672 79.1982 7.54192C79.1982 7.87711 79.1982 8.04471 79.1982 8.37991V17.2626C79.1982 17.7654 79.1982 18.1006 79.1982 18.4358C79.1982 18.771 79.365 18.9386 79.365 19.1062C79.5319 19.4414 79.6987 19.609 80.0324 19.609C80.1992 19.7766 80.5329 19.7766 81.0335 19.7766V20.4469ZM98.552 10.2235H98.0515C98.0515 10.0559 97.8847 9.88829 97.8847 9.55309C97.8847 9.38549 97.7178 9.21789 97.551 8.8827C97.551 8.7151 97.3841 8.5475 97.2173 8.21231C97.2173 8.04471 97.0504 7.87711 96.8836 7.54192C96.5499 7.37432 96.3831 7.03912 96.0494 6.87153C95.7157 6.70393 95.5489 6.36873 95.2152 6.36873C94.8815 6.20113 94.5478 6.03354 94.2141 5.86594C93.8804 5.86594 93.5467 5.86594 93.213 5.86594C92.7125 5.86594 92.0451 6.03354 91.5446 6.36873C91.0441 6.70393 90.5435 7.03912 90.2099 7.70951C89.7093 8.37991 89.3756 9.0503 89.2088 9.88829C89.042 10.7263 88.8751 11.7319 88.8751 12.7374C88.8751 13.743 89.042 14.581 89.2088 15.419C89.2088 16.0894 89.5425 16.7598 89.7093 17.2626C90.043 17.7654 90.2099 18.1006 90.5435 18.4358C90.8772 18.771 91.2109 19.1062 91.5446 19.2738C91.8783 19.4414 92.212 19.609 92.5457 19.609C92.8794 19.7766 93.213 19.7766 93.5467 19.7766C94.0473 19.7766 94.5478 19.7766 95.0483 19.4414C95.5489 19.2738 96.2162 18.9386 96.7168 18.4358C96.8836 18.2682 97.0504 17.933 97.2173 17.7654C97.3841 17.5978 97.3841 17.4302 97.551 17.2626C97.7178 16.9274 97.8847 16.7598 97.8847 16.5922C98.0515 16.257 98.0515 16.0894 98.2184 15.7542L98.7189 16.0894C98.552 16.257 98.552 16.5922 98.3852 16.7598C98.2184 17.095 98.0515 17.4302 97.8847 17.7654C97.7178 18.1006 97.551 18.4358 97.2173 18.771C96.8836 19.2738 96.5499 19.4414 96.2162 19.7766C95.7157 20.1118 95.2152 20.2793 94.7146 20.4469C94.2141 20.7821 93.7136 20.7821 93.0462 20.7821C92.0451 20.7821 91.3778 20.6145 90.5435 20.2793C89.7093 19.7766 89.042 19.2738 88.3746 18.6034C87.874 17.933 87.3735 17.095 86.873 16.257C86.5393 15.2514 86.3725 14.2458 86.3725 13.0726C86.3725 11.8995 86.5393 10.8939 86.873 9.88829C87.2067 8.8827 87.7072 8.04471 88.3746 7.20672C88.8751 6.53633 89.7093 6.03354 90.3767 5.53074C91.2109 5.19555 92.0451 4.86035 93.0462 4.86035C93.7136 4.86035 94.2141 5.02795 94.7146 5.19555C95.0483 5.36314 95.382 5.53074 95.7157 5.69834C95.8825 5.69834 96.0494 5.86594 96.2162 5.86594C96.3831 6.03354 96.5499 6.03354 96.5499 6.03354C96.7168 6.03354 96.7168 6.03354 96.7168 6.03354L96.8836 6.20113C96.8836 6.20113 96.8836 6.03354 97.0504 6.03354C97.0504 6.03354 97.2173 6.03354 97.2173 5.86594C97.3841 5.86594 97.3841 5.69834 97.3841 5.53074C97.551 5.36314 97.551 5.19555 97.551 4.86035H98.0515L98.552 10.2235Z" fill="white"/>
<path d="M0.281189 24.9722H1.11541V29.8325H0.281189V24.9722ZM10.125 24.9722H10.6255L11.7934 28.3241C11.7934 28.1565 11.7934 28.1565 11.7934 27.9889C11.7934 27.9889 11.7934 27.8213 11.7934 27.6537C11.7934 27.6537 11.7934 27.4861 11.7934 27.3185C11.7934 27.1509 11.7934 26.9833 11.7934 26.8157V24.9722H12.4608V29.8325H11.7934L10.6255 26.8157V26.9833C10.6255 27.1509 10.6255 27.1509 10.6255 27.3185C10.7923 27.4861 10.7923 27.6537 10.7923 27.8213C10.7923 27.9889 10.7923 28.1565 10.7923 28.4917V29.8325H10.125V24.9722ZM21.4703 24.9722H22.1377C22.3045 24.9722 22.4714 24.9722 22.6382 25.1398C22.6382 25.1398 22.8051 25.1398 22.9719 25.1398C22.9719 25.1398 23.1388 25.1398 23.3056 25.3074C23.3056 25.3074 23.4724 25.475 23.4724 25.6426C23.6393 25.6426 23.6393 25.8102 23.8061 25.9778C23.8061 26.3129 23.8061 26.4805 23.8061 26.8157V28.1565C23.8061 28.4917 23.8061 28.6593 23.8061 28.8269C23.6393 29.1621 23.6393 29.3297 23.4724 29.3297C23.4724 29.4973 23.3056 29.6649 23.3056 29.6649C23.1388 29.6649 22.9719 29.8325 22.9719 29.8325C22.8051 29.8325 22.6382 29.8325 22.6382 29.8325C22.4714 29.8325 22.3045 29.8325 22.1377 29.8325H21.4703V24.9722ZM22.3045 29.3297C22.4714 29.3297 22.6382 29.3297 22.6382 29.3297C22.8051 29.3297 22.8051 29.1621 22.9719 29.1621C22.9719 28.9945 22.9719 28.9945 22.9719 28.8269C22.9719 28.6593 22.9719 28.4917 22.9719 28.3241V26.8157C22.9719 26.4805 22.9719 26.3129 22.9719 26.1454C22.9719 25.9778 22.9719 25.9778 22.9719 25.8102C22.8051 25.8102 22.8051 25.6426 22.6382 25.6426C22.6382 25.6426 22.4714 25.6426 22.3045 25.6426H22.1377V29.3297H22.3045ZM32.6488 24.9722H33.3162V28.6593C33.3162 28.8269 33.3162 28.8269 33.3162 28.9945C33.3162 29.1621 33.4831 29.1621 33.4831 29.1621C33.4831 29.3297 33.4831 29.3297 33.6499 29.3297C33.6499 29.3297 33.6499 29.3297 33.8167 29.3297C33.8167 29.3297 33.8167 29.3297 33.9836 29.3297C33.9836 29.3297 33.9836 29.3297 34.1504 29.1621C34.1504 29.1621 34.1504 29.1621 34.1504 28.9945C34.1504 28.8269 34.1504 28.8269 34.1504 28.6593V24.9722H34.9846V28.4917C34.9846 28.6593 34.8178 28.8269 34.8178 28.9945C34.8178 29.1621 34.8178 29.3297 34.651 29.4973C34.651 29.4973 34.651 29.6649 34.4841 29.6649C34.4841 29.8325 34.3173 29.8325 34.3173 29.8325C34.1504 29.8325 34.1504 30.0001 33.9836 30.0001H33.8167C33.6499 30.0001 33.6499 30.0001 33.4831 30.0001L33.3162 29.8325C33.1494 29.8325 33.1494 29.8325 32.9825 29.6649L32.8157 29.4973C32.8157 29.3297 32.6488 29.1621 32.6488 28.9945C32.6488 28.8269 32.6488 28.6593 32.6488 28.4917V24.9722ZM43.6605 28.9945C43.6605 28.8269 43.6605 28.6593 43.6605 28.6593C43.6605 28.4917 43.8274 28.4917 43.8274 28.3241H44.3279V28.6593C44.3279 28.6593 44.3279 28.8269 44.3279 28.9945L44.4947 29.1621C44.4947 29.3297 44.4947 29.3297 44.6616 29.3297C44.6616 29.3297 44.6616 29.3297 44.8284 29.3297C44.9953 29.3297 44.9953 29.3297 45.1621 29.3297C45.1621 29.1621 45.329 29.1621 45.329 28.9945C45.329 28.8269 45.329 28.8269 45.1621 28.6593C45.1621 28.6593 45.1621 28.6593 45.1621 28.4917C45.1621 28.4917 45.1621 28.4917 45.1621 28.3241C44.9953 28.3241 44.9953 28.1565 44.9953 28.1565L44.161 27.1509C43.9942 26.9833 43.9942 26.8157 43.8274 26.6481C43.8274 26.4805 43.6605 26.3129 43.6605 26.1454C43.6605 25.9778 43.8274 25.8102 43.8274 25.6426C43.8274 25.475 43.9942 25.475 43.9942 25.3074C44.161 25.1398 44.161 25.1398 44.3279 25.1398C44.4947 24.9722 44.6616 24.9722 44.8284 24.9722C44.9953 24.9722 45.1621 24.9722 45.329 25.1398C45.4958 25.1398 45.6626 25.3074 45.6626 25.3074C45.8295 25.475 45.8295 25.475 45.8295 25.6426C45.9963 25.8102 45.9963 25.9778 45.9963 25.9778C45.9963 26.1454 45.9963 26.3129 45.9963 26.3129C45.8295 26.4805 45.8295 26.4805 45.8295 26.6481H45.329V26.3129C45.329 26.1454 45.329 25.9778 45.1621 25.8102C45.1621 25.6426 44.9953 25.6426 44.8284 25.6426C44.6616 25.6426 44.6616 25.6426 44.4947 25.6426C44.4947 25.8102 44.4947 25.8102 44.4947 25.9778C44.4947 26.1454 44.4947 26.1454 44.4947 26.1454C44.4947 26.3129 44.4947 26.3129 44.4947 26.3129V26.4805C44.6616 26.4805 44.6616 26.6481 44.6616 26.6481L45.4958 27.6537C45.6626 27.8213 45.8295 27.9889 45.8295 28.1565C45.9963 28.4917 45.9963 28.6593 45.9963 28.8269C45.9963 28.9945 45.9963 29.1621 45.8295 29.3297C45.8295 29.4973 45.8295 29.4973 45.6626 29.6649C45.4958 29.6649 45.4958 29.8325 45.329 29.8325C45.1621 30.0001 44.9953 30.0001 44.8284 30.0001C44.6616 30.0001 44.4947 30.0001 44.3279 29.8325C44.161 29.8325 43.9942 29.6649 43.9942 29.6649C43.8274 29.4973 43.8274 29.4973 43.8274 29.3297C43.6605 29.1621 43.6605 28.9945 43.6605 28.9945ZM55.1727 25.6426H54.5053V24.9722H56.6743V25.6426H56.0069V29.8325H55.1727V25.6426ZM65.3502 24.9722H66.1844C66.3512 24.9722 66.3512 24.9722 66.5181 25.1398C66.6849 25.1398 66.6849 25.1398 66.8518 25.1398C66.8518 25.1398 67.0186 25.1398 67.1855 25.3074C67.1855 25.3074 67.3523 25.3074 67.3523 25.475C67.5191 25.6426 67.5191 25.6426 67.5191 25.8102C67.686 25.9778 67.686 26.1454 67.686 26.4805C67.686 26.9833 67.686 27.1509 67.5191 27.4861C67.3523 27.6537 67.1855 27.8213 67.0186 27.9889L67.8528 29.8325H67.0186L66.3512 28.1565H66.1844V29.8325H65.3502V24.9722ZM66.1844 27.4861C66.3512 27.4861 66.5181 27.4861 66.5181 27.4861C66.6849 27.4861 66.6849 27.4861 66.8518 27.3185V27.1509C66.8518 26.9833 66.8518 26.8157 66.8518 26.6481V26.3129C66.8518 26.1454 66.8518 26.1454 66.8518 25.9778V25.8102C66.6849 25.6426 66.6849 25.6426 66.5181 25.6426C66.5181 25.6426 66.3512 25.6426 66.1844 25.6426V27.4861ZM76.5287 24.9722H77.1961V29.8325H76.5287V24.9722ZM86.2056 24.9722H88.0409V25.6426H87.0398V27.1509H87.8741V27.6537H87.0398V29.3297H88.0409V29.8325H86.2056V24.9722ZM96.5499 28.9945C96.5499 28.8269 96.5499 28.6593 96.7168 28.6593C96.7168 28.4917 96.7168 28.4917 96.7168 28.3241H97.2173V28.6593C97.2173 28.6593 97.2173 28.8269 97.2173 28.9945L97.3841 29.1621C97.3841 29.3297 97.3841 29.3297 97.551 29.3297H97.7178C97.8847 29.3297 98.0515 29.3297 98.0515 29.3297C98.0515 29.1621 98.2184 29.1621 98.2184 28.9945C98.2184 28.8269 98.2184 28.8269 98.2184 28.6593C98.2184 28.6593 98.0515 28.6593 98.0515 28.4917C98.0515 28.4917 98.0515 28.4917 98.0515 28.3241C97.8847 28.3241 97.8847 28.1565 97.8847 28.1565L97.0505 27.1509C96.8836 26.9833 96.8836 26.8157 96.7168 26.6481C96.7168 26.4805 96.7168 26.3129 96.7168 26.1454C96.7168 25.9778 96.7168 25.8102 96.7168 25.6426C96.7168 25.475 96.8836 25.475 96.8836 25.3074C97.0505 25.1398 97.2173 25.1398 97.2173 25.1398C97.3841 24.9722 97.551 24.9722 97.7178 24.9722C97.8847 24.9722 98.2184 24.9722 98.2184 25.1398C98.3852 25.1398 98.552 25.3074 98.552 25.3074C98.7189 25.475 98.7189 25.475 98.8857 25.6426C98.8857 25.8102 98.8857 25.9778 98.8857 25.9778C98.8857 26.1454 98.8857 26.3129 98.8857 26.3129C98.8857 26.4805 98.7189 26.4805 98.7189 26.6481H98.2184V26.3129C98.2184 26.1454 98.2184 25.9778 98.0515 25.8102C98.0515 25.6426 97.8847 25.6426 97.7178 25.6426C97.551 25.6426 97.551 25.6426 97.3841 25.6426C97.3841 25.8102 97.3841 25.8102 97.3841 25.9778C97.3841 26.1454 97.3841 26.1454 97.3841 26.1454C97.3841 26.3129 97.3841 26.3129 97.3841 26.3129V26.4805C97.551 26.4805 97.551 26.6481 97.551 26.6481L98.3852 27.6537C98.552 27.8213 98.7189 27.9889 98.7189 28.1565C98.8857 28.4917 98.8857 28.6593 98.8857 28.8269C98.8857 28.9945 98.8857 29.1621 98.8857 29.3297C98.7189 29.4973 98.7189 29.4973 98.552 29.6649C98.552 29.6649 98.3852 29.8325 98.2184 29.8325C98.0515 30.0001 97.8847 30.0001 97.7178 30.0001C97.551 30.0001 97.3841 30.0001 97.2173 29.8325C97.0505 29.8325 96.8836 29.6649 96.8836 29.6649C96.7168 29.4973 96.7168 29.4973 96.7168 29.3297C96.7168 29.1621 96.5499 28.9945 96.5499 28.9945Z" fill="white"/>
<path fill-rule="evenodd" clip-rule="evenodd" d="M0.114319 22.2905H98.8857V22.9609H0.114319V22.2905Z" fill="white"/>
</g>
<defs>
<clipPath id="clip0">
<rect width="99" height="30" fill="white"/>
</clipPath>
</defs>
</svg>
