<svg width="227" height="30" viewBox="0 0 227 30" fill="none" xmlns="http://www.w3.org/2000/svg">
<g clip-path="url(#clip0)">
<path d="M112.142 0.923454L105.644 7.41215C105.57 7.48406 105.511 7.57053 105.472 7.66615C105.432 7.76176 105.413 7.86447 105.415 7.96786C105.412 8.18391 105.494 8.39253 105.644 8.54808L112.109 15.0368C112.259 15.1809 112.457 15.2627 112.665 15.2656C112.88 15.2596 113.085 15.1786 113.246 15.0368L119.744 8.54808C119.894 8.39253 119.976 8.18391 119.973 7.96786C119.975 7.86447 119.956 7.76176 119.916 7.66615C119.877 7.57053 119.818 7.48406 119.744 7.41215L113.246 0.923454C113.091 0.773472 112.882 0.691199 112.665 0.694634C112.562 0.692509 112.459 0.711733 112.363 0.751105C112.267 0.790476 112.181 0.849149 112.109 0.923454H112.142ZM113.778 0.41678L116.372 3.03187C117.488 2.15533 118.649 1.33702 119.85 0.580223L119.989 0.49033L120.104 0.580223C120.153 0.580223 134.015 9.29175 134.015 17.5865C134.02 19.5212 133.272 21.3821 131.928 22.7758C131.275 23.4583 130.49 24.0014 129.621 24.3722C128.752 24.743 127.816 24.9339 126.871 24.9333C125.422 24.9349 124.003 24.5238 122.78 23.7483C121.887 23.2025 121.127 22.4657 120.554 21.5908C121.184 26.3144 126.233 26.5922 126.814 26.5922H126.863V27.058H113.058V26.5922H113.107C113.688 26.5922 118.721 26.3144 119.367 21.5908C118.782 22.4553 118.024 23.1897 117.141 23.7483C115.917 24.5209 114.498 24.9317 113.05 24.9333C112.108 24.9295 111.177 24.7358 110.312 24.3636C109.447 23.9915 108.667 23.4486 108.017 22.7676C106.665 21.3797 105.915 19.515 105.931 17.5783C105.945 16.5176 106.142 15.4673 106.512 14.4729C106.869 13.5171 107.327 12.6021 107.878 11.7434L105.145 9.03024C104.875 8.7423 104.726 8.3622 104.728 7.96786C104.724 7.57803 104.874 7.2024 105.145 6.92182L111.692 0.384091C111.965 0.136993 112.321 0.000124441 112.69 0C113.082 0.000289014 113.459 0.149259 113.745 0.41678H113.778ZM0 25.4154V9.61046H8.95234C9.99603 9.55063 11.0403 9.71793 12.0128 10.1008C12.7614 10.4941 13.3426 11.1442 13.6495 11.9314C13.9243 12.5026 14.0669 13.1282 14.0668 13.7619C14.0611 14.5714 13.8379 15.3645 13.4203 16.0583C13.0546 16.7155 12.4781 17.2307 11.7837 17.5211C12.5064 17.8277 13.1159 18.351 13.5278 19.0186C13.9397 19.6862 14.1338 20.4651 14.0832 21.2476C14.1199 22.165 13.8681 23.0709 13.3631 23.8382C12.9665 24.4201 12.3925 24.8586 11.7264 25.0885C10.7487 25.3388 9.74021 25.4489 8.7314 25.4154H0ZM3.36327 16.0992H7.954C8.30444 16.1112 8.65523 16.0893 9.00144 16.0338C9.23491 15.9915 9.45261 15.887 9.63154 15.7314C9.87777 15.5516 10.0749 15.313 10.205 15.0375C10.3351 14.762 10.394 14.4583 10.3762 14.1542C10.3937 13.8784 10.3387 13.6029 10.2167 13.3549C10.0947 13.1069 9.90989 12.8951 9.68064 12.7404C9.17367 12.4888 8.60891 12.376 8.04402 12.4135H3.36327V16.0992ZM3.36327 22.6369H7.954C8.30551 22.6382 8.6563 22.6053 9.00144 22.5388C9.23678 22.4876 9.45424 22.3748 9.63154 22.2119C9.87693 22.037 10.0739 21.8029 10.2042 21.5314C10.3344 21.2598 10.3936 20.9598 10.3762 20.6592C10.3971 20.383 10.3436 20.1063 10.2213 19.8577C10.099 19.6091 9.91231 19.3977 9.68064 19.2454C9.17367 18.9938 8.60891 18.881 8.04402 18.9186H3.36327V22.6369ZM27.9127 9.64315V12.4462H23.4774C22.635 12.4148 21.7923 12.5001 20.9734 12.6995C20.4469 12.8417 19.9796 13.1481 19.6395 13.574C19.422 13.8591 19.2559 14.1799 19.1485 14.5219C19.0362 15.0606 18.965 15.6069 18.9358 16.1564H27.8799V18.9594H18.9767C18.9695 19.4905 19.071 20.0174 19.2751 20.5078C19.4791 20.9983 19.7813 21.4419 20.1632 21.8115C21.2056 22.4472 22.4242 22.7336 23.6411 22.6287H27.8881V25.4154H23.4774C22.4288 25.4236 21.3811 25.3526 20.3433 25.2029C19.0107 25.0239 17.7935 24.3534 16.9309 23.3233C15.6599 21.6242 15.0284 19.5325 15.147 17.4149C15.147 14.6609 15.9653 12.5116 17.6756 10.9997C18.2134 10.5138 18.8457 10.1438 19.5331 9.91283C20.3949 9.68476 21.2852 9.58291 22.1763 9.61046L27.9127 9.64315ZM29.7948 9.64315H33.158V18.4854C33.1709 19.237 33.2255 19.9873 33.3217 20.7328C33.3456 21.0477 33.4529 21.3507 33.6326 21.6106C33.8124 21.8706 34.0581 22.0781 34.3446 22.2119C35.3403 22.5299 36.3859 22.6629 37.4296 22.6042H40.6538V25.4154H37.045C35.808 25.4781 34.568 25.3848 33.3544 25.1376C32.5494 24.9378 31.8148 24.5212 31.2304 23.9333C30.646 23.3454 30.2344 22.6087 30.0403 21.8033C29.8129 20.7155 29.7195 19.604 29.762 18.4936L29.7948 9.64315ZM40.9647 25.4154L47.5112 9.61863H51.4064L57.9529 25.4154H54.0087L52.4784 21.7543H46.4393L44.909 25.4154H40.9647ZM49.4507 13.4105L47.2003 18.9431H51.701L49.4507 13.4105ZM60.6779 12.4135H55.6453V9.61046H69.2866V12.4135H64.0412V25.4154H60.6779V12.4135ZM73.7709 19.4089V25.4154H70.424V9.61046H78.1489C80.3747 9.61046 81.9295 9.88831 82.8133 10.4277C83.3999 10.7891 83.8799 11.2995 84.2044 11.9068C84.532 12.5437 84.7005 13.2503 84.6954 13.9662C84.7717 15.2304 84.3553 16.475 83.5334 17.4394C83.0112 17.9695 82.364 18.3601 81.6513 18.5753C82.1534 18.7286 82.6303 18.9543 83.0669 19.2454C83.4081 19.5509 83.6861 19.9202 83.8853 20.3323C84.0606 20.6797 84.2004 21.0439 84.3026 21.4192C84.3966 21.9325 84.4594 22.4511 84.4908 22.9719C84.5274 23.78 84.6593 24.581 84.8836 25.3582H81.1439C80.9653 24.62 80.8476 23.8683 80.792 23.1109C80.7537 22.383 80.5817 21.6683 80.2847 21.0025C80.0482 20.5063 79.6579 20.0994 79.1718 19.842C78.3347 19.4676 77.4198 19.2995 76.5041 19.3517L73.7709 19.4089ZM73.7709 16.5813H78.558C79.1249 16.62 79.6913 16.5012 80.1947 16.2381C80.4643 16.0213 80.6741 15.7394 80.8044 15.4191C80.9347 15.0988 80.9811 14.7507 80.9393 14.4075C80.9891 14.0183 80.9032 13.6239 80.6961 13.2906C80.4889 12.9572 80.1732 12.7052 79.8019 12.577C79.3823 12.4413 78.9409 12.3859 78.5008 12.4135H73.7873L73.7709 16.5813ZM85.2764 25.4072L91.8229 9.61046H95.7426L102.289 25.4072H98.3448L96.8146 21.7461H90.7836L89.1961 25.4154L85.2764 25.4072ZM93.7787 13.4105L91.5283 18.9431H96.029L93.7787 13.4105ZM142.558 25.7341C142.566 25.944 142.623 26.1493 142.724 26.3336C142.824 26.518 142.967 26.6764 143.139 26.7965C143.65 27.1266 144.25 27.2894 144.858 27.2623C145.054 27.2595 145.248 27.2348 145.439 27.1888C145.663 27.1397 145.88 27.0629 146.085 26.96C146.532 26.746 146.922 26.4296 147.223 26.0365C147.625 25.4374 147.888 24.7561 147.992 24.0425L148.18 23.2253C147.863 23.4776 147.51 23.6814 147.133 23.83C146.71 23.9877 146.275 24.1107 145.832 24.1978C145.578 24.2468 145.324 24.2877 145.062 24.3122C144.8 24.3367 144.555 24.3612 144.318 24.3612H144.064C142.656 24.4075 141.284 23.9099 140.234 22.9719C139.211 22.0485 138.704 20.5857 138.704 18.6407C138.674 16.5517 139.361 14.5154 140.652 12.8712C141.283 12.0633 142.099 11.4189 143.032 10.9922C143.965 10.5655 144.987 10.3691 146.012 10.4195H146.83C147.025 10.4311 147.219 10.4557 147.411 10.4931C148.064 10.5663 148.703 10.7313 149.309 10.9834C149.902 11.2289 150.411 11.6404 150.774 12.1683L151.052 10.8281H155.226L152.534 23.3724C152.46 23.6747 152.37 24.116 152.206 24.6718C152.045 25.2865 151.802 25.8772 151.486 26.4288C150.927 27.4232 150.132 28.2652 149.17 28.8804C147.777 29.7014 146.17 30.0884 144.555 29.9918H144.301L143.115 29.9183C142.589 29.9145 142.067 29.8431 141.56 29.7058C140.726 29.5257 139.949 29.1472 139.293 28.6026C138.924 28.2643 138.638 27.846 138.456 27.3799C138.275 26.9138 138.203 26.4122 138.246 25.9139V25.6851H138.499L142.558 25.7341ZM148.172 20.5203C148.693 19.9232 149.096 19.2327 149.358 18.4854C149.501 18.063 149.602 17.6279 149.661 17.1861C149.721 16.835 149.751 16.4797 149.751 16.1237C149.786 15.732 149.737 15.3375 149.609 14.9658C149.48 14.5942 149.275 14.2536 149.007 13.9662C148.51 13.5011 147.854 13.2437 147.174 13.2471C146.606 13.2643 146.053 13.4228 145.562 13.7083C145.072 13.9937 144.661 14.397 144.367 14.8815C143.618 15.9954 143.237 17.3158 143.278 18.657C143.278 18.7061 143.278 18.8859 143.278 19.1637C143.325 19.4753 143.411 19.78 143.532 20.0708C143.728 20.4455 144.008 20.7699 144.35 21.0188C144.787 21.354 145.331 21.5195 145.881 21.4846C146.311 21.4994 146.739 21.4208 147.136 21.2544C147.533 21.0879 147.889 20.8374 148.18 20.5203H148.172ZM156.871 15.2411C156.92 15.0776 156.961 14.8897 157.01 14.7099C157.076 14.5207 157.153 14.3352 157.239 14.1542C157.762 13.0903 158.569 12.1911 159.571 11.5554C160.684 10.7873 162.427 10.395 164.767 10.395H165.021C167.083 10.395 168.523 10.6974 169.268 11.3184C169.937 11.8208 170.393 12.5558 170.545 13.3778V13.6557C170.555 13.7398 170.555 13.8249 170.545 13.909C170.545 14.1831 170.52 14.4566 170.471 14.7262C170.422 15.0041 170.381 15.2329 170.332 15.4454L168.941 21.7952L168.867 22.073C168.847 22.1607 168.817 22.2458 168.777 22.3263C168.777 22.4408 168.728 22.5797 168.703 22.7186C168.69 22.8954 168.69 23.073 168.703 23.2498V23.7565C168.69 23.8102 168.69 23.8662 168.703 23.9199C168.725 24.0302 168.773 24.1337 168.843 24.2223C168.924 24.348 169.026 24.4587 169.145 24.5492V24.6391H164.53L164.44 23.4378C164.24 23.626 164.024 23.7957 163.794 23.9444C163.572 24.1002 163.34 24.2395 163.098 24.3612C162.469 24.669 161.795 24.8732 161.101 24.9659C160.471 25.0395 160.054 25.0558 159.849 25.0558H159.596C159.41 25.0443 159.224 25.0443 159.039 25.0558C158.851 25.0558 158.646 25.0558 158.458 25.0068C157.663 24.9114 156.9 24.6316 156.232 24.1896C155.875 23.8852 155.597 23.4984 155.423 23.0627C155.249 22.6269 155.184 22.1554 155.234 21.6889C155.161 20.9681 155.301 20.2417 155.635 19.5988C155.969 18.9558 156.484 18.4241 157.116 18.0686C158.399 17.409 159.781 16.9618 161.208 16.7448C161.51 16.6957 161.813 16.6549 162.116 16.6303C162.419 16.6058 162.697 16.5405 163 16.5159C163.107 16.4897 163.217 16.4733 163.327 16.4669C163.438 16.4622 163.547 16.4457 163.654 16.4179C164.313 16.3762 164.957 16.2098 165.553 15.9275C165.946 15.6987 166.158 15.1594 166.158 14.2931C166.165 14.1392 166.137 13.9858 166.076 13.8442C166.015 13.7027 165.923 13.5768 165.807 13.4759C165.58 13.2983 165.318 13.1727 165.037 13.1081L164.71 13.0346C164.595 13.0346 164.497 13.0346 164.383 13.0346C163.719 13.0127 163.067 13.2078 162.525 13.5903C162.138 13.882 161.831 14.2673 161.633 14.7099C161.633 14.7834 161.56 14.8733 161.543 14.9632L161.47 15.2411H156.879H156.871ZM165.406 18.1585C165.242 18.2321 165.103 18.2729 164.964 18.322C164.844 18.3704 164.721 18.4087 164.595 18.4364C164.493 18.4855 164.381 18.5106 164.268 18.5099C164.144 18.5318 164.021 18.5619 163.9 18.5998C163.798 18.6067 163.696 18.6231 163.597 18.6489C163.483 18.6489 163.368 18.6489 163.229 18.6979C163.09 18.7469 162.836 18.7715 162.623 18.8123C162.411 18.8532 162.181 18.9022 161.928 18.9758C161.425 19.131 160.954 19.3745 160.537 19.6949C160.32 19.8783 160.151 20.11 160.041 20.3713C159.932 20.6326 159.886 20.9161 159.907 21.1986C159.894 21.3897 159.933 21.5808 160.019 21.7518C160.105 21.9229 160.236 22.0677 160.398 22.1711C160.744 22.3962 161.146 22.5233 161.56 22.5388C161.818 22.5071 162.075 22.4607 162.329 22.3999C162.668 22.3066 162.988 22.1574 163.278 21.9586C163.71 21.664 164.086 21.2961 164.391 20.8717C164.802 20.2816 165.081 19.6098 165.209 18.9022L165.406 18.1585ZM178.024 10.7464L177.631 12.4625C178.4 11.6233 179.368 10.991 180.446 10.6238C181.037 10.4556 181.643 10.3461 182.255 10.2969H182.484C183.359 10.2296 184.229 10.4759 184.939 10.9916C185.408 11.3771 185.755 11.8912 185.937 12.4707V12.5197C186.645 11.8558 187.451 11.3045 188.327 10.8853C189.184 10.4628 190.128 10.2473 191.084 10.2561H191.338C192.754 10.2561 193.703 10.6075 194.194 11.2776C194.697 11.9181 195.004 12.6899 195.078 13.5004C195.078 13.5903 195.078 13.6884 195.078 13.7783V14.0561C195.078 14.3585 195.078 14.6609 195.029 14.9387C194.979 15.2166 194.939 15.4944 194.889 15.7559C194.889 15.8295 194.889 15.8949 194.84 15.9684C194.791 16.042 194.84 16.1073 194.84 16.1809L193.122 24.6472H188.695L190.454 16.4751C190.503 16.3116 190.528 16.1237 190.569 15.8949C190.597 15.6725 190.613 15.4488 190.618 15.2247C190.626 14.8127 190.531 14.4051 190.34 14.0398C190.204 13.8517 190.022 13.7017 189.811 13.6044C189.6 13.507 189.368 13.4656 189.137 13.4841C188.948 13.4837 188.76 13.514 188.58 13.574C188.381 13.6277 188.186 13.6988 187.999 13.7864C187.553 14.0085 187.16 14.3234 186.845 14.7099C186.439 15.2938 186.16 15.9564 186.027 16.6549L184.309 24.6227H179.898L181.641 16.4506C181.69 16.2217 181.731 15.9847 181.755 15.7559C181.796 15.5349 181.812 15.3103 181.805 15.0858C181.815 14.6892 181.719 14.2971 181.526 13.9499C181.39 13.7834 181.215 13.652 181.017 13.5667C180.819 13.4814 180.604 13.4447 180.389 13.4595H180.25H180.086C179.433 13.5761 178.832 13.8932 178.368 14.3667C177.764 14.9892 177.367 15.7825 177.23 16.6385L175.536 24.6064H171.126L174.047 10.7137H178.016L178.024 10.7464ZM210.912 20.6347C210.787 20.9143 210.648 21.1871 210.495 21.4519C210.267 21.9197 209.969 22.3497 209.611 22.7268C208.941 23.4032 208.157 23.9565 207.295 24.3612C206.034 24.8959 204.67 25.1416 203.302 25.0804H203.048C200.732 25.0804 199.104 24.5737 198.138 23.5767C197.253 22.6661 196.68 21.4988 196.501 20.2424C196.454 20.0609 196.429 19.8743 196.428 19.6867C196.417 19.4935 196.417 19.2998 196.428 19.1065C196.429 18.743 196.454 18.38 196.501 18.0196C196.551 17.6519 196.616 17.2759 196.69 16.8837C197.129 15.1594 198.045 13.5933 199.333 12.3645C200.702 10.9752 202.674 10.2806 205.249 10.2806H205.503C207.156 10.213 208.788 10.6676 210.167 11.58C211.395 12.3972 212 13.8927 212 15.9357C212.004 16.3624 211.974 16.7887 211.91 17.2106C211.857 17.6627 211.772 18.1105 211.657 18.5508H201.019C201.012 18.7205 200.995 18.8896 200.969 19.0575C200.93 19.2482 200.914 19.443 200.92 19.6377V19.9156C200.934 20.0077 200.934 20.1013 200.92 20.1934C200.987 20.7535 201.211 21.2833 201.567 21.7216C201.817 21.9807 202.121 22.1817 202.458 22.3102C202.794 22.4387 203.155 22.4917 203.514 22.4653C204.143 22.4307 204.754 22.2487 205.298 21.9341C205.823 21.6423 206.227 21.1728 206.436 20.6102H210.912V20.6347ZM207.549 16.3934C207.542 16.3555 207.542 16.3167 207.549 16.2789C207.538 16.2085 207.538 16.1369 207.549 16.0665C207.539 15.9905 207.539 15.9136 207.549 15.8376V15.6088C207.561 15.5385 207.561 15.4667 207.549 15.3963V15.2002C207.586 14.8741 207.537 14.5438 207.406 14.2426C207.276 13.9413 207.068 13.6798 206.804 13.4841C206.268 13.1301 205.638 12.9451 204.996 12.9529C204.47 12.9628 203.954 13.0972 203.49 13.3451C203.024 13.6116 202.615 13.9671 202.287 14.3912C201.861 15.004 201.548 15.6875 201.362 16.4097L207.549 16.3934ZM216.992 20.2588V20.3487C216.982 20.3861 216.982 20.4257 216.992 20.4631V20.6919C216.993 21.1361 217.169 21.562 217.483 21.8769C218.012 22.3196 218.694 22.5369 219.382 22.4816C219.965 22.4535 220.53 22.2701 221.018 21.9504C221.24 21.8204 221.424 21.634 221.55 21.41C221.677 21.1861 221.742 20.9327 221.738 20.6756C221.764 20.4411 221.717 20.2045 221.605 19.9971C221.492 19.7898 221.319 19.6217 221.108 19.5151C220.652 19.315 220.178 19.159 219.692 19.0493C219.681 19.0551 219.668 19.058 219.656 19.058C219.643 19.058 219.63 19.0551 219.619 19.0493H219.57C219.357 19.0003 219.177 18.9594 219.013 18.9349C218.85 18.9104 218.645 18.796 218.49 18.796C217.408 18.5773 216.362 18.2116 215.38 17.7091C214.954 17.469 214.61 17.1074 214.391 16.6706C214.172 16.2338 214.089 15.7417 214.153 15.2574C214.156 14.9998 214.18 14.7428 214.226 14.4892C214.266 14.2098 214.338 13.9357 214.439 13.672C214.853 12.7095 215.549 11.8947 216.436 11.3348C217.826 10.5333 219.424 10.1634 221.026 10.2724H221.28C222.693 10.1665 224.108 10.4492 225.372 11.0896C226.068 11.4991 226.6 12.1376 226.877 12.8957C226.94 13.0439 226.979 13.2011 226.992 13.3615C227.004 13.5247 227.004 13.6886 226.992 13.8518C227.003 13.9823 227.003 14.1136 226.992 14.2441C226.987 14.3625 226.971 14.4803 226.943 14.5955H222.908C222.919 14.5251 222.919 14.4534 222.908 14.383V14.1705C222.931 13.9861 222.904 13.799 222.831 13.6282C222.757 13.4574 222.64 13.309 222.491 13.198C222.221 13.0099 221.909 12.8893 221.583 12.8466C221.509 12.8466 221.419 12.8466 221.305 12.8466H221.026C220.34 12.8041 219.661 13.0005 219.103 13.4023C218.925 13.5383 218.778 13.7107 218.672 13.908C218.567 14.1054 218.504 14.3231 218.49 14.5464C218.474 14.7243 218.501 14.9034 218.57 15.0684C218.638 15.2334 218.745 15.3795 218.882 15.4944C219.134 15.6711 219.41 15.8114 219.701 15.9112C219.815 15.9112 219.913 15.9112 220.003 15.9602C220.094 15.9878 220.187 16.0043 220.282 16.0093L220.953 16.1237C221.182 16.1237 221.395 16.1972 221.599 16.2136C222.72 16.385 223.818 16.6811 224.872 17.0962C225.331 17.3073 225.711 17.6586 225.956 18.0993C226.202 18.54 226.301 19.0472 226.239 19.5478C226.239 19.8502 226.19 20.2179 226.149 20.6592C226.06 21.1553 225.888 21.6331 225.642 22.073C225.136 22.9425 224.407 23.6618 223.53 24.1569C222.109 24.866 220.525 25.1848 218.94 25.0804H218.686C216.55 25.0804 215.02 24.729 214.12 24.1079C213.344 23.6295 212.763 22.8907 212.483 22.024C212.434 21.836 212.393 21.6726 212.369 21.5336C212.344 21.3947 212.369 21.2068 212.369 21.0678C212.369 20.9289 212.369 20.79 212.369 20.6265C212.369 20.4631 212.418 20.3487 212.442 20.2343H216.943L216.992 20.2588Z" fill="white"/>
</g>
<defs>
<clipPath id="clip0">
<rect width="227" height="30" fill="white"/>
</clipPath>
</defs>
</svg>
