<svg width="84" height="22" viewBox="0 0 84 22" fill="none" xmlns="http://www.w3.org/2000/svg">
<g clip-path="url(#clip0)">
<path d="M58.12 5.85013C58.7682 6.12427 59.3213 6.58341 59.71 7.17014C60.0764 7.77289 60.2702 8.46473 60.2702 9.17014C60.2702 9.87554 60.0764 10.5674 59.71 11.1701C59.321 11.759 58.7683 12.2213 58.12 12.5001C57.3476 12.8219 56.5165 12.9786 55.68 12.9601H53.25V16.0701H51.25V5.39013H55.68C56.5165 5.37166 57.3476 5.52835 58.12 5.85013ZM57.57 10.8501C57.7937 10.654 57.9709 10.4103 58.0885 10.137C58.2062 9.86364 58.2613 9.5675 58.25 9.27014C58.2628 8.97112 58.2084 8.67303 58.0907 8.39784C57.973 8.12266 57.7951 7.87739 57.57 7.68014C56.9899 7.26483 56.2809 7.06983 55.57 7.13014H53.25V11.4101H55.59C56.3009 11.4432 57.001 11.2275 57.57 10.8001V10.8501Z" fill="white"/>
<path d="M68 8.71982C68.3434 9.0603 68.6103 9.47012 68.7827 9.92192C68.9551 10.3737 69.0292 10.8571 69 11.3398V16.1598H67.07V15.1598C66.8199 15.5213 66.4735 15.8054 66.07 15.9798C65.5676 16.1797 65.0306 16.2783 64.49 16.2698C63.9402 16.2966 63.391 16.2045 62.88 15.9998C62.4462 15.8202 62.0743 15.5179 61.81 15.1298C61.5575 14.7548 61.425 14.3119 61.43 13.8598C61.3988 13.5068 61.4566 13.1516 61.5981 12.8266C61.7396 12.5017 61.9603 12.2174 62.24 11.9998C63.0036 11.4836 63.922 11.2469 64.84 11.3298H67V11.2098C67.0143 10.9646 66.9762 10.7192 66.8882 10.4899C66.8003 10.2606 66.6645 10.0526 66.49 9.87982C66.0585 9.56756 65.5316 9.4155 65 9.44982C64.5375 9.4463 64.0778 9.52068 63.64 9.66982C63.2264 9.79068 62.8418 9.99487 62.51 10.2698L61.76 8.86982C62.2225 8.5184 62.7489 8.26027 63.31 8.10982C63.9356 7.93811 64.5813 7.85068 65.23 7.84982C66.2297 7.78266 67.2182 8.09313 68 8.71982ZM66.25 14.5398C66.6123 14.3206 66.8905 13.9861 67.04 13.5898V12.5898H65C63.89 12.5898 63.33 12.9498 63.33 13.6798C63.3275 13.8418 63.3644 14.002 63.4376 14.1466C63.5108 14.2912 63.618 14.4159 63.75 14.5098C64.0913 14.7312 64.4936 14.8396 64.9 14.8198C65.354 14.8469 65.8068 14.7501 66.21 14.5398H66.25Z" fill="white"/>
<path d="M71.18 6.26012C71.0664 6.1543 70.9764 6.02564 70.9161 5.88258C70.8558 5.73953 70.8264 5.58533 70.83 5.43012C70.8259 5.27631 70.8551 5.12344 70.9155 4.98192C70.9759 4.84041 71.0661 4.7136 71.18 4.61012C71.2975 4.49966 71.4359 4.41362 71.5869 4.35697C71.738 4.30033 71.8987 4.27421 72.06 4.28012C72.3815 4.271 72.6951 4.38145 72.94 4.59012C73.055 4.68831 73.1463 4.81132 73.2069 4.94989C73.2675 5.08846 73.2959 5.23898 73.29 5.39012C73.2934 5.70725 73.1712 6.01284 72.95 6.24012C72.8322 6.35447 72.6928 6.44429 72.5401 6.50437C72.3873 6.56445 72.2241 6.5936 72.06 6.59012C71.8987 6.59602 71.738 6.5699 71.5869 6.51326C71.4359 6.45661 71.2975 6.37057 71.18 6.26012ZM71.09 7.94012H73V16.1601H71.09V7.94012Z" fill="white"/>
<path d="M83.58 4.74023V16.1602H81.73V15.1002C81.4206 15.5016 81.0147 15.8182 80.55 16.0202C80.0608 16.2175 79.5374 16.316 79.01 16.3102C78.2675 16.3185 77.535 16.1397 76.8799 15.7902C76.2553 15.4405 75.7397 14.9248 75.39 14.3002C75.0101 13.5947 74.8238 12.8011 74.8499 12.0002C74.8412 11.2331 75.0269 10.4762 75.39 9.80023C75.7373 9.1764 76.2538 8.66336 76.8799 8.32023C77.5338 7.97933 78.2626 7.80744 79 7.82023C79.5104 7.81226 80.0172 7.9075 80.4899 8.10023C80.9377 8.27442 81.3336 8.56012 81.6399 8.93023V4.74023H83.58ZM80.4899 14.3102C80.8582 14.0973 81.1596 13.7855 81.36 13.4102C81.6002 12.9806 81.7146 12.4919 81.69 12.0002C81.702 11.5289 81.5881 11.0629 81.36 10.6502C81.1623 10.273 80.8603 9.96057 80.4899 9.75023C80.1074 9.53836 79.6773 9.4272 79.2399 9.4272C78.8026 9.4272 78.3725 9.53836 77.9899 9.75023C77.619 9.96299 77.3143 10.2746 77.11 10.6502C76.8993 11.069 76.7897 11.5314 76.79 12.0002C76.79 12.4722 76.8995 12.9378 77.11 13.3602C77.3172 13.7338 77.6212 14.0446 77.9899 14.2602C78.3755 14.4626 78.8045 14.5683 79.2399 14.5683C79.6754 14.5683 80.1044 14.4626 80.4899 14.2602V14.3102Z" fill="white"/>
<path d="M26.2799 6.44999C26.1224 6.31177 25.997 6.14083 25.9123 5.94912C25.8277 5.7574 25.7859 5.54952 25.7899 5.33999C25.7859 5.13046 25.8277 4.92258 25.9123 4.73086C25.997 4.53914 26.1224 4.36821 26.2799 4.22999C26.6402 3.92798 27.1002 3.77111 27.5699 3.78999C28.0366 3.76927 28.4949 3.91849 28.8599 4.20999C29.0197 4.34033 29.1477 4.50529 29.2343 4.69239C29.321 4.87949 29.3639 5.08384 29.3599 5.28999C29.3659 5.50659 29.3241 5.72185 29.2378 5.92056C29.1514 6.11927 29.0224 6.29659 28.8599 6.43999C28.4934 6.73206 28.0386 6.8911 27.5699 6.8911C27.1013 6.8911 26.6465 6.73206 26.2799 6.43999V6.44999ZM26.1099 7.81999H28.9999V16.16H26.1099V7.81999Z" fill="white"/>
<path d="M38.86 8.60012C39.2065 8.97349 39.4738 9.4132 39.6457 9.89273C39.8175 10.3723 39.8905 10.8816 39.86 11.3901V16.1601H36.86V11.8701C36.86 10.7301 36.41 10.1601 35.49 10.1601C35.2649 10.1495 35.0402 10.1879 34.8313 10.2725C34.6224 10.3571 34.4343 10.4859 34.28 10.6501C33.9507 11.0701 33.7902 11.5979 33.83 12.1301V16.1301H31V7.82012H33.78V8.73012C34.1024 8.41155 34.4871 8.16302 34.91 8.00012C35.3813 7.81541 35.8839 7.72372 36.39 7.73012C37.2954 7.68639 38.1819 7.99865 38.86 8.60012Z" fill="white"/>
<path d="M42.61 16.0001C42.0479 15.8968 41.5049 15.708 41 15.4401L41.87 13.4401C42.2937 13.6919 42.7519 13.8805 43.23 14.0001C43.7347 14.1405 44.2562 14.2111 44.78 14.2101C45.1201 14.2305 45.4608 14.1794 45.78 14.0601C45.8648 14.0259 45.9381 13.9682 45.9913 13.8938C46.0444 13.8194 46.0752 13.7314 46.08 13.6401C46.08 13.4501 45.96 13.3201 45.72 13.2401C45.3394 13.1333 44.9518 13.0531 44.56 13.0001C43.9864 12.934 43.4183 12.8271 42.86 12.6801C42.4053 12.5602 41.9888 12.3261 41.65 12.0001C41.2946 11.5802 41.1154 11.0391 41.15 10.4901C41.128 9.95378 41.2943 9.42669 41.62 9.00008C41.9783 8.54514 42.4561 8.19888 43 8.00008C43.7002 7.74095 44.4437 7.61874 45.19 7.64008C45.7951 7.63839 46.3986 7.7021 46.99 7.83008C47.5111 7.92344 48.014 8.09896 48.48 8.35008L47.61 10.3501C46.8733 9.94082 46.0427 9.73058 45.2 9.74008C44.8589 9.71811 44.5172 9.77278 44.2 9.90008C44.1107 9.92998 44.0325 9.98601 43.9754 10.0609C43.9184 10.1358 43.8851 10.2261 43.88 10.3201C43.88 10.5201 43.99 10.6501 44.23 10.7301C44.6131 10.8407 45.0043 10.921 45.4 10.9701C45.9774 11.0472 46.5487 11.1642 47.11 11.3201C47.5584 11.4606 47.9641 11.7116 48.29 12.0501C48.6405 12.4648 48.8194 12.9978 48.79 13.5401C48.8066 14.0664 48.6406 14.5823 48.32 15.0001C47.9475 15.4531 47.4607 15.7984 46.91 16.0001C46.1893 16.2459 45.4313 16.3643 44.67 16.3501C43.9721 16.3138 43.2807 16.1963 42.61 16.0001Z" fill="white"/>
<path d="M16.33 16.22L16.25 16.31C15.1436 17.4157 13.7341 18.1686 12.1999 18.4734C10.6656 18.7782 9.07543 18.6212 7.63036 18.0224C6.18529 17.4236 4.95022 16.4097 4.08128 15.109C3.21234 13.8084 2.74856 12.2792 2.74856 10.715C2.74856 9.15077 3.21234 7.62165 4.08128 6.32097C4.95022 5.02029 6.18529 4.00644 7.63036 3.4076C9.07543 2.80876 10.6656 2.65182 12.1999 2.95662C13.7341 3.26142 15.1436 4.01428 16.25 5.12L18.25 3.12C16.752 1.62754 14.8454 0.612383 12.7709 0.202722C10.6963 -0.206939 8.54695 0.0072614 6.59409 0.818278C4.64122 1.6293 2.97244 3.00076 1.79846 4.75951C0.624472 6.51826 -0.0020752 8.58543 -0.0020752 10.7C-0.0020752 12.8146 0.624472 14.8818 1.79846 16.6405C2.97244 18.3992 4.64122 19.7707 6.59409 20.5817C8.54695 21.3927 10.6963 21.6069 12.7709 21.1973C14.8454 20.7876 16.752 19.7725 18.25 18.28L18.42 18.09L16.33 16.22Z" fill="white"/>
<path d="M10.6599 13.4401C9.93854 13.5011 9.22247 13.273 8.66924 12.806C8.116 12.3391 7.77093 11.6715 7.70993 10.9501C7.64893 10.2287 7.877 9.5126 8.34397 8.95937C8.81093 8.40613 9.47854 8.06106 10.1999 8.00006H10.6599C11.0173 7.99759 11.3715 8.06716 11.7014 8.20461C12.0312 8.34206 12.3301 8.54458 12.5799 8.80006L14.6399 6.70006C13.8498 5.91467 12.8448 5.38086 11.7517 5.16598C10.6586 4.95109 9.52628 5.06475 8.49767 5.49262C7.46907 5.92048 6.59021 6.64339 5.97197 7.57015C5.35373 8.49692 5.0238 9.58601 5.0238 10.7001C5.0238 11.8141 5.35373 12.9032 5.97197 13.83C6.59021 14.7567 7.46907 15.4796 8.49767 15.9075C9.52628 16.3354 10.6586 16.449 11.7517 16.2341C12.8448 16.0193 13.8498 15.4855 14.6399 14.7001L12.5699 12.6301C12.0647 13.1409 11.3784 13.4319 10.6599 13.4401Z" fill="white"/>
<path d="M17.63 15.7499C16.9406 15.3994 16.3616 14.865 15.9573 14.2057C15.5529 13.5465 15.3389 12.7883 15.3389 12.0149C15.3389 11.2415 15.5529 10.4833 15.9573 9.82404C16.3616 9.16482 16.9406 8.63038 17.63 8.27989C18.3637 7.90729 19.1771 7.71855 20 7.72989C20.8461 7.71034 21.684 7.89923 22.44 8.27989C23.1433 8.6131 23.7366 9.14051 24.15 9.79989C24.5511 10.4703 24.7588 11.2387 24.75 12.0199C24.7673 12.8001 24.5633 13.5692 24.1616 14.2382C23.7598 14.9072 23.1768 15.4486 22.48 15.7999C21.7223 16.1756 20.8856 16.3642 20.04 16.3499C19.1999 16.3483 18.3727 16.1424 17.63 15.7499ZM21.31 13.4399C21.6475 13.038 21.8223 12.5243 21.8 11.9999C21.8326 11.4741 21.6566 10.9566 21.31 10.5599C20.9781 10.2289 20.5286 10.043 20.06 10.043C19.5913 10.043 19.1418 10.2289 18.81 10.5599C18.633 10.754 18.4959 10.9811 18.4067 11.2282C18.3175 11.4752 18.2778 11.7375 18.29 11.9999C18.2579 12.5347 18.4334 13.0613 18.78 13.4699C18.9417 13.6329 19.1341 13.7622 19.3461 13.8505C19.558 13.9387 19.7853 13.9842 20.015 13.9842C20.2446 13.9842 20.4719 13.9387 20.6839 13.8505C20.8958 13.7622 21.0882 13.6329 21.25 13.4699H21.31V13.4399Z" fill="white"/>
</g>
<defs>
<clipPath id="clip0">
<rect width="83.58" height="21.4" fill="white"/>
</clipPath>
</defs>
</svg>
