<svg width="76" height="31" viewBox="0 0 76 31" fill="none" xmlns="http://www.w3.org/2000/svg">
<g clip-path="url(#clip0)">
<path fill-rule="evenodd" clip-rule="evenodd" d="M0 22.9473L3.43056 5.02218L21.5069 0.0136719L20.8472 26.6378L0 22.9473ZM8.97222 6.2084C8.84028 7.26282 8.70833 8.31724 8.57639 9.50347C8.44444 10.5579 8.44444 11.6123 8.3125 12.7985C8.97222 12.6667 9.76389 12.6667 10.4236 12.6667C11.2153 12.5349 11.875 12.5349 12.6667 12.5349C13.7222 12.4031 14.5139 12.2713 14.9097 11.8759C15.4375 11.4805 15.7014 10.6897 15.8333 9.50347C16.0972 9.50347 16.2292 9.50347 16.3611 9.50347C16.3611 10.5579 16.2292 11.7441 16.2292 12.9303C16.0972 13.9848 16.0972 15.171 15.9653 16.3572C15.8333 16.3572 15.7014 16.3572 15.4375 16.2254C15.4375 15.3028 15.3056 14.7756 15.1736 14.512C15.0417 14.1166 14.7778 13.853 14.3819 13.7212C13.9861 13.5894 13.3264 13.4576 12.5347 13.4576C11.875 13.5894 11.0833 13.5894 10.4236 13.5894C9.63194 13.5894 8.97222 13.5894 8.18056 13.7212C8.04861 14.6438 8.04861 15.5664 7.91667 16.489C7.78472 17.2798 7.78472 18.2024 7.65278 19.1251C7.52083 19.9159 7.52083 20.3113 7.65278 20.5749C7.65278 20.7067 7.78472 20.8385 8.04861 20.9703C8.18056 21.1021 8.57639 21.2339 9.10417 21.2339C10.2917 21.3657 11.4792 21.4975 12.5347 21.6293C13.7222 21.7611 14.5139 21.8929 15.0417 21.7611C15.5694 21.6293 16.0972 21.3657 16.625 20.9703C17.2847 20.4431 17.9444 19.5205 18.6042 18.3342C18.8681 18.3342 19.1319 18.3342 19.2639 18.3342C19 19.2569 18.6042 20.0477 18.3403 20.8385C17.9444 21.7611 17.6806 22.5519 17.2847 23.3428C14.6458 22.9473 12.0069 22.5519 9.36806 22.2883C6.86111 21.8929 4.22222 21.4975 1.58333 21.1021C1.58333 20.9703 1.58333 20.8385 1.58333 20.7067C1.84722 20.8385 2.11111 20.8385 2.375 20.8385C2.77083 20.8385 3.29861 20.8385 3.69444 20.7067C4.09028 20.7067 4.35417 20.5749 4.48611 20.3113C4.61806 20.0477 4.75 19.5205 4.75 18.7297C5.01389 17.148 5.14583 15.4346 5.40972 13.7212C5.54167 12.0077 5.80556 10.2943 5.9375 8.58085C6.06944 7.65823 6.06944 6.99922 5.80556 6.86741C5.54167 6.60381 5.01389 6.60381 4.22222 6.73561C3.95833 6.86741 3.69444 6.86741 3.5625 6.86741C3.5625 6.73561 3.5625 6.60381 3.5625 6.47201C6.06944 5.94479 8.44444 5.41758 10.9514 4.75857C13.4583 4.23136 15.8333 3.70415 18.3403 3.17694C18.3403 4.62677 18.3403 6.0766 18.3403 7.52643C18.0764 7.52643 17.9444 7.65823 17.6806 7.65823C17.5486 6.60381 17.4167 5.94479 17.1528 5.54939C17.0208 5.15398 16.625 5.02218 16.2292 4.89037C15.8333 4.75857 15.1736 4.89037 14.25 5.02218C13.3264 5.28578 12.4028 5.41758 11.6111 5.54939C10.6875 5.81299 9.76389 5.94479 8.97222 6.2084Z" fill="white"/>
<path d="M38.3959 20.5743L38.2639 24.6602H26.6528V24.1329L35.4931 12.4025H31.007C30.2153 12.4025 29.5556 12.5343 29.2917 12.6661C29.0278 12.7979 28.7639 12.9297 28.632 13.3251C28.3681 13.8523 28.1042 14.3795 28.1042 15.1704H27.5764V11.4799H38.6598V12.0071L29.8195 23.7375H34.5695C35.6251 23.7375 36.2848 23.6057 36.6806 23.4739C36.9445 23.2103 37.3403 22.9467 37.4723 22.5513C37.6042 22.2877 37.7362 21.6287 37.8681 20.5743H38.3959ZM51.5903 11.4799V19.5198C51.5903 20.9697 51.5903 21.8923 51.7223 22.2877C51.7223 22.5513 51.8542 22.8149 51.9862 22.9467C52.25 23.0785 52.382 23.0785 52.6459 23.0785C52.9098 23.0785 53.1737 23.0785 53.5695 22.9467L53.8334 23.4739L49.875 25.0556H49.2153V22.2877C48.0278 23.4739 47.2362 24.2647 46.5764 24.5284C46.0487 24.9238 45.3889 25.0556 44.7292 25.0556C44.0695 25.0556 43.4098 24.792 42.882 24.3965C42.2223 24.0011 41.9584 23.4739 41.6945 22.8149C41.4306 22.0241 41.4306 21.1015 41.4306 19.9153V13.9841C41.4306 13.4569 41.2987 12.9297 41.1667 12.7979C41.0348 12.5343 40.9028 12.2707 40.6389 12.1389C40.3751 12.0071 39.8473 12.0071 39.1876 12.0071V11.4799H43.8056V20.3107C43.8056 21.4969 43.9376 22.2877 44.4653 22.6831C44.8612 23.0785 45.3889 23.3421 45.9167 23.3421C46.3125 23.3421 46.8403 23.2103 47.3681 22.9467C47.8959 22.6831 48.5556 22.1559 49.2153 21.3651V13.9841C49.2153 13.1933 49.0834 12.6661 48.8195 12.4025C48.5556 12.1389 47.8959 12.0071 47.1042 12.0071V11.4799H51.5903ZM58.3195 19.7835C57.3959 19.388 56.8681 18.8608 56.4723 18.2018C55.9445 17.5428 55.8125 16.752 55.8125 15.8294C55.8125 14.5113 56.2084 13.4569 57.2639 12.5343C58.1875 11.6117 59.507 11.0845 60.9584 11.0845C62.2778 11.0845 63.3334 11.3481 64.257 12.0071H67.0278C67.4237 12.0071 67.6875 12.0071 67.6875 12.0071C67.8195 12.1389 67.8195 12.1389 67.8195 12.1389C67.9514 12.2707 67.9514 12.4025 67.9514 12.6661C67.9514 12.9297 67.9514 13.0615 67.9514 13.1933C67.8195 13.1933 67.8195 13.1933 67.6875 13.3251C67.6875 13.3251 67.4237 13.3251 67.0278 13.3251H65.3125C65.8403 13.9841 66.1042 14.9068 66.1042 15.9612C66.1042 17.1474 65.7084 18.2018 64.6528 19.1244C63.7292 19.9153 62.5417 20.4425 60.9584 20.4425C60.2987 20.4425 59.6389 20.3107 58.9792 20.0471C58.5834 20.4425 58.3195 20.8379 58.0556 21.1015C57.9237 21.3651 57.9237 21.6287 57.9237 21.7605C57.9237 21.8923 57.9237 22.0241 58.0556 22.2877C58.3195 22.4195 58.5834 22.5513 58.9792 22.5513C59.375 22.5513 60.0348 22.6831 61.0903 22.6831C63.0695 22.6831 64.257 22.8149 64.9167 22.9467C65.8403 22.9467 66.5 23.3421 67.0278 23.8693C67.5556 24.3965 67.8195 25.0556 67.8195 25.8464C67.8195 26.9008 67.2917 27.9552 66.3681 28.8778C64.7848 30.3277 62.8056 30.9867 60.4306 30.9867C58.5834 30.9867 57 30.5913 55.8125 29.8005C55.0209 29.2732 54.757 28.746 54.757 28.2188C54.757 28.087 54.757 27.8234 54.8889 27.5598C55.0209 27.1644 55.4167 26.769 55.8125 26.11C55.9445 25.9782 56.4723 25.451 57.3959 24.5284C56.8681 24.2647 56.4723 24.0011 56.3403 23.7375C56.0764 23.4739 55.9445 23.2103 55.9445 22.9467C55.9445 22.5513 56.0764 22.1559 56.3403 21.7605C56.6042 21.2333 57.2639 20.7061 58.3195 19.7835ZM60.6945 11.8753C60.0348 11.8753 59.507 12.1389 58.9792 12.6661C58.4514 13.1933 58.3195 14.1159 58.3195 15.3022C58.3195 16.752 58.5834 17.9382 59.2431 18.729C59.7709 19.388 60.2987 19.6516 61.0903 19.6516C61.882 19.6516 62.4098 19.388 62.9375 18.8608C63.3334 18.3336 63.5973 17.5428 63.5973 16.3566C63.5973 14.7749 63.3334 13.5887 62.6737 12.7979C62.1459 12.1389 61.4862 11.8753 60.6945 11.8753ZM58.1875 24.6602C57.6598 25.1874 57.3959 25.5828 57.132 25.9782C56.8681 26.3736 56.7362 26.769 56.7362 27.1644C56.7362 27.6916 57 28.087 57.6598 28.3506C58.5834 29.0096 59.9028 29.2732 61.75 29.2732C63.4653 29.2732 64.7848 29.0096 65.5764 28.3506C66.3681 27.6916 66.7639 27.1644 66.7639 26.3736C66.7639 25.8464 66.5 25.5828 65.9723 25.3192C65.5764 25.1874 64.5209 25.0556 63.0695 24.9238C60.9584 24.9238 59.2431 24.792 58.1875 24.6602ZM74.0209 11.0845V21.6287C74.0209 22.5513 74.0209 23.0785 74.1528 23.3421C74.2848 23.6057 74.4167 23.7375 74.6806 23.8693C74.9445 24.0011 75.3403 24.1329 76 24.1329V24.6602H69.6667V24.1329C70.1945 24.1329 70.7223 24.0011 70.8542 24.0011C71.1181 23.8693 71.25 23.6057 71.382 23.3421C71.5139 23.0785 71.6459 22.5513 71.6459 21.6287V16.6202C71.6459 15.1704 71.5139 14.2477 71.5139 13.8523C71.382 13.5887 71.382 13.3251 71.1181 13.1933C70.9862 13.0615 70.8542 13.0615 70.5903 13.0615C70.3264 13.0615 69.9306 13.0615 69.6667 13.1933L69.4028 12.6661L73.3612 11.0845H74.0209Z" fill="white"/>
<path fill-rule="evenodd" clip-rule="evenodd" d="M9.36802 6.4714C9.23607 7.65763 9.10413 8.71205 8.97218 9.76647C8.84024 10.8209 8.84024 11.7435 8.70829 12.7979H8.31246C8.4444 11.6117 8.4444 10.5573 8.57635 9.50287C8.70829 8.31664 8.84024 7.26222 8.97218 6.2078C9.76385 5.94419 10.6875 5.81239 11.6111 5.54878C12.4027 5.41698 13.3263 5.28518 14.25 5.02157C15.1736 4.88977 15.8333 4.75797 16.2291 4.88977C16.625 5.02157 16.8888 5.15338 17.1527 5.41698C16.8888 5.28518 16.7569 5.28518 16.625 5.15338C16.2291 5.15338 15.5694 5.15338 14.5138 5.41698C13.7222 5.54878 12.7986 5.81239 12.0069 5.94419C11.0833 6.076 10.1597 6.3396 9.36802 6.4714ZM16.3611 9.89827C16.493 9.76647 16.625 9.76647 16.7569 9.76647C16.7569 10.9527 16.625 12.1389 16.625 13.1933C16.493 14.3796 16.493 15.434 16.3611 16.6202C16.2291 16.6202 16.0972 16.6202 15.8333 16.6202C15.8333 16.4884 15.8333 16.3566 15.8333 16.3566H15.9652C16.0972 15.1704 16.0972 13.9842 16.2291 12.9297C16.2291 11.8753 16.3611 10.8209 16.3611 9.89827ZM15.0416 14.2478C14.9097 14.116 14.7777 14.116 14.7777 14.116C14.3819 13.8524 13.7222 13.8524 12.9305 13.8524C12.2708 13.8524 11.4791 13.8524 10.8194 13.9842C10.0277 13.9842 9.36802 13.9842 8.57635 13.9842C8.4444 14.9068 8.4444 15.8294 8.31246 16.752C8.18051 17.6746 8.18051 18.5973 8.04857 19.5199C7.91663 20.3107 7.91663 20.7061 8.04857 20.8379C8.04857 20.9697 8.04857 20.9697 8.04857 20.9697C7.78468 20.8379 7.65274 20.7061 7.65274 20.5743C7.52079 20.3107 7.52079 19.9153 7.65274 19.1245C7.78468 18.2018 7.78468 17.2792 7.91663 16.4884C8.04857 15.5658 8.04857 14.6432 8.18051 13.7206C8.97218 13.5887 9.6319 13.5887 10.4236 13.5887C11.0833 13.5887 11.875 13.5887 12.5347 13.4569C13.3263 13.4569 13.9861 13.5887 14.3819 13.7206C14.6458 13.8524 14.9097 13.9842 15.0416 14.2478ZM19.1319 18.7291C19.2638 18.7291 19.5277 18.7291 19.6597 18.7291C19.2638 19.5199 19 20.4425 18.6041 21.2333C18.3402 22.0241 17.9444 22.8149 17.6805 23.7376C15.0416 23.3421 12.4027 22.9467 9.76385 22.5513C7.2569 22.1559 4.61801 21.8923 1.97913 21.4969C1.97913 21.3651 1.97913 21.2333 1.97913 21.2333C4.48607 21.4969 6.99301 21.8923 9.36802 22.2877C12.0069 22.5513 14.6458 22.9467 17.2847 23.3421C17.6805 22.5513 17.9444 21.7605 18.3402 20.8379C18.6041 20.1789 18.868 19.3881 19.1319 18.7291ZM5.93746 6.99861C5.67357 6.99861 5.14579 6.99861 4.61801 7.13042C4.35413 7.13042 4.09024 7.26222 3.95829 7.26222C3.95829 7.13042 3.95829 6.99861 3.95829 6.86681L4.74996 6.73501C5.27774 6.60321 5.67357 6.73501 5.80552 6.86681C5.93746 6.86681 5.93746 6.99861 5.93746 6.99861ZM18.3402 3.57174L18.7361 3.43994C18.7361 4.88977 18.7361 6.3396 18.7361 7.92123C18.4722 7.92123 18.3402 7.92123 18.0763 7.92123C18.0763 7.78943 18.0763 7.65763 18.0763 7.52583H18.3402V3.57174Z" fill="#999999"/>
<path d="M72.6048 9.16895C74.0556 9.0303 75.1473 8.03677 75.0432 6.94984C74.9391 5.86291 73.6787 5.09418 72.2279 5.23284C70.7771 5.37149 69.6853 6.36502 69.7894 7.45194C69.8935 8.53887 71.154 9.3076 72.6048 9.16895Z" fill="white"/>
<path fill-rule="evenodd" clip-rule="evenodd" d="M20.8472 26.6373L21.5069 0.0131836L23.8819 3.44005L23.618 25.0557L20.8472 26.6373Z" fill="#E6E6E6"/>
</g>
<defs>
<clipPath id="clip0">
<rect width="76" height="31" fill="white"/>
</clipPath>
</defs>
</svg>
