<svg width="82" height="30" viewBox="0 0 82 30" fill="none" xmlns="http://www.w3.org/2000/svg">
<path d="M70.2466 6.35135H82V9.72973H77.9V24.0541H74.3466V9.72973H70.2466V6.35135ZM55.0766 6.35135H58.22L65.19 17.1622V6.35135H68.7433V24.0541H65.6L58.63 13.2432V24.0541H55.0766V6.35135ZM43.87 6.35135H53.1633V9.72973H44.9633V13.5135H51.9333V16.8919H44.9633V20.6757H53.1633V24.0541H43.87V30H43.1866V0H43.87V6.35135Z" fill="#CCCCCC"/>
<path d="M15.58 6.35156H27.3333V9.72994H19.27V13.5137H26.24V16.8921H19.27V20.6759H27.3333V24.0543H15.58V6.35156ZM0 6.35156H3.28L10.1133 17.1624V6.35156H13.6667V24.0543H10.5233L3.55333 13.2435V24.0543H0V6.35156ZM28.9733 6.35156H40.7267V9.72994H36.6267V24.0543H33.0733V9.72994H28.9733V6.35156Z" fill="white"/>
</svg>
