<svg width="79" height="30" viewBox="0 0 79 30" fill="none" xmlns="http://www.w3.org/2000/svg">
<path fill-rule="evenodd" clip-rule="evenodd" d="M8.69 0H79L71.2317 30H0.921667L4.87167 14.6018L2.37 16.5929L0 18.4513L0.658333 15.9292L2.50167 9.02655L3.16 6.37168L4.47667 8.23009L6.05667 10.354L8.69 0ZM3.555 9.02655L6.05667 12.4779L1.71167 15.9292L3.555 9.02655ZM33.4433 1.32743H77.42L71.6267 23.6283H27.7817L30.415 13.0088H34.76L35.0233 11.9469H30.81L33.4433 1.32743ZM37.3933 13.0088H41.7383L39.3683 22.1681H70.4417L75.5767 2.65487H44.3717L42.0017 11.9469H37.7883L37.3933 13.0088ZM21.5933 1.32743H32.9167L30.1517 11.9469H26.9917L26.7283 13.0088H29.8883L27.1233 23.6283H15.8L18.565 13.0088H21.33L21.5933 11.9469H18.8283L21.5933 1.32743ZM9.61167 1.32743H20.935L18.3017 11.9469H15.01C15.2733 12.2124 15.405 12.6106 15.405 13.0088H17.9067L15.2733 23.6283H3.81833L6.58333 13.0088H9.085L9.34833 11.9469H6.84667L9.61167 1.32743ZM46.0833 9.02655L41.87 12.4779L44.3717 15.9292L46.0833 9.02655ZM67.545 6.37168H69.52L65.7017 20.8407H67.545L71.3633 6.37168H73.3383L73.865 3.9823H68.2033L67.545 6.37168ZM64.1217 6.37168H67.15L67.8083 3.9823H62.805L58.46 20.8407H60.3033L62.1467 13.9381H64.5167L65.175 11.5487H62.805L64.1217 6.37168ZM52.6667 16.8584C52.0083 19.5133 52.535 21.1062 54.3783 21.1062C56.2217 21.1062 57.67 19.5133 58.3283 16.8584L60.5667 8.09735C61.3567 5.44248 60.6983 3.84956 58.855 3.84956C57.0117 3.84956 55.695 5.44248 54.905 8.09735L52.6667 16.8584ZM56.88 7.9646C57.1433 6.63717 57.67 6.23894 58.3283 6.23894C58.855 6.23894 59.1183 6.63717 58.855 7.9646L56.485 16.9911C56.09 18.1858 55.695 18.7168 55.0367 18.7168C54.51 18.7168 54.2467 18.1858 54.51 16.9911L56.88 7.9646ZM48.585 8.09735C47.2683 12.8761 50.8233 13.5398 49.9017 16.9911C49.6383 18.1858 49.1117 18.5841 48.4533 18.5841C47.9267 18.5841 47.6633 18.1858 47.9267 16.9911L48.3217 15.6637H46.61L46.215 16.8584C45.5567 19.5133 46.0833 21.1062 47.9267 21.1062C49.77 21.1062 51.0867 19.5133 51.745 16.8584C53.0617 12.0796 49.6383 11.4159 50.4283 7.9646C50.8233 6.63717 51.2183 6.23894 51.8767 6.23894C52.4033 6.23894 52.6667 6.63717 52.2717 7.9646L52.14 8.76106H53.8517L53.9833 8.09735C54.7733 5.44248 54.2467 3.84956 52.4033 3.84956C50.56 3.84956 49.2433 5.44248 48.585 8.09735ZM38.0517 27.3451L38.1833 26.9469H39.3683L39.105 27.7434C38.8417 28.0088 38.5783 28.1416 38.315 28.2743C38.0517 28.4071 37.7883 28.4071 37.3933 28.4071C36.8667 28.4071 36.4717 28.2743 36.2083 28.0088C36.0767 27.7434 35.945 27.4779 36.0767 26.9469C36.2083 26.5487 36.4717 26.1504 36.8667 25.885C37.2617 25.6195 37.6567 25.4867 38.1833 25.4867C38.4467 25.4867 38.71 25.6195 38.9733 25.6195C39.2367 25.7522 39.3683 26.0177 39.5 26.1504L39.105 26.4159C38.9733 26.2832 38.8417 26.1504 38.71 26.0177C38.5783 26.0177 38.315 25.885 38.0517 25.885C37.6567 25.885 37.3933 26.0177 37.13 26.2832C36.735 26.4159 36.6033 26.6814 36.4717 26.9469C36.4717 27.3451 36.4717 27.4779 36.6033 27.7434C36.8667 28.0088 37.13 28.0088 37.525 28.0088C37.7883 28.0088 37.92 28.0088 38.1833 27.8761C38.4467 27.8761 38.5783 27.7434 38.71 27.6106L38.8417 27.3451H38.0517ZM43.5817 27.3451H44.635L44.3717 26.2832L43.5817 27.3451ZM42.265 28.4071L44.3717 25.6195H44.635L45.425 28.4071H44.8983L44.7667 27.6106H43.3183L42.7917 28.4071H42.265ZM48.8483 28.4071L49.6383 25.6195H49.9017L50.6917 27.2124L52.14 25.6195H52.535L51.8767 28.4071H51.35L51.8767 26.4159L50.4283 27.8761L49.77 26.4159L49.2433 28.4071H48.8483ZM55.8267 28.4071L56.6167 25.6195H57.0117L56.3533 28.4071H55.8267ZM60.3033 28.4071L61.0933 25.6195H61.3567L62.5417 27.4779L63.0683 25.6195H63.4633L62.805 28.4071H62.5417L61.225 26.4159L60.83 28.4071H60.3033ZM68.8617 27.3451L68.9933 26.9469H70.1783L69.915 27.7434C69.7833 28.0088 69.52 28.1416 69.125 28.2743C68.8617 28.4071 68.5983 28.4071 68.2033 28.4071C67.6767 28.4071 67.4133 28.2743 67.15 28.0088C66.8867 27.7434 66.755 27.4779 66.8867 26.9469C67.0183 26.5487 67.2817 26.1504 67.6767 25.885C68.0717 25.6195 68.4667 25.4867 68.9933 25.4867C69.3883 25.4867 69.6517 25.6195 69.7833 25.6195C70.0467 25.7522 70.1783 26.0177 70.31 26.1504L69.915 26.4159C69.7833 26.2832 69.6517 26.1504 69.52 26.0177C69.3883 26.0177 69.125 25.885 68.8617 25.885C68.4667 25.885 68.2033 26.0177 67.94 26.2832C67.545 26.4159 67.4133 26.6814 67.2817 26.9469C67.2817 27.3451 67.2817 27.4779 67.545 27.7434C67.6767 28.0088 67.94 28.0088 68.335 28.0088C68.5983 28.0088 68.8617 28.0088 68.9933 27.8761C69.2567 27.8761 69.3883 27.7434 69.52 27.6106L69.6517 27.3451H68.8617ZM14.7467 25.0885C15.2733 25.0885 15.6683 25.6195 15.5367 26.1504C15.5367 26.2832 15.5367 26.2832 15.5367 26.2832C16.0633 26.4159 16.3267 26.8142 16.195 27.3451C16.0633 28.0088 15.405 28.4071 14.8783 28.4071C14.4833 28.4071 14.0883 28.1416 14.0883 27.7434C13.825 28.1416 13.2983 28.4071 12.9033 28.4071C12.3767 28.4071 11.9817 28.0088 12.1133 27.3451C12.245 26.8142 12.7717 26.4159 13.43 26.2832C13.43 26.2832 13.43 26.2832 13.43 26.1504C13.5617 25.6195 14.22 25.0885 14.7467 25.0885ZM14.22 29.0708L13.9567 28.0088L13.2983 29.0708H14.22ZM31.6 25.0885C31.8633 25.0885 33.18 26.4159 32.9167 27.3451C32.785 28.0088 32.2583 28.4071 31.6 28.4071C31.205 28.4071 30.9417 28.1416 30.81 27.7434C30.5467 28.1416 30.1517 28.4071 29.7567 28.4071C29.0983 28.4071 28.7033 28.0088 28.9667 27.3451C29.23 26.2832 31.205 25.0885 31.6 25.0885ZM30.9417 29.0708L30.81 28.0088L30.02 29.0708H30.9417ZM22.2517 28.8053C21.725 28.8053 20.4083 27.4779 20.6717 26.2832C20.8033 25.7522 21.4617 25.2212 22.12 25.2212C22.6467 25.2212 22.91 25.4867 22.91 25.885C23.305 25.4867 23.7 25.2212 24.2267 25.2212C24.7533 25.2212 25.1483 25.7522 25.0167 26.2832C24.7533 27.6106 22.6467 28.8053 22.2517 28.8053ZM6.715 25.0885C7.11 25.885 7.505 26.4159 8.16333 27.0796C7.24167 27.6106 6.58333 28.1416 5.79333 28.9381C5.39833 28.1416 5.00333 27.6106 4.345 27.0796C5.26667 26.4159 5.925 25.885 6.715 25.0885ZM34.8917 6.10619H36.9983L33.0483 21.2389H35.0233L38.8417 6.10619H40.9483L41.6067 3.58407H35.55L34.8917 6.10619ZM25.4117 6.10619H28.835L29.4933 3.58407H24.095L19.6183 21.2389H24.885L25.5433 18.7168H22.12L23.5683 13.5398H26.2017L26.86 11.0177H24.2267L25.4117 6.10619ZM14.22 6.10619C14.8783 6.10619 15.01 6.63717 14.7467 7.83186L14.4833 8.8938C14.0883 10.2212 13.5617 10.7522 12.7717 10.7522H11.9817L13.1667 6.10619H14.22ZM12.245 13.2743C13.1667 13.2743 13.2983 13.8053 12.9033 15.3982L12.5083 16.9911C12.245 18.3186 11.7183 18.7168 11.06 18.7168H10.0067L11.3233 13.2743H12.245ZM14.8783 3.58407H11.9817L7.37333 21.2389H10.4017C12.3767 21.2389 13.6933 19.7788 14.4833 16.9911L14.8783 15.531C15.2733 13.6726 15.2733 12.3451 14.3517 11.8142C15.405 11.1504 16.0633 10.0885 16.59 8.23009L16.7217 7.56637C17.38 4.9115 16.8533 3.58407 14.8783 3.58407Z" fill="white"/>
</svg>
