<svg width="127" height="31" viewBox="0 0 127 31" fill="none" xmlns="http://www.w3.org/2000/svg">
<g clip-path="url(#clip0)">
<path d="M51.9031 17.918C51.8306 17.9178 51.7611 17.8878 51.7098 17.8347C51.6585 17.7815 51.6296 17.7096 51.6293 17.6345V13.3655C51.6296 13.2903 51.6585 13.2184 51.7098 13.1653C51.7611 13.1121 51.8306 13.0822 51.9031 13.0819H53.9623C53.5957 10.6601 52.6768 8.36373 51.2819 6.38328L49.8267 7.89035C49.7752 7.94333 49.7055 7.97306 49.6329 7.97306C49.5603 7.97306 49.4907 7.94333 49.4392 7.89035L46.5249 4.87229C46.4738 4.81895 46.4451 4.74682 46.4451 4.67164C46.4451 4.59647 46.4738 4.52434 46.5249 4.471L47.9802 2.96393C46.0678 1.51948 43.8504 0.56805 41.512 0.188549V2.32109C41.5117 2.39631 41.4827 2.46835 41.4313 2.52149C41.3799 2.57462 41.3103 2.60453 41.2376 2.60468H37.116C37.0435 2.60438 36.974 2.57441 36.9227 2.52129C36.8714 2.46817 36.8425 2.39621 36.8422 2.32109V0.187988C34.5037 0.567656 32.2864 1.51928 30.3741 2.96393L31.8293 4.471C31.8804 4.52434 31.9092 4.59647 31.9092 4.67164C31.9092 4.74682 31.8804 4.81895 31.8293 4.87229L28.9151 7.89035C28.8635 7.94333 28.7939 7.97306 28.7213 7.97306C28.6487 7.97306 28.5791 7.94333 28.5276 7.89035L27.0723 6.38328C25.6775 8.36356 24.7586 10.6597 24.3919 13.0813H26.4484C26.5209 13.0816 26.5904 13.1116 26.6417 13.1647C26.693 13.2178 26.7219 13.2898 26.7222 13.3649V17.6333C26.7221 17.7086 26.6932 17.7807 26.6419 17.8339C26.5906 17.8871 26.521 17.9172 26.4484 17.9175H24.3914C24.758 20.3391 25.6769 22.6352 27.0718 24.6155L28.527 23.1084C28.5785 23.0555 28.6482 23.0257 28.7208 23.0257C28.7934 23.0257 28.863 23.0555 28.9145 23.1084L31.8293 26.1271C31.8804 26.1804 31.9092 26.2525 31.9092 26.3277C31.9092 26.4029 31.8804 26.475 31.8293 26.5283L30.3741 28.0354C32.2865 29.4803 34.504 30.4322 36.8427 30.8119V28.6794C36.843 28.6043 36.872 28.5323 36.9233 28.4792C36.9746 28.4261 37.044 28.3961 37.1166 28.3958H41.2376C41.3102 28.3961 41.3797 28.4261 41.431 28.4792C41.4822 28.5323 41.5112 28.6043 41.5115 28.6794V30.8125C43.8503 30.433 46.0681 29.4813 47.9807 28.0365L46.5255 26.5295C46.4743 26.4761 46.4456 26.404 46.4456 26.3288C46.4456 26.2536 46.4743 26.1815 46.5255 26.1282L49.4403 23.1096C49.4918 23.0566 49.5614 23.0268 49.634 23.0268C49.7066 23.0268 49.7762 23.0566 49.8277 23.1096L51.283 24.6166C52.6775 22.6361 53.596 20.3397 53.9623 17.918H51.9031ZM39.1768 26.3501C33.3906 26.3501 28.7002 21.4926 28.7002 15.5002C28.7002 9.50783 33.3906 4.65203 39.1768 4.65203C44.9631 4.65203 49.654 9.50951 49.654 15.5019C49.654 21.4943 44.9631 26.3518 39.1768 26.3518V26.3501Z" fill="white"/>
<path d="M39.244 9.73565L43.7715 15.4484C43.7832 15.4631 43.7896 15.4815 43.7896 15.5005C43.7896 15.5195 43.7832 15.538 43.7715 15.5526L39.244 21.2654C39.2358 21.2754 39.2255 21.2835 39.214 21.289C39.2024 21.2945 39.1899 21.2974 39.1772 21.2974C39.1644 21.2974 39.1519 21.2945 39.1403 21.289C39.1288 21.2835 39.1185 21.2754 39.1103 21.2654L34.5812 15.5526C34.5695 15.538 34.5631 15.5195 34.5631 15.5005C34.5631 15.4815 34.5695 15.4631 34.5812 15.4484L39.1103 9.73565C39.1185 9.72561 39.1288 9.71754 39.1403 9.71201C39.1519 9.70648 39.1644 9.70361 39.1772 9.70361C39.1899 9.70361 39.2024 9.70648 39.214 9.71201C39.2255 9.71754 39.2358 9.72561 39.244 9.73565Z" fill="white"/>
<path d="M13.8541 14.4385H15.7374C16.6314 14.4385 17.1261 13.7856 17.1261 12.9527C17.1261 12.1199 16.6471 11.5151 15.6892 11.5151H13.8574C13.8228 11.5151 13.7896 11.5294 13.7651 11.5547C13.7407 11.58 13.7269 11.6144 13.7269 11.6502V14.3034C13.7269 14.3387 13.7402 14.3725 13.764 14.3978C13.7877 14.423 13.8201 14.4376 13.8541 14.4385Z" fill="white"/>
<path d="M15.9289 16.1367H13.8541C13.8195 16.1367 13.7863 16.1509 13.7618 16.1763C13.7374 16.2016 13.7236 16.236 13.7236 16.2718V19.3493C13.7236 19.3851 13.7374 19.4194 13.7618 19.4448C13.7863 19.4701 13.8195 19.4843 13.8541 19.4843H15.9268C16.9804 19.4843 17.5709 18.7821 17.5709 17.803C17.5736 16.839 16.9669 16.1367 15.9289 16.1367Z" fill="white"/>
<path d="M23.3528 9.23425C22.0734 7.39733 20.2646 6.02774 18.1864 5.3223C16.1082 4.61686 13.8675 4.61188 11.7863 5.30809C9.70521 6.0043 7.89076 7.36585 6.60375 9.19708C5.31674 11.0283 4.62341 13.2349 4.62341 15.4999C4.62341 17.7648 5.31674 19.9715 6.60375 21.8027C7.89076 23.6339 9.70521 24.9955 11.7863 25.6917C13.8675 26.3879 16.1082 26.3829 18.1864 25.6775C20.2646 24.972 22.0734 23.6024 23.3528 21.7655C21.8692 17.7297 21.8692 13.27 23.3528 9.23425ZM16.6774 21.228C16.6524 21.2324 16.6296 21.2457 16.6131 21.2657C16.5966 21.2857 16.5873 21.311 16.5871 21.3373V23.1784C16.5871 23.2221 16.5703 23.264 16.5405 23.2949C16.5106 23.3258 16.4701 23.3432 16.4279 23.3432H15.3153C15.2731 23.3432 15.2326 23.3258 15.2028 23.2949C15.1729 23.264 15.1562 23.2221 15.1562 23.1784V21.4096C15.1562 21.3799 15.1448 21.3514 15.1245 21.3304C15.1042 21.3093 15.0767 21.2975 15.0479 21.2975H13.8336C13.8048 21.2975 13.7773 21.3093 13.757 21.3304C13.7367 21.3514 13.7253 21.3799 13.7253 21.4096V23.1801C13.7253 23.2238 13.7086 23.2657 13.6787 23.2966C13.6489 23.3275 13.6084 23.3449 13.5662 23.3449H12.4552C12.413 23.3449 12.3725 23.3275 12.3427 23.2966C12.3128 23.2657 12.2961 23.2238 12.2961 23.1801V21.4096C12.2961 21.3799 12.2847 21.3514 12.2644 21.3304C12.2441 21.3093 12.2165 21.2975 12.1878 21.2975H10.5194C10.4848 21.2975 10.4516 21.2833 10.4272 21.258C10.4027 21.2326 10.389 21.1983 10.389 21.1625V19.6195C10.389 19.5837 10.4027 19.5493 10.4272 19.524C10.4516 19.4987 10.4848 19.4845 10.5194 19.4845H11.5763C11.605 19.4845 11.6325 19.4726 11.6528 19.4516C11.6731 19.4306 11.6845 19.4021 11.6845 19.3724V11.6263C11.6845 11.5966 11.6731 11.568 11.6528 11.547C11.6325 11.526 11.605 11.5142 11.5763 11.5142H10.3857C10.3511 11.5142 10.318 11.5 10.2935 11.4746C10.269 11.4493 10.2553 11.4149 10.2553 11.3791V9.83843C10.2553 9.8026 10.269 9.76825 10.2935 9.74292C10.318 9.71759 10.3511 9.70336 10.3857 9.70336H12.1911C12.2198 9.70336 12.2473 9.69155 12.2676 9.67053C12.2879 9.64951 12.2993 9.62099 12.2993 9.59127V7.8219C12.2993 7.7782 12.3161 7.73629 12.3459 7.70539C12.3758 7.67449 12.4162 7.65713 12.4584 7.65713H13.57C13.6122 7.65713 13.6527 7.67449 13.6825 7.70539C13.7123 7.73629 13.7291 7.7782 13.7291 7.8219V9.59239C13.7291 9.62212 13.7405 9.65063 13.7608 9.67165C13.7811 9.69267 13.8086 9.70448 13.8373 9.70448H15.0539C15.0826 9.70448 15.1101 9.69267 15.1304 9.67165C15.1507 9.65063 15.1621 9.62212 15.1621 9.59239V7.8219C15.1621 7.7782 15.1789 7.73629 15.2087 7.70539C15.2386 7.67449 15.279 7.65713 15.3212 7.65713H16.4328C16.4539 7.65668 16.4749 7.6606 16.4946 7.66864C16.5142 7.67669 16.5321 7.6887 16.5472 7.70399C16.5623 7.71927 16.5744 7.73752 16.5826 7.75767C16.5908 7.77782 16.5951 7.79947 16.5952 7.82134V9.68038C16.5955 9.70618 16.6044 9.73109 16.6203 9.7509C16.6363 9.77071 16.6584 9.78421 16.6828 9.78911C18.2144 10.0789 19.2421 11.0939 19.2421 12.6917C19.2421 13.7644 18.7361 14.6914 17.881 15.1667C17.8768 15.1689 17.8733 15.1723 17.871 15.1766C17.8687 15.1809 17.8678 15.1858 17.8682 15.1907C17.8687 15.1955 17.8706 15.2001 17.8736 15.2039C17.8767 15.2076 17.8808 15.2103 17.8853 15.2115C19.103 15.5926 19.6885 16.7629 19.6885 17.9325C19.6804 19.9098 18.3697 20.9613 16.6774 21.228Z" fill="white"/>
<path d="M14.9668 28.3956C8.0895 28.3956 2.51485 22.6229 2.51485 15.5C2.51485 8.37716 8.08896 2.60445 14.9668 2.60445C16.7444 2.60248 18.5017 2.99563 20.12 3.75733C21.7383 4.51903 23.18 5.63155 24.3475 7.01973C24.7668 6.2359 25.2433 5.48643 25.773 4.77791C24.3777 3.26564 22.7005 2.06244 20.843 1.24116C18.9856 0.419892 16.9864 -0.00235142 14.9668 9.84903e-06C6.70084 9.84903e-06 0 6.93959 0 15.5C0 24.0604 6.70084 31 14.9668 31C16.9864 31.0026 18.9855 30.5806 20.8431 29.7597C22.7007 28.9387 24.378 27.7358 25.7735 26.2238C25.2439 25.5153 24.7673 24.7658 24.3481 23.982C23.1803 25.3699 21.7385 26.4821 20.1201 27.2435C18.5017 28.0049 16.7443 28.3978 14.9668 28.3956Z" fill="white"/>
<path d="M63.9308 13.6622C62.7234 13.2138 61.64 12.9084 61.5734 12.2207V12.2117C61.561 11.6047 62.1644 11.3968 62.8143 11.3968C63.7619 11.3968 65.2323 11.9673 65.8363 12.2151C65.8578 12.2239 65.8819 12.2237 65.9033 12.2145C65.9247 12.2053 65.9418 12.1878 65.951 12.1657L66.7979 10.1447C66.8071 10.1229 66.8078 10.0982 66.7998 10.0759C66.7918 10.0535 66.7759 10.0352 66.7552 10.0248C64.853 9.0653 63.3636 8.9717 62.6601 8.9717C60.582 8.9717 59.0775 10.2243 59.0775 12.3288C59.0775 14.6418 61.0474 15.2684 62.6136 15.7981C63.6375 16.1343 64.4747 16.4398 64.4747 17.1471C64.4747 17.7076 63.7922 18.1111 62.9859 18.1111C62.0323 18.1111 61.0052 17.698 59.9613 17.1852C59.9404 17.1749 59.9166 17.1734 59.8947 17.1809C59.8728 17.1884 59.8546 17.2044 59.8438 17.2256L58.8259 19.2185C58.8148 19.2402 58.8124 19.2655 58.8193 19.2889C58.8262 19.3124 58.8418 19.332 58.8627 19.3435C60.2432 20.1029 61.5144 20.5205 63.0801 20.5205C65.4531 20.5205 67.0972 18.9944 67.0972 17.035C67.095 14.9787 65.4353 14.2081 63.9308 13.6622ZM71.9873 12.2369C68.9437 12.2369 68.0822 14.7545 68.0822 16.46C68.0822 18.2142 68.9762 20.6668 71.9873 20.6668C74.9984 20.6668 75.8924 18.2142 75.8924 16.46C75.8924 14.7539 74.9984 12.2364 71.9873 12.2364V12.2369ZM71.9873 18.4092C70.6387 18.4092 70.4503 16.9476 70.4503 16.46C70.4503 15.9724 70.6392 14.4944 71.9873 14.4944C73.3202 14.4944 73.5085 15.9724 73.5085 16.46C73.5085 16.9476 73.3202 18.4087 71.9873 18.4087V18.4092ZM82.6409 9.6039C81.7598 9.17403 80.9432 8.97395 80.3328 8.97395C78.7487 8.97395 77.4645 9.88581 77.4645 11.8076V12.284C77.4645 12.3088 77.455 12.3326 77.4381 12.3502C77.4211 12.3677 77.3981 12.3776 77.3742 12.3776H76.7702C76.7462 12.3776 76.7232 12.3875 76.7063 12.405C76.6893 12.4226 76.6798 12.4464 76.6798 12.4712V14.4821C76.6798 14.5069 76.6893 14.5307 76.7063 14.5483C76.7232 14.5659 76.7462 14.5757 76.7702 14.5757H77.3742C77.3981 14.5757 77.4211 14.5856 77.4381 14.6031C77.455 14.6207 77.4645 14.6445 77.4645 14.6693V20.4263C77.4645 20.4512 77.4741 20.475 77.491 20.4925C77.5079 20.5101 77.5309 20.5199 77.5549 20.5199H79.758C79.7699 20.5199 79.7817 20.5175 79.7926 20.5128C79.8036 20.5081 79.8135 20.5012 79.8219 20.4925C79.8303 20.4838 79.837 20.4735 79.8415 20.4621C79.8461 20.4508 79.8484 20.4386 79.8484 20.4263V14.6699C79.8484 14.6576 79.8507 14.6454 79.8553 14.6341C79.8598 14.6227 79.8665 14.6124 79.8749 14.6037C79.8833 14.595 79.8932 14.5881 79.9042 14.5834C79.9152 14.5787 79.9269 14.5763 79.9388 14.5763H81.1543C81.1782 14.5763 81.2012 14.5664 81.2182 14.5489C81.2351 14.5313 81.2446 14.5075 81.2446 14.4827V12.4712C81.2446 12.4464 81.2351 12.4226 81.2182 12.405C81.2012 12.3875 81.1782 12.3776 81.1543 12.3776H79.9372C79.9132 12.3776 79.8902 12.3677 79.8733 12.3502C79.8563 12.3326 79.8468 12.3088 79.8468 12.284V11.8564C79.8468 11.4164 80.145 11.2399 80.4583 11.2399C80.7717 11.2399 81.3675 11.343 81.9108 11.5627C81.9331 11.5717 81.9579 11.5712 81.9798 11.5613C82.0017 11.5515 82.0189 11.533 82.0277 11.51L82.6863 9.72552C82.6944 9.70342 82.6941 9.679 82.6856 9.6571C82.6771 9.6352 82.6609 9.61741 82.6403 9.60726L82.6409 9.6039ZM87.2658 18.2008C87.2632 18.1888 87.2583 18.1774 87.2514 18.1674C87.2446 18.1573 87.2358 18.1488 87.2258 18.1422C87.2157 18.1356 87.2045 18.1312 87.1928 18.1291C87.1811 18.1271 87.1691 18.1274 87.1575 18.1301H87.1543C86.7841 18.2299 86.5411 18.2983 86.1634 18.2983C86.0222 18.2983 85.8024 18.1862 85.8024 17.8499V14.6749C85.8025 14.6627 85.8049 14.6506 85.8095 14.6394C85.8141 14.6281 85.8207 14.6179 85.8291 14.6093C85.8375 14.6007 85.8475 14.5939 85.8584 14.5893C85.8693 14.5847 85.881 14.5824 85.8928 14.5824H87.124C87.1358 14.5825 87.1475 14.5802 87.1584 14.5756C87.1693 14.571 87.1793 14.5642 87.1877 14.5556C87.1961 14.547 87.2027 14.5368 87.2073 14.5255C87.2119 14.5143 87.2143 14.5022 87.2144 14.49V12.4723C87.2143 12.4601 87.2119 12.448 87.2073 12.4368C87.2027 12.4255 87.1961 12.4153 87.1877 12.4067C87.1793 12.3981 87.1693 12.3913 87.1584 12.3867C87.1475 12.3821 87.1358 12.3798 87.124 12.3798H85.8928C85.881 12.3799 85.8693 12.3776 85.8584 12.373C85.8475 12.3684 85.8375 12.3616 85.8291 12.353C85.8207 12.3444 85.8141 12.3342 85.8095 12.3229C85.8049 12.3117 85.8025 12.2996 85.8024 12.2874V10.8935C85.8024 10.8813 85.8 10.8692 85.7954 10.858C85.7908 10.8467 85.7841 10.8365 85.7757 10.8279C85.7673 10.8193 85.7574 10.8125 85.7465 10.8079C85.7355 10.8033 85.7239 10.801 85.7121 10.801H83.6556C83.6333 10.8009 83.6117 10.8094 83.5951 10.8248C83.5785 10.8403 83.568 10.8616 83.5658 10.8845L83.4256 12.2947C83.4233 12.3176 83.4128 12.3389 83.3962 12.3544C83.3796 12.3698 83.3581 12.3783 83.3358 12.3782H82.7231C82.7113 12.3781 82.6996 12.3804 82.6887 12.385C82.6778 12.3896 82.6679 12.3964 82.6595 12.405C82.6511 12.4136 82.6444 12.4238 82.6398 12.4351C82.6352 12.4463 82.6328 12.4584 82.6328 12.4706V14.4883C82.6328 14.5005 82.6352 14.5126 82.6398 14.5238C82.6444 14.5351 82.6511 14.5453 82.6595 14.5539C82.6679 14.5625 82.6778 14.5693 82.6887 14.5739C82.6996 14.5785 82.7113 14.5808 82.7231 14.5808H83.3271C83.3389 14.5807 83.3506 14.583 83.3615 14.5876C83.3724 14.5922 83.3824 14.599 83.3908 14.6076C83.3992 14.6162 83.4058 14.6264 83.4104 14.6377C83.415 14.6489 83.4174 14.661 83.4175 14.6732V18.2495C83.4175 18.8447 83.5744 20.5188 85.3782 20.5188C85.6996 20.5188 86.4984 20.4269 87.5851 20.1265C87.6073 20.1204 87.6265 20.1056 87.6385 20.0852C87.6505 20.0649 87.6544 20.0405 87.6495 20.0172L87.2658 18.2008ZM94.1582 13.661C92.9508 13.2127 91.8674 12.9072 91.8008 12.2196V12.2106C91.7884 11.6036 92.3918 11.3957 93.0417 11.3957C93.9893 11.3957 95.4597 11.9662 96.0637 12.2139C96.0852 12.2228 96.1093 12.2225 96.1307 12.2133C96.1521 12.2041 96.1692 12.1867 96.1784 12.1646L97.0253 10.1431C97.0345 10.1212 97.0352 10.0965 97.0272 10.0742C97.0192 10.0519 97.0033 10.0336 96.9826 10.0231C95.0804 9.06362 93.591 8.97002 92.8875 8.97002C90.8094 8.97002 89.3049 10.2226 89.3049 12.3272C89.3049 14.6402 91.2748 15.2668 92.841 15.7964C93.8649 16.1327 94.7021 16.4381 94.7021 17.1454C94.7021 17.7059 94.0197 18.1094 93.2133 18.1094C92.2598 18.1094 91.2326 17.6963 90.1887 17.1835C90.1679 17.1732 90.144 17.1717 90.1221 17.1792C90.1002 17.1867 90.082 17.2027 90.0712 17.2239L89.0511 19.2174C89.04 19.2391 89.0377 19.2644 89.0446 19.2878C89.0515 19.3112 89.067 19.3309 89.0879 19.3424C90.4685 20.1018 91.7397 20.5194 93.3053 20.5194C95.6784 20.5194 97.3225 18.9932 97.3225 17.0339C97.3225 14.9764 95.6627 14.2058 94.1582 13.6594V13.661ZM108.738 12.4H106.332C106.321 12.4001 106.309 12.4035 106.3 12.4098C106.29 12.4162 106.283 12.4252 106.278 12.4359L104.871 15.5672C104.866 15.5775 104.858 15.5863 104.848 15.5924C104.839 15.5984 104.828 15.6017 104.817 15.6017C104.805 15.6017 104.794 15.5984 104.785 15.5924C104.775 15.5863 104.768 15.5775 104.763 15.5672L103.281 12.3384C103.276 12.3278 103.269 12.3189 103.259 12.3126C103.25 12.3064 103.239 12.3031 103.227 12.3031H103.115C103.104 12.3031 103.093 12.3064 103.083 12.3126C103.074 12.3189 103.066 12.3278 103.061 12.3384L101.58 15.5672C101.575 15.5775 101.567 15.5863 101.558 15.5924C101.548 15.5984 101.537 15.6017 101.526 15.6017C101.515 15.6017 101.504 15.5984 101.494 15.5924C101.484 15.5863 101.477 15.5775 101.472 15.5672L100.065 12.4359C100.06 12.4252 100.052 12.4162 100.043 12.4098C100.033 12.4035 100.022 12.4001 100.01 12.4H97.6066C97.5964 12.3999 97.5864 12.4025 97.5775 12.4075C97.5686 12.4125 97.5611 12.4198 97.5557 12.4287C97.5503 12.4376 97.5471 12.4477 97.5466 12.4582C97.546 12.4687 97.548 12.4791 97.5525 12.4886L101.321 20.4874C101.326 20.4979 101.333 20.5067 101.343 20.5128C101.352 20.519 101.364 20.5222 101.375 20.5222H101.505C101.516 20.5224 101.527 20.5194 101.536 20.5135C101.546 20.5077 101.554 20.4992 101.559 20.4891L103.12 17.4352C103.125 17.4248 103.133 17.4161 103.142 17.41C103.152 17.4039 103.163 17.4007 103.174 17.4007C103.185 17.4007 103.196 17.4039 103.206 17.41C103.216 17.4161 103.223 17.4248 103.228 17.4352L104.79 20.4891C104.795 20.4992 104.803 20.5077 104.812 20.5135C104.822 20.5194 104.833 20.5224 104.844 20.5222H104.974C104.985 20.5222 104.996 20.519 105.005 20.5128C105.015 20.5067 105.023 20.4979 105.028 20.4874L108.795 12.4886C108.8 12.4791 108.802 12.4687 108.801 12.4582C108.801 12.4477 108.798 12.4376 108.792 12.4287C108.787 12.4198 108.779 12.4125 108.77 12.4075C108.761 12.4025 108.751 12.3999 108.741 12.4H108.738ZM111.24 8.30868C111.073 8.30665 110.906 8.33929 110.752 8.40468C110.597 8.47006 110.456 8.56688 110.337 8.68943C110.219 8.81198 110.126 8.9578 110.062 9.11831C109.999 9.27881 109.968 9.45077 109.97 9.62408C109.97 10.3712 110.518 10.9238 111.24 10.9238C111.406 10.9274 111.57 10.8963 111.724 10.8323C111.878 10.7683 112.018 10.6727 112.135 10.5513C112.252 10.4298 112.345 10.2851 112.407 10.1258C112.468 9.96641 112.498 9.79576 112.495 9.62408C112.497 9.45199 112.467 9.2811 112.405 9.1214C112.343 8.96169 112.251 8.81637 112.134 8.69392C112.017 8.57146 111.878 8.47433 111.725 8.40818C111.571 8.34204 111.407 8.30822 111.24 8.30868H111.24ZM112.326 12.4H110.123C110.099 12.4 110.076 12.4099 110.059 12.4274C110.042 12.445 110.033 12.4688 110.033 12.4936V20.4269C110.033 20.4392 110.035 20.4514 110.039 20.4627C110.044 20.4741 110.051 20.4844 110.059 20.4931C110.067 20.5018 110.077 20.5087 110.088 20.5134C110.099 20.5181 110.111 20.5205 110.123 20.5205H112.327C112.338 20.5205 112.35 20.5181 112.361 20.5134C112.372 20.5087 112.382 20.5018 112.39 20.4931C112.399 20.4844 112.406 20.4741 112.41 20.4627C112.415 20.4514 112.417 20.4392 112.417 20.4269V12.4925C112.417 12.4677 112.407 12.4439 112.39 12.4263C112.374 12.4088 112.351 12.3989 112.327 12.3989L112.326 12.4ZM117.985 15.658C117.15 15.3273 116.362 15.1535 116.362 14.8077C116.362 14.666 116.47 14.5247 116.787 14.5247C117.393 14.5247 118.458 14.9316 118.851 15.1031C118.872 15.1124 118.896 15.1127 118.917 15.104C118.939 15.0953 118.956 15.0783 118.965 15.0566L119.717 13.2984C119.726 13.2769 119.727 13.2525 119.719 13.2305C119.711 13.2084 119.695 13.1904 119.675 13.1802C118.208 12.446 117.114 12.4 116.711 12.4C115.146 12.4 114.067 13.3444 114.067 14.9182C114.067 16.6337 115.481 17.169 116.498 17.4839C117.167 17.6885 117.517 17.7199 117.517 18.0192C117.517 18.2394 117.198 18.3341 116.894 18.3341C116.335 18.3341 115.604 18.069 114.828 17.6801C114.807 17.6698 114.784 17.6683 114.762 17.6757C114.741 17.6831 114.723 17.699 114.712 17.7199L113.846 19.4534C113.836 19.4741 113.834 19.4981 113.84 19.5204C113.846 19.5427 113.861 19.5617 113.88 19.5733C114.986 20.2347 115.869 20.5216 116.969 20.5216C118.641 20.5216 119.872 19.5128 119.872 18.0349C119.872 16.5715 118.898 16.0206 117.988 15.6591L117.985 15.658ZM125.113 15.658C124.277 15.3273 123.487 15.1535 123.487 14.8077C123.487 14.666 123.595 14.5247 123.912 14.5247C124.518 14.5247 125.583 14.9316 125.976 15.1031C125.997 15.1124 126.021 15.1127 126.042 15.104C126.064 15.0953 126.081 15.0783 126.09 15.0566L126.842 13.2984C126.851 13.2769 126.852 13.2525 126.844 13.2305C126.836 13.2084 126.82 13.1904 126.8 13.1802C125.333 12.446 124.239 12.4 123.836 12.4C122.271 12.4 121.192 13.3444 121.192 14.9182C121.192 16.6337 122.606 17.169 123.624 17.4839C124.293 17.6885 124.642 17.7199 124.642 18.0192C124.642 18.2394 124.323 18.3341 124.019 18.3341C123.46 18.3341 122.73 18.069 121.953 17.6801C121.932 17.6698 121.909 17.6683 121.887 17.6757C121.866 17.6831 121.848 17.699 121.837 17.7199L120.971 19.4534C120.961 19.4741 120.959 19.4981 120.965 19.5204C120.972 19.5427 120.986 19.5617 121.005 19.5733C122.111 20.2347 122.994 20.5216 124.094 20.5216C125.766 20.5216 126.997 19.5128 126.997 18.0349C126.997 16.5715 126.023 16.0206 125.113 15.6591L125.113 15.658Z" fill="white"/>
<g opacity="0.5">
<path opacity="0.5" d="M63.8539 24.9477C63.8476 24.9542 63.8402 24.9594 63.832 24.9629C63.8239 24.9664 63.8151 24.9682 63.8063 24.9682C63.7974 24.9682 63.7886 24.9664 63.7805 24.9629C63.7723 24.9594 63.7649 24.9542 63.7586 24.9477C63.3863 24.5111 62.6925 24.1334 62.1026 24.1334C60.4109 24.1334 60.175 25.794 60.175 26.3522C60.175 26.9104 60.4207 28.5604 62.1118 28.5604C62.7212 28.5604 63.3917 28.2168 63.8366 27.8161C63.8433 27.8101 63.851 27.8054 63.8595 27.8025C63.8679 27.7996 63.8768 27.7985 63.8857 27.7991C63.8945 27.7998 63.9032 27.8023 63.9111 27.8065C63.919 27.8106 63.926 27.8164 63.9318 27.8234L64.6045 28.6669C64.6153 28.6803 64.6207 28.6975 64.6198 28.715C64.6189 28.7324 64.6117 28.7489 64.5996 28.761C63.9286 29.4386 63.1384 29.8691 62.1021 29.8691C59.5791 29.8691 58.8145 27.8178 58.8145 26.3516C58.8145 24.9253 59.5797 22.8438 62.1021 22.8438C63.2115 22.8438 63.9859 23.3297 64.638 24.0734C64.6497 24.0867 64.656 24.1042 64.6555 24.1222C64.655 24.1401 64.6477 24.1572 64.6353 24.1698L63.8539 24.9477Z" fill="white"/>
<path opacity="0.5" d="M67.4306 24.7886C69.0465 24.7886 69.1786 25.8736 69.1786 26.8707V29.6959C69.1786 29.7144 69.1715 29.732 69.1589 29.7451C69.1463 29.7581 69.1293 29.7654 69.1115 29.7654H68.3392C68.3249 29.7654 68.311 29.7606 68.2996 29.7519C68.2881 29.7431 68.2796 29.7308 68.2753 29.7167L68.2245 29.5485C68.2211 29.5382 68.2154 29.5287 68.2079 29.5211C68.2004 29.5134 68.1913 29.5076 68.1812 29.5042C68.1712 29.5008 68.1605 29.4999 68.1501 29.5016C68.1396 29.5033 68.1297 29.5074 68.1211 29.5138C67.8359 29.729 67.4609 29.8461 67.0712 29.8641C65.5971 29.9324 65.3232 28.9057 65.3232 28.329C65.3232 26.9895 66.372 26.7037 67.3456 26.7037C67.5025 26.7046 67.659 26.7217 67.8126 26.7547C67.8224 26.7565 67.8325 26.756 67.8421 26.7534C67.8517 26.7507 67.8606 26.7459 67.8682 26.7392C67.8758 26.7326 67.8818 26.7243 67.886 26.715C67.8902 26.7056 67.8923 26.6954 67.8922 26.6852C67.8738 26.0782 67.6579 25.9711 67.2601 25.9711C67.0517 25.9711 66.5225 26.0877 66.0549 26.2867C66.0386 26.2936 66.0203 26.2936 66.004 26.2867C65.9877 26.2797 65.9747 26.2665 65.9678 26.2497L65.6025 25.3653C65.5959 25.349 65.5955 25.3307 65.6014 25.3142C65.6074 25.2976 65.6192 25.284 65.6344 25.2762C66.1859 24.9898 66.7812 24.7886 67.4306 24.7886ZM67.8938 27.8526C67.8938 27.8374 67.8889 27.8227 67.88 27.8107C67.8711 27.7986 67.8587 27.7899 67.8446 27.7859C67.6704 27.7311 67.4902 27.6997 67.3083 27.6923C66.9294 27.6923 66.543 27.7999 66.543 28.2595C66.543 28.5526 66.8077 28.7078 67.1005 28.7078C67.4371 28.7078 67.7564 28.5173 67.8808 28.3458C67.8896 28.3337 67.8943 28.3189 67.8943 28.3038L67.8938 27.8526Z" fill="white"/>
<path opacity="0.5" d="M72.1388 26.6874C72.8477 26.9234 73.7547 27.2288 73.7547 28.3604C73.7547 29.2571 72.9971 29.8658 71.978 29.8658C71.2891 29.8658 70.7431 29.6797 70.105 29.2991C70.0898 29.2904 70.0785 29.2758 70.0734 29.2586C70.0684 29.2413 70.07 29.2227 70.078 29.2067L70.5293 28.2841C70.5373 28.2679 70.5512 28.2556 70.5679 28.2498C70.5846 28.244 70.6028 28.2453 70.6186 28.2533C71.0813 28.4938 71.5483 28.6748 71.9299 28.6748C72.2037 28.6748 72.4494 28.5565 72.4494 28.3699C72.4494 28.0846 72.0901 27.9664 71.6652 27.8386C70.9942 27.6222 70.2003 27.3465 70.2003 26.3136C70.2003 25.3608 70.8497 24.7886 71.8065 24.7886C72.0652 24.7886 72.7297 24.8446 73.5805 25.27C73.5964 25.2779 73.6087 25.292 73.6146 25.3092C73.6206 25.3264 73.6198 25.3453 73.6124 25.3619L73.1859 26.3276C73.1823 26.3359 73.177 26.3434 73.1706 26.3497C73.1641 26.3559 73.1565 26.3607 73.1482 26.3639C73.1399 26.3671 73.131 26.3685 73.1222 26.3682C73.1134 26.3678 73.1047 26.3656 73.0966 26.3618C72.7178 26.1763 72.2264 26.0081 71.9575 26.0081C71.6885 26.0081 71.4379 26.067 71.4379 26.2732C71.4352 26.4537 71.7497 26.5596 72.1388 26.6874Z" fill="white"/>
<path opacity="0.5" d="M75.3377 22.6349C75.4329 22.6342 75.5273 22.6532 75.6153 22.6909C75.7033 22.7286 75.7831 22.7842 75.8501 22.8543C75.917 22.9245 75.9697 23.0078 76.005 23.0994C76.0404 23.191 76.0576 23.289 76.0558 23.3876C76.0582 23.4859 76.0413 23.5836 76.006 23.6749C75.9707 23.7662 75.9179 23.8491 75.8507 23.9186C75.7836 23.988 75.7034 24.0426 75.6152 24.079C75.527 24.1154 75.4326 24.1328 75.3377 24.1302C74.9221 24.1302 74.6098 23.8174 74.6098 23.3876C74.6084 23.2882 74.6262 23.1896 74.6623 23.0975C74.6983 23.0054 74.7519 22.9218 74.8198 22.8516C74.8877 22.7813 74.9686 22.726 75.0575 22.6888C75.1465 22.6515 75.2418 22.6332 75.3377 22.6349ZM75.9038 29.8648H74.7527C74.735 29.8648 74.718 29.8575 74.7054 29.8446C74.6929 29.8317 74.6857 29.8142 74.6856 29.7958V25.0645C74.6857 25.0461 74.6929 25.0286 74.7054 25.0157C74.718 25.0028 74.735 24.9955 74.7527 24.9955H75.9038C75.9215 24.9955 75.9385 25.0028 75.951 25.0157C75.9636 25.0286 75.9707 25.0461 75.9709 25.0645V29.7964C75.9709 29.8148 75.9638 29.8325 75.9512 29.8455C75.9386 29.8586 75.9216 29.8659 75.9038 29.8659V29.8648Z" fill="white"/>
<path opacity="0.5" d="M78.2 29.8661H77.0635C77.0546 29.8661 77.0459 29.8644 77.0377 29.8609C77.0295 29.8575 77.022 29.8524 77.0157 29.8459C77.0094 29.8394 77.0044 29.8318 77.001 29.8233C76.9976 29.8148 76.9959 29.8057 76.9959 29.7966V24.9408C76.9957 24.9316 76.9973 24.9226 77.0005 24.9141C77.0038 24.9056 77.0086 24.8979 77.0147 24.8913C77.0209 24.8847 77.0282 24.8795 77.0363 24.8759C77.0444 24.8722 77.0531 24.8703 77.0619 24.8702H77.8195C77.8336 24.8703 77.8473 24.875 77.8587 24.8837C77.8701 24.8923 77.8785 24.9045 77.8828 24.9184L77.951 25.1353C77.9542 25.1457 77.9598 25.1552 77.9672 25.163C77.9747 25.1707 77.9838 25.1766 77.9938 25.18C78.0039 25.1833 78.0146 25.1842 78.025 25.1825C78.0354 25.1808 78.0453 25.1765 78.0539 25.17C78.3765 24.9209 78.7689 24.7877 79.1714 24.7906C80.967 24.7906 81.2029 26.12 81.2029 27.2885V29.7943C81.2031 29.8035 81.2015 29.8125 81.1983 29.821C81.195 29.8295 81.1902 29.8372 81.1841 29.8438C81.1779 29.8504 81.1706 29.8556 81.1625 29.8592C81.1544 29.8629 81.1457 29.8648 81.1369 29.8649H79.9658C79.957 29.865 79.9482 29.8633 79.94 29.8598C79.9318 29.8564 79.9243 29.8512 79.918 29.8448C79.9117 29.8383 79.9067 29.8306 79.9033 29.8222C79.8999 29.8137 79.8982 29.8046 79.8982 29.7954V27.2863C79.8982 26.7466 79.8224 25.9972 79.1232 25.9972C78.963 25.9949 78.8043 26.0306 78.6595 26.1016C78.5146 26.1726 78.3874 26.2771 78.2876 26.4069C78.2783 26.4195 78.2732 26.4348 78.273 26.4506V29.7943C78.2735 29.8128 78.2668 29.8307 78.2546 29.8442C78.2423 29.8576 78.2254 29.8655 78.2075 29.8661H78.2Z" fill="white"/>
<path opacity="0.5" d="M86.5092 27.3319C86.5092 28.3884 85.968 29.8658 84.1561 29.8658C82.3443 29.8658 81.8031 28.3884 81.8031 27.3319C81.8031 26.3046 82.3443 24.7886 84.1561 24.7886C85.968 24.7886 86.5092 26.3046 86.5092 27.3319ZM85.2336 27.3319C85.2336 26.999 85.101 25.9723 84.1561 25.9723C83.2112 25.9723 83.0705 26.999 83.0705 27.3319C83.0705 27.6648 83.2123 28.6821 84.1572 28.6821C85.1021 28.6821 85.2352 27.6643 85.2352 27.3319H85.2336Z" fill="white"/>
<path opacity="0.5" d="M93.1521 25.6442C94.1803 26.0057 95.4954 26.4356 95.4104 27.9012C95.3444 29.0148 94.3822 29.8628 93.0006 29.8628C92.0324 29.8628 91.2894 29.6302 90.4993 29.2015C90.4836 29.1929 90.4718 29.1782 90.4665 29.1607C90.4613 29.1431 90.4629 29.1242 90.4711 29.1079L90.9955 28.0845C91.0036 28.0688 91.0172 28.0569 91.0335 28.0512C91.0498 28.0456 91.0676 28.0467 91.0832 28.0542C91.6969 28.3529 92.3111 28.5827 92.934 28.5827C93.5104 28.5827 93.926 28.3288 93.9925 27.9281C94.0683 27.44 93.5769 27.1754 92.934 26.9703C91.9323 26.648 90.5907 26.3157 90.5907 24.8305C90.5907 23.5795 91.4885 22.8369 92.7359 22.8369C93.1072 22.8369 93.998 22.9215 95.0857 23.4338C95.1016 23.4413 95.1141 23.4549 95.1205 23.4717C95.1268 23.4886 95.1266 23.5074 95.1198 23.524L94.6869 24.562C94.6799 24.5788 94.6669 24.5921 94.6506 24.599C94.6343 24.6059 94.6161 24.6059 94.5997 24.599C94.2415 24.4477 93.4508 24.1265 92.8274 24.1265C92.3658 24.1265 91.9518 24.2818 91.9296 24.7576V24.7654C91.9556 25.225 92.5021 25.4105 93.1521 25.6442Z" fill="white"/>
<path opacity="0.5" d="M100.523 27.3337C100.523 28.3896 99.9818 29.8658 98.1699 29.8658C96.3581 29.8658 95.8169 28.3896 95.8169 27.3337C95.8169 26.3069 96.3581 24.792 98.1699 24.792C99.9818 24.792 100.523 26.3069 100.523 27.3337ZM99.2474 27.3337C99.2474 27.0013 99.1148 25.9746 98.1699 25.9746C97.225 25.9746 97.0832 27.0013 97.0832 27.3337C97.0832 27.666 97.225 28.6827 98.1699 28.6827C99.1148 28.6827 99.2469 27.666 99.2469 27.3337H99.2474Z" fill="white"/>
<path opacity="0.5" d="M104.166 24.3071C104.162 24.3156 104.158 24.3234 104.152 24.3301C104.146 24.3367 104.138 24.3421 104.13 24.3458C104.122 24.3496 104.114 24.3517 104.105 24.3519C104.096 24.3522 104.087 24.3507 104.079 24.3474C103.789 24.2353 103.454 24.1585 103.235 24.1585C102.989 24.1585 102.743 24.2852 102.743 24.6747V24.9269C102.743 24.9453 102.751 24.9628 102.763 24.9757C102.776 24.9886 102.793 24.9959 102.81 24.9959H103.555C103.573 24.9959 103.59 25.0031 103.602 25.016C103.615 25.0289 103.622 25.0465 103.622 25.0648V26.0669C103.622 26.0852 103.615 26.1028 103.602 26.1157C103.59 26.1286 103.573 26.1358 103.555 26.1358H102.81C102.793 26.1358 102.776 26.1431 102.763 26.156C102.751 26.1689 102.743 26.1864 102.743 26.2048V29.7968C102.743 29.8151 102.736 29.8326 102.723 29.8455C102.711 29.8584 102.694 29.8657 102.676 29.8657H101.525C101.507 29.8657 101.49 29.8584 101.477 29.8455C101.465 29.8326 101.458 29.8151 101.458 29.7968V26.2048C101.457 26.1864 101.45 26.1689 101.438 26.156C101.425 26.1431 101.408 26.1358 101.39 26.1358H101.033C101.015 26.1358 100.998 26.1286 100.985 26.1157C100.973 26.1028 100.966 26.0852 100.966 26.0669V25.0654C100.966 25.047 100.973 25.0295 100.985 25.0166C100.998 25.0037 101.015 24.9964 101.033 24.9964H101.39C101.408 24.9964 101.425 24.9892 101.438 24.9763C101.45 24.9634 101.457 24.9458 101.458 24.9275V24.6361C101.458 23.5056 102.223 22.9805 103.158 22.9805C103.611 22.991 104.055 23.1011 104.463 23.3033C104.478 23.3108 104.49 23.3238 104.497 23.3398C104.503 23.3559 104.503 23.3738 104.498 23.3902L104.166 24.3071Z" fill="white"/>
<path opacity="0.5" d="M104.51 26.0827V25.0638C104.51 25.0547 104.512 25.0458 104.516 25.0375C104.519 25.0291 104.524 25.0216 104.53 25.0152C104.536 25.0089 104.544 25.0039 104.552 25.0005C104.56 24.9971 104.569 24.9954 104.577 24.9954H104.942C104.958 24.9955 104.974 24.9894 104.986 24.9781C104.998 24.9668 105.006 24.9512 105.008 24.9343L105.09 24.1138C105.092 24.0969 105.1 24.0814 105.112 24.0701C105.125 24.0588 105.141 24.0526 105.157 24.0527H106.22C106.238 24.0526 106.255 24.0596 106.267 24.0723C106.28 24.085 106.287 24.1024 106.287 24.1206V24.9271C106.288 24.9361 106.289 24.9451 106.293 24.9534C106.296 24.9617 106.301 24.9693 106.307 24.9756C106.314 24.982 106.321 24.987 106.329 24.9904C106.337 24.9938 106.346 24.9955 106.355 24.9954H107.112C107.13 24.9953 107.147 25.0023 107.159 25.015C107.172 25.0277 107.179 25.0451 107.179 25.0632V26.0822C107.179 26.0912 107.177 26.1002 107.174 26.1085C107.171 26.1168 107.166 26.1244 107.159 26.1307C107.153 26.1371 107.146 26.1421 107.138 26.1455C107.13 26.1489 107.121 26.1506 107.112 26.1505H106.355C106.337 26.1504 106.32 26.1574 106.308 26.1701C106.295 26.1828 106.288 26.2002 106.287 26.2183V28.4109C106.287 28.6418 106.401 28.7191 106.552 28.7191C106.722 28.7191 106.946 28.6496 107.155 28.5924C107.164 28.5901 107.172 28.5895 107.181 28.5907C107.19 28.592 107.198 28.595 107.206 28.5996C107.214 28.6043 107.22 28.6104 107.226 28.6178C107.231 28.6251 107.235 28.6334 107.237 28.6423L107.427 29.5688C107.431 29.5858 107.427 29.6035 107.419 29.6183C107.41 29.6331 107.396 29.6438 107.38 29.6483C106.784 29.8165 106.318 29.8619 106.126 29.8619C105.098 29.8619 105.002 28.899 105.002 28.5532V26.2161C105.002 26.2071 105 26.1981 104.996 26.1898C104.993 26.1814 104.988 26.1739 104.982 26.1675C104.976 26.1612 104.968 26.1562 104.96 26.1528C104.952 26.1494 104.943 26.1477 104.935 26.1477H104.576C104.559 26.1475 104.543 26.1406 104.531 26.1286C104.518 26.1165 104.511 26.1001 104.51 26.0827Z" fill="white"/>
<path opacity="0.5" d="M111.179 24.9478H111.186C111.196 24.9479 111.206 24.9511 111.215 24.9568C111.223 24.9626 111.23 24.9707 111.234 24.9803L112.164 27.1391C112.169 27.1485 112.176 27.1563 112.184 27.1618C112.193 27.1673 112.202 27.1702 112.213 27.1702C112.223 27.1702 112.232 27.1673 112.241 27.1618C112.25 27.1563 112.256 27.1485 112.261 27.1391L113.154 25.0296C113.158 25.02 113.165 25.0119 113.173 25.0062C113.182 25.0004 113.192 24.9973 113.202 24.9971H114.435C114.444 24.9975 114.452 25.0001 114.46 25.0045C114.467 25.009 114.474 25.0153 114.478 25.0228C114.483 25.0303 114.486 25.0388 114.487 25.0477C114.487 25.0566 114.486 25.0656 114.483 25.0739L112.293 29.8377C112.288 29.8469 112.282 29.8546 112.273 29.86C112.265 29.8655 112.255 29.8684 112.245 29.8686C112.236 29.8684 112.226 29.8655 112.218 29.8601C112.209 29.8548 112.203 29.8473 112.198 29.8383L111.219 27.8156C111.214 27.807 111.208 27.7998 111.199 27.7948C111.191 27.7898 111.182 27.7872 111.172 27.7872C111.163 27.7872 111.153 27.7898 111.145 27.7948C111.137 27.7998 111.13 27.807 111.125 27.8156L110.138 29.8372C110.134 29.846 110.127 29.8535 110.119 29.8587C110.111 29.8639 110.101 29.8667 110.091 29.8669C110.081 29.8667 110.072 29.8637 110.063 29.8581C110.055 29.8526 110.048 29.8448 110.044 29.8355L107.863 25.0716C107.861 25.0635 107.86 25.0547 107.86 25.0461C107.861 25.0375 107.864 25.0292 107.869 25.0219C107.873 25.0146 107.88 25.0085 107.887 25.0041C107.894 24.9997 107.902 24.9971 107.91 24.9965H109.144C109.155 24.9967 109.164 24.9998 109.173 25.0056C109.181 25.0113 109.188 25.0195 109.193 25.029L110.085 27.1397C110.09 27.1489 110.097 27.1566 110.105 27.162C110.114 27.1673 110.124 27.1702 110.134 27.1702C110.144 27.1702 110.153 27.1673 110.162 27.162C110.17 27.1566 110.177 27.1489 110.182 27.1397L111.13 24.9797C111.134 24.9701 111.141 24.962 111.15 24.9563C111.159 24.9506 111.169 24.9477 111.179 24.9478Z" fill="white"/>
<path opacity="0.5" d="M116.861 24.7876C118.476 24.7876 118.609 25.8726 118.609 26.8703V29.6955C118.609 29.7139 118.601 29.7316 118.589 29.7446C118.576 29.7577 118.559 29.765 118.541 29.765H117.769C117.755 29.7649 117.741 29.7601 117.73 29.7513C117.718 29.7426 117.71 29.7303 117.705 29.7162L117.654 29.5481C117.651 29.5377 117.646 29.5282 117.638 29.5204C117.631 29.5126 117.621 29.5068 117.611 29.5034C117.601 29.5 117.591 29.4992 117.58 29.5009C117.57 29.5026 117.56 29.5069 117.551 29.5134C117.266 29.7286 116.891 29.8457 116.501 29.8636C115.027 29.932 114.753 28.9053 114.753 28.3286C114.753 26.9891 115.802 26.7032 116.776 26.7032C116.932 26.7042 117.089 26.7213 117.243 26.7542C117.252 26.756 117.262 26.7556 117.272 26.7529C117.282 26.7503 117.291 26.7455 117.298 26.7388C117.306 26.7322 117.312 26.7239 117.316 26.7146C117.32 26.7052 117.322 26.695 117.322 26.6847C117.304 26.0778 117.088 25.9707 116.691 25.9707C116.482 25.9707 115.953 26.0873 115.485 26.2863C115.469 26.2932 115.451 26.2932 115.435 26.2862C115.418 26.2793 115.405 26.266 115.398 26.2493L115.034 25.3637C115.027 25.3475 115.027 25.3292 115.032 25.3127C115.038 25.2961 115.05 25.2825 115.065 25.2746C115.616 24.9888 116.212 24.7876 116.861 24.7876ZM117.324 27.8522C117.324 27.837 117.319 27.8224 117.31 27.8103C117.301 27.7983 117.289 27.7896 117.275 27.7855C117.1 27.7307 116.92 27.6993 116.738 27.6919C116.359 27.6919 115.973 27.7995 115.973 28.2591C115.973 28.5522 116.238 28.7074 116.53 28.7074C116.867 28.7074 117.186 28.5169 117.311 28.3454C117.32 28.3333 117.324 28.3185 117.324 28.3033L117.324 27.8522Z" fill="white"/>
<path opacity="0.5" d="M122.18 26.164C122.175 26.1802 122.164 26.1939 122.15 26.2025C122.136 26.2112 122.119 26.2142 122.103 26.2111C121.939 26.1754 121.772 26.1566 121.604 26.155C121.308 26.155 121.02 26.2397 120.84 26.5378C120.833 26.5486 120.83 26.561 120.83 26.5737V29.7963C120.83 29.8147 120.823 29.8322 120.81 29.8451C120.798 29.858 120.781 29.8653 120.763 29.8653H119.621C119.603 29.8653 119.586 29.858 119.574 29.8451C119.561 29.8322 119.554 29.8147 119.554 29.7963V25.0649C119.554 25.0466 119.561 25.0291 119.574 25.0162C119.586 25.0033 119.603 24.996 119.621 24.996H120.379C120.392 24.9961 120.405 25.0003 120.416 25.0082C120.428 25.0161 120.436 25.0273 120.441 25.0403L120.508 25.2202C120.511 25.2288 120.516 25.2366 120.522 25.2432C120.528 25.2498 120.536 25.2551 120.544 25.2588C120.552 25.2624 120.561 25.2644 120.57 25.2645C120.579 25.2646 120.587 25.2629 120.596 25.2594L120.605 25.2544C120.95 25.041 121.345 24.9315 121.747 24.9383C121.984 24.9409 122.222 24.9619 122.456 25.0011C122.466 25.0025 122.475 25.006 122.483 25.0114C122.491 25.0168 122.498 25.024 122.503 25.0324C122.508 25.0408 122.512 25.0503 122.513 25.0602C122.514 25.07 122.513 25.0801 122.51 25.0896L122.18 26.164Z" fill="white"/>
<path opacity="0.5" d="M124.083 27.5598C124.073 27.5598 124.063 27.5621 124.054 27.5666C124.045 27.571 124.037 27.5775 124.031 27.5854C124.025 27.5934 124.02 27.6027 124.018 27.6127C124.015 27.6227 124.015 27.6332 124.017 27.6433C124.114 28.1914 124.459 28.6482 125.045 28.6482C125.453 28.6382 125.847 28.497 126.173 28.2441C126.18 28.2387 126.188 28.2349 126.197 28.2328C126.205 28.2306 126.214 28.2303 126.223 28.2317C126.231 28.2331 126.24 28.2362 126.247 28.2409C126.255 28.2457 126.261 28.2519 126.266 28.2592L126.813 29.0495C126.823 29.0644 126.826 29.0824 126.823 29.1C126.821 29.1176 126.811 29.1334 126.798 29.1442C126.248 29.6122 125.712 29.8638 125.042 29.8638C123.237 29.8638 122.68 28.3892 122.68 27.3204C122.68 26.2814 123.237 24.7866 125.042 24.7866C126.299 24.7866 126.998 25.6273 126.998 26.9164C126.998 27.1041 126.983 27.2992 126.966 27.4959C126.965 27.5132 126.957 27.5294 126.945 27.5412C126.932 27.5531 126.916 27.5597 126.899 27.5598H124.083ZM124.137 26.7678H125.661C125.67 26.7679 125.679 26.7662 125.687 26.7627C125.695 26.7592 125.703 26.7541 125.709 26.7477C125.715 26.7412 125.72 26.7335 125.724 26.7251C125.727 26.7166 125.729 26.7075 125.729 26.6983C125.729 26.6983 125.729 26.695 125.729 26.6927C125.704 26.3178 125.556 25.995 125.042 25.986C124.55 25.986 124.23 26.2662 124.073 26.672C124.069 26.6826 124.068 26.694 124.069 26.7054C124.07 26.7168 124.074 26.7277 124.08 26.7371C124.086 26.7466 124.094 26.7544 124.104 26.7597C124.114 26.7651 124.125 26.7679 124.136 26.7678H124.137Z" fill="white"/>
</g>
<g opacity="0.4">
<path opacity="0.4" d="M62.0188 1.62536C61.8311 1.49641 61.6216 1.40515 61.4013 1.35634C61.1513 1.29917 60.8959 1.27116 60.6399 1.27284H59.0304C58.973 1.27284 58.918 1.29646 58.8774 1.3385C58.8368 1.38054 58.814 1.43756 58.814 1.49702V6.19757C58.814 6.25703 58.8368 6.31405 58.8774 6.35609C58.918 6.39814 58.973 6.42175 59.0304 6.42175H59.8C59.8574 6.42175 59.9125 6.39814 59.9531 6.35609C59.9936 6.31405 60.0165 6.25703 60.0165 6.19757V4.70115C60.0165 4.64169 60.0393 4.58467 60.0799 4.54263C60.1205 4.50059 60.1755 4.47697 60.2329 4.47697H60.6118C60.8622 4.47772 61.1119 4.44838 61.3559 4.38954C61.5807 4.33746 61.7946 4.24386 61.9874 4.11323C62.1692 3.9869 62.3179 3.81591 62.4204 3.61555C62.5349 3.38041 62.5907 3.11933 62.5827 2.85613C62.5908 2.59872 62.539 2.34308 62.4317 2.11072C62.3356 1.9156 62.1936 1.74869 62.0188 1.62536ZM61.3153 3.16662C61.268 3.24708 61.2015 3.31351 61.1221 3.35942C61.036 3.40953 60.9423 3.44403 60.845 3.46142C60.7378 3.48128 60.6292 3.49104 60.5203 3.49056H60.2302C60.1728 3.49056 60.1178 3.46695 60.0772 3.4249C60.0366 3.38286 60.0137 3.32584 60.0137 3.26638V2.498C60.0137 2.43854 60.0366 2.38152 60.0772 2.33947C60.1178 2.29743 60.1728 2.27381 60.2302 2.27381H60.5414C60.6459 2.27381 60.7502 2.2813 60.8537 2.29623C60.9481 2.30871 61.0397 2.33831 61.1242 2.38366C61.2019 2.42559 61.2673 2.48829 61.3137 2.56525C61.3637 2.65583 61.388 2.75916 61.384 2.86341C61.3878 2.96882 61.3637 3.0733 61.3142 3.1655L61.3153 3.16662ZM67.7169 1.86076C67.4681 1.62332 67.1756 1.44032 66.8569 1.32272C66.1579 1.07081 65.3972 1.07081 64.6982 1.32272C64.3809 1.44053 64.0899 1.62354 63.8426 1.86076C63.5982 2.09822 63.4056 2.38693 63.2776 2.70761C63.1379 3.06176 63.0686 3.4415 63.0741 3.82404C63.0695 4.2065 63.1387 4.58606 63.2776 4.94047C63.4058 5.26628 63.5982 5.56081 63.8426 5.80525C64.0888 6.04857 64.38 6.2377 64.6987 6.36123C65.3961 6.62296 66.1601 6.62296 66.8575 6.36123C67.1773 6.23842 67.4696 6.04923 67.7163 5.80525C67.9604 5.56038 68.1528 5.26572 68.2813 4.93991C68.4203 4.58554 68.4895 4.20595 68.4848 3.82348C68.4903 3.44094 68.4211 3.06119 68.2813 2.70705C68.1536 2.38647 67.9612 2.09791 67.7169 1.86076ZM67.0956 4.46688C67.0307 4.65367 66.9304 4.82516 66.8006 4.97129C66.6741 5.11193 66.5213 5.22443 66.3515 5.30196C66.1692 5.38108 65.9736 5.42183 65.7759 5.42183C65.5783 5.42183 65.3827 5.38108 65.2004 5.30196C65.0311 5.22507 64.8793 5.11245 64.7545 4.97129C64.6267 4.82433 64.5278 4.653 64.4633 4.46688C64.3916 4.26061 64.356 4.04271 64.3583 3.82348C64.3567 3.61061 64.3911 3.39911 64.4601 3.19857C64.5227 3.01356 64.6219 2.84408 64.7512 2.70088C64.8827 2.55664 65.0417 2.4423 65.2182 2.36512C65.3946 2.28793 65.5847 2.24958 65.7762 2.25251C65.9754 2.25002 66.1728 2.29088 66.3558 2.37245C66.5257 2.44839 66.6786 2.55982 66.805 2.69976C66.9326 2.84425 67.0316 3.01336 67.0961 3.19745C67.1672 3.39748 67.2028 3.6092 67.2011 3.82236C67.2024 4.04179 67.1657 4.2597 67.0929 4.46576L67.0956 4.46688ZM75.6754 1.27228H74.8804C74.8324 1.27231 74.7858 1.28885 74.7479 1.31928C74.71 1.34971 74.683 1.39232 74.671 1.44041L73.9106 4.69106H73.8895L73.0415 1.43313C73.0291 1.38583 73.002 1.34405 72.9645 1.31419C72.927 1.28433 72.881 1.26803 72.8337 1.26779H71.9137C71.8663 1.26791 71.8202 1.28415 71.7825 1.31402C71.7449 1.34389 71.7178 1.38574 71.7053 1.43313L70.8638 4.69162H70.8427L70.0959 1.44097C70.0845 1.39225 70.0577 1.34889 70.0197 1.3178C69.9818 1.28671 69.9348 1.2697 69.8864 1.26947H69.0541C69.0208 1.26968 68.9881 1.27782 68.9584 1.29327C68.9286 1.30871 68.9027 1.33104 68.8827 1.35852C68.8626 1.386 68.849 1.4179 68.8428 1.45174C68.8365 1.48557 68.8379 1.52044 68.8468 1.55362L70.1354 6.25418C70.1483 6.30086 70.1754 6.34195 70.2128 6.37126C70.2502 6.40057 70.2958 6.41652 70.3426 6.41671H71.2118C71.2583 6.41654 71.3035 6.40086 71.3407 6.37199C71.378 6.34312 71.4052 6.30259 71.4185 6.25642L72.3553 2.93739H72.3764L73.3137 6.25866C73.327 6.30484 73.3542 6.34536 73.3915 6.37423C73.4287 6.4031 73.4739 6.41878 73.5204 6.41895H74.3831C74.4299 6.4188 74.4754 6.40293 74.5128 6.37372C74.5501 6.34452 74.5773 6.30356 74.5903 6.25698L75.8854 1.55643C75.8944 1.5232 75.8958 1.48828 75.8897 1.45437C75.8835 1.42046 75.8698 1.38849 75.8498 1.36093C75.8297 1.33338 75.8038 1.311 75.774 1.29552C75.7442 1.28005 75.7114 1.2719 75.6781 1.27171L75.6754 1.27228ZM79.7256 5.35745H77.8471C77.7897 5.35745 77.7347 5.33383 77.6941 5.29179C77.6535 5.24974 77.6307 5.19272 77.6307 5.13326V4.51228C77.6307 4.45282 77.6535 4.3958 77.6941 4.35376C77.7347 4.31171 77.7897 4.28809 77.8471 4.28809H79.4799C79.5373 4.28809 79.5923 4.26448 79.6329 4.22243C79.6735 4.18039 79.6963 4.12337 79.6963 4.06391V3.51635C79.6963 3.45689 79.6735 3.39987 79.6329 3.35782C79.5923 3.31578 79.5373 3.29216 79.4799 3.29216H77.8471C77.7897 3.29216 77.7347 3.26854 77.6941 3.2265C77.6535 3.18446 77.6307 3.12744 77.6307 3.06798V2.54227C77.6307 2.48281 77.6535 2.42579 77.6941 2.38375C77.7347 2.34171 77.7897 2.31809 77.8471 2.31809H79.5989C79.6563 2.31809 79.7114 2.29447 79.752 2.25243C79.7926 2.21038 79.8154 2.15336 79.8154 2.09391V1.49534C79.8154 1.43588 79.7926 1.37886 79.752 1.33682C79.7114 1.29477 79.6563 1.27115 79.5989 1.27115H76.6885C76.6311 1.27115 76.576 1.29477 76.5354 1.33682C76.4948 1.37886 76.472 1.43588 76.472 1.49534V6.19589C76.472 6.25535 76.4948 6.31237 76.5354 6.35441C76.576 6.39645 76.6311 6.42007 76.6885 6.42007H79.725C79.7824 6.42007 79.8375 6.39645 79.8781 6.35441C79.9187 6.31237 79.9415 6.25535 79.9415 6.19589V5.57939C79.9415 5.51993 79.9187 5.46291 79.8781 5.42087C79.8375 5.37882 79.7824 5.35521 79.725 5.35521L79.7256 5.35745ZM83.6361 4.44783C83.62 4.4209 83.6096 4.39076 83.6056 4.35937C83.6016 4.32799 83.604 4.29607 83.6127 4.26573C83.6215 4.23539 83.6363 4.20732 83.6563 4.18335C83.6763 4.15938 83.7009 4.14007 83.7286 4.12668C83.9348 4.03244 84.1163 3.88851 84.2579 3.7069C84.4405 3.46964 84.5317 3.17652 84.5317 2.82754C84.5402 2.57003 84.4842 2.31462 84.3694 2.08606C84.2653 1.89172 84.1166 1.72694 83.9365 1.60631C83.7498 1.48256 83.543 1.39518 83.326 1.3485C83.0964 1.29735 82.8622 1.2718 82.6273 1.27228H80.9497C80.8923 1.27228 80.8372 1.29589 80.7966 1.33794C80.756 1.37998 80.7332 1.437 80.7332 1.49646V6.19757C80.7332 6.25703 80.756 6.31405 80.7966 6.35609C80.8372 6.39814 80.8923 6.42175 80.9497 6.42175H81.6906C81.748 6.42175 81.803 6.39814 81.8436 6.35609C81.8842 6.31405 81.907 6.25703 81.907 6.19757V4.59915C81.907 4.53969 81.9298 4.48267 81.9704 4.44063C82.011 4.39859 82.0661 4.37497 82.1235 4.37497H82.1895C82.2281 4.3751 82.266 4.38593 82.2992 4.40633C82.3324 4.42673 82.3598 4.45596 82.3784 4.49098L83.3352 6.30182C83.3538 6.33684 83.3812 6.36607 83.4144 6.38647C83.4476 6.40687 83.4855 6.4177 83.5241 6.41783H84.4165C84.4547 6.41755 84.4921 6.40681 84.525 6.3867C84.5579 6.3666 84.585 6.33784 84.6037 6.30335C84.6224 6.26886 84.6319 6.22986 84.6314 6.19032C84.6308 6.15078 84.6201 6.11209 84.6005 6.07819L83.6361 4.44783ZM83.2643 3.16942C83.2121 3.25009 83.1405 3.31521 83.0565 3.3583C82.9675 3.4033 82.8725 3.43392 82.7745 3.44909C82.6743 3.46573 82.573 3.47416 82.4715 3.47431H82.1149C82.0574 3.47431 82.0024 3.45069 81.9618 3.40865C81.9212 3.36661 81.8984 3.30959 81.8984 3.25013V2.498C81.8984 2.43854 81.9212 2.38152 81.9618 2.33947C82.0024 2.29743 82.0574 2.27381 82.1149 2.27381H82.5413C82.6346 2.27413 82.7277 2.28144 82.82 2.29567C82.9108 2.30846 82.9989 2.33667 83.0808 2.37918C83.1576 2.41961 83.2231 2.47959 83.2713 2.55348C83.3241 2.6416 83.3499 2.74415 83.3455 2.84772C83.3507 2.96041 83.3225 3.07205 83.2649 3.16774L83.2643 3.16942ZM88.6409 5.35521H86.7625C86.7051 5.35521 86.65 5.33159 86.6094 5.28954C86.5688 5.2475 86.546 5.19048 86.546 5.13102V4.51228C86.546 4.45282 86.5688 4.3958 86.6094 4.35376C86.65 4.31171 86.7051 4.28809 86.7625 4.28809H88.3952C88.4526 4.28809 88.5077 4.26448 88.5483 4.22243C88.5889 4.18039 88.6117 4.12337 88.6117 4.06391V3.51635C88.6117 3.45689 88.5889 3.39987 88.5483 3.35782C88.5077 3.31578 88.4526 3.29216 88.3952 3.29216H86.7619C86.7045 3.29216 86.6495 3.26854 86.6089 3.2265C86.5683 3.18446 86.5455 3.12744 86.5455 3.06798V2.54227C86.5455 2.48281 86.5683 2.42579 86.6089 2.38375C86.6495 2.34171 86.7045 2.31809 86.7619 2.31809H88.5137C88.5711 2.31809 88.6262 2.29447 88.6668 2.25243C88.7074 2.21038 88.7302 2.15336 88.7302 2.09391V1.49534C88.7302 1.43588 88.7074 1.37886 88.6668 1.33682C88.6262 1.29477 88.5711 1.27115 88.5137 1.27115H85.6033C85.5459 1.27115 85.4908 1.29477 85.4502 1.33682C85.4096 1.37886 85.3868 1.43588 85.3868 1.49534V6.19589C85.3868 6.25535 85.4096 6.31237 85.4502 6.35441C85.4908 6.39645 85.5459 6.42007 85.6033 6.42007H88.6404C88.6978 6.42007 88.7528 6.39645 88.7934 6.35441C88.834 6.31237 88.8568 6.25535 88.8568 6.19589V5.57939C88.8568 5.51993 88.834 5.46291 88.7934 5.42087C88.7528 5.37882 88.6978 5.35521 88.6404 5.35521H88.6409ZM93.3973 1.81872C93.1226 1.62024 92.8136 1.47847 92.487 1.40118C92.1467 1.31656 91.798 1.27386 91.448 1.27396H89.8661C89.8087 1.27396 89.7536 1.29758 89.7131 1.33962C89.6725 1.38166 89.6496 1.43868 89.6496 1.49814V6.19925C89.6496 6.25871 89.6725 6.31573 89.7131 6.35777C89.7536 6.39982 89.8087 6.42344 89.8661 6.42344H91.5037C91.8456 6.42332 92.1858 6.37313 92.5141 6.27435C92.8382 6.17933 93.1419 6.02147 93.4092 5.80918C93.6777 5.59302 93.8959 5.31722 94.0478 5.00212C94.2094 4.67518 94.2902 4.28623 94.2902 3.83525C94.2902 3.34952 94.2083 2.94244 94.0445 2.61401C93.8941 2.30044 93.6724 2.02943 93.3984 1.82433L93.3973 1.81872ZM92.9021 4.54927C92.8189 4.73288 92.6934 4.89259 92.5368 5.01445C92.3795 5.13447 92.2007 5.22078 92.0108 5.26833C91.8075 5.31973 91.5988 5.34533 91.3895 5.34456H91.0367C90.9793 5.34456 90.9242 5.32094 90.8836 5.27889C90.843 5.23685 90.8202 5.17983 90.8202 5.12037V2.55628C90.8202 2.49683 90.843 2.4398 90.8836 2.39776C90.9242 2.35572 90.9793 2.3321 91.0367 2.3321H91.4155C91.6176 2.33174 91.8191 2.3562 92.0157 2.40496C92.2026 2.44992 92.3791 2.53257 92.5352 2.6482C92.6915 2.76735 92.817 2.92464 92.9005 3.10609C92.9991 3.33323 93.0459 3.58078 93.0374 3.82964C93.0456 4.0774 92.9994 4.32386 92.9021 4.55039V4.54927ZM100.413 4.10595C100.32 4.00297 100.21 3.91795 100.088 3.85486C99.9636 3.78921 99.8298 3.74384 99.6917 3.72035V3.70634C99.9217 3.63324 100.126 3.49315 100.282 3.30281C100.431 3.11599 100.506 2.87985 100.506 2.59439C100.506 2.33285 100.455 2.11726 100.352 1.94763C100.252 1.78139 100.115 1.64287 99.952 1.5441C99.7822 1.44252 99.597 1.37128 99.4044 1.33337C99.2101 1.29299 99.0126 1.27234 98.8145 1.27171H97.0508C96.9934 1.27171 96.9383 1.29533 96.8977 1.33738C96.8571 1.37942 96.8343 1.43644 96.8343 1.4959V6.19589C96.8343 6.25535 96.8571 6.31237 96.8977 6.35441C96.9383 6.39645 96.9934 6.42007 97.0508 6.42007H98.815C99.0499 6.42055 99.2841 6.39499 99.5137 6.34385C99.7288 6.29779 99.9343 6.2128 100.121 6.09277C100.298 5.97731 100.445 5.81876 100.549 5.63095C100.663 5.41384 100.719 5.16906 100.711 4.92197C100.714 4.76534 100.686 4.60976 100.631 4.46408C100.58 4.33247 100.506 4.21152 100.413 4.10707V4.10595ZM97.9946 2.48062C97.9946 2.42116 98.0174 2.36414 98.058 2.3221C98.0986 2.28006 98.1536 2.25644 98.2111 2.25644H98.585C98.8376 2.25644 99.0282 2.29642 99.157 2.37638C99.2201 2.41532 99.2716 2.47159 99.3057 2.53896C99.3398 2.60633 99.3552 2.68216 99.3502 2.75805C99.3549 2.83832 99.3404 2.91855 99.3079 2.9916C99.2755 3.06464 99.226 3.12824 99.1641 3.17671C99.04 3.27161 98.8657 3.31888 98.6413 3.3185H98.2084C98.1509 3.3185 98.0959 3.29488 98.0553 3.25284C98.0147 3.2108 97.9919 3.15378 97.9919 3.09432L97.9946 2.48062ZM99.4336 5.11085C99.3834 5.18956 99.3144 5.25347 99.2333 5.29636C99.1472 5.34136 99.0548 5.372 98.9595 5.38715C98.8633 5.40369 98.7659 5.41213 98.6684 5.41237H98.21C98.1526 5.41237 98.0975 5.38875 98.0569 5.34671C98.0163 5.30467 97.9935 5.24765 97.9935 5.18819V4.45959C97.9935 4.40014 98.0163 4.34312 98.0569 4.30107C98.0975 4.25903 98.1526 4.23541 98.21 4.23541H98.6608C98.918 4.23541 99.1238 4.2767 99.2783 4.35927C99.4327 4.44185 99.5099 4.58962 99.5099 4.80259C99.5146 4.91117 99.4878 5.01871 99.433 5.11141L99.4336 5.11085ZM105.425 1.27228H104.549C104.511 1.27241 104.474 1.28284 104.441 1.30251C104.408 1.32218 104.381 1.3504 104.362 1.38437L103.55 2.84156C103.531 2.87527 103.504 2.90322 103.471 2.92265C103.438 2.94207 103.401 2.95229 103.364 2.95229C103.326 2.95229 103.289 2.94207 103.256 2.92265C103.223 2.90322 103.196 2.87527 103.177 2.84156L102.365 1.38437C102.346 1.3504 102.319 1.32218 102.286 1.30251C102.253 1.28284 102.216 1.27241 102.178 1.27228H101.248C101.209 1.27254 101.171 1.28357 101.138 1.3042C101.104 1.32484 101.077 1.35433 101.059 1.3896C101.04 1.42486 101.031 1.46461 101.033 1.5047C101.034 1.54479 101.046 1.58375 101.067 1.61752L102.682 4.18273C102.705 4.21891 102.717 4.26115 102.717 4.30435V6.19589C102.717 6.25535 102.74 6.31237 102.78 6.35441C102.821 6.39645 102.876 6.42007 102.933 6.42007H103.703C103.76 6.42007 103.815 6.39645 103.856 6.35441C103.897 6.31237 103.919 6.25535 103.919 6.19589V4.30547C103.919 4.26139 103.932 4.21831 103.956 4.18161L105.605 1.61864C105.626 1.58497 105.639 1.54599 105.64 1.50579C105.642 1.46559 105.633 1.42566 105.615 1.39017C105.597 1.35469 105.569 1.32497 105.536 1.30413C105.503 1.28328 105.465 1.27209 105.426 1.27171L105.425 1.27228Z" fill="white"/>
</g>
</g>
<defs>
<clipPath id="clip0">
<rect width="127" height="31" fill="white"/>
</clipPath>
</defs>
</svg>
