<svg width="118" height="30" viewBox="0 0 118 30" fill="none" xmlns="http://www.w3.org/2000/svg">
<path d="M103.016 0.241141C105.451 0.133998 107.725 0.776855 109.866 1.87507C110.428 2.16971 110.428 2.384 109.946 2.759C109.009 3.53578 109.036 3.53578 108.153 2.65185C106.976 1.47328 106.976 1.47328 105.772 2.54471C105.183 3.05364 104.595 3.56257 104.006 4.09828C103.685 4.39293 103.417 4.41971 103.123 4.04471C102.722 3.56257 102.24 3.10721 101.812 2.62507C101.598 2.384 101.437 2.33043 101.17 2.5715C99.3501 4.23221 97.5038 5.89293 95.6576 7.52685C95.2562 7.87507 95.3632 8.14293 95.6576 8.49114C96.7011 9.61614 97.7179 10.7947 98.7882 11.9197C99.1895 12.3483 99.2163 12.5894 98.7614 12.9911C97.7446 13.9019 97.7446 13.9286 98.6276 14.9733C99.4839 15.9911 100.367 16.9822 101.277 17.9733C101.651 18.3751 101.598 18.6429 101.196 18.9376C101.17 18.9644 101.17 18.9644 101.143 18.9911C100.126 19.9286 100.126 19.9286 101.089 21.0001C102.507 22.5804 103.926 24.134 105.317 25.7411C105.638 26.1161 105.879 26.1429 106.227 25.7947C107.056 25.0179 107.912 24.2679 108.742 23.4644C109.09 23.1429 109.304 23.1429 109.598 23.4911C110.347 24.3483 111.097 25.2054 111.846 26.0626C112.167 26.4108 112.167 26.6518 111.739 26.9733C105.585 31.5804 96.5941 30.5626 91.6707 24.5894C87.9782 20.1161 87.0417 15.0269 89.1823 9.61614C91.3229 4.17864 95.4703 1.12507 101.223 0.241141C101.33 0.214355 101.41 0.214355 101.517 0.214355C102.053 0.241141 102.534 0.241141 103.016 0.241141Z" fill="white"/>
<path d="M6.798 12.911C6.34313 14.652 5.8615 16.3931 5.40662 18.1342C5.24608 18.6967 5.11229 19.286 4.95175 19.8485C4.65741 20.9735 4.20254 21.2145 3.05197 20.9735C2.73088 20.8931 2.65061 20.6788 2.57034 20.411C1.74086 16.7681 0.911382 13.1253 0.081904 9.4824C-0.0251255 9.00026 0.162176 8.83955 0.617051 8.81276C1.87465 8.7324 1.95492 8.75919 2.22249 9.99133C2.70413 12.1878 3.159 14.411 3.61388 16.6074C3.66739 16.8217 3.72091 17.0628 3.90821 17.3038C3.98848 17.0628 4.06875 16.8485 4.12227 16.6074C4.68417 14.3038 5.27283 12.0003 5.80798 9.6699C5.94177 9.08062 6.18258 8.75919 6.85152 8.75919C7.46694 8.75919 7.70776 9.02705 7.8683 9.58955C8.45696 11.9735 9.09914 14.3306 9.71456 16.6878C9.76807 16.902 9.84834 17.1431 10.0356 17.3574C10.3032 15.9913 10.5708 14.6253 10.8384 13.2592C11.0792 12.027 11.32 10.7949 11.5608 9.53597C11.6143 9.24133 11.6143 8.86633 12.0157 8.81276C12.5508 8.7324 13.1127 8.62526 13.6211 8.89312C13.8887 9.02705 13.7014 9.37526 13.6479 9.61633C12.9522 12.6431 12.2833 15.6967 11.5876 18.7235C11.5073 19.0717 11.427 19.4199 11.3468 19.7681C11.0792 20.9199 11.0792 20.8931 9.90186 20.9199C9.3132 20.9199 9.07238 20.7056 8.93859 20.1431C8.29642 17.7056 7.62748 15.2949 6.95855 12.8574C6.90503 12.9378 6.85152 12.911 6.798 12.911Z" fill="white"/>
<path d="M41.5542 12.6964C40.5374 15.241 39.5206 17.7857 38.5574 20.3303C38.3165 20.9196 37.9419 21.0535 37.4068 20.9732C36.9519 20.8928 36.8984 20.491 36.7646 20.1964C35.8281 17.9196 34.9184 15.6696 34.0086 13.3928C33.9283 13.2053 33.8481 13.0178 33.741 12.7499C33.5537 12.991 33.634 13.2053 33.634 13.3928C33.634 15.6428 33.6072 17.9196 33.634 20.1696C33.634 20.7857 33.4735 21.0267 32.8313 21.0267C32.2159 21.0267 32.0018 20.8392 32.0018 20.1964C32.0286 16.6874 32.0286 13.1517 32.0018 9.6428C32.0018 9.05351 32.2159 8.86601 32.8045 8.83923C34.1424 8.83923 34.1424 8.81244 34.6508 10.0714C35.6408 12.5089 36.6041 14.9732 37.5941 17.4107C37.6744 17.6249 37.7814 17.8392 37.9419 18.2142C38.4771 16.7946 38.9855 15.5089 39.4671 14.2499C40.0558 12.6964 40.6444 11.1428 41.2598 9.58923C41.5007 8.94637 42.9991 8.54458 43.561 8.97315C43.7483 9.13387 43.7483 9.34815 43.7483 9.56244V20.3303C43.7483 20.8124 43.5342 21.0267 43.0526 20.9999H42.7047C41.7682 20.9999 41.7415 20.9732 41.7415 20.0624V13.4196V12.7232C41.6345 12.6964 41.6077 12.6964 41.5542 12.6964Z" fill="white"/>
<path d="M22.8775 14.3575V9.08067C22.8775 8.54496 24.1351 7.84853 24.6168 8.11639C24.8576 8.25031 24.7773 8.49139 24.7773 8.70567C24.7773 9.85746 24.8041 10.9825 24.7773 12.1342C24.7773 12.5628 24.8576 12.7771 25.3392 12.5628C25.7138 12.4021 26.1419 12.2682 26.57 12.2414C28.8444 12.0807 30.102 13.3128 30.3161 15.8842C30.3696 16.661 30.2893 17.411 30.1288 18.161C29.5936 20.4646 27.8009 21.536 25.2322 21.1075C22.9846 20.7325 22.9043 20.6253 22.9043 18.3753C22.8775 17.036 22.8775 15.6967 22.8775 14.3575ZM24.7773 16.9021V19.045C24.7773 19.3128 24.7773 19.5539 25.0716 19.7146C26.1954 20.2771 27.6671 19.7146 28.0685 18.5092C28.3895 17.5717 28.3895 16.6075 28.2825 15.6164C28.0952 13.8485 26.7038 13.1521 25.1519 14.0092C24.8576 14.17 24.7505 14.3842 24.7505 14.7057C24.7773 15.4289 24.7773 16.1521 24.7773 16.9021Z" fill="white"/>
<path d="M45.3805 16.6608C45.3537 16.1251 45.434 15.6161 45.5678 15.1072C46.0494 13.2054 47.4141 12.2144 49.4476 12.2144C51.2939 12.2411 52.605 13.3126 53.0331 15.1608C53.3274 16.4465 53.2739 17.7054 52.7923 18.9376C52.2036 20.384 50.9193 21.1876 49.2336 21.1608C47.5211 21.134 46.317 20.3036 45.7551 18.8036C45.4875 18.134 45.3537 17.4108 45.3805 16.6608ZM51.2404 16.7411C51.2939 16.0179 51.2136 15.3215 50.8925 14.6519C50.5982 14.009 50.0898 13.6072 49.3406 13.5804C48.5914 13.5536 48.0562 13.9286 47.7619 14.5715C47.093 15.9644 47.1465 17.384 47.6816 18.7769C47.976 19.5001 48.5646 19.8483 49.3673 19.8215C50.1701 19.7947 50.6249 19.3661 50.946 18.6965C51.2136 18.0536 51.2671 17.4108 51.2404 16.7411Z" fill="white"/>
<path d="M67.8567 17.1163H65.7161C65.288 17.1163 65.1274 17.2502 65.1809 17.7056C65.395 19.3931 66.6793 20.1966 68.5524 19.7145C68.9805 19.6073 69.4086 19.4198 69.81 19.2323C70.2648 18.9913 70.3719 19.1788 70.3986 19.6073C70.4254 20.1966 70.2113 20.5448 69.6762 20.7323C68.5256 21.1609 67.375 21.2681 66.171 21.0538C64.7261 20.7859 63.8698 19.8752 63.4952 18.5091C63.1206 17.1698 63.1474 15.8306 63.629 14.5181C64.2444 12.8573 65.6893 12.0538 67.6961 12.2145C69.1678 12.3216 70.1846 13.3931 70.5057 15.0806C70.8803 17.0895 70.8535 17.1163 68.8467 17.1163C68.5256 17.1163 68.1778 17.1163 67.8567 17.1163ZM67.0272 15.8038H68.3651C68.7129 15.8038 68.7932 15.6431 68.7664 15.3216C68.7129 14.4645 68.0707 13.6609 67.375 13.5538C66.385 13.4198 65.7161 13.8752 65.3682 14.9198C65.1274 15.6163 65.2344 15.777 65.9569 15.777C66.3315 15.8038 66.6793 15.8038 67.0272 15.8038Z" fill="white"/>
<path d="M18.7569 17.1162H16.6163C16.1615 17.1162 16.0544 17.3305 16.1079 17.7591C16.322 19.4198 17.6063 20.1966 19.4526 19.7412C19.8005 19.6609 20.1215 19.4734 20.4694 19.393C20.737 19.3395 21.0581 18.8037 21.2721 19.3395C21.4327 19.768 21.5129 20.3573 20.8975 20.6252C20.0145 21.027 19.1048 21.2145 18.1415 21.1877C15.7868 21.1073 14.5293 19.9287 14.2617 17.518C14.1546 16.6877 14.2349 15.8573 14.449 15.0537C15.0376 12.9377 16.9374 11.8127 19.078 12.3484C20.5764 12.7234 21.3256 13.7948 21.4862 15.2145C21.7002 17.277 22.0481 17.1698 19.8807 17.1698C19.4526 17.1162 19.1048 17.1162 18.7569 17.1162ZM17.981 13.5537C17.0444 13.5537 16.1347 14.5448 16.1882 15.4823C16.215 15.7502 16.322 15.8037 16.5361 15.8037H19.2921C19.5864 15.8037 19.6934 15.643 19.7202 15.3484C19.7469 14.4109 18.8907 13.527 17.981 13.5537Z" fill="white"/>
<path d="M75.1882 18.4287C75.7233 16.7144 76.2585 14.9733 76.7936 13.259C77.0077 12.5894 78.1048 12.1876 78.6934 12.5358C79.0145 12.7501 78.8004 13.0179 78.7202 13.2322C78.0245 15.2144 77.302 17.1697 76.5796 19.1251C76.1515 20.3304 75.7769 21.5626 75.1347 22.6876C74.5995 23.6251 73.8771 24.2947 72.78 24.4822C72.4857 24.5358 72.0308 24.6429 71.9773 24.1608C71.9238 23.7322 71.7097 23.1697 72.4054 22.9822C73.1279 22.7947 73.556 22.259 73.9038 21.6429C74.1447 21.2144 74.1714 20.8126 73.9841 20.3572C73.0744 18.0537 72.1914 15.7501 71.3084 13.4465C70.9338 12.509 70.9873 12.509 72.0041 12.4554C72.7533 12.4019 73.1011 12.6965 73.3152 13.3929C73.8236 15.0804 74.439 16.7144 75.0277 18.3751C75.0812 18.4287 75.1347 18.4287 75.1882 18.4287Z" fill="white"/>
<path d="M54.6653 17.1163C54.6653 16.1252 54.6921 15.1073 54.6653 14.1162C54.6653 13.6609 54.7991 13.3662 55.2272 13.152C56.6453 12.402 58.1705 12.1073 59.776 12.2412C61.0336 12.3484 61.8095 13.0984 61.8363 14.3573C61.8898 16.3395 61.8363 18.3484 61.863 20.3305C61.863 21.0538 61.4082 20.9734 60.9533 20.9734C60.4984 20.9734 59.9633 21.0805 59.9633 20.3305C59.99 18.6698 59.9633 17.0091 59.9633 15.3484C59.9633 13.9555 59.3478 13.4734 57.9565 13.768C56.6453 14.0359 56.5651 14.1162 56.5651 15.4287V20.0627C56.5651 20.9466 56.5383 20.9734 55.6286 20.9734C54.7188 20.9734 54.6653 20.9466 54.6653 20.0895C54.6385 19.0984 54.6653 18.1073 54.6653 17.1163Z" fill="white"/>
<path d="M101.009 11.5984C100.768 11.5449 100.634 11.3841 100.527 11.2502C99.6979 10.3395 98.8952 9.402 98.0657 8.49129C97.7982 8.19665 97.7982 7.98236 98.0925 7.7145C99.0023 6.91093 99.8853 6.10736 100.768 5.277C101.116 4.95558 101.41 4.87522 101.785 5.30379C102.588 6.24129 103.417 7.152 104.247 8.06272C104.461 8.30379 104.541 8.51807 104.247 8.78593C103.283 9.64307 102.347 10.5002 101.384 11.3574C101.277 11.4645 101.116 11.5449 101.009 11.5984Z" fill="white"/>
<path d="M106.976 14.4642C106.869 14.5981 106.789 14.732 106.655 14.8392C105.718 15.6963 104.782 16.5267 103.872 17.357C103.578 17.6249 103.364 17.6249 103.123 17.3302C102.293 16.3927 101.464 15.4552 100.608 14.5177C100.313 14.1963 100.34 13.982 100.634 13.6874C101.598 12.8302 102.534 11.9731 103.498 11.116C103.658 10.9552 103.845 10.8481 104.059 11.0624C104.996 12.107 105.932 13.1249 106.869 14.1695C106.896 14.2499 106.922 14.357 106.976 14.4642Z" fill="white"/>
<path d="M106.066 23.6518C105.825 23.6786 105.745 23.5178 105.638 23.4107C104.782 22.4464 103.926 21.5089 103.069 20.5446C102.829 20.2768 102.802 20.0893 103.096 19.8214C104.059 18.9643 105.049 18.0803 105.986 17.1964C106.28 16.9286 106.468 17.0089 106.708 17.2768C107.565 18.2411 108.421 19.1786 109.277 20.1161C109.491 20.3303 109.571 20.5446 109.304 20.7857C108.287 21.6964 107.297 22.5803 106.28 23.4911C106.2 23.5714 106.12 23.5982 106.066 23.6518Z" fill="white"/>
<path d="M111.337 19.8753C111.15 19.8753 111.043 19.7949 110.963 19.6878C110.347 18.9914 109.759 18.2949 109.117 17.6253C108.876 17.3574 108.902 17.1432 109.17 16.9021C109.839 16.3396 110.481 15.7503 111.123 15.161C111.418 14.8664 111.632 14.9199 111.899 15.1878C112.488 15.8574 113.103 16.5271 113.719 17.1967C113.879 17.3574 113.986 17.5449 113.772 17.7592C113.023 18.4557 112.274 19.1253 111.525 19.8217C111.471 19.8485 111.391 19.8753 111.337 19.8753Z" fill="white"/>
<path d="M113.585 25.2056C113.478 25.1252 113.344 25.0717 113.264 24.9645C112.648 24.2949 112.087 23.5984 111.471 22.9556C111.23 22.6877 111.23 22.4735 111.498 22.2324C112.14 21.6431 112.809 21.0538 113.451 20.4645C113.746 20.1967 113.986 20.2235 114.227 20.5181C114.816 21.1877 115.431 21.8574 116.047 22.527C116.207 22.6877 116.314 22.902 116.1 23.0895C115.351 23.7859 114.575 24.4556 113.826 25.1252C113.746 25.152 113.665 25.1788 113.585 25.2056Z" fill="white"/>
<path d="M109.224 6.64314C109.224 6.83064 109.117 6.91099 109.009 7.01814C108.341 7.60742 107.672 8.22349 107.003 8.83956C106.735 9.08064 106.521 9.08064 106.28 8.81278C105.665 8.11635 105.049 7.44671 104.407 6.77706C104.193 6.56278 104.22 6.37528 104.434 6.16099C105.13 5.51814 105.825 4.87528 106.548 4.25921C106.708 4.09849 106.922 4.01814 107.11 4.20564C107.779 4.95564 108.474 5.73242 109.143 6.48242C109.17 6.50921 109.197 6.58956 109.224 6.64314Z" fill="white"/>
<path d="M109.25 9.34814C109.491 9.37493 109.571 9.50886 109.678 9.64279C110.24 10.2856 110.802 10.9285 111.391 11.5446C111.632 11.8124 111.739 12.0267 111.418 12.3214C110.749 12.9106 110.053 13.4999 109.411 14.116C109.143 14.3571 108.956 14.3571 108.715 14.0892C108.127 13.4196 107.511 12.7499 106.896 12.0803C106.708 11.8928 106.628 11.6785 106.842 11.4642C107.565 10.7946 108.314 10.1249 109.036 9.45529C109.117 9.40172 109.197 9.37493 109.25 9.34814Z" fill="white"/>
<path d="M117.813 15.7499C117.759 16.0178 117.545 16.1785 117.385 16.3392C116.047 17.5446 116.073 17.5178 114.896 16.1785C114.522 15.7231 114.495 15.4821 114.95 15.0803C116.288 13.9017 116.261 13.9017 117.438 15.2142C117.599 15.3749 117.786 15.5356 117.813 15.7499Z" fill="white"/>
<path d="M113.371 5.35714C113.264 5.49107 113.21 5.59821 113.103 5.70535C112.836 5.97321 112.541 6.21428 112.274 6.48214C111.819 6.96428 111.498 6.96428 111.043 6.42857C109.946 5.16964 109.919 5.22321 111.15 4.04464C111.605 3.58928 111.953 3.5625 112.354 4.09821C112.595 4.41964 112.889 4.6875 113.157 5.00893C113.237 5.08928 113.291 5.22321 113.371 5.35714Z" fill="white"/>
<path d="M114.04 8.86621C114.334 8.94657 114.468 9.21443 114.682 9.42871C115.752 10.5537 115.752 10.5537 114.655 11.5984C113.906 12.2948 113.906 12.2948 113.184 11.5448C112.113 10.393 112.113 10.393 113.291 9.40192C113.505 9.18764 113.719 8.91978 114.04 8.86621Z" fill="white"/>
</svg>
